<svg version="1.1" xmlns="http://www.w3.org/2000/svg" xmlns:xlink="http://www.w3.org/1999/xlink" width="88.58024" height="96.41269" viewBox="0,0,88.58024,96.41269"><g transform="translate(-205.31976,-136.5)"><g data-paper-data="{&quot;isPaintingLayer&quot;:true}" fill-rule="nonzero" stroke-miterlimit="10" stroke-dasharray="" stroke-dashoffset="0" style="mix-blend-mode: normal"><path d="M260,146.3l8,-6.1l1.4,11.5c0,0 5.6,5.3 7.1,8.7c2.4,5.6 2,9.9 2,9.9c0,0 6.5,2.9 7.1,8.5c0.6,5.6 -5,15.4 -23.5,16.8c-18.5,1.4 -32.3,-5.3 -37.9,-17.2c-5.4,-11.7 6.9,-23.5 6.2,-22.8l0.1,-18.4l11.5,9.7c0,0 4.5,-1.2 9.1,-0.8c1.7,0.1 4.7,0.7 6.2,1z" fill="#ff0000" stroke="#8e5322" stroke-width="1.4" stroke-linecap="round" stroke-linejoin="round"/><g stroke="#8e5322" stroke-width="1.4" stroke-linecap="round" stroke-linejoin="round"><g><path d="M225.2,198.5c-2.1,-6.8 -3,-4.3 -1.9,-6.9c3.9,-3.3 12.7,-2.5 18.3,0.1l2.2,7.7" fill="#fa0000"/><path d="M230.7,196.6" fill="#faa51f"/><path d="M233.7,198.6" fill="none"/><path d="M230,196.9l5.6,0.3" fill="#faa51f"/><path d="M229.2,197.1l-0.3,-1.9" fill="none"/></g><path d="M229,197.6c0.8,5.8 -2.8,8.2 -4.4,7.9c-3.9,-0.9 -4.9,-5.7 -1.5,-13.8" fill="#fa0000"/></g><path d="M236.4,210c0.7,0.7 2.1,1.8 -0.9,4.8c-3,3 -10,2.3 -10.8,2.1c-3,-0.5 -6.8,-1.3 -10.7,-3.6c-11.2,-6.5 -8.6,-19.8 -4.3,-21.1c4.3,-1.3 4.3,7.2 8.7,13.3c1.9,2.7 4.6,4.2 6.9,5.1c3.3,1.4 10.4,-1.2 11.1,-0.6z" fill="#fa1e1e" stroke="none" stroke-width="1" stroke-linecap="butt" stroke-linejoin="miter"/><path d="M213.9,196.3c1.2,2.8 3.4,7.7 3.4,7.7c0,0 -3.9,-1.5 -6.4,-0.1c-2.5,1.4 -1.1,5.9 -2.4,4.5c-0.9,-1.5 -2.4,-4.1 -2.7,-7.8c-0.2,-3.7 2,-8.2 4.1,-8.5c2.2,-0.1 3.1,1.7 4,4.2z" fill="#ffffff" stroke="none" stroke-width="1" stroke-linecap="butt" stroke-linejoin="miter"/><path d="M236.4,210c0.7,0.7 2.1,1.8 -0.9,4.8c-3,3 -10,2.3 -10.8,2.1c-3,-0.5 -6.8,-1.3 -10.7,-3.6c-11.2,-6.5 -8.6,-19.8 -4.3,-21.1c4.3,-1.3 4.3,7.2 8.7,13.3c1.9,2.7 4.6,4.2 6.9,5.1c3.3,1.4 10.4,-1.2 11.1,-0.6z" fill="none" stroke="#8e5322" stroke-width="1.4" stroke-linecap="round" stroke-linejoin="round"/><g stroke="#8e5322" stroke-width="1.4" stroke-linecap="round" stroke-linejoin="round"><path d="M247.2,209.8c0,0 -0.7,5.1 2.3,13.4c1.3,3.6 7,-2.4 8.5,4.9c0.4,2.1 -8.6,4.3 -10.8,4.1c-2,-0.2 -2.7,-0.7 -2.9,-2.7c-0.8,-7.3 -9.5,-17.1 -9.5,-17.1" fill="#fa0000"/><path d="M249.2,225.2c1.4,-0.7 2.7,-0.8 2.7,-0.8" fill="#faa51f"/></g><path d="M239.3,207.5" fill="#faa51f" stroke="#8e5322" stroke-width="1.4" stroke-linecap="round" stroke-linejoin="round"/><path d="M251.4,201.8c-1.9,6.4 -3,16.3 -14.4,13c-11.4,-3.3 -8,-11.7 -5.9,-18.1c1.8,-5.4 7.2,-6.8 12.8,-5.1c6.3,2 9.4,3.8 7.5,10.2z" fill="#fa0000" stroke="#8e5322" stroke-width="1.4" stroke-linecap="round" stroke-linejoin="round"/><path d="M249.1,203.9c-1.2,4 -2.1,10.3 -8.2,8.5c-6.1,-1.8 -4.1,-7.1 -2.9,-11.2c1.2,-4 3.6,-4.6 7.2,-3.5c3.5,1.1 5.1,2.2 3.9,6.2z" fill="#ffffff" stroke="none" stroke-width="1" stroke-linecap="butt" stroke-linejoin="miter"/><g stroke="#8e5322" stroke-width="1.4" stroke-linecap="round" stroke-linejoin="round"><path d="M240.4,215.1c-9.6,1.1 -12,6.7 -14.2,5.8c-8.2,-6.6 -5.9,4.8 -11.8,-0.8c-1.6,-1.9 1.4,-5.6 2.8,-7.3c3,-3.6 2.4,-2.4 9.2,0.7c1.2,-0.6 5.1,-4.9 5.1,-4.9" fill="#fa0000"/><path d="M222.9,218.7c-0.5,-0.4 -2,-0.9 -2.5,-1.4" fill="#faa51f"/></g><path d="M278.1,170.7c0,0 6.4,2.4 6.9,8c0.8,5.6 -5.4,15.3 -22.8,16.3c-4,0.2 -7.5,0.5 -13,-0.2c-8.5,-1 -17,-7.4 -15,-18.3c1.2,-6.3 9.2,-4.8 9.2,-4.8l7.3,-0.9c0,0 6.8,2.5 11.1,2.1c4.3,-0.4 4.7,-3.7 4.7,-3.7l9.1,-1.5l2.1,2.3z" fill="#ffffff" stroke="none" stroke-width="1" stroke-linecap="butt" stroke-linejoin="miter"/><path d="M293.2,172.6c0,0 -1.9,1.5 -4.5,2.3c-2.3,0.6 -6.7,1.1 -6.7,1.1" fill="none" stroke="#8e5322" stroke-width="1.4" stroke-linecap="round" stroke-linejoin="round"/><path d="M291.7,183.4c0,0 -1.8,0.2 -4.5,-0.2c-2.8,-0.2 -5.4,-1.4 -5.4,-1.4" fill="none" stroke="#8e5322" stroke-width="1.4" stroke-linecap="round" stroke-linejoin="round"/><path d="M239.9,145.1l4.7,4.2" fill="none" stroke="#8e5322" stroke-width="1.4" stroke-linecap="round" stroke-linejoin="round"/><path d="M224.1,174c0,0 -3.5,-0.2 -5.3,-0.4c-1.7,-0.2 -5.6,-1.3 -5.6,-1.3" fill="none" stroke="#8e5322" stroke-width="1.4" stroke-linecap="round" stroke-linejoin="round"/><path d="M214.3,162.2c0,0 2.1,0.9 5.6,3.5c3.1,2.3 5,4.5 5,4.5" fill="none" stroke="#8e5322" stroke-width="1.4" stroke-linecap="round" stroke-linejoin="round"/><path d="M274.4,160.2c2.3,4.6 1.7,9.6 -1.1,10.9c-2.9,1.5 -7.1,-1.2 -9.4,-5.9c-2.3,-4.6 -1.7,-9.6 1.1,-10.9c2.9,-1.4 7.1,1.2 9.4,5.9z" fill="#ffffff" stroke="#8e5322" stroke-width="1.4" stroke-linecap="round" stroke-linejoin="round"/><path d="M273.8,163.7c0.2,1 -0.4,2 -1.5,2.1c-0.9,0.2 -1.8,-0.5 -2,-1.7c-0.2,-1 0.4,-2 1.5,-2.1c1,0 1.9,0.7 2,1.7" fill="#414142" stroke="none" stroke-width="1" stroke-linecap="butt" stroke-linejoin="miter"/><path d="M251,160.4c2.3,4.6 1.3,9.7 -2.1,11.4c-3.4,1.7 -8.1,-0.7 -10.3,-5.4c-2.3,-4.6 -1.3,-9.7 2.1,-11.4c3.4,-1.6 8,0.8 10.3,5.4z" fill="#ffffff" stroke="#8e5322" stroke-width="1.4" stroke-linecap="round" stroke-linejoin="round"/><path d="M250.2,164.2c-0.1,1 -1,1.8 -1.9,1.7c-1,-0.1 -1.6,-1 -1.5,-2.1c0.1,-1 1,-1.8 1.9,-1.7c0.9,0.1 1.6,1 1.5,2.1" fill="#414142" stroke="none" stroke-width="1" stroke-linecap="butt" stroke-linejoin="miter"/><path d="M260.7,171.6c1.7,0 4.2,-1 4.2,0.9c-0.1,0.8 -2.1,3.9 -3.9,3.8c-2,-0.1 -5.2,-3.1 -4.9,-4.5c0.3,-1.6 3.1,-0.2 4.6,-0.2z" fill="#5f4b43" stroke="#8e5322" stroke-width="1.4" stroke-linecap="round" stroke-linejoin="round"/><path d="M257.5,187.9c-5.5,0.4 -7.7,-2.2 -7.7,-2.2" fill="#ffffff" stroke="#8e5322" stroke-width="1.4" stroke-linecap="round" stroke-linejoin="round"/><g stroke="#8e5322" stroke-width="1.4" stroke-linecap="round" stroke-linejoin="round"><g><path d="M244.9,195.6c-0.1,0.2 11.9,10 11.6,10.1c-2,0.4 -4.4,1.8 -5.3,1.7c-4.1,-0.5 -9.4,-3.4 -12.7,-7.5l-0.5,-1.3" fill="#fa0000"/><path d="M250.5,200.1" fill="#faa51f"/><path d="M248.7,197" fill="none"/><path d="M246.4,197.4l4.1,2.7" fill="#faa51f"/></g><path d="M247.7,198.2c-1,-0.5 2.1,2.4 3,2.2c0.8,-0.1 2.5,-0.8 3.1,-1.4c3.8,-3.6 7.7,-2.1 8.4,-0.6c1.6,3.7 -2.4,6.9 -10.7,9.1" fill="#fa0000"/></g></g></g></svg>