<svg version="1.1" xmlns="http://www.w3.org/2000/svg" xmlns:xlink="http://www.w3.org/1999/xlink" width="82.17898" height="86.18199" viewBox="0,0,82.17898,86.18199"><g transform="translate(-198.91052,-136.90901)"><g data-paper-data="{&quot;isPaintingLayer&quot;:true}" stroke-miterlimit="10" stroke-dasharray="" stroke-dashoffset="0" style="mix-blend-mode: normal"><g fill-rule="evenodd"><path d="M226.89355,197.81139c0.68934,0.34467 2.15418,1.12017 0.08617,4.04985c-2.06801,2.92968 -8.01354,3.53285 -8.70288,3.53285c-2.67118,0.08617 -5.94553,0.08617 -9.56455,-1.12017c-10.51239,-3.44668 -10.59856,-14.73458 -7.23804,-16.54409c3.27435,-1.80951 4.73919,5.17003 9.47838,9.39222c2.06801,1.89568 4.56686,2.58501 6.63487,3.01585c2.92968,0.517 8.53054,-2.75735 9.30605,-2.32651z" fill="#7300ff" stroke="#001026" stroke-width="1.2" stroke-linecap="round" stroke-linejoin="round"/><path d="M205.5241,190.83185c1.37867,2.32651 4.04985,5.60086 4.04985,5.60086c0,0 -3.18818,-0.7755 -4.99769,0.68934c-1.46484,1.12017 -1.12017,3.01585 -0.94784,3.61902c-1.12017,-1.12017 -2.49885,-2.67118 -3.36052,-5.68703c-0.86167,-3.01585 0,-6.63487 1.72334,-7.15187c1.72334,-0.34467 2.15418,0.94784 3.53285,2.92968z" fill="#ffffff" stroke="none" stroke-width="1" stroke-linecap="butt" stroke-linejoin="miter"/></g><path d="M231.20191,206.77277c-1.55101,1.03401 -6.89337,4.82536 -13.70057,6.97954l-0.34467,0.08617c-0.34467,0.08617 -0.517,0.517 -0.34467,0.86167c1.46484,2.06801 4.13602,6.20403 -0.60317,7.66887c-4.56686,1.46484 -13.0974,-10.68472 -9.47838,-13.87291c1.63718,-1.20634 3.10202,-0.60317 3.87752,-0.2585c0.43084,0.17233 0.86167,0.17233 1.29251,0.08617c1.03401,-0.34467 2.92968,-1.03401 4.39452,-1.80951c3.70519,-1.89568 4.56686,-2.67118 6.2902,-3.96369c1.72334,-1.29251 5.68703,-4.48069 8.87521,-1.72334c2.75735,2.32651 1.20634,4.91153 -0.2585,5.94553z" fill="#7300ff" fill-rule="evenodd" stroke="#001026" stroke-width="1.2" stroke-linecap="round" stroke-linejoin="round"/><path d="M239.40961,193.39794c0.65698,-2.14185 3.88517,-3.58516 5.7443,-4.45697c1.85913,-0.87181 10.1392,-3.64968 17.72117,1.46998c3.13681,2.31411 9.96586,9.45606 4.76749,10.83582c-5.19835,1.37976 -8.16315,-3.22495 -10.54218,-5.8474c-1.96989,-2.22656 -11.18461,1.4363 -11.89187,1.57988c-2.44004,0.6035 -6.38519,-1.23751 -5.79892,-3.58131z" data-paper-data="{&quot;index&quot;:null}" fill="#7300ff" fill-rule="evenodd" stroke="#001026" stroke-width="1.2" stroke-linecap="round" stroke-linejoin="round"/><g fill-rule="evenodd"><path d="M244.98864,208.92694c1.80951,1.63718 5.7732,4.99769 5.7732,4.99769c0,0 12.3219,-2.15418 12.3219,4.04985c0,3.70519 -6.20403,4.56686 -14.56224,3.79135c-0.517,-0.08617 -1.03401,-0.2585 -1.46484,-0.60317c-1.89568,-1.63718 -7.32421,-6.46253 -10.77089,-9.82305c-5.08386,-4.99769 -9.30605,-8.27204 -9.30605,-8.27204c-7.32421,-7.15187 -1.37867,-10.16772 0.94784,-14.30374c2.15418,-3.53285 3.10202,-2.84351 8.27204,-1.80951c2.92968,0.43084 4.65302,0.68934 6.5487,0.60317c2.84351,-0.08617 2.32651,4.04985 1.55101,6.20403c0,0 -1.20634,3.18818 -2.32651,4.82536c-1.37867,1.98184 -2.41268,3.27435 -3.44668,4.04985z" fill="#7300ff" stroke="#001026" stroke-width="1.2" stroke-linecap="round" stroke-linejoin="round"/><path d="M237.75061,202.55058c0,0 -1.29251,-1.03401 -2.67118,-2.32651c-1.72334,-1.55101 -3.44668,-2.84351 -1.72334,-5.5147c1.55101,-2.06801 3.01585,-4.82536 6.89337,-2.32651c3.70519,2.32651 2.06801,4.48069 2.06801,4.48069c-1.89568,3.87752 -4.56686,5.68703 -4.56686,5.68703z" fill="#ffffff" stroke="none" stroke-width="1" stroke-linecap="butt" stroke-linejoin="miter"/></g><g fill-rule="evenodd"><path d="M251.88201,137.40824c0.2585,-0.17233 0.68934,-0.08617 0.7755,0.2585l2.24035,9.21988c0,0 5.5147,4.04985 7.15187,6.89337c2.75735,4.73919 2.84351,8.61671 2.84351,8.61671c0,0 6.11787,1.80951 7.15187,6.72104c1.03401,4.91153 -2.75735,14.21757 -18.95677,17.40576c-16.19942,3.18818 -29.21065,-1.20634 -35.32852,-11.02939c-6.11787,-9.82305 3.53285,-21.54178 3.01585,-20.85244l-1.80951,-15.42391c-0.08617,-0.34467 0.34467,-0.60317 0.68934,-0.43084l10.42622,6.8072c0,0 3.87752,-1.46484 7.92738,-1.63718c2.41268,-0.17233 4.48069,0 6.46253,0.34467z" fill="#7300ff" stroke="#001026" stroke-width="1.2" stroke-linecap="butt" stroke-linejoin="miter"/><path d="M264.63475,162.74137c0,0 5.94553,1.55101 6.97954,6.46253c1.03401,4.91153 -3.10202,13.78674 -19.1291,16.88876c-20.85244,4.30836 -30.76166,-8.09971 -24.98846,-17.23342c3.53222,-5.64102 8.95706,-5.23976 14.02677,-3.92938c3.2164,0.83136 6.08411,5.33353 8.89369,5.13285c2.51812,-0.17487 4.12774,-4.27221 5.64126,-5.28711c2.21541,-1.48556 4.2249,-3.00689 8.57632,-2.03422z" fill="#ffffff" stroke="none" stroke-width="1" stroke-linecap="butt" stroke-linejoin="miter"/><path d="M237.49211,171.96125c0,-0.34467 0.34467,-0.60317 0.68934,-0.517c1.63718,0.60317 6.2902,1.98184 11.46023,2.32651c4.65302,0.2585 7.41037,0 8.70288,-0.2585c0.43084,-0.08617 0.7755,0.34467 0.60317,0.7755c-0.7755,2.32651 -4.04985,8.78905 -13.0974,8.27204c-7.84121,-0.86167 -8.61671,-6.37637 -8.35821,-10.59856z" fill="#970000" stroke="#001026" stroke-width="1.2" stroke-linecap="round" stroke-linejoin="round"/><path d="M280.4895,163.68921c-4.04985,3.27435 -10.25389,3.36052 -10.25389,3.36052" fill="none" stroke="#001026" stroke-width="1.2" stroke-linecap="round" stroke-linejoin="round"/><path d="M279.36933,173.33992c-5.42853,0.43084 -8.78905,-1.20634 -8.78905,-1.20634" fill="none" stroke="#001026" stroke-width="1.2" stroke-linecap="round" stroke-linejoin="round"/><path d="M211.2973,163.43071c0,0 7.41037,2.41268 10.42622,5.08386" fill="none" stroke="#001026" stroke-width="1.2" stroke-linecap="round" stroke-linejoin="round"/><path d="M221.98202,171.53041c-3.70519,1.46484 -10.08155,0.517 -10.08155,0.517" fill="none" stroke="#001026" stroke-width="1.2" stroke-linecap="round" stroke-linejoin="round"/><g fill="#da0000" stroke="#001026" stroke-width="1.2" stroke-linecap="round" stroke-linejoin="round"><path d="M260.24023,154.64166c2.49885,3.87752 2.58501,8.27204 0.17233,9.82305c-2.41268,1.55101 -6.37637,-0.2585 -8.96138,-4.13602c-2.49885,-3.87752 -2.58501,-8.27204 -0.17233,-9.82305c2.41268,-1.63718 6.46253,0.2585 8.96138,4.13602z"/></g><g fill="#da0000" stroke="#001026" stroke-width="1.2" stroke-linecap="round" stroke-linejoin="round"><path d="M238.87078,157.05434c2.58501,3.79135 2.41268,8.44438 0.08617,10.08155c-2.84351,1.63718 -6.63487,0.43084 -9.21988,-3.36052c-2.67118,-3.79135 -2.84351,-8.70288 -0.17233,-10.59856c2.67118,-1.98184 6.72104,0.08617 9.30605,3.87752z"/></g></g><path d="M235.08721,160.61972c1.09298,2.1507 0.63403,4.5777 -1.02507,5.42085c-1.65912,0.84316 -3.89012,-0.21682 -4.98309,-2.36751c-1.09298,-2.1507 -0.63403,-4.5777 1.02507,-5.42084c1.65912,-0.84316 3.89012,0.21681 4.98309,2.36751z" fill="#001026" fill-rule="nonzero" stroke="none" stroke-width="0" stroke-linecap="butt" stroke-linejoin="miter"/><path d="M261.47878,157.32456c0.96649,1.90181 0.56066,4.04794 -0.90645,4.79351c-1.46711,0.74558 -3.43994,-0.19172 -4.40642,-2.09353c-0.96649,-1.90181 -0.56066,-4.04794 0.90644,-4.79351c1.46711,-0.74558 3.43994,0.19172 4.40642,2.09353z" fill="#001026" fill-rule="nonzero" stroke="none" stroke-width="0" stroke-linecap="butt" stroke-linejoin="miter"/><path d="M223.70366,163.25949c0.19961,1.06381 0.31706,2.15159 0.19004,3.3222c-0.20408,1.8807 -2.6233,3.95193 -2.6233,0.95876c0,-2.33121 -0.89792,-3.23684 -1.36162,-5.38512c-0.37538,-1.73909 1.11162,-4.06588 1.11162,-5.98988c0,-3.76446 -0.875,-7.2009 -0.875,-11c0,-0.15474 -0.0271,-0.35832 -0.06997,-0.59549c-0.15012,-0.08176 -0.2537,-0.23821 -0.26081,-0.41944l-0.0437,-0.96239l0.01379,-0.00063c-0.23489,-1.12369 -0.43018,-2.35985 -0.02787,-2.95684c-0.0038,-0.00508 -0.00762,-0.01015 -0.01144,-0.01521c0,0 -0.3,-0.4 0.1,-0.7c0.4,-0.3 0.7,0.1 0.7,0.1c0.06532,0.08765 0.12734,0.17657 0.18625,0.26667c0.20069,0.05317 0.39217,0.16689 0.56973,0.30814c0.13599,0.04461 0.24625,0.14597 0.3028,0.27607c0.11022,0.11241 0.21243,0.22855 0.30505,0.33747c0.32086,-0.06949 0.47656,0.22525 0.53014,0.69566c0.08931,0.15322 0.16605,0.31567 0.23189,0.48556c1.72203,0.73966 3.44915,3.068 5.27341,3.43285c0.99076,0.01917 1.90257,1.00817 2.83585,0.76094c2.88469,-0.76414 5.12819,-2.14657 8.17597,-1.38463c1.5315,-0.01307 4.21309,0.73779 5.53079,0.27191c0.74382,-0.26298 1.18575,-1.73908 1.63311,-2.32566c0.67652,-0.88705 2.00758,-1.49805 3.01213,-2.00033c0.64068,-0.48191 1.42651,-1.01052 1.78769,-1.73553l0.11257,-0.45026c0.05053,-0.22266 0.24966,-0.38888 0.48761,-0.38888c0.16566,0 0.31251,0.08057 0.40349,0.20466l0.37151,0.49534l-0.16528,0.12396c0.99495,1.70406 -0.41865,3.69789 0.91214,5.37189c1.08177,1.36076 3.09176,2.78821 3.3074,4.51307c-1.3,0.81728 -2.63017,0.24274 -3.95929,0.97695c-2.04076,1.12732 -3.28102,3.27137 -5.07761,4.46974c-0.92353,0.61601 -2.36159,0.34438 -3.41736,0.34438c-1.93808,0 -2.16328,-1.06433 -3.45631,-2.12552c-0.52569,-0.43143 -1.39307,-0.28852 -1.90095,-0.74079c-0.95865,-0.85369 0.85697,-6.17695 -1.83423,-3.74022c-0.2224,0.20137 -0.38211,0.46267 -0.5752,0.6923c-0.21453,0.25512 -0.43177,0.50796 -0.64765,0.76194c-1.07001,1.15249 0.66154,2.3596 -0.76933,3.11424c-1.8833,0.99324 -3.45721,-1.97037 -5.07618,-2.08704c-0.99775,-0.0719 -1.88946,3.7182 -2.5116,4.35365c-2.38959,2.32203 -2.77311,5.40305 -3.42029,8.36548z" fill="#00b406" fill-rule="nonzero" stroke="none" stroke-width="0.5" stroke-linecap="butt" stroke-linejoin="miter"/><path d="M239.56722,194.29917c-1.63878,0.00483 -4.09961,-0.10611 -6.46832,-0.16916c-3.91714,-0.08914 -10.85507,-0.89161 -7.99599,-3.29874c2.23198,-1.95443 8.0643,-1.72648 14.80546,-1.57126c3.55396,0.13398 7.74571,0.28796 9.78872,2.05033c2.32118,1.98479 7.10742,8.28698 -1.26361,8.53051c-6.55691,-0.05947 -6.7097,-2.78601 -7.30176,-4.80654c-0.18961,-0.3321 -0.83277,-0.58846 -1.56449,-0.73514z" data-paper-data="{&quot;index&quot;:null}" fill="#7300ff" fill-rule="evenodd" stroke="#001026" stroke-width="1.2" stroke-linecap="round" stroke-linejoin="round"/></g></g></svg>