<svg xmlns="http://www.w3.org/2000/svg" id="Layer_1" viewBox="28.0464 20.9 89.1536 96.3071" x="0px" y="0px" width="89.1536" height="96.3071" xmlns:xml="http://www.w3.org/XML/1998/namespace" xml:space="preserve" enable-background="new 0 0 128 128" xmlns:xlink="http://www.w3.org/1999/xlink" version="1.1">
  <g>
    <g>
      <g id="ID0.7407716196030378_27_">
        <path id="ID0.15909873321652412_26_" fill="#faa51f" stroke="#8e5322" stroke-linecap="round" stroke-linejoin="round" stroke-width="1.4" d="M 49.7 83.4 c -2.6 -6.6 -3.4 -4.1 -2.4 -6.8 c 3.6 -3.6 12.5 -3.5 18.2 -1.3 l 2.8 7.5" />
        <path id="ID0.8024068027734756_27_" fill="#faa51f" stroke="#8e5322" stroke-linecap="round" stroke-linejoin="round" stroke-width="1.4" d="M 55.1 81.1" />
        <path id="ID0.06734407460317016_27_" fill="none" stroke="#8e5322" stroke-linecap="round" stroke-linejoin="round" stroke-width="1.4" d="M 58.3 82.8" />
        <path id="ID0.8143284288235009_11_" fill="#faa51f" stroke="#8e5322" stroke-linecap="round" stroke-linejoin="round" stroke-width="1.4" d="M 54.4 81.5 l 5.6 -0.1" />
        <path id="ID0.6682511982508004_10_" fill="none" stroke="#8e5322" stroke-linecap="round" stroke-linejoin="round" stroke-width="1.4" d="M 53.6 81.8 l -0.4 -1.8" />
      </g>
      <path id="ID0.1790580078959465_30_" fill="#faa51f" stroke="#8e5322" stroke-linecap="round" stroke-linejoin="round" stroke-width="1.4" d="M 53.5 82.2 c 1.3 5.7 -2.1 8.4 -3.8 8.2 c -4 -0.6 -5.3 -5.3 -2.6 -13.6" />
    </g>
    <g id="Layer_3_14_">
      <path id="ID0.8535828334279358_13_" fill="#faa51f" stroke-width="1" d="M 48.7 95 c -2.4 -0.8 -5.1 -2.1 -7.2 -4.8 c -4.7 -5.9 -5.1 -14.3 -9.3 -12.8 c -4.2 1.5 -6.2 14.9 5.3 20.9 c 4 2.1 7.8 2.7 10.9 3.1 c 0.8 0.1 7.9 0.5 10.7 -2.6 c 2.9 -3.1 1.4 -4.2 0.6 -4.9 C 59 93.3 52 96.3 48.7 95 Z" />
      <path id="ID0.914295740891248_13_" fill="#ffffff" stroke-width="1" d="M 32.4 77.3 c -2.1 0.4 -4 5 -3.6 8.7 c 0.5 3.7 2.1 6.2 3.1 7.7 c 1.4 1.3 -0.2 -3.1 2.2 -4.6 c 2.4 -1.5 6.4 -0.2 6.4 -0.2 s -2.5 -4.8 -3.8 -7.5 C 35.6 78.9 34.6 77.1 32.4 77.3 Z" />
      <path id="ID0.40227043256163597_13_" fill="none" stroke="#8e5322" stroke-linecap="round" stroke-linejoin="round" stroke-width="1.4" d="M 48.7 95 c -2.4 -0.8 -5.1 -2.1 -7.2 -4.8 c -4.7 -5.9 -5.1 -14.3 -9.3 -12.8 c -4.2 1.5 -6.2 14.9 5.3 20.9 c 4 2.1 7.8 2.7 10.9 3.1 c 0.8 0.1 7.9 0.5 10.7 -2.6 c 2.9 -3.1 1.4 -4.2 0.6 -4.9 C 59 93.3 52 96.3 48.7 95 Z" />
    </g>
    <g id="ID0.16171270422637463_13_">
      <path id="ID0.007584026083350182_13_" fill="#faa51f" stroke="#8e5322" stroke-linecap="round" stroke-linejoin="round" stroke-width="1.4" d="M 70.7 94.9 c 0 0 -2.4 4.5 -2.4 13.4 c 0 3.8 7.4 -0.8 6.3 6.5 c -0.4 2.1 -9.5 2 -11.6 1.1 c -1.8 -0.9 -2.3 -1.6 -1.8 -3.6 c 1.8 -7.2 -3 -19.4 -3 -19.4" />
      <path id="ID0.31672530295327306_13_" fill="#faa51f" stroke="#8e5322" stroke-linecap="round" stroke-linejoin="round" stroke-width="1.4" d="M 69.8 109.9 c 0 0 -1 -0.3 -2.6 -0.5" />
    </g>
    <g id="Layer_2_28_">
      <path id="ID0.39854341372847557_13_" fill="#faa51f" stroke="#8e5322" stroke-linecap="round" stroke-linejoin="round" stroke-width="1.4" d="M 62.8 91.5" />
    </g>
    <path id="ID0.46792364912107587_13_" fill="#faa51f" stroke="#8e5322" stroke-linecap="round" stroke-linejoin="round" stroke-width="1.4" d="M 74.9 85.8 c -1.9 6.4 -3 16.3 -14.4 13 c -11.4 -3.3 -7.8 -11.7 -5.9 -18.1 c 1.9 -6.4 6.3 -7 12.8 -5.1 C 73.7 77.5 76.8 79.4 74.9 85.8 Z" />
    <path id="ID0.38032895559445024_13_" fill="#ffffff" stroke-width="1" d="M 72.6 87.9 c -1.2 4 -2.1 10.3 -8.2 8.5 c -6.1 -1.8 -4.1 -7.1 -2.9 -11.2 c 1.2 -4 3.6 -4.6 7.2 -3.5 C 72.2 82.8 73.7 83.9 72.6 87.9 Z" />
    <g id="ID0.15723733883351088_28_">
      <path id="ID0.527006761636585_28_" fill="#faa51f" stroke="#8e5322" stroke-linecap="round" stroke-linejoin="round" stroke-width="1.4" d="M 52.9 92.7 c 0 0 0.2 5.7 -0.2 7 c -1.6 -2.6 -2.1 -3.9 -5 -1.5 c -1.7 1.4 -5.3 4.5 -4 6.6 c 4.8 6.5 3.7 -2.8 12 3.2 c 2.5 1.6 7 1.9 6.5 -9.2" />
      <path id="ID0.8937406223267317_40_" fill="#faa51f" stroke="#8e5322" stroke-linecap="round" stroke-linejoin="round" stroke-width="1.4" d="M 53.9 107 c -0.8 -0.8 -2.6 -1.6 -3.8 -2.4" />
      <path id="ID0.8937406223267317_39_" fill="#faa51f" stroke="#8e5322" stroke-linecap="round" stroke-linejoin="round" stroke-width="1.4" d="M 54.1 102.2 c -0.4 -0.4 -0.8 -2.8 -1.2 -4" />
    </g>
    <g>
      <g id="Layer_2_27_">
        <path id="ID0.2591130444779992_13_" fill="#faa51f" stroke-width="1" d="M 80.7 31.5 c -1.5 -0.3 -4.5 -0.9 -6.2 -1 c -4.6 -0.4 -9.1 0.8 -9.1 0.8 l -11.5 -9.7 l -0.1 18.4 c 0.7 -0.7 -11.6 11.1 -6.2 22.8 C 53.1 74.7 67 81.4 85.5 80 s 24.1 -11.2 23.5 -16.8 s -7.1 -8.5 -7.1 -8.5 s 0.4 -4.3 -2 -9.9 c -1.5 -3.4 -7.1 -8.7 -7.1 -8.7 l -1.4 -11.5 l -8 6.1 L 80.7 31.5 Z" />
        <path id="ID0.3588979784399271_13_" fill="#ffffff" stroke-width="1" d="M 101 54.4 l -2.1 -2.3 l -9.1 1.5 c 0 0 -0.4 3.3 -4.7 3.7 C 80.9 57.7 74 55.2 74 55.2 l -7.3 0.9 c 0 0 -8 -1.5 -9.2 4.8 c -2 10.9 6.5 17.3 15 18.3 c 5.5 0.7 9 0.4 13 0.2 c 17.4 -1 23.6 -10.7 22.8 -16.3 c -0.5 -5.6 -6.9 -8 -6.9 -8 L 101 54.4 Z" />
        <path id="ID0.2727069961838424_13_" fill="none" stroke="#8e5322" stroke-linecap="round" stroke-linejoin="round" stroke-width="1.4" d="M 105.3 60.4 c 0 0 4.4 -0.5 6.7 -1.1 c 2.6 -0.8 4.5 -2.3 4.5 -2.3" />
        <path id="ID0.5861211125738919_13_" fill="none" stroke="#8e5322" stroke-linecap="round" stroke-linejoin="round" stroke-width="1.4" d="M 105.1 66.2 c 0 0 2.6 1.2 5.4 1.4 c 2.7 0.4 4.5 0.2 4.5 0.2" />
        <path id="ID0.4793355236761272_13_" fill="none" stroke="#8e5322" stroke-linecap="round" stroke-linejoin="round" stroke-width="1.4" d="M 63.3 29.5 l 4.7 4.2" />
        <path id="ID0.48413723474368453_13_" fill="none" stroke="#8e5322" stroke-linecap="round" stroke-linejoin="round" stroke-width="1.4" d="M 80.7 31.5 c -1.5 -0.3 -4.5 -0.9 -6.2 -1 c -4.6 -0.4 -9.1 0.8 -9.1 0.8 l -11.5 -9.7 l -0.1 18.4 c 0.7 -0.7 -11.6 11.1 -6.2 22.8 C 53.1 74.7 67 81.4 85.5 80 s 24.1 -11.2 23.5 -16.8 s -7.1 -8.5 -7.1 -8.5 s 0.4 -4.3 -2 -9.9 c -1.5 -3.4 -7.1 -8.7 -7.1 -8.7 l -1.4 -11.5 l -8 6.1 L 80.7 31.5 Z" />
        <path id="ID0.9024141579866409_13_" fill="none" stroke="#8e5322" stroke-linecap="round" stroke-linejoin="round" stroke-width="1.4" d="M 36.5 56.7 c 0 0 3.9 1.1 5.6 1.3 c 1.8 0.2 5.3 0.4 5.3 0.4" />
        <path id="ID0.16030752705410123_13_" fill="none" stroke="#8e5322" stroke-linecap="round" stroke-linejoin="round" stroke-width="1.4" d="M 48.2 54.6 c 0 0 -1.9 -2.2 -5 -4.5 c -3.5 -2.6 -5.6 -3.5 -5.6 -3.5" />
      </g>
      <g id="Layer_5_14_">
        <path id="ID0.40023312577977777_13_" fill="#ffffff" stroke="#8e5322" stroke-linecap="round" stroke-linejoin="round" stroke-width="1.4" d="M 97.7 44.6 c 2.3 4.6 1.7 9.6 -1.1 10.9 c -2.9 1.5 -7.1 -1.2 -9.4 -5.9 c -2.3 -4.6 -1.7 -9.6 1.1 -10.9 C 91.2 37.3 95.4 39.9 97.7 44.6 Z" />
        <path id="ID0.43813491938635707_13_" fill="#414142" stroke-width="1" d="M 97.1 48.1 c 0.2 1 -0.4 2 -1.5 2.1 c -0.9 0.2 -1.8 -0.5 -2 -1.7 c -0.2 -1 0.4 -2 1.5 -2.1 C 96.1 46.4 97 47.1 97.1 48.1" />
      </g>
      <g id="Layer_7_14_">
        <path id="ID0.4253597157076001_13_" fill="#ffffff" stroke="#8e5322" stroke-linecap="round" stroke-linejoin="round" stroke-width="1.4" d="M 74.3 44.8 c 2.3 4.6 1.3 9.7 -2.1 11.4 c -3.4 1.7 -8.1 -0.7 -10.3 -5.4 c -2.3 -4.6 -1.3 -9.7 2.1 -11.4 C 67.4 37.8 72 40.2 74.3 44.8 Z" />
        <path id="ID0.814307457767427_13_" fill="#414142" stroke-width="1" d="M 73.5 48.6 c -0.1 1 -1 1.8 -1.9 1.7 c -1 -0.1 -1.6 -1 -1.5 -2.1 c 0.1 -1 1 -1.8 1.9 -1.7 C 72.9 46.6 73.6 47.5 73.5 48.6" />
      </g>
      <path id="ID0.5240494590252638_13_" fill="#5f4b43" stroke="#8e5322" stroke-linecap="round" stroke-linejoin="round" stroke-width="1.4" d="M 84 56 c 1.7 0 4.2 -1 4.2 0.9 c -0.1 0.8 -2.1 3.9 -3.9 3.8 c -2 -0.1 -5.2 -3.1 -4.9 -4.5 C 79.7 54.6 82.5 56 84 56 Z" />
      <path id="ID0.046259244438260794_13_" fill="#ffffff" stroke="#8e5322" stroke-linecap="round" stroke-linejoin="round" stroke-width="1.4" d="M 73.1 70.1 c 0 0 2.2 2.6 7.7 2.2" />
    </g>
    <g>
      <g id="ID0.7407716196030378_12_">
        <path id="ID0.15909873321652412_11_" fill="#faa51f" stroke="#8e5322" stroke-linecap="round" stroke-linejoin="round" stroke-width="1.4" d="M 69.1 80 c -0.2 0.2 10.1 11 9.9 11 c -2 0.4 -4.4 1.8 -5.3 1.5 c -4 -1.1 -8.8 -4.7 -11.5 -9.3 L 61.8 82" />
        <path id="ID0.8024068027734756_12_" fill="#faa51f" stroke="#8e5322" stroke-linecap="round" stroke-linejoin="round" stroke-width="1.4" d="M 74 85.2" />
        <path id="ID0.06734407460317016_12_" fill="none" stroke="#8e5322" stroke-linecap="round" stroke-linejoin="round" stroke-width="1.4" d="M 72.6 81.9" />
      </g>
      <path id="ID0.1790580078959465_15_" fill="#faa51f" stroke="#8e5322" stroke-linecap="round" stroke-linejoin="round" stroke-width="1.4" d="M 71.1 82.7 c 0.7 0.8 2.3 2.8 3.3 2.7 c 0.8 -0.1 1.8 -0.6 2.5 -1.2 c 4 -3.5 7.8 -1.8 8.4 -0.3 c 1.5 3.7 -2.7 6.8 -11.1 8.6" />
    </g>
  </g>
</svg>