<svg version="1.1" xmlns="http://www.w3.org/2000/svg" xmlns:xlink="http://www.w3.org/1999/xlink" width="220" height="338" viewBox="0,0,220,338"><defs><linearGradient x1="257.37384" y1="155.70866" x2="257.37384" y2="185.42152" gradientUnits="userSpaceOnUse" id="color-1"><stop offset="0" stop-color="#ffffff"/><stop offset="1" stop-color="#66ebff"/></linearGradient><linearGradient x1="256.29748" y1="177.05304" x2="256.29748" y2="196.10814" gradientUnits="userSpaceOnUse" id="color-2"><stop offset="0" stop-color="#ffffff"/><stop offset="1" stop-color="#66ebff"/></linearGradient><linearGradient x1="205.52612" y1="149.74158" x2="205.52612" y2="195.37032" gradientUnits="userSpaceOnUse" id="color-3"><stop offset="0" stop-color="#ffffff"/><stop offset="1" stop-color="#66ebff"/></linearGradient><linearGradient x1="187.59738" y1="149.76874" x2="187.59738" y2="179.40741" gradientUnits="userSpaceOnUse" id="color-4"><stop offset="0" stop-color="#ffffff"/><stop offset="1" stop-color="#66ebff"/></linearGradient><linearGradient x1="251.6728" y1="187.51769" x2="251.6728" y2="228.42632" gradientUnits="userSpaceOnUse" id="color-5"><stop offset="0" stop-color="#ffffff"/><stop offset="1" stop-color="#66ebff"/></linearGradient><linearGradient x1="238.10488" y1="154.24157" x2="238.10488" y2="197.53863" gradientUnits="userSpaceOnUse" id="color-6"><stop offset="0" stop-color="#ffffff"/><stop offset="1" stop-color="#66ebff"/></linearGradient><linearGradient x1="224.97388" y1="187.51769" x2="224.97388" y2="228.74083" gradientUnits="userSpaceOnUse" id="color-7"><stop offset="0" stop-color="#ffffff"/><stop offset="1" stop-color="#66ebff"/></linearGradient><linearGradient x1="220.32813" y1="153.34701" x2="220.32813" y2="185.70366" gradientUnits="userSpaceOnUse" id="color-8"><stop offset="0" stop-color="#ffffff"/><stop offset="1" stop-color="#66ebff"/></linearGradient><linearGradient x1="239.78199" y1="58.7" x2="239.78199" y2="160.6205" gradientUnits="userSpaceOnUse" id="color-9"><stop offset="0" stop-color="#ffffff"/><stop offset="1" stop-color="#66ebff"/></linearGradient><linearGradient x1="217.8362" y1="180.94262" x2="217.8362" y2="197.58357" gradientUnits="userSpaceOnUse" id="color-10"><stop offset="0" stop-color="#ffffff"/><stop offset="1" stop-color="#66ebff"/></linearGradient></defs><g transform="translate(-130,-11)"><g data-paper-data="{&quot;isPaintingLayer&quot;:true}" fill-rule="nonzero" stroke-miterlimit="10" stroke-dasharray="" stroke-dashoffset="0" style="mix-blend-mode: normal"><path d="M132.5,346.5v-333h215v333z" fill="#000c47" stroke="#7982ab" stroke-width="5" stroke-linecap="butt" stroke-linejoin="miter"/><path d="M153.66667,303.16667v-70.33333h172.66667v70.33333z" fill="#000000" stroke="#ffffff" stroke-width="2" stroke-linecap="butt" stroke-linejoin="miter"/><text transform="translate(159.00005,251.58288) scale(0.39049,0.39049)" font-size="40" xml:space="preserve" fill="#ffffff" fill-rule="nonzero" stroke="none" stroke-width="1" stroke-linecap="butt" stroke-linejoin="miter" stroke-miterlimit="10" stroke-dasharray="" stroke-dashoffset="0" font-family="Sans Serif" font-weight="normal" text-anchor="start" style="mix-blend-mode: normal"><tspan x="0" dy="0"> ダイヤモンドキャット</tspan></text><text transform="translate(190.00004,282.26875) scale(0.5,0.5)" font-size="40" xml:space="preserve" fill="#fbff00" fill-rule="nonzero" stroke="none" stroke-width="1" stroke-linecap="butt" stroke-linejoin="miter" stroke-miterlimit="10" stroke-dasharray="" stroke-dashoffset="0" font-family="Sans Serif" font-weight="normal" text-anchor="start" style="mix-blend-mode: normal"><tspan x="0" dy="0">★　★　★</tspan></text><g stroke-linecap="butt" stroke-linejoin="miter"><path d="M201.84722,337.17014v-28h85.5v28z" fill="#000000" stroke="#ffffff" stroke-width="2"/><text transform="translate(213.84722,330.17014) scale(0.5,0.5)" font-size="40" xml:space="preserve" fill="#ffffff" fill-rule="nonzero" stroke="none" stroke-width="1" stroke-linecap="butt" stroke-linejoin="miter" stroke-miterlimit="10" stroke-dasharray="" stroke-dashoffset="0" font-family="Sans Serif" font-weight="normal" text-anchor="start" style="mix-blend-mode: normal"><tspan x="0" dy="0">閉じる</tspan></text></g><path d="M251.30227,155.70866l7.5251,1.1862c7.07245,7.27462 11.05148,23.35357 2.61929,28.48302c-0.61188,0.37393 -12.15717,-1.78556 -12.90324,-1.53508" fill="url(#color-1)" stroke="#8e5322" stroke-width="1.4" stroke-linecap="round" stroke-linejoin="round"/><path d="M265.83899,177.05304c-3.55322,15.17007 -10.03704,21.18514 -16.63537,18.3923c-2.81431,-1.16294 -4.58376,-9.38759 2.67476,-17.0093" fill="url(#color-2)" stroke="#8e5322" stroke-width="1.4" stroke-linecap="round" stroke-linejoin="round"/><path d="M231.61284,183.04306c1.25239,1.25239 3.75897,3.40114 -1.78913,8.58963c-5.54453,5.18849 -18.06847,3.57827 -19.49978,3.22044c-5.3674,-1.07348 -12.16611,-2.6837 -18.96662,-6.97762c-19.68048,-12.16433 -14.31308,-35.78269 -6.6198,-37.92965c7.69328,-2.14517 7.33545,13.06247 14.84982,24.15332c3.39936,5.01137 8.05111,7.69507 12.16611,9.4842c5.72523,2.6837 18.607,-1.61022 19.85939,-0.54032z" fill="#faa51f" stroke="none" stroke-width="1" stroke-linecap="butt" stroke-linejoin="miter"/><path d="M231.61284,183.04306c1.25239,1.25239 3.75897,3.40114 -1.78913,8.58963c-5.54453,5.18849 -18.06847,3.57827 -19.49978,3.22044c-5.3674,-1.07348 -12.16611,-2.6837 -18.96662,-6.97762c-19.68048,-12.16433 -14.31308,-35.78269 -6.6198,-37.92965c7.69328,-2.14517 7.33545,13.06247 14.84982,24.15332c3.39936,5.01137 8.05111,7.69507 12.16611,9.4842c5.72523,2.6837 18.607,-1.61022 19.85939,-0.54032z" fill="url(#color-3)" stroke="#8e5322" stroke-width="1.4" stroke-linecap="round" stroke-linejoin="round"/><path d="M192.07297,157.64093c1.96626,5.00958 5.72523,13.95525 5.72523,13.95525c0,0 -6.97762,-2.8644 -11.45046,-0.53674c-4.47284,2.32409 -2.14696,10.37519 -4.47284,7.8704c-1.61022,-2.86083 -4.11501,-7.51436 -4.47284,-14.13237c-0.17712,-6.6198 3.9361,-14.6709 7.69328,-15.02873c3.9361,0 5.3674,3.21865 6.97762,7.87219z" fill="url(#color-4)" stroke="none" stroke-width="1" stroke-linecap="butt" stroke-linejoin="miter"/><path d="M255.40833,187.51769c0,0 -3.04153,9.84024 -1.61022,25.58641c0.53674,6.79871 13.2396,-0.89457 12.34503,12.34324c-0.35783,3.75897 -16.81786,3.39936 -20.57505,1.96984c-3.39936,-1.25239 -4.29392,-2.50479 -3.75897,-6.08306c1.96984,-13.06068 -4.65175,-28.08941 -4.65175,-28.08941" fill="url(#color-5)" stroke="#8e5322" stroke-width="1.4" stroke-linecap="round" stroke-linejoin="round"/><path d="M252.3668,216.50345c2.6837,-0.53674 5.00958,-0.17891 5.00958,-0.17891" fill="#faa51f" stroke="#8e5322" stroke-width="1.4" stroke-linecap="round" stroke-linejoin="round"/><path d="M256.83964,168.01791c0,11.9872 3.04153,29.52072 -18.24917,29.52072c-21.2907,0 -19.32265,-16.10221 -19.32265,-28.08941c0,-11.9872 7.33545,-15.20764 19.32265,-15.20764c11.9872,0 18.24917,1.78913 18.24917,13.77634z" fill="url(#color-6)" stroke="#8e5322" stroke-width="1.4" stroke-linecap="round" stroke-linejoin="round"/><path d="M252.18789,173.20461c0,7.51436 1.61022,18.78591 -9.84024,18.78591c-11.44867,0 -10.5541,-10.19628 -10.5541,-17.71064c0,-7.51436 3.9361,-9.66133 10.5541,-9.66133c6.6198,-0.00179 9.84024,1.07348 9.84024,8.58606z" fill="#ffffff" stroke="none" stroke-width="1" stroke-linecap="butt" stroke-linejoin="miter"/><path d="M237.33628,198.07179c0,0 -2.6837,16.28112 -2.14696,23.79549c0.35783,3.75897 -1.07169,5.72702 -4.82887,6.44267c-3.9361,0.71565 -17.53352,1.07348 -17.71243,-3.39936c-0.71565,-13.59563 9.3035,-5.18849 10.37698,-11.9872c2.32587,-15.56547 -2.32587,-25.40571 -2.32587,-25.40571" fill="url(#color-7)" stroke="#8e5322" stroke-width="1.4" stroke-linecap="round" stroke-linejoin="round"/><path d="M218.73107,216.14384c0,0 2.86262,-0.35604 5.3674,0.35783" fill="#faa51f" stroke="#8e5322" stroke-width="1.4" stroke-linecap="round" stroke-linejoin="round"/><path d="M222.3988,182.42044c-0.297,-0.16639 -13.89979,3.48881 -14.15205,3.27412c-5.96676,-5.07935 0.59936,-23.07626 12.27346,-32.34755l14.13237,2.50479" fill="url(#color-8)" stroke="#8e5322" stroke-width="1.4" stroke-linecap="round" stroke-linejoin="round"/><path d="M224.81413,167.30047c-2.08434,5.60894 -5.51411,12.40765 -5.51411,12.40765" fill="#faa51f" stroke="#8e5322" stroke-width="1.4" stroke-linecap="round" stroke-linejoin="round"/><path d="M217.7721,179.46658l2.14517,0.53853" fill="none" stroke="#8e5322" stroke-width="1.4" stroke-linecap="round" stroke-linejoin="round"/><path d="M243.60004,71.22394l12.88177,-12.52394l5.00958,20.03831c0,0 11.09263,8.23181 14.49199,13.95525c5.54632,9.4842 5.72344,17.17569 5.72344,17.17569c0,0 12.34682,3.75718 14.49378,13.59742c2.14696,9.84024 -5.54632,28.62615 -38.10678,35.06704c-32.56225,6.44088 -58.6854,-2.32587 -71.02864,-22.18527c-12.16611,-19.68048 7.15654,-43.29706 6.08127,-41.86575l-3.9361,-32.74116l22.54309,14.6709c0,0 7.69149,-3.04153 15.9233,-3.39936c3.03974,-0.17891 8.58785,0.17891 11.27155,0.35783z" fill="#faa51f" stroke="none" stroke-width="1" stroke-linecap="butt" stroke-linejoin="miter"/><path d="M243.60004,71.22394l12.88177,-12.52394l5.00958,20.03831c0,0 11.09263,8.23181 14.49199,13.95525c5.54632,9.4842 5.72344,17.17569 5.72344,17.17569c0,0 12.34682,3.75718 14.49378,13.59742c2.14696,9.84024 -5.54632,28.62615 -38.10678,35.06704c-32.56225,6.44088 -58.6854,-2.32587 -71.02864,-22.18527c-12.16611,-19.68048 7.15654,-43.29706 6.08127,-41.86575l-3.9361,-32.74116l22.54309,14.6709c0,0 7.69149,-3.04153 15.9233,-3.39936c3.03974,-0.17891 8.58785,0.17891 11.27155,0.35783z" fill="url(#color-9)" stroke="#8e5322" stroke-width="1.4" stroke-linecap="round" stroke-linejoin="round"/><path d="M280.99295,110.7656c0,0 11.80829,2.86262 13.95525,12.70286c2.6837,9.84024 -6.08485,28.44724 -36.85617,33.99356c-6.97762,1.25239 -13.2396,2.50479 -23.07984,2.50479c-15.20764,0.17712 -31.84659,-9.3035 -30.5942,-29.16289c0.71386,-11.45046 15.20764,-10.55589 15.20764,-10.55589l12.70286,-3.22044c0,0 12.70286,2.86083 20.21722,1.25239c7.51436,-1.61022 7.51436,-7.51436 7.51436,-7.51436l15.74438,-4.65354l4.29392,3.57827z" fill="#ffffff" stroke="none" stroke-width="1" stroke-linecap="butt" stroke-linejoin="miter"/><path d="M308.72454,112.19691c0,0 -3.21865,2.86262 -7.87219,4.47284c-3.93789,1.43131 -11.80829,2.6837 -11.80829,2.6837" fill="none" stroke="#8e5322" stroke-width="1.4" stroke-linecap="round" stroke-linejoin="round"/><path d="M307.64927,132.23522c0,0 -3.22044,0.35783 -8.05111,-0.1807c-5.00779,-0.35604 -9.65954,-2.32587 -9.65954,-2.32587" fill="none" stroke="#8e5322" stroke-width="1.4" stroke-linecap="round" stroke-linejoin="round"/><path d="M207.63844,73.73052l9.3035,6.44088" fill="none" stroke="#8e5322" stroke-width="1.4" stroke-linecap="round" stroke-linejoin="round"/><path d="M185.98991,128.29733c0,0 -6.26197,0.89457 -9.48241,1.07348c-3.22044,0.17891 -10.37698,-0.53674 -10.37698,-0.53674" fill="none" stroke="#8e5322" stroke-width="1.4" stroke-linecap="round" stroke-linejoin="round"/><path d="M164.701,111.66017c0,0 3.9361,0.71386 11.09263,3.9361c6.4391,2.86262 10.5541,5.90414 10.5541,5.90414" fill="none" stroke="#8e5322" stroke-width="1.4" stroke-linecap="round" stroke-linejoin="round"/><path d="M272.04728,92.87426c5.00958,7.69328 5.1867,16.63895 0.35783,19.68048c-4.83066,3.22044 -12.88177,-0.53674 -17.89135,-8.40893c-5.01137,-7.69328 -5.18849,-16.63895 -0.35783,-19.68048c4.83066,-3.04153 12.88177,0.71565 17.89135,8.40893z" fill="#ffffff" stroke="#8e5322" stroke-width="1.4" stroke-linecap="round" stroke-linejoin="round"/><path d="M271.86837,99.31335c0.53853,1.78913 -0.35604,3.57827 -2.14517,4.11501c-1.61022,0.53853 -3.39936,-0.53674 -3.9361,-2.503c-0.53674,-1.78913 0.35783,-3.57827 2.14696,-4.11501c1.78735,-0.35783 3.39757,0.71386 3.93431,2.503" fill="#414142" stroke="none" stroke-width="1" stroke-linecap="butt" stroke-linejoin="miter"/><path d="M230.53936,98.41879c5.00958,7.69328 4.47284,16.99678 -1.25239,20.75575c-5.72523,3.75718 -14.49199,0.53674 -19.49978,-7.33724c-5.01137,-7.69328 -4.47284,-16.99678 1.25061,-20.75396c5.72523,-3.57648 14.49199,-0.35604 19.50157,7.33545z" fill="#ffffff" stroke="#8e5322" stroke-width="1.4" stroke-linecap="round" stroke-linejoin="round"/><path d="M230.00262,105.3982c0,1.78913 -1.43131,3.39757 -3.04153,3.39757c-1.78913,0 -3.04153,-1.43131 -3.04153,-3.39757c0,-1.78913 1.43131,-3.39936 3.04153,-3.39936c1.61022,0 3.04153,1.42952 3.04153,3.39936" fill="#414142" stroke="none" stroke-width="1" stroke-linecap="butt" stroke-linejoin="miter"/><path d="M250.21984,116.13301c3.04153,-0.35783 7.15654,-2.6837 7.69328,0.71386c0,1.4331 -2.86262,7.33724 -6.08127,7.51436c-3.57827,0.1807 -9.84024,-4.29213 -9.66133,-6.97584c0.17891,-2.6837 5.36561,-0.89457 8.04932,-1.25239z" fill="#5f4b43" stroke="#8e5322" stroke-width="1.4" stroke-linecap="round" stroke-linejoin="round"/><path d="M248.07109,145.83085c-9.65954,1.96984 -14.13237,-2.14696 -14.13237,-2.14696" fill="#ffffff" stroke="#8e5322" stroke-width="1.4" stroke-linecap="round" stroke-linejoin="round"/><path d="M221.29311,180.94262c9.23014,5.05431 8.89737,12.76726 6.56791,14.72816c-5.44076,4.66427 -13.44177,0.90709 -21.43741,-12.46848" fill="url(#color-10)" stroke="#8e5322" stroke-width="1.4" stroke-linecap="round" stroke-linejoin="round"/></g></g></svg>