<svg xmlns="http://www.w3.org/2000/svg" id="Layer_1" viewBox="27.6723 22.1 89.2277 94.6645" x="0px" y="0px" width="89.2277" height="94.6645" xmlns:xml="http://www.w3.org/XML/1998/namespace" xml:space="preserve" enable-background="new 0 0 128 128" xmlns:xlink="http://www.w3.org/1999/xlink" version="1.1">
  <g>
    <g>
      <g id="ID0.7407716196030378_26_">
        <path id="ID0.15909873321652412_25_" fill="#faa51f" stroke="#8e5322" stroke-linecap="round" stroke-linejoin="round" stroke-width="1.4" d="M 50 85.6 c -3.2 -6.4 -3.7 -3.8 -3 -6.5 c 3.3 -3.9 12.1 -4.6 18 -2.8 l 3.4 7.3" />
        <path id="ID0.8024068027734756_26_" fill="#faa51f" stroke="#8e5322" stroke-linecap="round" stroke-linejoin="round" stroke-width="1.4" d="M 55.2 82.9" />
        <path id="ID0.06734407460317016_26_" fill="none" stroke="#8e5322" stroke-linecap="round" stroke-linejoin="round" stroke-width="1.4" d="M 58.5 84.4" />
        <path id="ID0.8143284288235009_25_" fill="#faa51f" stroke="#8e5322" stroke-linecap="round" stroke-linejoin="round" stroke-width="1.4" d="M 54.5 83.3 l 5.6 -0.6" />
        <path id="ID0.6682511982508004_14_" fill="none" stroke="#8e5322" stroke-linecap="round" stroke-linejoin="round" stroke-width="1.4" d="M 53.7 83.7 l -0.6 -1.8" />
      </g>
      <path id="ID0.1790580078959465_29_" fill="#faa51f" stroke="#8e5322" stroke-linecap="round" stroke-linejoin="round" stroke-width="1.4" d="M 54 83.7 c 2.3 5.4 -0.5 8.7 -2.2 8.7 c -4 0.2 -6.2 -4.2 -5.1 -12.9" />
    </g>
    <g id="Layer_3_21_">
      <path id="ID0.8535828334279358_20_" fill="#faa51f" stroke-width="1" d="M 49.1 96.5 c -2.4 -0.6 -5.2 -1.7 -7.5 -4.2 c -5.1 -5.5 -6.2 -13.9 -10.3 -12.1 c -4.1 1.8 -5 15.3 6.9 20.4 c 4.1 1.8 8 2.1 11.1 2.2 c 0.8 0.1 7.9 -0.1 10.5 -3.4 c 2.6 -3.3 1.1 -4.3 0.3 -4.9 C 59.2 94 52.5 97.5 49.1 96.5 Z" />
      <path id="ID0.914295740891248_20_" fill="#ffffff" stroke-width="1" d="M 31.5 80.1 c -2 0.5 -3.6 5.3 -3 9 c 0.8 3.6 2.5 6 3.7 7.4 c 1.5 1.2 -0.5 -3.1 1.8 -4.7 c 2.3 -1.7 6.4 -0.7 6.4 -0.7 s -2.8 -4.6 -4.4 -7.2 C 34.7 81.4 33.6 79.7 31.5 80.1 Z" />
      <path id="ID0.40227043256163597_20_" fill="none" stroke="#8e5322" stroke-linecap="round" stroke-linejoin="round" stroke-width="1.4" d="M 49.1 96.5 c -2.4 -0.6 -5.2 -1.7 -7.5 -4.2 c -5.1 -5.5 -6.2 -13.9 -10.3 -12.1 c -4.1 1.8 -5 15.3 6.9 20.4 c 4.1 1.8 8 2.1 11.1 2.2 c 0.8 0.1 7.9 -0.1 10.5 -3.4 c 2.6 -3.3 1.1 -4.3 0.3 -4.9 C 59.2 94 52.5 97.5 49.1 96.5 Z" />
    </g>
    <g id="ID0.16171270422637463_21_">
      <path id="ID0.007584026083350182_21_" fill="#faa51f" stroke="#8e5322" stroke-linecap="round" stroke-linejoin="round" stroke-width="1.4" d="M 68.4 97.6 c 0 0 2 4.8 1.2 7.5 c -3.7 2.5 -7.4 4.1 -7.4 4.1 c 0.8 0.3 4 0.7 3.6 5.2 c -0.2 2.1 -9.4 1.9 -11.5 1.1 c -1.9 -0.7 -2.4 -1.4 -2.1 -3.4 c 0.4 -2.6 9 -6 9.5 -8.4 c -1.1 -2.2 -4.4 -6.5 -4.4 -6.5" />
      <path id="ID0.31672530295327306_21_" fill="#faa51f" stroke="#8e5322" stroke-linecap="round" stroke-linejoin="round" stroke-width="1.4" d="M 62.5 109.4 c 0 0 -0.7 -0.3 -2.2 0" />
    </g>
    <g id="Layer_2_42_">
      <path id="ID0.39854341372847557_20_" fill="#faa51f" stroke="#8e5322" stroke-linecap="round" stroke-linejoin="round" stroke-width="1.4" d="M 62.3 93.1" />
    </g>
    <path id="ID0.46792364912107587_20_" fill="#faa51f" stroke="#8e5322" stroke-linecap="round" stroke-linejoin="round" stroke-width="1.4" d="M 74.3 87.5 c -1.9 6.4 -3 16.3 -14.4 13 c -11.4 -3.3 -7.8 -11.7 -5.9 -18.1 c 1.9 -6.4 6.3 -7 12.8 -5.1 C 73.1 79.1 76.2 81 74.3 87.5 Z" />
    <path id="ID0.38032895559445024_20_" fill="#ffffff" stroke-width="1" d="M 73 89.5 c -1.2 4 -2.1 10.3 -8.2 8.5 c -6.1 -1.8 -4.1 -7.1 -2.9 -11.2 c 1.2 -4 3.6 -4.6 7.2 -3.5 S 74.2 85.5 73 89.5 Z" />
    <g id="ID0.15723733883351088_23_">
      <path id="ID0.527006761636585_23_" fill="#faa51f" stroke="#8e5322" stroke-linecap="round" stroke-linejoin="round" stroke-width="1.4" d="M 52.6 94.6 c 0 0 3.3 4.3 3.5 5.7 c -2.6 -0.8 -3.5 -2.8 -5.1 0.9 c -0.8 2 -2.7 6.5 -0.5 7.7 c 7.2 3.6 2 -4.2 12.2 -2.7 c 2.9 0.2 8.2 -0.8 2.7 -8.8" />
      <path id="ID0.8937406223267317_32_" fill="#faa51f" stroke="#8e5322" stroke-linecap="round" stroke-linejoin="round" stroke-width="1.4" d="M 60.5 106.2 c -1.1 -0.3 -3 -0.3 -4.4 -0.4" />
      <path id="ID0.8937406223267317_31_" fill="#faa51f" stroke="#8e5322" stroke-linecap="round" stroke-linejoin="round" stroke-width="1.4" d="M 58.4 101.8 c -0.5 -0.2 -2 -2.1 -3 -3" />
    </g>
    <g>
      <g id="Layer_2_41_">
        <path id="ID0.2591130444779992_20_" fill="#faa51f" stroke-width="1" d="M 80.3 32.7 c -1.5 -0.3 -4.5 -0.9 -6.2 -1 c -4.6 -0.4 -9.1 0.8 -9.1 0.8 l -11.5 -9.7 l -0.1 18.4 c 0.7 -0.7 -11.6 11.1 -6.2 22.8 C 52.7 76 66.6 82.6 85.1 81.2 c 18.5 -1.3 24.1 -11.2 23.5 -16.8 c -0.5 -5.6 -7.1 -8.5 -7.1 -8.5 s 0.4 -4.3 -2 -9.9 c -1.5 -3.4 -7.1 -8.7 -7.1 -8.7 L 91 25.8 l -8 6.1 L 80.3 32.7 Z" />
        <path id="ID0.3588979784399271_20_" fill="#ffffff" stroke-width="1" d="M 100.6 55.7 l -2.1 -2.3 l -9.1 1.5 c 0 0 -0.4 3.3 -4.7 3.7 c -4.3 0.4 -11.1 -2.1 -11.1 -2.1 l -7.3 0.9 c 0 0 -8 -1.5 -9.2 4.8 c -2.1 10.9 6.5 17.3 15 18.3 c 5.5 0.7 9 0.4 13 0.2 c 17.5 -1 23.6 -10.7 22.8 -16.3 c -0.5 -5.6 -6.9 -8 -6.9 -8 L 100.6 55.7 Z" />
        <path id="ID0.2727069961838424_20_" fill="none" stroke="#8e5322" stroke-linecap="round" stroke-linejoin="round" stroke-width="1.4" d="M 104.9 61.6 c 0 0 4.4 -0.4 6.7 -1 c 2.7 -0.7 4.6 -2.2 4.6 -2.2" />
        <path id="ID0.5861211125738919_20_" fill="none" stroke="#8e5322" stroke-linecap="round" stroke-linejoin="round" stroke-width="1.4" d="M 104.7 67.4 c 0 0 2.5 1.4 5.2 1.9 c 2.7 0.6 4.5 0.6 4.5 0.6" />
        <path id="ID0.4793355236761272_20_" fill="none" stroke="#8e5322" stroke-linecap="round" stroke-linejoin="round" stroke-width="1.4" d="M 62.9 30.8 l 4.7 4.2" />
        <path id="ID0.48413723474368453_20_" fill="none" stroke="#8e5322" stroke-linecap="round" stroke-linejoin="round" stroke-width="1.4" d="M 80.3 32.7 c -1.5 -0.3 -4.5 -0.9 -6.2 -1 c -4.6 -0.4 -9.1 0.8 -9.1 0.8 l -11.5 -9.7 l -0.1 18.4 c 0.7 -0.7 -11.6 11.1 -6.2 22.8 C 52.7 76 66.6 82.6 85.1 81.2 c 18.5 -1.3 24.1 -11.2 23.5 -16.8 c -0.5 -5.6 -7.1 -8.5 -7.1 -8.5 s 0.4 -4.3 -2 -9.9 c -1.5 -3.4 -7.1 -8.7 -7.1 -8.7 L 91 25.8 l -8 6.1 L 80.3 32.7 Z" />
        <path id="ID0.9024141579866409_20_" fill="none" stroke="#8e5322" stroke-linecap="round" stroke-linejoin="round" stroke-width="1.4" d="M 36.2 57.9 c 0 0 3.9 1.1 5.7 1.3 c 1.8 0.2 5.3 0.4 5.3 0.4" />
        <path id="ID0.16030752705410123_20_" fill="none" stroke="#8e5322" stroke-linecap="round" stroke-linejoin="round" stroke-width="1.4" d="M 47.8 55.8 c 0 0 -1.9 -2.1 -5.2 -4.4 C 39 48.9 37 48.1 37 48.1" />
      </g>
      <g id="Layer_5_21_">
        <path id="ID0.40023312577977777_20_" fill="#ffffff" stroke="#8e5322" stroke-linecap="round" stroke-linejoin="round" stroke-width="1.4" d="M 97.3 45.8 c 2.3 4.6 1.7 9.6 -1.1 10.9 c -2.9 1.5 -7.1 -1.2 -9.4 -5.9 c -2.3 -4.6 -1.7 -9.6 1.1 -10.9 C 90.8 38.5 95 41.2 97.3 45.8 Z" />
        <path id="ID0.43813491938635707_20_" fill="#414142" stroke-width="1" d="M 96.8 49.3 c 0.2 1 -0.4 2 -1.5 2.1 c -0.9 0.2 -1.8 -0.5 -2 -1.7 c -0.2 -1 0.4 -2 1.5 -2.1 C 95.8 47.6 96.6 48.3 96.8 49.3" />
      </g>
      <g id="Layer_7_21_">
        <path id="ID0.4253597157076001_20_" fill="#ffffff" stroke="#8e5322" stroke-linecap="round" stroke-linejoin="round" stroke-width="1.4" d="M 73.9 46 c 2.3 4.6 1.3 9.7 -2.1 11.4 c -3.4 1.7 -8.1 -0.7 -10.3 -5.4 c -2.3 -4.6 -1.3 -9.7 2.1 -11.4 C 67 39 71.6 41.4 73.9 46 Z" />
        <path id="ID0.814307457767427_20_" fill="#414142" stroke-width="1" d="M 73.1 49.9 c -0.1 1 -1 1.8 -1.9 1.7 c -1 -0.1 -1.6 -1 -1.5 -2.1 c 0.1 -1 1 -1.8 1.9 -1.7 C 72.6 47.9 73.2 48.8 73.1 49.9" />
      </g>
      <path id="ID0.5240494590252638_20_" fill="#5f4b43" stroke="#8e5322" stroke-linecap="round" stroke-linejoin="round" stroke-width="1.4" d="M 83.6 57.2 c 1.7 0 4.2 -1 4.2 0.9 c -0.1 0.8 -2.1 3.9 -3.9 3.8 c -2 -0.1 -5.2 -3.1 -4.9 -4.5 S 82.1 57.2 83.6 57.2 Z" />
      <path id="ID0.046259244438260794_20_" fill="#ffffff" stroke="#8e5322" stroke-linecap="round" stroke-linejoin="round" stroke-width="1.4" d="M 72.7 71.4 c 0 0 2.2 2.6 7.7 2.2" />
    </g>
    <g>
      <g id="ID0.7407716196030378_25_">
        <path id="ID0.15909873321652412_24_" fill="#faa51f" stroke="#8e5322" stroke-linecap="round" stroke-linejoin="round" stroke-width="1.4" d="M 67.5 81.1 c -0.2 0.2 8.9 12 8.7 12.1 c -2.1 0.5 -4.1 1.1 -5 0.8 c -3.9 -1.4 -8.4 -5.4 -10.8 -10.1 l -0.4 -1.4" />
        <path id="ID0.8024068027734756_25_" fill="#faa51f" stroke="#8e5322" stroke-linecap="round" stroke-linejoin="round" stroke-width="1.4" d="M 72 86.7" />
        <path id="ID0.06734407460317016_25_" fill="none" stroke="#8e5322" stroke-linecap="round" stroke-linejoin="round" stroke-width="1.4" d="M 70.9 83.3" />
      </g>
      <path id="ID0.1790580078959465_28_" fill="#faa51f" stroke="#8e5322" stroke-linecap="round" stroke-linejoin="round" stroke-width="1.4" d="M 70.2 84.8 c 0.7 0.9 1.8 2.2 2.8 2.1 c 0.8 0 1.7 -0.5 2.4 -1 c 4.2 -3.2 7.9 -1.3 8.4 0.3 c 1.2 3.8 -3.1 6.6 -11.7 7.8" />
    </g>
  </g>
</svg>