<svg version="1.1" xmlns="http://www.w3.org/2000/svg" xmlns:xlink="http://www.w3.org/1999/xlink" width="91.24385" height="91.6" viewBox="0,0,91.24385,91.6"><g transform="translate(-203.75616,-135.6)"><g data-paper-data="{&quot;isPaintingLayer&quot;:true}" fill-rule="nonzero" stroke-miterlimit="10" stroke-dasharray="" stroke-dashoffset="0" style="mix-blend-mode: normal"><path d="M234.59551,202.82802c0.70608,0.68662 2.18742,1.87221 -0.90973,4.78042c-3.00333,2.94279 -10.06542,2.1511 -10.85063,1.9682c-2.98776,-0.56858 -6.81996,-1.44848 -10.63703,-3.81491c-11.08585,-6.64485 -8.23342,-19.87488 -3.92171,-21.16294c4.31171,-1.28807 4.26545,7.22121 8.5015,13.3658c1.87611,2.71666 4.51796,4.22351 6.82904,5.1821c3.21476,1.39832 10.4109,-1.06452 10.98856,-0.31867z" fill="#41ff43" stroke="none" stroke-width="1" stroke-linecap="butt" stroke-linejoin="miter"/><path d="M212.44371,188.90618c1.20937,2.79059 3.33194,7.7297 3.33194,7.7297c0,0 -3.90614,-1.54663 -6.41525,-0.23349c-2.50911,1.31314 -1.16181,5.75328 -2.48014,4.41462c-0.99232,-1.64478 -2.39929,-4.18849 -2.63061,-7.89746c-0.1375,-3.67438 2.09576,-8.2866 4.18978,-8.47383c2.24709,-0.02421 3.0764,1.77363 4.00429,4.46045z" fill="#ffffff" stroke="none" stroke-width="1" stroke-linecap="butt" stroke-linejoin="miter"/><path d="M234.59551,202.82802c0.70608,0.68662 2.18742,1.87221 -0.90973,4.78042c-3.00333,2.94279 -10.06542,2.1511 -10.85063,1.9682c-2.98776,-0.56858 -6.81996,-1.44848 -10.63703,-3.81491c-11.08585,-6.64485 -8.23342,-19.87488 -3.92171,-21.16294c4.31171,-1.28807 4.26545,7.22121 8.5015,13.3658c1.87611,2.71666 4.51796,4.22351 6.82904,5.1821c3.21476,1.39832 10.4109,-1.06452 10.98856,-0.31867z" fill="none" stroke="#8e5322" stroke-width="1.4" stroke-linecap="round" stroke-linejoin="round"/><g stroke="#8e5322" stroke-width="1.4" stroke-linecap="round" stroke-linejoin="round"><g><path d="M238.4,195.4c-0.2,-0.1 -8.8,9.4 -9,9.3c-1.8,-0.9 -2.9,-2.5 -2.8,-3.4c0.4,-4.1 3.8,-9.6 7.8,-13l1.2,-0.7" fill="#41ff43"/><path d="M234.6,200.2" fill="#faa51f"/><path d="M237.6,198.3" fill="none"/></g><path d="M232.8,199.9c5.3,2.6 7.8,8.5 6.6,9.7c-2.9,2.7 -7.5,0.8 -12.2,-6.5" fill="#41ff43"/></g><g stroke="#8e5322" stroke-width="1.4" stroke-linecap="round" stroke-linejoin="round"><path d="M247.8,205.1c0,0 2.6,1.9 10.6,5.7c3.4,1.6 3.3,-6.7 9.4,-2.5c1.7,1.2 -3.1,9.1 -4.8,10.5c-1.6,1.3 -2.4,1.4 -4,0.1c-5.8,-4.6 -18.4,-6.5 -18.4,-6.5" fill="#41ff43"/><path d="M259.7,212.5c0.5,-1.5 1.3,-2.5 1.3,-2.5" fill="#faa51f"/></g><path d="M240.1,204.6" fill="#faa51f" stroke="#8e5322" stroke-width="1.4" stroke-linecap="round" stroke-linejoin="round"/><path d="M252.1,198.9c-1.9,6.4 -3,16.3 -14.4,13c-11.4,-3.4 -8,-11.7 -5.9,-18.1c1.6,-5.2 7.1,-6.8 12.8,-5.1c6.4,1.8 9.4,3.8 7.5,10.2z" fill="#41ff43" stroke="#8e5322" stroke-width="1.4" stroke-linecap="round" stroke-linejoin="round"/><path d="M249.1,201.1c-1.2,4 -2.1,10.3 -8.2,8.5c-6.1,-1.8 -4.1,-7.1 -2.9,-11.2c1.2,-4.1 3.6,-4.6 7.2,-3.5c3.5,1.1 5,2.2 3.9,6.2z" fill="#ffffff" stroke="none" stroke-width="1" stroke-linecap="butt" stroke-linejoin="miter"/><g stroke="#8e5322" stroke-width="1.4" stroke-linecap="round" stroke-linejoin="round"><path d="M238.9,211.2c0,0 -8.2,2.7 -15.9,7c-3.3,1.8 -1.4,7.8 -6.4,8.3c-3.5,0 -2.9,-3.1 -2.8,-9.2c0.3,-2.8 0.3,-2.8 2.2,-3.3c7.1,-2 17.1,-11.1 17.1,-11.1" fill="#41ff43"/><path d="M221.6,219.8" fill="#faa51f"/></g><g stroke="#8e5322" stroke-width="1.4" stroke-linecap="round" stroke-linejoin="round"><g><path d="M244.1,193.2c-0.2,0.1 3.9,12.3 3.6,12.4c-1.7,1.1 -3.6,1.3 -4.3,0.7c-3.4,-2.4 -6.5,-8.1 -7.5,-13.2v-1.4" fill="#41ff43"/><path d="M246.4,198.9" fill="#faa51f"/><path d="M246.2,195.4" fill="none"/></g><path d="M245.2,200.3c4.9,-3.3 11.3,-2.6 11.7,-0.9c0.9,3.9 -3,6.9 -11.7,7.4" fill="#41ff43"/></g><path d="M240.7,144.2l4.7,4.2" fill="none" stroke="#8e5322" stroke-width="1.4" stroke-linecap="round" stroke-linejoin="round"/><path d="M260.8,145.4l8,-6.1l1.4,11.5c0,0 5.6,5.3 7.1,8.7c2.4,5.6 2,9.9 2,9.9c0,0 6.5,2.9 7.1,8.5c0.6,5.6 -5,15.5 -23.5,16.8c-18.5,1.3 -32.4,-5.3 -37.9,-17.2c-5.4,-11.7 6.9,-23.5 6.2,-22.8l0.1,-18.4l11.5,9.7c0,0 4.5,-1.2 9.1,-0.8c1.7,0.1 4.7,0.7 6.2,1z" fill="#41ff43" stroke="#8e5322" stroke-width="1.4" stroke-linecap="round" stroke-linejoin="round"/><path d="M278.9,169.8c0,0 6.4,2.4 6.9,8c0.8,5.6 -5.4,15.3 -22.8,16.3c-4,0.2 -7.5,0.5 -13,-0.2c-8.5,-0.9 -17.1,-7.3 -15.1,-18.3c1.2,-6.3 9.2,-4.8 9.2,-4.8l7.3,-0.9c0,0 6.8,2.5 11.1,2.1c4.3,-0.4 4.7,-3.7 4.7,-3.7l9.1,-1.5l2.1,2.3z" fill="#ffffff" stroke="none" stroke-width="1" stroke-linecap="butt" stroke-linejoin="miter"/><path d="M294.3,174.6c0,0 -2.1,1 -4.9,1.1c-2.3,0.1 -6.7,-0.6 -6.7,-0.6" fill="none" stroke="#8e5322" stroke-width="1.4" stroke-linecap="round" stroke-linejoin="round"/><path d="M291.6,185.1c0,0 -1.8,-0.3 -4.3,-1.4c-2.6,-1 -4.8,-2.8 -4.8,-2.8" fill="none" stroke="#8e5322" stroke-width="1.4" stroke-linecap="round" stroke-linejoin="round"/><path d="M224.9,173c0,0 -3.4,0.8 -5.2,1.1c-1.8,0.3 -5.8,0.3 -5.8,0.3" fill="none" stroke="#8e5322" stroke-width="1.4" stroke-linecap="round" stroke-linejoin="round"/><path d="M213.2,164.6c0,0 2.2,0.3 6.3,1.8c3.8,1.4 3.8,1.4 6.1,2.9" fill="none" stroke="#8e5322" stroke-width="1.4" stroke-linecap="round" stroke-linejoin="round"/><path d="M275.1,159.2c2.3,4.6 1.7,9.6 -1.1,10.9c-2.9,1.5 -7.1,-1.2 -9.4,-5.9c-2.3,-4.6 -1.7,-9.6 1.1,-10.9c2.9,-1.3 7.1,1.3 9.4,5.9z" fill="#ffffff" stroke="#8e5322" stroke-width="1.4" stroke-linecap="round" stroke-linejoin="round"/><path d="M274.6,162.8c0.2,1 -0.4,2 -1.5,2.1c-0.9,0.2 -1.8,-0.5 -2,-1.7c-0.2,-1 0.4,-2 1.5,-2.1c1,0 1.8,0.7 2,1.7" fill="#414142" stroke="none" stroke-width="1" stroke-linecap="butt" stroke-linejoin="miter"/><path d="M251.7,159.5c2.3,4.6 1.3,9.7 -2.1,11.4c-3.4,1.7 -8.1,-0.7 -10.3,-5.4c-2.3,-4.6 -1.3,-9.7 2.1,-11.4c3.4,-1.6 8,0.8 10.3,5.4z" fill="#ffffff" stroke="#8e5322" stroke-width="1.4" stroke-linecap="round" stroke-linejoin="round"/><path d="M250.9,163.3c-0.1,1 -1,1.8 -1.9,1.7c-1,-0.1 -1.6,-1 -1.5,-2.1c0.1,-1 1,-1.8 1.9,-1.7c1,0.1 1.7,1 1.5,2.1" fill="#414142" stroke="none" stroke-width="1" stroke-linecap="butt" stroke-linejoin="miter"/><path d="M261.4,170.6c1.7,0 4.2,-1 4.2,0.9c-0.1,0.8 -2.1,3.9 -3.9,3.8c-2,-0.1 -5.2,-3.1 -4.9,-4.5c0.3,-1.4 3.1,-0.1 4.6,-0.2z" fill="#5f4b43" stroke="#8e5322" stroke-width="1.4" stroke-linecap="round" stroke-linejoin="round"/><path d="M258.2,187c-5.5,0.4 -7.7,-2.2 -7.7,-2.2" fill="#ffffff" stroke="#8e5322" stroke-width="1.4" stroke-linecap="round" stroke-linejoin="round"/></g></g></svg>