<svg version="1.1" xmlns="http://www.w3.org/2000/svg" xmlns:xlink="http://www.w3.org/1999/xlink" width="20.875" height="47.125" viewBox="0,0,20.875,47.125"><g transform="translate(-229.5625,-156.4375)"><g data-paper-data="{&quot;isPaintingLayer&quot;:true}" fill="#ff0000" fill-rule="nonzero" stroke="none" stroke-width="0" stroke-linecap="butt" stroke-linejoin="miter" stroke-miterlimit="10" stroke-dasharray="" stroke-dashoffset="0" style="mix-blend-mode: normal"><path d="M243.3125,203.5625c0,0 -8.77683,-10.99033 -8.74817,-13.25314c0.03178,-2.50971 7.08068,-4.92574 6.42695,-7.73026c-0.56003,-2.40258 -7.7142,-4.58314 -7.8382,-6.88301c-0.13356,-2.47731 5.03441,-6.22484 5.03441,-8.0086c0,-0.94224 -8.625,-5.33188 -8.625,-5.875c0,-0.44738 2.75,-5.375 2.75,-5.375h7.125c0,0 -2.75,3.50645 -2.75,5.25c0,0.56268 7.625,4.87137 7.625,5.875c0,1.7858 -5.13567,5.52366 -4.9491,7.98668c0.19713,2.60237 7.52312,5.1209 8.28619,7.82855c0.61467,2.18111 -6.32811,3.9636 -6.21241,5.97082c0.34332,5.9561 9.00032,14.21395 9.00032,14.21395z"/></g></g></svg>