<svg version="1.1" xmlns="http://www.w3.org/2000/svg" xmlns:xlink="http://www.w3.org/1999/xlink" width="132.44544" height="105.33797" viewBox="0,0,132.44544,105.33797"><g transform="translate(-174.04626,-127.16312)"><g data-paper-data="{&quot;isPaintingLayer&quot;:true}" stroke-miterlimit="10" stroke-dasharray="" stroke-dashoffset="0" style="mix-blend-mode: normal"><path d="M178.96139,216.98085c-3.35684,0.74597 -4.10281,-2.61088 -4.10281,-2.61088l-0.75028,-4.72857c0.73889,-3.46317 0.71278,-5.79684 3.58656,-8.44456c2.02274,-1.86364 5.68321,-3.00547 8.18718,-4.25643c3.79948,-1.89818 7.05498,-3.96105 11.09527,-5.32525c0,0 0.92341,-0.30781 1.95142,-0.1046c0.12218,-0.27965 0.24034,-0.56317 0.35419,-0.85089c0,0 0.17605,-0.44014 0.56085,-0.9282c0.17199,-1.0095 0.78428,-2.25527 2.69271,-2.63695c2.60816,-0.52163 3.6024,1.37757 3.91902,2.26474c4.72704,0.38106 11.45871,1.18522 14.47457,4.79515c0.28849,0.34531 0.53933,0.72471 0.75556,1.13105c-0.06823,-0.62612 -0.14712,-1.26647 -0.21214,-1.9346c0,0 -0.31132,-3.42461 3.11328,-3.73593c3.42461,-0.31132 3.73593,3.11328 3.73593,3.11328c0.36105,4.21502 0.88022,6.22931 -0.55164,10.65136c-1.42158,4.39031 -6.16974,7.49233 -3.17193,12.62372c1.77147,3.03226 5.47192,5.62091 8.07709,7.89813l1.5893,1.99499c0,0 2.06323,2.75098 -0.68774,4.81422c-2.75098,2.06323 -4.81422,-0.68774 -4.81422,-0.68774l-0.61618,-0.94564c-3.81654,-3.34265 -7.91611,-6.80214 -9.99063,-11.15805c0.08945,2.05394 0.25541,4.11914 0.25541,5.99708v1.10273c0,0 0,3.43872 -3.43872,3.43872c-3.43872,0 -3.43872,-3.43872 -3.43872,-3.43872v-1.10273c0,-4.09006 -0.70953,-9.24506 0.07491,-13.21158c0.4707,-2.38013 6.93019,-9.35635 4.02362,-12.16359c-0.85129,-0.8222 -2.22375,-0.81221 -3.34771,-1.18287c-1.01863,-0.33592 -2.01941,-0.76686 -3.07851,-0.93637c-0.59071,-0.09454 -1.18607,-0.14816 -1.78346,-0.18389c0.21232,3.52201 -0.00985,7.07621 -0.87535,10.49579c-0.72591,2.86809 -2.71795,5.2699 -3.77049,8.03487c-0.51087,1.34204 0.08009,5.55518 0.18196,6.63083l1.1214,1.71412c0,0 1.53784,3.07569 -1.53784,4.61353c-3.07569,1.53784 -4.61353,-1.53784 -4.61353,-1.53784l-1.81924,-4.16716c-0.27546,-3.14252 -0.84725,-6.42185 0.18196,-9.54269c0.8586,-2.60344 2.92652,-4.74142 3.58112,-7.40349c0.22538,-0.91657 0.3962,-1.84634 0.51768,-2.78389c-1.8577,2.54646 -3.8526,5.0167 -5.73927,7.76292c-3.00766,4.3779 -5.78908,8.90055 -8.84087,13.26023l-0.75917,1.95566c0,0 -1.35457,3.16069 -4.51526,1.80611c-3.16069,-1.35457 -1.80611,-4.51526 -1.80611,-4.51526l1.44631,-3.19046c3.03915,-4.34164 5.80489,-8.84751 8.80297,-13.20553c1.2374,-1.79868 2.5496,-3.47055 3.83644,-5.1314c-1.26379,0.68589 -2.53445,1.39487 -3.88846,2.07241c-4.79185,2.39783 -7.07594,2.37545 -8.07559,7.8835l0.72005,1.88787c0,0 0.74597,3.35684 -2.61088,4.10281z" fill="#000000" fill-rule="nonzero" stroke="none" stroke-width="0.5" stroke-linecap="butt" stroke-linejoin="miter"/><path d="M249.89352,228.45772c-2.57636,0 -3.22247,-1.93026 -3.38449,-2.89841l-3.23195,2.16326c0,0 -3.43872,0 -3.43872,-3.43872c0,-1.1691 0.39747,-1.94074 0.92216,-2.45002c0.83014,-4.59239 -4.43212,-3.87012 -6.21138,-9.19322c-2.62411,-7.85068 2.92366,-13.61019 5.0981,-20.3209c0,0 1.08743,-3.26227 4.34968,-2.17484c3.26227,1.08743 2.17484,4.34968 2.17484,4.34968c-1.53856,4.5162 -6.91612,10.50747 -5.19413,15.70195c0.43569,1.31429 1.6553,2.10077 2.88677,2.89723c-0.26962,-1.37526 -0.42141,-2.82007 -0.34672,-4.40406c0.1468,-3.11343 1.68647,-6.0059 2.72261,-8.94554c0.3125,-0.88661 0.21524,-5.72266 0.2145,-6.33701c0,0 0,-3.43872 3.43872,-3.43872c1.56975,0 2.42292,0.71658 2.88662,1.49551c0.30017,-0.31117 0.70086,-0.59615 1.23048,-0.83154c3.14234,-1.3966 4.53894,1.74575 4.53894,1.74575c1.3748,3.1503 5.03104,6.53145 5.71994,9.80393c0.95938,4.55733 -0.82901,5.23104 -1.87496,9.06034c-1.47088,5.38501 -2.08217,10.77959 -2.0783,16.34967v1.47032c0,0 0,3.43872 -3.43872,3.43872c-3.43872,0 -3.43872,-3.43872 -3.43872,-3.43872v-1.47032c0.00404,-6.19409 0.70202,-12.21486 2.33267,-18.20285c0.09296,-0.34136 2.10591,-4.42609 1.80084,-5.64285c-0.51019,-2.03496 -2.72317,-4.50053 -4.23942,-6.73876c-0.0312,1.76382 -0.14752,3.58988 -0.52133,4.76572c-1.38109,4.34436 -3.14098,6.03738 -2.46438,10.93231c0.51113,3.69772 2.53867,6.61153 2.96798,10.5009l0.01706,1.81249c0,0 0,3.43872 -3.43872,3.43872z" fill="#000000" fill-rule="nonzero" stroke="none" stroke-width="0.5" stroke-linecap="butt" stroke-linejoin="miter"/><path d="M275.17078,223.71547c0.70738,0.48493 1.31902,1.32356 1.31902,2.77383c0,3.43872 -3.43872,3.43872 -3.43872,3.43872l-3.44327,-1.90088c-1.82451,-3.7612 -2.95044,-4.82323 -2.54734,-9.27051c0.13157,-1.45164 0.79737,-2.80774 1.31426,-4.17063c0.89635,-2.36336 2.62103,-4.3256 3.81206,-6.55502c2.10616,-3.94242 1.63832,-11.16209 -3.06446,-12.06535c0,0 -3.2937,-0.98811 -2.30559,-4.28181c0.98811,-3.2937 4.28181,-2.30559 4.28181,-2.30559c1.61794,0.57524 3.58244,0.5715 4.85381,1.72574c4.96418,4.50677 5.0543,14.40225 2.37396,20.02628c-2.55453,5.36006 -5.45949,7.19896 -3.15555,12.58522z" fill="#000000" fill-rule="nonzero" stroke="none" stroke-width="0.5" stroke-linecap="butt" stroke-linejoin="miter"/><path d="M293.63554,225.51708c-3.43872,0 -3.43872,-3.43872 -3.43872,-3.43872v-0.36758c0.00359,-3.57433 0.03037,-7.33562 -0.96865,-10.81165c-0.2918,-1.01531 -0.61317,-2.02809 -0.97411,-3.02677c-0.00436,0.0513 -0.00883,0.10264 -0.01341,0.15401c-0.51878,5.81406 -1.56004,10.1412 0.84993,15.67005l0.63664,1.25507c0,0 1.53784,3.07569 -1.53784,4.61353c-3.07569,1.53784 -4.61353,-1.53784 -4.61353,-1.53784l-0.83368,-1.68557c-2.7111,-6.73788 -2.00455,-11.88219 -1.35554,-18.88249c0.47432,-5.11602 -0.42104,-9.87682 -1.41526,-14.84792c0,0 -0.67439,-3.37195 2.69756,-4.04635c2.58353,-0.51671 3.58349,1.34194 3.90987,2.23935c2.1468,0.54733 2.39166,2.99592 2.39166,2.99592c0.0178,0.84846 -0.33042,1.78849 0.05339,2.5454c0.4709,0.92862 1.76624,1.21663 2.30582,2.10709c1.2286,2.02753 1.97294,4.31205 2.90483,6.49195c2.34364,5.48229 2.83435,10.86057 2.83979,16.76624v0.36758c0,0 0,3.43872 -3.43872,3.43872z" fill="#000000" fill-rule="nonzero" stroke="none" stroke-width="0.5" stroke-linecap="butt" stroke-linejoin="miter"/><g fill-rule="evenodd"><path d="M251.62834,127.66235c0.49033,-0.32688 1.30755,-0.16344 1.471,0.49033l4.24954,17.48849c0,0 10.46041,7.68187 13.56584,13.07551c5.23021,8.98942 5.39365,16.34439 5.39365,16.34439c0,0 19.56631,16.32707 15.07559,17.31437c-21.63705,4.75699 -106.90095,2.71157 -107.41226,0.85144c-4.63342,-16.85689 9.51875,-34.02956 8.65339,-32.87575l-3.43233,-29.25645c-0.16344,-0.65378 0.65378,-1.14411 1.30755,-0.81722l19.7767,12.91206c0,0 7.35497,-2.77854 15.03684,-3.10544c4.57643,-0.32688 8.49907,0 12.2583,0.65378z" fill="#7300ff" stroke="#001026" stroke-width="1.2" stroke-linecap="butt" stroke-linejoin="miter"/><path d="M275.81803,175.71485c0,0 11.27763,2.94199 13.23895,12.2583c1.96133,9.3163 -94.63401,16.67127 -83.68326,-0.65378c6.70001,-10.70002 16.98997,-9.9389 26.60631,-7.45336c6.10095,1.57694 11.5405,10.11678 16.86976,9.73611c4.77644,-0.33169 7.8296,-8.10363 10.70047,-10.02872c4.20225,-2.81783 8.0139,-5.70354 16.26777,-3.85856z" fill="#ffffff" stroke="none" stroke-width="1" stroke-linecap="butt" stroke-linejoin="miter"/><path d="M305.8917,177.51273c-7.68187,6.21086 -19.44982,6.37432 -19.44982,6.37432" fill="none" stroke="#001026" stroke-width="1.2" stroke-linecap="round" stroke-linejoin="round"/><path d="M303.76692,195.81845c-10.29697,0.81722 -16.67127,-2.28821 -16.67127,-2.28821" fill="none" stroke="#001026" stroke-width="1.2" stroke-linecap="round" stroke-linejoin="round"/><path d="M174.64626,177.02241c0,0 14.05618,4.57643 19.7767,9.64319" fill="none" stroke="#001026" stroke-width="1.2" stroke-linecap="round" stroke-linejoin="round"/><path d="M194.91331,192.38613c-7.02809,2.77854 -19.12294,0.98066 -19.12294,0.98066" fill="none" stroke="#001026" stroke-width="1.2" stroke-linecap="round" stroke-linejoin="round"/><g fill="#ffffff" stroke="#001026" stroke-width="1.2" stroke-linecap="round" stroke-linejoin="round"><path d="M267.48238,160.35113c4.73987,7.35497 4.90331,15.69062 0.32688,18.6326c-4.57643,2.94199 -12.09485,-0.49033 -16.99817,-7.84531c-4.73987,-7.35497 -4.90331,-15.69062 -0.32688,-18.6326c4.57643,-3.10544 12.2583,0.49033 16.99817,7.84531z"/></g><g fill="#ffffff" stroke="#001026" stroke-width="1.2" stroke-linecap="round" stroke-linejoin="round"><path d="M226.9483,164.92755c4.90331,7.19152 4.57643,16.0175 0.16344,19.12294c-5.39365,3.10544 -12.58518,0.81722 -17.48849,-6.37432c-5.06676,-7.19152 -5.39365,-16.50783 -0.32688,-20.10359c5.06676,-3.75921 12.74863,0.16344 17.65194,7.35497z"/></g></g><path d="M223.3258,168.61606c2.66162,5.23738 1.54401,11.14759 -2.49626,13.20084c-4.04026,2.05324 -9.47321,-0.52801 -12.1348,-5.76536c-2.66162,-5.23738 -1.54401,-11.14759 2.49626,-13.20083c4.04026,-2.05324 9.47321,0.52798 12.1348,5.76536z" fill="#001026" fill-rule="nonzero" stroke="none" stroke-width="0" stroke-linecap="butt" stroke-linejoin="miter"/><path d="M269.38178,161.1122c2.66162,5.23738 1.54401,11.14759 -2.49626,13.20083c-4.04025,2.05324 -9.47321,-0.52798 -12.1348,-5.76536c-2.66162,-5.23738 -1.54401,-11.14759 2.49625,-13.20083c4.04025,-2.05324 9.47321,0.52798 12.13483,5.76536z" fill="#001026" fill-rule="nonzero" stroke="none" stroke-width="0" stroke-linecap="butt" stroke-linejoin="miter"/></g></g></svg>