<svg version="1.1" xmlns="http://www.w3.org/2000/svg" xmlns:xlink="http://www.w3.org/1999/xlink" width="117.6" height="64.06799" viewBox="0,0,117.6,64.06799"><g transform="translate(-176.5,-163.39451)"><g data-paper-data="{&quot;isPaintingLayer&quot;:true}" stroke-miterlimit="10" stroke-dasharray="" stroke-dashoffset="0" style="mix-blend-mode: normal"><path d="M176.59166,227.4625v-31.6h54.6v31.6z" fill="#5d00ff" fill-rule="nonzero" stroke="none" stroke-width="0" stroke-linecap="butt" stroke-linejoin="miter"/><path d="M176.5,196.5625v-33.125h117.6v33.125z" fill="#5d00ff" fill-rule="nonzero" stroke="none" stroke-width="0" stroke-linecap="butt" stroke-linejoin="miter"/><path d="M248.99166,196.74946l3.3913,-32.68696h20.12174l2.48696,32.68696z" fill="#b1911a" fill-rule="nonzero" stroke="none" stroke-width="0" stroke-linecap="butt" stroke-linejoin="miter"/><g fill-rule="evenodd"><path d="M204.36172,163.89374c0.16767,-0.11178 0.44712,-0.05589 0.50301,0.16767l1.45314,5.98024c0,0 3.57696,2.62683 4.63888,4.47121c1.78848,3.07395 1.84437,5.58901 1.84437,5.58901c0,0 3.96819,1.17369 4.63888,4.35942c0.67068,3.18573 -1.78848,9.22186 -12.29581,11.28979c-10.50733,2.06793 -18.94673,-0.78246 -22.91493,-7.15393c-3.96819,-6.37147 2.29149,-13.97251 1.95615,-13.52539l-1.17369,-10.00432c-0.05589,-0.22356 0.22356,-0.39124 0.44712,-0.27945l6.7627,4.41532c0,0 2.51506,-0.95013 5.14189,-1.06191c1.56492,-0.11178 2.90628,0 4.19175,0.22356z" fill="#7300ff" stroke="#001026" stroke-width="1.2" stroke-linecap="butt" stroke-linejoin="miter"/><path d="M212.63345,180.32542c0,0 3.85641,1.00602 4.52709,4.19175c0.67068,3.18573 -2.01204,8.94241 -12.40759,10.95446c-13.52539,2.7945 -19.95276,-5.25367 -16.20812,-11.17802c2.29109,-3.6589 5.80977,-3.39864 9.0981,-2.54869c2.08624,0.53924 3.9463,3.45946 5.76865,3.32929c1.63332,-0.11342 2.67735,-2.77106 3.65906,-3.42935c1.43697,-0.96357 2.74038,-1.95034 5.56281,-1.31944z" fill="#ffffff" stroke="none" stroke-width="1" stroke-linecap="butt" stroke-linejoin="miter"/><path d="M195.02808,186.30566c0,-0.22356 0.22356,-0.39123 0.44712,-0.33534c1.06191,0.39123 4.07998,1.28547 7.43338,1.50903c3.01806,0.16767 4.80655,0 5.6449,-0.16767c0.27945,-0.05589 0.50301,0.22357 0.39123,0.50301c-0.50301,1.50903 -2.62683,5.70078 -8.49529,5.36544c-5.086,-0.5589 -5.58901,-4.13586 -5.42134,-6.87447z" fill="#ffffff" stroke="#001026" stroke-width="1.2" stroke-linecap="round" stroke-linejoin="round"/><path d="M222.91722,180.94021c-2.62683,2.12382 -6.65091,2.17971 -6.65091,2.17971" fill="none" stroke="#001026" stroke-width="1.2" stroke-linecap="round" stroke-linejoin="round"/><path d="M222.19065,187.19989c-3.52108,0.27945 -5.70078,-0.78246 -5.70078,-0.78246" fill="none" stroke="#001026" stroke-width="1.2" stroke-linecap="round" stroke-linejoin="round"/><path d="M178.0375,180.77254c0,0 4.80655,1.56493 6.7627,3.29752" fill="none" stroke="#001026" stroke-width="1.2" stroke-linecap="round" stroke-linejoin="round"/><path d="M184.96787,186.0262c-2.40327,0.95013 -6.53914,0.33534 -6.53914,0.33534" fill="none" stroke="#001026" stroke-width="1.2" stroke-linecap="round" stroke-linejoin="round"/><g fill="#ffffff" stroke="#001026" stroke-width="1.2" stroke-linecap="round" stroke-linejoin="round"><path d="M209.78306,175.07175c1.62081,2.51505 1.6767,5.36545 0.11178,6.37147c-1.56492,1.00602 -4.13586,-0.16768 -5.81257,-2.68273c-1.62081,-2.51505 -1.6767,-5.36544 -0.11178,-6.37146c1.56492,-1.06191 4.19175,0.16767 5.81257,2.68272z"/></g><g fill="#ffffff" stroke="#001026" stroke-width="1.2" stroke-linecap="round" stroke-linejoin="round"><path d="M195.92232,176.63667c1.6767,2.45916 1.56492,5.47723 0.05589,6.53914c-1.84437,1.06191 -4.30354,0.27945 -5.98024,-2.17971c-1.73259,-2.45916 -1.84437,-5.64489 -0.11178,-6.87447c1.73259,-1.28547 4.35943,0.05589 6.03613,2.51505z"/></g></g><path d="M194.6836,177.89797c0.91015,1.79094 0.52798,3.81194 -0.8536,4.51406c-1.38158,0.70212 -3.23939,-0.18055 -4.14953,-1.97148c-0.91015,-1.79094 -0.52798,-3.81195 0.8536,-4.51406c1.38158,-0.70212 3.23939,0.18055 4.14953,1.97148z" fill="#001026" fill-rule="nonzero" stroke="none" stroke-width="0" stroke-linecap="butt" stroke-linejoin="miter"/><path d="M210.43256,175.33201c0.91015,1.79094 0.52798,3.81195 -0.8536,4.51406c-1.38157,0.70212 -3.23939,-0.18055 -4.14953,-1.97148c-0.91015,-1.79094 -0.52798,-3.81195 0.8536,-4.51406c1.38157,-0.70212 3.23939,0.18055 4.14954,1.97148z" fill="#001026" fill-rule="nonzero" stroke="none" stroke-width="0" stroke-linecap="butt" stroke-linejoin="miter"/><text transform="translate(222.59166,186.6625) scale(0.5,0.5)" font-size="40" xml:space="preserve" fill="#ff0000" fill-rule="nonzero" stroke="none" stroke-width="1" stroke-linecap="butt" stroke-linejoin="miter" stroke-miterlimit="10" stroke-dasharray="" stroke-dashoffset="0" font-family="Curly" font-weight="normal" text-anchor="start" style="mix-blend-mode: normal"><tspan x="0" dy="0">青の塔</tspan></text><path d="M203.59166,227.2625v-11h84.8v11z" fill="#5d00ff" fill-rule="nonzero" stroke="none" stroke-width="0" stroke-linecap="butt" stroke-linejoin="miter"/><text transform="translate(177.79166,216.7855) scale(0.42,0.42)" font-size="40" xml:space="preserve" fill="#ff0000" fill-rule="nonzero" stroke="none" stroke-width="1" stroke-linecap="butt" stroke-linejoin="miter" stroke-miterlimit="10" stroke-dasharray="" stroke-dashoffset="0" font-family="Curly" font-weight="normal" text-anchor="start" style="mix-blend-mode: normal"><tspan x="0" dy="0">塔チケ</tspan></text></g></g></svg>