<svg version="1.1" xmlns="http://www.w3.org/2000/svg" xmlns:xlink="http://www.w3.org/1999/xlink" width="61.40716" height="37.68878" viewBox="0,0,61.40716,37.68878"><g transform="translate(-209.29642,-161.15561)"><g data-paper-data="{&quot;isPaintingLayer&quot;:true}" fill-rule="evenodd" stroke="none" stroke-width="1" stroke-linecap="butt" stroke-linejoin="miter" stroke-miterlimit="10" stroke-dasharray="" stroke-dashoffset="0" style="mix-blend-mode: normal"><path d="M213.82674,198.8428c-7.22702,0 -2.85214,-30.08154 15.57977,-29.63523c18.77481,0.45507 25.59131,29.63523 25.59131,29.63523z" fill="#efab00"/><path d="M268.61197,186.76849c0,0 -37.51143,9.98846 -44.2444,10.98055c-9.01627,1.32861 -12.00445,-1.57047 -13.0928,-6.26517c-1.80039,-7.76562 4.47432,-8.0218 6.39723,-12.26461c1.92211,-4.24361 -2.59994,-11.14682 6.39723,-11.50324c7.52536,-0.29834 7.63992,-6.08059 11.33935,-6.50543c5.7377,-0.65874 6.99073,4.78858 11.23593,6.30654c4.00971,1.43363 6.11957,-2.23477 10.60742,-0.4312c3.84502,1.54581 4.01846,9.76172 9.0831,11.46983c8.25411,2.78452 2.27694,8.21274 2.27694,8.21274" fill="#59c059"/><path d="M219.87121,184.38877c-0.81865,-0.24822 -1.28645,-1.12256 -1.03743,-1.94121l0.49883,-1.64525c0.24822,-0.81865 1.12176,-1.28565 1.94121,-1.03743l4.38044,1.32782c0.81944,0.24902 1.28645,1.12256 1.03743,1.942l-0.49883,1.64446c-0.24822,0.81944 -1.12176,1.28565 -1.94121,1.03743l-4.38044,-1.32782" fill="#e8511c"/><path d="M216.93601,183.22722c0.90696,0.23072 2.20375,1.21723 3.26186,1.47977c-2.73678,7.08859 -3.23004,13.88281 -6.6192,14.12148h-0.01591c-2.60154,-0.21481 -5.40992,-2.64927 -3.78694,-5.15534c0.96265,-1.48773 -0.53304,-3.33347 -0.12729,-5.04396c0.58077,-2.46629 3.10275,-2.99932 3.97788,-3.24595c0.95469,-0.26254 1.96507,-2.49811 3.3096,-2.15601" fill="#c18500"/><path d="M223.75395,180.52195c-0.80353,1.45591 -1.46386,2.95159 -2.02076,4.43136l-0.74784,-0.23072l-0.71602,-0.21401c0.58077,-1.48057 1.26497,-2.9683 2.09237,-4.40749z" fill="#c6431a"/><path d="M221.73318,184.95363c-2.63336,6.93743 -3.16639,13.5248 -6.43621,13.8669c-0.38188,0 -0.57282,0 -1.20928,0.02387h-0.15912c-0.11934,0 -0.23072,-0.00796 -0.35005,-0.01591c3.38916,-0.23867 3.88241,-7.0329 6.6192,-14.12148c0.28641,0.0716 0.54895,0.08751 0.78762,0.01591z" fill="#a06b00"/><path d="M223.17357,175.28705c-0.77171,0.36994 -1.70651,0.04057 -2.07566,-0.73193l-0.1432,-0.29755c-0.36915,-0.7725 -0.03978,-1.70572 0.73193,-2.07566l2.13612,-1.02232c0.7725,-0.36994 1.70651,-0.04057 2.07566,0.73113l0.1432,0.29834c0.36915,0.77171 0.03978,1.70651 -0.73193,2.07566l-2.13612,1.02232" fill="#e8511c"/><path d="M244.85264,168.72394c-0.58077,0.00796 -1.17745,0.03978 -1.79005,0.08751c-10.67664,0.81944 -16.12634,5.935 -19.30864,11.71089l-1.39226,-0.42166c3.21413,-5.60881 8.65587,-10.4857 19.06997,-11.28923c1.19336,-0.09547 2.33104,-0.11934 3.42098,-0.08751" fill="#4ba04b"/><path d="M263.27906,180.73405c-0.42802,-0.74148 -0.17184,-1.69856 0.57043,-2.12658l0.75739,-0.43757c0.74148,-0.42802 1.69856,-0.17105 2.12658,0.56963l1.61741,2.80202c0.42802,0.74148 0.17184,1.69776 -0.57043,2.12658l-0.75739,0.43677c-0.74148,0.42802 -1.69856,0.17184 -2.12658,-0.56963l-1.61741,-2.80122" fill="#e8511c"/><path d="M244.93036,169.99766c-0.80751,0.28482 -1.70094,-0.14161 -1.98576,-0.94912l-0.29118,-0.82501c-0.28561,-0.80751 0.14082,-1.70094 0.94833,-1.98655l3.05024,-1.07801c0.80751,-0.28482 1.70094,0.14241 1.98576,0.94912l0.29198,0.82501c0.28561,0.80751 -0.14161,1.70174 -0.94912,1.98655l-3.05024,1.07801" fill="#e8511c"/><path d="M215.01995,198.8428c7.16019,0 1.76857,-28.01623 28.04407,-30.03301c20.9173,-1.60547 26.09491,16.14066 27.18246,25.46004c0.28402,2.43208 -1.59115,4.57297 -4.03835,4.57297z" fill="#ffbf00"/><path d="M234.10304,168.00912c-0.23072,0 -0.45984,-0.10024 -0.61737,-0.29357c-0.27766,-0.34051 -0.22594,-0.84172 0.11456,-1.11858l4.17678,-3.40189c0.3413,-0.27607 0.84252,-0.22594 1.11938,0.11456c0.27766,0.34051 0.22594,0.84172 -0.11456,1.11938l-4.17678,3.40109c-0.14798,0.12013 -0.32539,0.179 -0.50201,0.179" fill="#ffbf00"/><path d="M261.22488,170.49919c-0.04933,0 -0.09865,-0.00398 -0.14877,-0.01432l-5.29297,-1.00163c-0.432,-0.08115 -0.71522,-0.49803 -0.63407,-0.92923c0.08194,-0.432 0.49883,-0.72 0.92923,-0.63407l5.29377,1.00243c0.432,0.08115 0.71522,0.49803 0.63328,0.92923c-0.0716,0.38188 -0.40574,0.6476 -0.78046,0.6476" fill="#ffbf00"/><path d="M216.01108,186.83142c-0.17662,0 -0.35483,-0.05808 -0.5028,-0.1798l-4.17439,-3.40507c-0.34051,-0.27686 -0.39142,-0.77807 -0.11297,-1.11858c0.27766,-0.33971 0.77807,-0.39222 1.11938,-0.11377l4.17439,3.40586c0.34051,0.27686 0.39142,0.77807 0.11297,1.11858c-0.15673,0.19253 -0.38585,0.29277 -0.61657,0.29277" fill="#ffbf00"/><path d="M260.89703,184.55894c-1.29759,0 -1.29997,-2.01679 0,-2.01679c1.29838,0 1.29997,2.01679 0,2.01679" fill="#efab00"/><path d="M250.56853,186.36291c-1.29759,0 -1.29997,-2.01679 0,-2.01679c1.29838,0 1.29997,2.01679 0,2.01679" fill="#efab00"/><path d="M249.31996,194.66674c-1.29759,0 -1.29997,-2.01679 0,-2.01679c1.29838,0 1.30077,2.01679 0,2.01679" fill="#efab00"/><path d="M232.23766,195.67521c-1.29759,0 -1.29997,-2.01679 0,-2.01679c1.29759,0 1.29997,2.01679 0,2.01679" fill="#efab00"/><path d="M234.2363,178.13991c-1.29759,0 -1.29997,-2.01679 0,-2.01679c1.29759,0 1.29997,2.01679 0,2.01679" fill="#efab00"/><path d="M244.92798,173.57004c-1.29759,0 -1.29997,-2.01758 0,-2.01758c1.29759,0 1.29997,2.01758 0,2.01758" fill="#efab00"/><path d="M239.6868,187.58428c-1.29759,0 -1.29997,-2.01679 0,-2.01679c1.29759,0 1.29997,2.01679 0,2.01679" fill="#efab00"/><path d="M228.52271,188.37986c-1.29759,0 -1.29997,-2.01679 0,-2.01679c1.29759,0 1.29997,2.01679 0,2.01679" fill="#efab00"/><path d="M262.86656,192.75012c-1.29759,0 -1.29997,-2.01679 0,-2.01679c1.29759,0 1.29997,2.01679 0,2.01679" fill="#efab00"/><path d="M254.99783,177.13144c-1.29838,0 -1.30077,-2.01679 0,-2.01679c1.29759,0 1.29997,2.01679 0,2.01679" fill="#efab00"/><path d="M220.2694,184.50842l0.71602,0.21481c-0.23867,0.07081 -0.50121,0.05569 -0.78762,-0.01591c0.02387,-0.06365 0.04773,-0.12729 0.0716,-0.19889" fill="#4ba04b"/></g></g></svg>