<svg version="1.1" xmlns="http://www.w3.org/2000/svg" xmlns:xlink="http://www.w3.org/1999/xlink" width="539.39189" height="292.9982" viewBox="0,0,539.39189,292.9982"><g transform="translate(181,-58.8143)"><g data-paper-data="{&quot;isPaintingLayer&quot;:true}" fill-rule="nonzero" stroke-linecap="butt" stroke-linejoin="miter" stroke-miterlimit="10" stroke-dasharray="" stroke-dashoffset="0" style="mix-blend-mode: normal"><path d="M154.5,292.3125v-197h125v197z" fill="none" stroke="#000000" stroke-width="2"/><path d="M-181,349.3125c0,-1.38071 1.11929,-2.5 2.5,-2.5c1.38071,0 2.5,1.11929 2.5,2.5c0,1.38071 -1.11929,2.5 -2.5,2.5c-1.38071,0 -2.5,-1.11929 -2.5,-2.5z" fill="#000000" stroke="none" stroke-width="0.5"/><path d="M319,62.3125c0,2.5 -2.5,2.5 -2.5,2.5c-4.33333,0 -11.66667,0 -16,0c0,0 -0.99582,0 -1.73047,-0.62849l-1.74016,0.5718c-7.07861,0.72157 -13.12391,5.17722 -19.56215,7.86201c-4.55711,1.90035 -9.46619,3.26469 -14.1388,4.86232c-3.44443,1.1777 -7.96709,2.53419 -10.58755,5.29802c-3.19651,3.37139 -5.59434,8.07148 -8.16075,11.92109c0,0 -1.38675,2.08013 -3.46688,0.69338c-2.08013,-1.38675 -0.69338,-3.46688 -0.69338,-3.46688c2.76963,-4.15445 5.38184,-9.16796 8.87076,-12.76641c6.51281,-6.71729 17.97705,-7.70713 26.24215,-11.15216c6.75079,-2.81384 13.01563,-7.3318 20.43785,-8.13799l2.7388,-0.9284c0,0 1.84878,-0.61626 2.82586,0.87171c3.98824,0 7.97647,0 11.96471,0h3c0,0 2.5,0 2.5,2.5z" fill="#000000" stroke="none" stroke-width="0.5"/><path d="M316,93.3125c0,2.5 -2.5,2.5 -2.5,2.5l-3.76777,-0.73223c-1.14566,-1.21572 -2.83968,-1.76857 -4.33061,-2.52198c-0.9562,-0.48319 -1.61776,-1.49102 -2.62608,-1.85306c-0.7026,-0.25227 -1.49102,0.07838 -2.23698,0.10697c-4.514,0.17304 -6.94125,1.08519 -11.08048,2.80943c-4.56504,1.90162 -9.42457,3.16901 -14.0296,5.01206c0,0 -2.32119,0.92848 -3.24967,-1.39272c-0.92848,-2.32119 1.39272,-3.24967 1.39272,-3.24967c4.58621,-1.83348 9.42369,-3.09918 13.9704,-4.98794c4.72431,-1.96254 11.25349,-4.79814 16.68253,-3.0836c1.27115,0.40144 2.17954,1.55498 3.37392,2.14694c1.98647,0.98455 4.07118,1.94142 5.66939,3.47802l0.23223,-0.73223c0,0 2.5,0 2.5,2.5z" fill="#000000" stroke="none" stroke-width="0.5"/><path d="M153.5,289.3125v-135h124v135z" fill="#4e0004" stroke="none" stroke-width="0"/><path d="M281.5,89.92844v-20.61594h76.89189v20.61594z" fill="#4e0004" stroke="#ff0000" stroke-width="0"/><path d="M277.5,70.5625c8.1462,0 14.75,6.6038 14.75,14.75c0,7.82445 -6.09245,14.22594 -13.79229,14.71941c-1.78088,1.36327 -3.88155,2.32979 -6.16998,2.76753c-0.13484,1.65235 -0.49967,3.10989 -0.84642,4.18654c0.84534,2.07296 2.99981,3.90501 3.68591,5.68195c0.7625,1.97481 0.50087,4.20943 0.93232,6.28189c0.87584,4.20709 1.19046,7.99404 1.19046,12.36269c0,5.48212 1.0557,11.67925 -2.01477,16.41343c-0.13289,2.3905 -1.46102,14.33657 -14.73523,14.33657c-14.75,0 -14.75,-14.75 -14.75,-14.75c0.27081,-3.11263 0.40466,-6.58361 1.94735,-9.2613c-0.20996,-1.22017 0.05265,-2.49448 0.05265,-3.7387c0,-2.10031 0.59873,-5.80292 0.19046,-7.63731c-0.19646,-0.88271 -0.77252,-1.68328 -0.94883,-2.55834c-0.01547,-0.01508 -0.02852,-0.03168 -0.03873,-0.04981c-1.07301,-1.90645 -1.67051,-4.04456 -2.44598,-6.09017c-1.7619,-4.64774 -2.5807,-8.70264 -2.75692,-13.66436l1,-3.36165c0,-0.87945 0,-1.7589 0,-2.63835v-1c0,0 0,-12.64284 11.70498,-14.51854c1.90819,-5.93587 7.47496,-10.23146 14.04502,-10.23146c0.4921,0 0.97858,0.0241 1.4583,0.07118c2.20677,-1.31548 4.78598,-2.07118 7.5417,-2.07118z" fill="#4e0004" stroke="none" stroke-width="0.5"/></g></g></svg>