<svg version="1.1" xmlns="http://www.w3.org/2000/svg" xmlns:xlink="http://www.w3.org/1999/xlink" width="199.69499" height="217.69656" viewBox="0,0,199.69499,217.69656"><g transform="translate(-116.55501,-104.36751)"><g data-paper-data="{&quot;isPaintingLayer&quot;:true}" fill-rule="nonzero" stroke="none" stroke-width="0.5" stroke-linecap="butt" stroke-linejoin="miter" stroke-miterlimit="10" stroke-dasharray="" stroke-dashoffset="0" style="mix-blend-mode: normal"><path d="M195.9036,269.5053c-13.1928,-6.5964 -6.5964,-19.7892 -6.5964,-19.7892l1,-2c2.94828,-5.70109 7.47607,-10.43756 11.04609,-15.77138c3.36836,-5.03254 6.20778,-10.40099 9.18604,-15.67377c3.55743,-6.29815 9.29038,-21.25791 10.56011,-24.12184c0.67518,-1.5229 1.85895,-2.81358 2.37357,-4.39796c0.65896,-2.02877 0.29514,-4.32919 1.1024,-6.30364c1.67103,-4.08712 4.0175,-7.86989 6.25005,-11.67943c6.77137,-11.55441 10.38244,-15.63008 18.74847,-27.13493c4.2881,-5.89694 8.51089,-11.84124 12.80882,-17.73103c0.80201,-1.09906 1.93293,-1.99291 2.49004,-3.2342c0.98373,-2.19186 0.89036,-4.73532 1.63414,-7.01978c0,0 4.66436,-13.99308 18.65744,-9.32872c13.99308,4.66436 9.32872,18.65744 9.32872,18.65744c-1.01609,2.92403 -1.07945,6.16463 -2.36586,8.98022c-1.43421,3.13911 -3.54657,5.92748 -5.50996,8.7658c-7.71824,11.15766 -16.2076,21.76802 -23.94138,32.91492c-3.69747,5.32926 -7.91158,10.49006 -10.25128,16.53969c-0.69337,1.7928 -0.27852,3.87656 -0.8976,5.69636c-0.90423,2.65797 -2.50207,5.02944 -3.62643,7.60204c-2.73023,6.24695 -7.26315,18.49264 -11.43989,25.87816c-3.49161,6.17405 -6.88962,12.41778 -10.81396,18.32623c-2.79517,4.20839 -6.8225,7.64816 -8.95391,12.22862l-1,2c0,0 -6.5964,13.1928 -19.7892,6.5964z" fill="#00ff2d"/><path d="M316.25,243.3125c0,7.0948 -3.41263,10.77698 -6.95491,12.68802c0.01135,1.90318 -0.04914,3.76344 0.51996,5.75647c1.54197,5.40009 3.52189,10.73292 4.26146,16.29994c1.164,8.76189 2.96503,14.59864 -3.84483,22.37454c-2.56324,2.92686 -6.83578,3.71738 -10.25367,5.57607c-12.42286,4.96914 -24.97743,10.84756 -37.82403,14.59521c-5.15214,1.503 -8.78261,1.44177 -13.65398,1.45976c-9.07918,0.03354 -18.64641,-0.43033 -26.75453,-5.2029c-1.53678,-0.90457 -2.64423,-2.3964 -4.03426,-3.51342c-4.48464,-3.60384 -9.11448,-7.025 -13.58549,-10.64573c-9.99984,-8.09812 -19.48342,-16.81376 -29.24074,-25.20251c-12.91329,-11.10208 -30.72697,-27.0788 -44.46404,-37.2452c-0.99359,-0.73533 -2.3902,-0.63143 -3.5853,-0.94715c0,0 -13.99308,-4.66436 -9.32872,-18.65744c4.66436,-13.99308 18.65744,-9.32872 18.65744,-9.32872c2.8049,1.01762 5.95548,1.36311 8.4147,3.05285c8.82563,6.06414 16.76465,13.327 25.13818,20.00154c8.43753,6.72555 15.73101,13.30308 24.39779,20.75326c9.59884,8.2514 18.92712,16.82552 28.75926,24.79749c4.75099,3.85213 9.69277,7.46634 14.41451,11.35427c0.02229,0.01835 0.04046,0.04394 0.0544,0.0739c0.78544,0.16428 1.51593,0.54782 2.28073,0.79801c0.92047,0.30111 1.90773,0.42664 2.87608,0.41177c3.33287,-0.05117 8.94575,0.5572 12.34602,-0.54024c10.08708,-3.25562 19.93559,-7.57074 29.77129,-11.61576c-0.09963,-0.85575 -0.20618,-1.7096 -0.43237,-2.53848c-0.8325,-3.05073 -2.22472,-5.93423 -3,-9c-3.05783,-12.09197 -2.82126,-27.41927 7.3619,-36.27744c2.00924,-1.74781 4.8592,-2.18077 7.2888,-3.27116l5.66436,-0.75692c0,0 14.75,0 14.75,14.75z" fill="#000000"/></g></g></svg>