<svg version="1.1" xmlns="http://www.w3.org/2000/svg" xmlns:xlink="http://www.w3.org/1999/xlink" width="165.5" height="234.4982" viewBox="0,0,165.5,234.4982"><g transform="translate(-153.5,-58.8143)"><g data-paper-data="{&quot;isPaintingLayer&quot;:true}" fill-rule="nonzero" stroke-linecap="butt" stroke-linejoin="miter" stroke-miterlimit="10" stroke-dasharray="" stroke-dashoffset="0" style="mix-blend-mode: normal"><path d="M154.5,292.3125v-197h125v197z" fill="none" stroke="#000000" stroke-width="2"/><path d="M319,62.3125c0,2.5 -2.5,2.5 -2.5,2.5c-4.33333,0 -11.66667,0 -16,0c0,0 -0.99582,0 -1.73047,-0.62849l-1.74016,0.5718c-7.07861,0.72157 -13.12391,5.17722 -19.56215,7.86201c-4.55711,1.90035 -9.46619,3.26469 -14.1388,4.86232c-3.44443,1.1777 -7.96709,2.53419 -10.58755,5.29802c-3.19651,3.37139 -5.59434,8.07148 -8.16075,11.92109c0,0 -1.38675,2.08013 -3.46688,0.69338c-2.08013,-1.38675 -0.69338,-3.46688 -0.69338,-3.46688c2.76963,-4.15445 5.38184,-9.16796 8.87076,-12.76641c6.51281,-6.71729 17.97705,-7.70713 26.24215,-11.15216c6.75079,-2.81384 13.01563,-7.3318 20.43785,-8.13799l2.7388,-0.9284c0,0 1.84878,-0.61626 2.82586,0.87171c3.98824,0 7.97647,0 11.96471,0h3c0,0 2.5,0 2.5,2.5z" fill="#000000" stroke="none" stroke-width="0.5"/><path d="M316,93.3125c0,2.5 -2.5,2.5 -2.5,2.5l-3.76777,-0.73223c-1.14566,-1.21572 -2.83968,-1.76857 -4.33061,-2.52198c-0.9562,-0.48319 -1.61776,-1.49102 -2.62608,-1.85306c-0.7026,-0.25227 -1.49102,0.07838 -2.23698,0.10697c-4.514,0.17304 -6.94125,1.08519 -11.08048,2.80943c-4.56504,1.90162 -9.42457,3.16901 -14.0296,5.01206c0,0 -2.32119,0.92848 -3.24967,-1.39272c-0.92848,-2.32119 1.39272,-3.24967 1.39272,-3.24967c4.58621,-1.83348 9.42369,-3.09918 13.9704,-4.98794c4.72431,-1.96254 11.25349,-4.79814 16.68253,-3.0836c1.27115,0.40144 2.17954,1.55498 3.37392,2.14694c1.98647,0.98455 4.07118,1.94142 5.66939,3.47802l0.23223,-0.73223c0,0 2.5,0 2.5,2.5z" fill="#000000" stroke="none" stroke-width="0.5"/><path d="M153.5,289.3125v-135h124v135z" fill="#4e0004" stroke="none" stroke-width="0"/></g></g></svg>