<svg xmlns="http://www.w3.org/2000/svg" xmlns:xlink="http://www.w3.org/1999/xlink" version="1.1" width="59.88140869140625" height="85.5053482055664" viewBox="-0.5000165700912476 -0.49999451637268066 59.88140869140625 85.5053482055664"><g><g data-paper-data="{&quot;isPaintingLayer&quot;:true}" fill-rule="nonzero" stroke-linecap="butt" stroke-linejoin="miter" stroke-miterlimit="10" stroke-dasharray="" stroke-dashoffset="0" font-family="none" font-weight="none" font-size="none" text-anchor="none" style="mix-blend-mode: normal"><g data-paper-data="{&quot;origPos&quot;:null}"><path d="M 31.7554 79.66 C 34.3899 76.9166 42.7697 71.2863 46.1227 69.2557 C 45.6446 68.0457 44.8233 67.9023 44.8233 66.5845 C 46.1405 66.5845 46.1057 65.3902 47.3211 64.871 C 49.3041 64.0169 51.7348 64.2315 53.8885 64.5507 C 55.8224 64.8333 56.01 64.9433 57.2084 66.5468 C 58.2853 68.007 56.968 69.755 55.6347 70.965 C 53.8197 72.6052 43.5919 75.5977 38.9395 78.092 C 36.5445 80.0881 34.0995 81.2793 31.7554 79.66 Z " data-paper-data="{&quot;origPos&quot;:null}" fill="#ff9cd1" stroke-width="1" stroke="none"/><path d="M 54.3336 63.6966 C 55.4211 64.5193 59.5328 66.2632 58.7929 68.6894 C 58.0512 71.1178 40.6955 77.2547 39.8966 77.8419 C 41.6821 78.4249 46.0691 80.6868 47.011 82.438 C 47.1772 82.7468 47.3175 83.3685 46.9654 83.5768 C 43.591 85.5739 30.465 83.4847 29.0253 81.8979 C 31.1728 77.8073 45.5749 69.0432 45.5749 69.0432 L 43.3175 66.6913 L 45.2237 66.5646 L 47.8993 68.8695 C 47.8993 68.8695 34.4748 77.8534 33.1906 78.8038 C 35.0968 79.7689 36.4846 79.7731 37.9627 78.4301 C 39.0414 77.4515 57.1584 69.3154 57.1378 68.1158 C 57.1182 66.9153 54.6785 65.1861 53.2022 64.4848 Z " data-paper-data="{&quot;origPos&quot;:null}" fill="#272525" stroke-width="1" stroke="none"/><path d="M 38.9752 78.6091 C 38.0494 82.3668 41.6741 82.7939 43.2496 80.7988 C 44.2076 81.0846 46.0548 82.3668 45.2335 82.7939 C 41.2657 83.9348 31.5597 81.7922 30.7974 81.3703 C 31.0369 80.96 31.5508 80.2284 32.507 79.66 C 35.322 80.8082 36.8215 81.0176 38.9753 78.6091 Z " data-paper-data="{&quot;origPos&quot;:null}" fill="#ff5ba1" stroke-width="1" stroke="none"/><path d="M 39.658 79.0194 C 40.3792 79.2947 42.498 80.444 42.498 80.444 C 41.0592 81.8686 39.0065 80.9202 39.658 79.0194 Z " data-paper-data="{&quot;origPos&quot;:null}" fill="#ff9cd1" stroke-width="1" stroke="none"/></g><g data-paper-data="{&quot;origPos&quot;:null}"><path d="M 1.9336 66.66 C 2.2956 66.1754 2.6369 65.7442 3.0105 65.3464 C 4.2705 65.9964 5.6566 66.4978 7.0391 65.8802 C 7.8371 65.5725 9.0739 65.6165 9.9569 65.9315 C 10.1803 66.0194 10.3956 66.1283 10.5994 66.2508 C 11.8675 67.0473 11.8693 67.7716 13.1007 68.0783 C 13.2857 68.1213 13.4993 68.1547 13.762 68.1621 C 13.4859 68.5242 13.2089 68.8854 13.0185 69.3668 C 16.3706 71.3975 24.7522 77.0277 27.3858 79.7711 C 25.0426 81.3904 22.5967 80.1982 20.2026 78.2032 C 15.5502 75.7089 5.3215 72.7163 3.5083 71.0761 C 2.1731 69.8672 0.8559 68.1192 1.9336 66.6601 Z " data-paper-data="{&quot;origPos&quot;:null}" fill="#ff9cd1" stroke-width="1" stroke="none"/><path d="M 11.2392 68.9795 L 12.5618 67.8407 C 13.0641 68.1003 13.6092 68.2427 14.4019 68.2793 L 13.5645 69.1533 C 13.5645 69.1533 27.0426 77.2035 30.1132 82.0079 C 28.6735 83.5948 15.5484 85.684 12.1731 83.6869 C 11.8219 83.4786 11.9613 82.8589 12.1275 82.5491 C 13.0695 80.798 17.4564 78.536 19.2428 77.953 C 18.4439 77.3647 1.0874 71.2279 0.3465 68.8005 C -0.0896 67.3728 1.1544 66.1806 2.4743 65.2752 C 2.6218 65.6112 2.746 65.9514 2.8997 66.2403 C 2.9319 66.3 2.9676 66.3565 2.9676 66.3565 C 2.9676 66.3565 2.9497 66.324 2.8997 66.2403 C 2.46 67.1049 2.0096 67.7141 2.0007 68.2259 C 1.9801 69.4254 20.0971 77.5615 21.1758 78.5402 C 22.6548 79.8821 24.0417 79.8779 25.947 78.9128 C 24.6664 77.9635 11.2393 68.9795 11.2393 68.9795 Z " data-paper-data="{&quot;origPos&quot;:null}" fill="#272525" stroke-width="1" stroke="none"/><path d="M 26.6324 79.7711 C 27.5904 80.3395 28.1016 81.0711 28.3429 81.4815 C 27.5797 81.9033 17.8755 84.0459 13.9068 82.905 C 13.0864 82.4779 14.9327 81.1957 15.8916 80.91 C 17.4653 82.905 21.0909 82.4779 20.1651 78.7202 C 22.3196 81.1287 23.8183 80.9194 26.6324 79.7711 Z " data-paper-data="{&quot;origPos&quot;:null}" fill="#ff5ba1" stroke-width="1" stroke="none"/><path d="M 16.6432 80.5551 C 16.6432 80.5551 18.7611 79.4058 19.4832 79.1305 C 20.1338 81.0314 18.0802 81.9797 16.6432 80.5551 Z " data-paper-data="{&quot;origPos&quot;:null}" fill="#ff9cd1" stroke-width="1" stroke="none"/></g><path d="M 45.6484 50.9435 C 47.0336 52.2435 48.9326 52.6183 49.6859 54.4343 C 50.3866 56.1279 50.0631 57.4122 51.0541 58.9236 C 52.0282 60.4026 54.0666 59.2806 55.0916 60.7062 C 56.0675 62.0774 54.921 64.108 53.3794 64.7674 C 51.8414 65.4268 51.6028 65.0511 49.9594 64.7674 C 48.9013 64.5895 47.2927 64.9454 46.4027 65.5524 C 45.6502 66.0674 45.5644 66.9561 44.6931 67.1895 C 42.9996 67.6522 42.1435 66.1731 40.5197 65.4781 C 39.0649 64.8533 37.7995 64.7852 36.4822 65.6917 C 34.8245 66.8315 34.7217 68.3273 32.9255 69.2536 C 31.2481 70.1276 29.9326 69.5572 28.6145 68.1849 C 25.8772 65.3358 22.5931 67.5088 18.8308 68.3283 C 16.829 68.7554 15.4787 69.2903 13.6306 68.3283 C 11.9032 67.4365 11.031 66.1177 9.115 66.2611 C 7.0801 66.4202 5.6601 67.1696 3.9157 66.1177 C 2.7182 65.4038 2.359 63.7291 3.0945 62.4825 C 4.0516 60.8611 5.5574 60.096 5.3518 58.2077 C 5.1642 56.4817 6.2589 55.0184 7.8835 54.6457 C 11.8004 53.7204 14.1436 54.5913 18.1462 54.2176 C 19.4805 54.0952 19.8388 52.724 20.3357 51.4397 C 21.1051 49.4813 20.0274 39.5396 19.241 35.4072 C 18.9666 33.947 18.0256 31.5773 19.4456 31.6327 C 20.7968 31.6861 21.8594 32.4262 22.2508 33.7691 C 23.4143 37.7602 26.5948 39.4339 29.5037 37.8314 C 31.0265 36.994 31.6922 34.8734 32.0354 33.1274 C 32.1721 32.4157 31.8647 31.8107 32.3097 31.2748 C 32.9076 30.562 33.7119 30.7054 34.6359 30.7054 C 34.6359 33.3609 36.0059 46.383 37.442 51.4407 C 40.8289 51.94 43.1372 48.5748 45.6484 50.9435 Z " data-paper-data="{&quot;origPos&quot;:null}" fill="#ff5ba1" stroke-width="1" stroke="none"/><path d="M 31.8326 31.4182 C 31.8326 34.6965 30.0533 38.473 26.9068 38.1161 C 23.8612 37.7591 21.4331 35.4449 21.4331 32.2733 C 25.0926 34.1616 28.1034 33.0207 31.8326 31.4182 Z " data-paper-data="{&quot;origPos&quot;:null}" fill="#cf8c6e" stroke-width="1" stroke="none"/><path d="M 22.426 48.8668 C 21.6494 48.6051 21.9774 47.9059 22.5609 47.9771 C 27.4644 48.5989 33.8245 47.3083 34.7066 47.3083 C 35.5877 47.3083 35.6279 48.0138 34.837 48.3225 C 33.0935 48.9977 26.5484 50.2506 22.426 48.8668 Z " data-paper-data="{&quot;origPos&quot;:null}" fill="#272525" stroke-width="1" stroke="none"/><path d="M 34.501 52.9019 C 35.0345 52.9019 35.1873 53.7487 34.4492 53.7487 C 33.711 53.7487 23.8353 53.9015 23.1758 53.9015 C 22.5162 53.9015 22.3214 52.7962 23.039 52.7962 C 23.7575 52.7951 33.9666 52.9019 34.501 52.9019 Z " data-paper-data="{&quot;origPos&quot;:null}" fill="#272525" stroke-width="1" stroke="none"/><path d="M 34.2937 31.8452 C 34.2937 31.8452 34.5153 30.5274 35.2508 30.2406 C 36.383 29.7989 38.3196 30.3861 39.3553 30.989 C 44.2132 33.8057 48.0774 35.5872 49.652 41.2164 C 50.9174 45.7058 47.5644 49.768 43.5984 51.94 C 42.6484 52.4633 41.7432 52.389 40.9979 52.8318 C 39.812 53.5372 39.4081 54.8237 37.7485 55.2183 C 35.8326 55.6809 34.9094 57.7482 32.9586 57.6048 C 32.9586 56.7371 33.8889 55.1178 33.644 54.3621 C 33.5475 54.0638 32.5895 54.7336 32.3107 54.54 C 31.7968 54.3254 31.0783 54.2543 31.0104 53.6493 C 30.8746 52.4372 32.4474 52.3314 33.4742 51.7955 C 32.2428 51.5475 30.669 51.0869 30.8746 49.8016 C 31.1132 48.198 33.7807 48.982 35.2526 49.5179 C 37.8183 50.4788 40.1114 50.3375 41.8209 48.0912 C 43.1891 46.3118 44.7959 44.3147 43.9755 42.2139 C 42.6091 38.7567 38.5019 37.0809 34.98 37.9737 C 34.6369 35.8353 34.2937 31.8452 34.2937 31.8452 Z " data-paper-data="{&quot;origPos&quot;:null}" fill="#cf8c6e" stroke-width="1" stroke="none"/><path d="M 19.2428 38.3987 C 15.2401 38.7211 11.5806 40.1812 10.6226 44.2435 C 10.1436 46.2396 11.1347 47.5208 12.2643 49.2321 C 14.0435 51.9023 16.0274 52.3471 19.0721 51.7442 C 21.535 51.2429 22.527 48.6962 25.8111 49.3724 C 25.6395 50.619 24.8531 51.1874 23.8951 51.9368 C 25.6395 52.0101 26.4948 51.3685 27.863 52.0802 C 27.0077 53.6482 25.5368 53.7215 24.1686 54.7902 C 24.989 55.2863 26.2052 56.4775 25.2633 56.5696 C 21.9961 56.892 19.653 56.1771 16.3688 55.929 C 11.5458 55.5365 6.8246 55.0393 5.2857 50.2296 C 2.5833 41.7502 10.5198 30.3495 17.7718 31.4893 C 20.4412 32.6292 19.7218 35.3726 19.2428 38.3987 Z " data-paper-data="{&quot;origPos&quot;:null}" fill="#cf8c6e" stroke-width="1" stroke="none"/><path d="M 41.2052 53.151 C 40.4358 54.0313 40.0426 55.6799 37.7512 55.5019 C 35.972 56.3215 34.0211 59.1382 32.3437 57.6383 C 31.7763 57.1306 31.9264 56.0054 32.8469 55.1262 C 32.0596 54.9629 30.5019 55.0832 30.2857 53.9853 C 30.1311 53.1918 32.0417 51.6469 32.0417 51.6469 C 30.7709 51.6228 29.8058 50.8744 30.2928 49.7335 C 30.7799 48.5916 33.6663 48.2231 35.8674 48.9139 C 37.0524 49.2845 38.299 49.9973 39.5627 49.3755 C 42.039 48.1635 45.0327 44.164 42.5734 41.3358 C 40.8558 39.3617 38.4 38.9001 35.8156 38.6133 C 35.0417 38.5253 35.7164 37.5686 35.3893 36.9762 C 38.274 36.5136 43.9889 39.0874 44.8495 42.1585 C 46.1203 46.6886 39.4894 52.2268 37.0997 50.7834 C 36.2213 50.2506 32.3285 48.8805 31.9264 50.0706 C 31.5234 51.2617 34.5671 50.619 35.8728 51.1309 C 35.0461 51.2272 31.5234 52.6685 31.678 53.7278 C 31.8317 54.7902 34.7396 53.1144 36.3124 53.0673 C 34.3625 54.2187 33.2079 56.0494 33.5412 56.7496 C 33.8755 57.4478 36.5314 54.8687 37.0935 54.7295 C 38.1167 54.4751 39.282 54.4689 39.4581 52.9626 C 43.1569 50.9362 46.543 50.7153 48.6073 46.3558 C 52.3061 38.5505 42.2963 31.5773 34.7923 30.8603 L 34.8415 29.4211 C 54.1998 33.0008 52.4357 47.2601 47.0783 50.7101 C 45.3607 51.8144 43.2579 52.2257 41.2052 53.151 Z " data-paper-data="{&quot;origPos&quot;:null}" fill="#272525" stroke-width="1" stroke="none"/><path d="M 19.5171 30.7054 C 19.7978 31.0665 19.4519 31.6484 19.2437 31.8463 C 2.1061 33.3462 0.4278 56.5717 17.5422 55.3114 C 18.6968 55.93 20.0801 56.6502 21.2607 55.6662 C 22.3867 56.0755 25.4001 56.893 25.1954 56.1101 C 24.9899 55.325 23.2455 54.8257 22.0122 54.5138 C 23.2115 53.4389 26.9193 53.464 27.4188 52.5816 C 27.9139 51.7107 23.2714 52.7962 21.9524 52.5491 C 22.9032 51.2282 26.3304 50.3573 25.4027 49.6173 C 24.4769 48.8773 22.1784 50.4327 20.3777 51.9661 C 18.317 53.7246 13.1231 51.874 11.3822 50.2422 C 9.6289 48.5968 9.5565 45.442 10.3152 43.3056 C 11.6342 39.6013 16.1874 37.6231 19.174 37.4786 C 19.1829 38.1495 19.5851 38.3903 19.334 39.0487 C 15.7084 39.9028 12.5154 41.7827 11.9863 44.7198 C 11.0418 49.9732 15.2455 51.3517 19.3116 51.2743 C 21.9452 48.2011 26.3402 47.7416 26.5627 48.915 C 26.7861 50.0862 25.4939 51.0366 24.7415 51.6647 C 26.1784 51.6992 28.7182 51.2031 28.7182 52.4748 C 28.7182 54.3285 25.1266 54.0732 24.7504 54.4353 C 25.5708 55.0058 26.7593 55.6893 26.1775 56.5444 C 25.2455 57.9114 22.9488 56.4837 21.4662 56.8595 C 20.3357 57.1452 18.2124 57.2478 17.2911 56.5727 C 14.1123 56.9317 13.4385 56.8166 10.964 56.0776 C -1.8492 52.2372 3.9855 30.3505 19.5172 30.7053 Z " data-paper-data="{&quot;origPos&quot;:null}" fill="#272525" stroke-width="1" stroke="none"/><path d="M 35.0578 30.4971 C 35.5377 36.1022 36.4 43.762 37.6458 49.0898 C 37.7119 49.6173 37.3214 50.0381 36.8996 50.1124 C 36.6511 50.0161 36.2758 49.9596 36.2061 49.565 C 34.8531 44.8862 34.0086 31.1554 34.1257 30.6446 C 34.1999 30.3223 34.4376 30.1872 35.0578 30.4971 Z " data-paper-data="{&quot;origPos&quot;:null}" fill="#272525" stroke-width="1" stroke="none"/><path d="M 19.7173 32.9505 C 20.3339 38.2982 21.0793 45.0547 21.5699 50.4442 C 21.2124 51.0859 20.3858 50.7488 19.964 50.819 C 19.3894 47.9625 18.4635 35.3486 18.796 32.916 C 18.9738 32.6187 19.56 32.6407 19.7173 32.9505 Z " data-paper-data="{&quot;origPos&quot;:null}" fill="#272525" stroke-width="1" stroke="none"/><path d="M 8.023 56.0745 C 4.7388 56.0745 6.0829 59.1424 5.4073 60.9375 C 5.2786 61.2819 0.6798 64.3236 4.6191 65.7126 C 6.5083 66.3783 8.6083 63.5836 10.9676 65.1139 C 11.7209 65.6027 11.6476 66.55 13.325 67.2952 C 15.376 68.2069 19.0337 67.155 20.0855 66.9289 C 22.5511 66.4034 25.4778 64.4838 27.7155 66.9017 C 28.4662 67.7139 29.6789 69.0673 30.8683 69.1123 C 32.9836 69.1877 35.5698 65.743 37.2606 64.7172 C 39.6941 63.2403 41.8701 65.7984 44.1239 66.3176 C 45.9666 66.7447 45.6154 63.9667 47.8629 63.6171 C 49.4742 63.368 50.963 64.3425 52.4652 63.7846 C 53.1256 63.5396 54.0675 63.189 54.3133 62.4113 C 54.5072 61.8063 54.1927 61.1782 53.8683 60.6936 C 52.7566 59.0335 50.3732 60.8527 49.6261 58.4432 C 49.2722 57.2991 49.7396 56.0232 48.8164 55.0948 C 48.1811 54.4573 42.9621 50.9247 45.9255 51.088 C 51.1239 51.3716 49.6243 56.7831 51.2633 57.7838 C 52.8084 58.7269 56.0541 59.3287 56.4831 61.5299 C 56.7771 63.0383 55.2588 65.6351 53.9755 66.2841 C 51.3696 67.604 49.4617 62.8802 45.5823 67.403 C 43.8728 69.397 39.4429 64.9663 38.1927 65.4792 C 35.7995 66.461 32.4939 73.5253 27.3152 69.3269 C 26.0739 68.321 25.7405 67.1288 23.9407 67.4585 C 18.7281 68.4089 15.2482 71.4611 10.6217 67.1885 C 7.8219 64.6041 2.9345 70.5453 1.1803 64.7674 C 0.1446 61.3562 4.3974 61.8795 4.191 58.4966 C 4.1427 57.7178 3.3277 56.3131 3.863 55.7291 C 5.2464 54.2271 8.7031 55.1178 8.023 56.0745 Z " data-paper-data="{&quot;origPos&quot;:null}" fill="#272525" stroke-width="1" stroke="none"/><path d="M 40.3196 13.1761 C 37.5698 9.8988 42.7655 10.4107 42.425 8.3288 C 42.2561 7.2978 41.7932 6.6907 41.9764 5.6607 C 42.207 4.3628 43.3902 4.1765 44.4527 3.4856 C 46.5385 2.1281 45.8057 -0.72 49.9264 0.1686 C 51.0899 0.4188 51.459 1.8182 51.2463 3.0335 C 51.1104 3.8363 50.5215 4.2162 50.6413 5.0243 C 50.8146 6.1568 51.9621 6.3599 52.1739 7.4705 C 52.4357 8.7809 51.7369 10.0433 50.5251 10.4975 C 49.719 10.8063 49.1203 10.6148 48.3589 11.024 C 47.4054 11.5453 47.9961 12.7773 47.8763 13.9056 C 47.7146 15.3836 45.9639 15.6411 44.5117 15.5584 C 43.7262 15.5197 43.308 15.0131 42.5296 15.0957 C 41.8075 15.1753 41.7441 16.2398 41.0211 16.2388 C 39.9443 16.2367 39.7182 14.1077 40.3196 13.1761 Z " data-paper-data="{&quot;origPos&quot;:null}" fill="#272525" stroke-width="1" stroke="none"/><path d="M 8.8791 16.9945 C 7.8514 17.3179 6.9122 17.387 6.1213 16.6459 C 5.3304 15.9038 5.7442 14.9367 5.5681 13.8219 C 5.233 11.6092 1.006 13.018 0.8934 10.7938 C 0.8398 9.7261 1.7799 8.9976 1.3036 8.0598 C 0.7147 6.8969 -0.2272 6.2165 0.0498 4.9186 C 0.4359 3.0596 2.4243 1.7198 4.107 2.485 C 5.2285 2.9937 5.2741 4.2403 6.4046 4.5711 C 7.5869 4.9343 8.3653 4.0718 9.6083 4.2529 C 10.7299 4.4245 11.4948 5.3279 11.5029 6.5044 C 11.5038 7.5563 10.8157 8.5036 11.5708 9.2122 C 12.2902 9.8863 13.216 9.9072 13.5055 10.8911 C 13.838 12.0498 13.3769 13.1101 12.4198 13.8041 C 11.5931 14.4028 11.9569 15.5071 11.2392 16.2241 C 10.5529 16.9024 9.7897 16.7129 8.8791 16.9945 Z " data-paper-data="{&quot;origPos&quot;:null}" fill="#272525" stroke-width="1" stroke="none"/><path d="M 39.7101 24.7883 C 39.0318 23.8169 39.3509 22.3725 40.4206 21.5644 C 41.4894 20.7543 42.9076 20.8862 43.585 21.8554 C 44.2606 22.8278 43.9424 24.2712 42.8727 25.0793 C 41.8021 25.8894 40.3866 25.7586 39.7101 24.7883 Z " data-paper-data="{&quot;origPos&quot;:null}" fill="#272525" stroke-width="1" stroke="none"/><path d="M 40.4188 22.5337 C 41.1221 22.003 42.0247 22.0501 42.4366 22.6384 C 42.8468 23.2266 42.6109 24.1341 41.9058 24.6679 C 41.2043 25.1976 40.3017 25.1515 39.8897 24.5633 C 39.4795 23.974 39.7146 23.0665 40.4188 22.5337 Z " data-paper-data="{&quot;origPos&quot;:null}" fill="#cf8c6e" stroke-width="1" stroke="none"/><path d="M 39.7101 24.7883 C 39.0318 23.8169 39.3509 22.3725 40.4206 21.5644 C 41.4894 20.7543 42.9076 20.8862 43.585 21.8554 C 44.2606 22.8278 43.9424 24.2712 42.8727 25.0793 C 41.8021 25.8894 40.3866 25.7586 39.7101 24.7883 Z " data-paper-data="{&quot;origPos&quot;:null}" fill="none" stroke-width="1" stroke="none"/><path d="M 39.7101 24.7883 C 39.0318 23.8169 39.3509 22.3725 40.4206 21.5644 C 41.4894 20.7543 42.9076 20.8862 43.585 21.8554 C 44.2606 22.8278 43.9424 24.2712 42.8727 25.0793 C 41.8021 25.8894 40.3866 25.7586 39.7101 24.7883 Z " data-paper-data="{&quot;origPos&quot;:null}" fill="none" stroke-width="1" stroke="none"/><path d="M 9.7209 26.889 C 8.5762 26.2014 8.1141 24.7998 8.6906 23.7604 C 9.267 22.721 10.6628 22.4363 11.8076 23.1251 C 12.9524 23.8138 13.4144 25.2164 12.838 26.2548 C 12.2616 27.2952 10.8657 27.5809 9.7209 26.8891 Z " data-paper-data="{&quot;origPos&quot;:null}" fill="#272525" stroke-width="1" stroke="none"/><path d="M 12.6342 26.0496 C 12.2848 26.6818 11.3912 26.8242 10.6396 26.373 C 9.8862 25.9208 9.5601 25.0426 9.9095 24.4136 C 10.2589 23.7824 11.1526 23.638 11.905 24.0912 C 12.6575 24.5423 12.9846 25.4215 12.6342 26.0496 Z " data-paper-data="{&quot;origPos&quot;:null}" fill="#cf8c6e" stroke-width="1" stroke="none"/><path d="M 9.7209 26.889 C 8.5762 26.2014 8.1141 24.7998 8.6906 23.7604 C 9.267 22.721 10.6628 22.4363 11.8076 23.1251 C 12.9524 23.8138 13.4144 25.2164 12.838 26.2548 C 12.2616 27.2952 10.8657 27.5809 9.7209 26.8891 Z " data-paper-data="{&quot;origPos&quot;:null}" fill="none" stroke-width="1" stroke="none"/><path d="M 9.7209 26.889 C 8.5762 26.2014 8.1141 24.7998 8.6906 23.7604 C 9.267 22.721 10.6628 22.4363 11.8076 23.1251 C 12.9524 23.8138 13.4144 25.2164 12.838 26.2548 C 12.2616 27.2952 10.8657 27.5809 9.7209 26.8891 Z " data-paper-data="{&quot;origPos&quot;:null}" fill="none" stroke-width="1" stroke="none"/><path d="M 38.1373 15.4841 C 37.9621 14.5871 39.652 12.614 40.3777 12.4821 C 41.2937 12.3157 43.82 14.8309 43.5457 15.9174 C 43.3196 16.826 41.0515 18.1563 40.3982 18.126 C 39.4027 18.0799 38.2061 15.8326 38.1373 15.4841 Z " data-paper-data="{&quot;origPos&quot;:null}" fill="#272525" stroke-width="1" stroke="none"/><path d="M 38.6744 15.4705 C 38.6118 15.1481 39.8611 13.5152 40.2785 13.4399 C 40.6949 13.3645 42.6574 15.4171 42.5475 15.8588 C 42.4375 16.3005 40.5796 17.4739 40.1963 17.4561 C 39.8165 17.4362 38.7396 15.7918 38.6744 15.4705 Z " data-paper-data="{&quot;origPos&quot;:null}" fill="#ff9cd1" stroke-width="1" stroke="none"/><path d="M 11.4314 20.031 C 10.7781 20.0509 8.5333 18.6787 8.3206 17.7649 C 8.0659 16.6742 10.6325 14.2029 11.5458 14.3871 C 12.2687 14.5337 13.9256 16.536 13.7352 17.4299 C 13.661 17.7774 12.4269 20.0038 11.4314 20.031 Z " data-paper-data="{&quot;origPos&quot;:null}" fill="#272525" stroke-width="1" stroke="none"/><path d="M 11.6432 19.3632 C 11.2607 19.3737 9.4233 18.1668 9.3206 17.7241 C 9.2169 17.2813 11.2151 15.2632 11.6298 15.347 C 12.0453 15.4307 13.2669 17.0856 13.199 17.4069 C 13.1311 17.7272 12.0257 19.3527 11.6432 19.3632 Z " data-paper-data="{&quot;origPos&quot;:null}" fill="#ff9cd1" stroke-width="1" stroke="none"/><path d="M 11.4823 22.2029 C 10.6602 21.5707 10.1704 20.5083 10.4108 19.336 C 10.6646 18.1448 12.082 18.6745 12.3912 17.5157 C 12.6432 16.5748 12.3206 15.8431 12.6432 14.9335 C 13.1097 13.6419 14.1525 13.2452 15.2428 13.5079 C 17.3822 14.0323 16.5833 11.4532 18.5761 10.4002 C 20.3822 9.4446 21.2303 11.1298 22.106 11.2062 C 23.2419 11.3056 23.5457 9.4864 25.5037 9.3797 C 27.4608 9.2729 27.8513 11.0534 28.9711 10.8315 C 29.8352 10.6587 30.51 8.8919 32.4009 9.6455 C 34.4876 10.4756 33.9532 13.129 36.0292 12.3733 C 37.0872 11.9944 38.165 12.2749 38.7575 13.5089 C 39.1703 14.3788 38.9219 15.1408 39.2669 16.0493 C 39.6922 17.1672 41.047 16.4868 41.4188 17.6435 C 41.7753 18.7844 41.3964 19.8928 40.6404 20.6109 Z " data-paper-data="{&quot;origPos&quot;:null}" fill="#272525" stroke-width="1" stroke="none"/><path d="M 11.1177 24.7224 C 10.855 19.4951 17.4019 14.8885 25.7405 14.4332 C 34.081 13.9779 41.0533 17.8465 41.3169 23.0738 C 41.5787 28.3 35.0327 32.9066 26.6932 33.3619 C 18.3545 33.8162 11.3804 29.9475 11.1177 24.7224 Z " data-paper-data="{&quot;origPos&quot;:null}" fill="#272525" stroke-width="1" stroke="none"/><path d="M 39.7432 23.1586 C 39.9282 26.8315 34.9103 31.9143 26.6431 32.3654 C 18.3759 32.8166 12.8764 28.3073 12.6923 24.6355 C 12.5064 20.9647 17.5565 16.5235 25.8236 16.0723 C 34.0908 15.6212 39.5582 19.4878 39.7432 23.1586 Z " data-paper-data="{&quot;origPos&quot;:null}" fill="#cf8c6e" stroke-width="1" stroke="none"/><path d="M 26.0185 24.9558 L 26.0596 24.9526 C 27.2884 24.8689 27.4894 24.0859 27.5538 23.7416 C 27.6199 23.3941 28.4385 23.2413 28.5279 23.6987 C 28.5734 23.9321 28.1588 25.8392 26.1096 25.9721 L 26.0712 25.9742 C 24.0167 26.0684 23.4153 24.2126 23.4367 23.975 C 23.4787 23.5144 24.3098 23.5762 24.4099 23.9132 C 24.51 24.2482 24.7888 25.007 26.0185 24.9558 Z " data-paper-data="{&quot;origPos&quot;:null}" fill="#272525" stroke-width="1" stroke="none"/><path d="M 19.1338 21.5958 C 19.0944 20.8108 19.5672 20.1461 20.1892 20.1116 C 20.812 20.0791 21.3482 20.6883 21.3884 21.4734 C 21.4278 22.2605 20.955 22.9252 20.3321 22.9576 C 19.7093 22.9921 19.174 22.383 19.1338 21.5958 Z " data-paper-data="{&quot;origPos&quot;:null}" fill="#272525" stroke-width="1" stroke="none"/><path d="M 30.4063 20.9804 C 30.3679 20.1953 30.8388 19.5307 31.4626 19.4961 C 32.0855 19.4626 32.6234 20.0729 32.6619 20.8579 C 32.7021 21.645 32.2293 22.3097 31.6065 22.3432 C 30.9836 22.3767 30.4465 21.7675 30.4063 20.9803 Z " data-paper-data="{&quot;origPos&quot;:null}" fill="#272525" stroke-width="1" stroke="none"/><path d="M 20.7495 27.2355 C 24.3 28.8747 28.3652 28.6611 31.5797 26.6671 C 31.7986 26.5321 32.2883 26.9456 32.1293 27.2334 C 30.5144 30.1715 22.577 30.3547 20.3179 28.0352 C 20.0667 27.7767 20.4689 27.1057 20.7495 27.2355 Z " data-paper-data="{&quot;origPos&quot;:null}" fill="#272525" stroke-width="1" stroke="none"/><path d="M 32.5028 31.8463 C 32.6807 34.3971 32.7709 37.1573 29.6708 38.5578 C 28.3572 39.1492 25.9595 39.1869 24.6056 38.6227 C 22.5073 37.7476 21.6959 34.8776 21.5145 33.1599 C 21.6289 32.8794 22.5029 32.4628 22.7924 32.9558 C 21.9264 37.7581 31.9121 41.1474 31.3429 31.7374 C 31.7244 31.6129 32.1427 31.7249 32.5028 31.8463 Z " data-paper-data="{&quot;origPos&quot;:null}" fill="#272525" stroke-width="1" stroke="none"/><g><path d="M 46.274 59.717 C 47.417 59.5328 49.9094 59.6993 50.3356 61.0882 C 51.3982 64.5539 47.0604 61.0003 45.7369 60.747 C 44.5099 60.5094 42.1382 60.8224 41.6404 59.201 C 41.3339 58.2098 41.9577 57.1432 40.0729 55.9122 C 42.5975 55.0728 43.2892 60.1985 46.274 59.717 Z " data-paper-data="{&quot;origPos&quot;:null}" stroke-width="1" fill="#272525" stroke="none"/><path d="M 28.4572 66.0528 C 29.4599 62.9985 24.0212 64.6502 27.6735 59.4334 C 28.4796 58.2799 28.3429 57.8549 28.2669 56.7496 C 28.9139 57.5577 29.8531 58.5667 29.3831 59.7149 C 29.0587 60.5052 27.5806 61.2337 28.165 62.2898 C 28.8844 63.5899 32.0613 64.4429 30.9532 66.6693 C 30.3715 67.8364 28.8192 66.9938 28.4573 66.0528 Z " data-paper-data="{&quot;origPos&quot;:null}" stroke-width="1" fill="#272525" stroke="none"/><path d="M 22.7611 58.4254 C 22.8371 59.268 19.7066 59.1508 19.2902 60.701 C 18.9336 62.0261 19.5502 63.1251 18.4546 64.3372 C 17.8934 64.9579 15.3563 66.4181 15.1302 64.7413 C 14.9318 63.28 17.6029 62.0261 17.8067 59.9065 C 18.0122 57.7838 21.0408 58.3197 22.7611 58.4254 Z " data-paper-data="{&quot;origPos&quot;:null}" stroke-width="1" fill="#272525" stroke="none"/><path d="M 37.19 63.1408 C 36.3071 62.9011 35.2007 59.9892 35.0193 59.0901 C 34.9353 58.6756 35.6351 58.7813 35.8218 58.8996 C 36.7852 59.515 38.98 62.292 37.19 63.1408 Z " data-paper-data="{&quot;origPos&quot;:null}" stroke-width="1" fill="#272525" stroke="none"/><path d="M 16.0453 58.7059 C 15.4341 61.2316 12.1981 60.6988 11.6843 62.5212 C 11.1704 64.3383 8.2169 65.1809 6.9113 63.6129 C 6.552 62.2553 9.3706 62.9241 10.0516 62.4605 C 10.6351 62.0627 10.6718 61.0955 10.9551 60.5272 C 11.5833 59.268 14.3858 60.277 16.0453 58.7059 Z " data-paper-data="{&quot;origPos&quot;:null}" stroke-width="1" fill="#272525" stroke="none"/></g></g></g></svg>