<svg version="1.1" xmlns="http://www.w3.org/2000/svg" xmlns:xlink="http://www.w3.org/1999/xlink" width="235.00018" height="202.34305" viewBox="0,0,235.00018,202.34305"><defs><linearGradient x1="240.00002" y1="141.90822" x2="240.00002" y2="218.09179" gradientUnits="userSpaceOnUse" id="color-1"><stop offset="0" stop-color="#000000"/><stop offset="1" stop-color="#545454"/></linearGradient><linearGradient x1="334.81471" y1="139.83005" x2="383.92406" y2="198.58587" gradientUnits="userSpaceOnUse" id="color-2"><stop offset="0" stop-color="#000000"/><stop offset="1" stop-color="#545454"/></linearGradient><linearGradient x1="245.25527" y1="86.62538" x2="341.35136" y2="86.62538" gradientUnits="userSpaceOnUse" id="color-3"><stop offset="0" stop-color="#3d4a41"/><stop offset="1" stop-color="#ffffff"/></linearGradient></defs><g transform="translate(-192.70271,-32.83409)"><g data-paper-data="{&quot;isPaintingLayer&quot;:true}" fill-rule="nonzero" stroke-linejoin="miter" stroke-miterlimit="10" stroke-dasharray="" stroke-dashoffset="0" style="mix-blend-mode: normal"><path d="M192.70272,218.09179v-76.18357h94.59459v76.18357z" fill="url(#color-1)" stroke="none" stroke-width="0" stroke-linecap="butt"/><path d="M340.14522,235.17714l-49.10933,-58.75581l87.55768,-73.18254l49.10933,58.75581z" fill="url(#color-2)" stroke="none" stroke-width="0" stroke-linecap="butt"/><path d="M245.25527,127.91667l96.0961,-82.58258" fill="none" stroke="url(#color-3)" stroke-width="25" stroke-linecap="round"/><path d="M236.95507,119.91086c2.36766,-1.7457 5.29718,-1.7457 5.29718,-1.7457c2.13332,0.07357 4.3003,-0.16387 6.39997,0.2207c1.10084,0.20162 1.93452,1.16857 3.003,1.5015c1.31003,0.40819 2.74802,-0.383 4.11054,-0.2207c2.46357,0.29347 5.35224,-0.25211 7.34028,1.23213c7.13288,5.32529 7.13272,15.71057 1.49635,21.86051c-1.47823,1.61292 -3.67842,2.40537 -5.6795,3.28988c-6.33337,2.79944 -14.24985,3.43308 -20.36016,-0.24298c-2.22583,-1.33909 -4.93662,-2.35186 -6.33136,-4.54324c-1.39784,-2.19624 -1.23213,-7.33305 -1.23213,-10.34329v-3.003c0,0 0,-6.63915 5.95582,-8.0058z" fill="#17c700" stroke="none" stroke-width="0.5" stroke-linecap="butt"/></g></g></svg>