<svg version="1.1" xmlns="http://www.w3.org/2000/svg" xmlns:xlink="http://www.w3.org/1999/xlink" width="105.92197" height="59.70389" viewBox="0,0,105.92197,59.70389"><g transform="translate(-166.98015,-143.55195)"><g data-paper-data="{&quot;isPaintingLayer&quot;:true}" fill="#9966ff" fill-rule="nonzero" stroke="none" stroke-width="0.5" stroke-linecap="butt" stroke-linejoin="miter" stroke-miterlimit="10" stroke-dasharray="" stroke-dashoffset="0" style="mix-blend-mode: normal"><path d="M168.31475,185.79882c2.20118,-1.18525 3.38643,1.01593 3.38643,1.01593l2.259,4.19529c1.37887,2.56076 2.69163,5.16383 3.82179,7.84367c15.08244,-1.47265 30.15347,-3.07763 45.22382,-4.68219c-0.00384,-0.05668 -0.00579,-0.11387 -0.00579,-0.17152c0,-0.24617 0.03558,-0.48404 0.10188,-0.70873l1.29213,-4.77094l0.33621,0.09106c1.844,-11.44746 5.79875,-22.74321 8.81334,-33.87398c0.48603,-1.79457 2.60434,-10.80152 4.38388,-11.17096c1.81831,-0.37748 7.73446,6.72769 9.08473,8.24673c8.66936,9.75303 17.79573,19.25887 25.88996,29.49413c-0.18514,1.47398 -1.17653,11.28935 -2.33302,12.37743c-1.58638,1.49253 -4.27178,0.86336 -6.42592,1.18572c-6.56842,0.98295 -13.28512,1.38941 -19.89151,2.08034c-13.26101,1.38689 -26.52201,2.77378 -39.78302,4.16068c-9.75786,1.02052 -19.44445,2.57055 -29.25061,2.03481c-1.96721,-3.20726 -3.87641,-6.45298 -5.66021,-9.76575l-2.259,-4.19529c0,0 -1.18525,-2.20118 1.01593,-3.38643zM262.89411,177.63818c-5.70428,-5.96969 -10.89272,-12.68612 -16.29718,-18.76613c-2.21455,-2.49136 -4.87269,-4.65011 -6.64364,-7.47409c-0.54766,-0.87331 -0.01624,-2.40293 -0.88073,-2.96441c-0.79659,-0.51738 0.69155,1.83896 0.6042,2.7848c-0.30653,3.31921 -1.74277,6.43484 -2.61415,9.65226c-1.74277,6.43484 -3.48554,12.86968 -5.22831,19.30453c-0.93228,3.44226 -1.36015,6.67702 -2.98234,9.55255l0.20981,0.05682c11.27641,-4.05165 22.55465,-8.09825 33.83234,-12.14633zM266.83022,181.53766c-10.5222,3.77727 -21.04377,7.55631 -31.56671,11.3315c2.82259,-0.29865 5.64525,-0.59602 8.46807,-0.89124c6.58629,-0.68882 13.27732,-1.78865 19.89151,-2.08034c1.17314,-0.05174 2.66458,0.95021 3.51983,0.14555c0.85525,-0.80466 -0.08219,-2.35767 0.0691,-3.52216c0.16875,-1.2989 0.59057,-2.55219 0.88586,-3.82829c-0.42607,-0.37948 -0.84854,-0.76465 -1.26766,-1.15502z"/></g></g></svg>