<svg version="1.1" xmlns="http://www.w3.org/2000/svg" xmlns:xlink="http://www.w3.org/1999/xlink" width="67.04732" height="361.76232" viewBox="0,0,67.04732,361.76232"><g transform="translate(-206.47636,19.84375)"><g data-paper-data="{&quot;isPaintingLayer&quot;:true}" stroke-miterlimit="10" stroke-dasharray="" stroke-dashoffset="0" style="mix-blend-mode: normal"><g fill-rule="evenodd"><path d="" fill="#7300ff" stroke="#001026" stroke-width="1.2" stroke-linecap="round" stroke-linejoin="round"/><path d="" fill="#ffffff" stroke="none" stroke-width="1" stroke-linecap="butt" stroke-linejoin="miter"/></g><path d="" fill="#7300ff" fill-rule="evenodd" stroke="#001026" stroke-width="1.2" stroke-linecap="round" stroke-linejoin="round"/><path d="" fill="#7300ff" fill-rule="evenodd" stroke="#001026" stroke-width="1.2" stroke-linecap="round" stroke-linejoin="round"/><g fill-rule="evenodd"><path d="" fill="#7300ff" stroke="#001026" stroke-width="1.2" stroke-linecap="round" stroke-linejoin="round"/><path d="" fill="#ffffff" stroke="none" stroke-width="1" stroke-linecap="butt" stroke-linejoin="miter"/></g><path d="" fill="#7300ff" fill-rule="evenodd" stroke="#001026" stroke-width="1.2" stroke-linecap="round" stroke-linejoin="round"/><g fill-rule="evenodd" stroke="#001026" stroke-width="1.2"><path d="" fill="#7300ff" stroke-linecap="butt" stroke-linejoin="miter"/><path d="" fill="none" stroke-linecap="round" stroke-linejoin="round"/><path d="" fill="none" stroke-linecap="round" stroke-linejoin="round"/><path d="" fill="none" stroke-linecap="round" stroke-linejoin="round"/><path d="" fill="none" stroke-linecap="round" stroke-linejoin="round"/><g fill="#ffffff" stroke-linecap="round" stroke-linejoin="round"><path d=""/></g><g fill="#ffffff" stroke-linecap="round" stroke-linejoin="round"><path d=""/></g></g><path d="" fill="#001026" fill-rule="nonzero" stroke="none" stroke-width="0" stroke-linecap="butt" stroke-linejoin="miter"/><path d="" fill="#001026" fill-rule="nonzero" stroke="none" stroke-width="0" stroke-linecap="butt" stroke-linejoin="miter"/><g fill-rule="evenodd"><path d="M240.38157,310.26101c0.44144,0.4 1.37949,1.3 0.05518,4.7c-1.32431,3.4 -5.1317,4.1 -5.57314,4.1c-1.71057,0.1 -3.80739,0.1 -6.12493,-1.3c-6.73191,-4 -6.78709,-17.1 -4.63508,-19.2c2.09682,-2.1 3.03488,6 6.06975,10.9c1.32431,2.2 2.92452,3 4.24883,3.5c1.87611,0.6 5.46278,-3.2 5.95939,-2.7z" fill="#7300ff" stroke="#001026" stroke-width="1.2" stroke-linecap="round" stroke-linejoin="round"/><path d="M226.69704,302.16101c0.88287,2.7 2.59344,6.5 2.59344,6.5c0,0 -2.04164,-0.9 -3.20041,0.8c-0.93805,1.3 -0.71733,3.5 -0.60698,4.2c-0.71733,-1.3 -1.60021,-3.1 -2.152,-6.6c-0.5518,-3.5 0,-7.7 1.10359,-8.3c1.10359,-0.4 1.37949,1.1 2.26236,3.4z" fill="#ffffff" stroke="none" stroke-width="1" stroke-linecap="butt" stroke-linejoin="miter"/></g><path d="M243.54853,314.29529c1.33819,4.24837 -1.15523,8.04717 -2.18049,9.71981c-1.02525,1.67264 -1.61909,2.48 -3.26843,6.27415c-0.66843,1.49418 -1.33601,3.49824 -1.68046,4.5984c-0.10742,0.47127 -0.16072,0.96186 -0.10572,1.49107c0.12065,0.96031 0.31847,2.7635 -0.64199,4.35734c-2.4508,3.40633 -9.02959,-9.03045 -7.54438,-13.90234c1.50652,-5.06813 3.77491,-1.09945 4.89312,1.03206c0.19525,0.27349 0.48727,0.17382 0.58404,-0.19933l0.09677,-0.37315c2.19542,-7.26843 5.23834,-12.50192 6.07986,-14.03627c0.83086,-1.43624 2.6469,-2.62295 3.76768,1.03826z" data-paper-data="{&quot;index&quot;:null}" fill="#7300ff" fill-rule="evenodd" stroke="#001026" stroke-width="1.2" stroke-linecap="round" stroke-linejoin="round"/><path d="M254.61449,302.19434c0.39406,0.4 5.20165,7.6 6.77791,5.8c1.89151,-2.1 4.49234,-6.2 7.32961,-2.9c2.83727,3.3 -2.52201,8.9 -4.80759,10.4c-5.43809,3.1 -9.85162,-2.8 -10.79738,-4.4c-0.94576,-1.6 -2.60082,-4.3 -2.60082,-6.9c0.07881,-2.8 2.75845,-3.5 4.09827,-2z" fill="#7300ff" fill-rule="evenodd" stroke="#001026" stroke-width="1.2" stroke-linecap="round" stroke-linejoin="round"/><g fill-rule="evenodd"><path d="M251.96928,323.16101c1.15877,1.9 3.69703,5.8 3.69703,5.8c0,0 7.89068,-2.5 7.89068,4.7c0,4.3 -3.97293,5.3 -9.32535,4.4c-0.33108,-0.1 -0.66215,-0.3 -0.93805,-0.7c-1.21395,-1.9 -4.69026,-7.5 -6.89744,-11.4c-3.25559,-5.8 -5.95939,-9.6 -5.95939,-9.6c-4.69026,-8.3 -0.88287,-11.8 0.60698,-16.6c1.37949,-4.1 1.98646,-3.3 5.29724,-2.1c1.87611,0.5 2.9797,0.8 4.19365,0.7c1.82093,-0.1 1.48985,4.7 0.99323,7.2c0,0 -0.77251,3.7 -1.48985,5.6c-0.88287,2.3 -1.54503,3.8 -2.20718,4.7z" fill="#7300ff" stroke="#001026" stroke-width="1.2" stroke-linecap="round" stroke-linejoin="round"/><path d="M247.33419,315.76101c0,0 -0.82769,-1.2 -1.71057,-2.7c-1.10359,-1.8 -2.20718,-3.3 -1.10359,-6.4c0.99323,-2.4 1.93128,-5.6 4.41436,-2.7c2.37272,2.7 1.32431,5.2 1.32431,5.2c-1.21395,4.5 -2.92452,6.6 -2.92452,6.6z" fill="#ffffff" stroke="none" stroke-width="1" stroke-linecap="butt" stroke-linejoin="miter"/></g><path d="M230.15928,309.08912c-1.28181,3.17803 -2.66461,7.73952 -6.21323,5.07026c-4.37803,-3.94978 1.19823,-12.62043 3.39132,-15.00731c1.93762,-2.12703 4.26154,-0.61736 6.2335,0.65681c3.69323,2.58464 6.93322,4.66195 7.1991,8.92094c0.38658,5.292 -3.72108,3.7224 -5.86662,2.21871c-1.30179,-0.89375 -2.67588,-1.74519 -3.5534,-2.44574c-0.46281,-0.06028 -0.93041,0.10295 -1.19065,0.58632z" data-paper-data="{&quot;index&quot;:null}" fill="#7300ff" fill-rule="evenodd" stroke="#001026" stroke-width="1.2" stroke-linecap="round" stroke-linejoin="round"/><g fill-rule="evenodd"><path d="M251.04962,239.49434c0.16554,-0.2 0.44144,-0.1 0.49662,0.3l1.43467,10.7c0,0 3.53149,4.7 4.5799,8c1.76575,5.5 1.82093,10 1.82093,10c0,0 3.91775,2.1 4.5799,7.8c0.66215,5.7 -1.76575,16.5 -12.1395,20.2c-10.37376,3.7 -18.70587,-1.4 -22.62362,-12.8c-3.91775,-11.4 2.26236,-25 1.93128,-24.2l-1.15877,-17.9c-0.05518,-0.4 0.22072,-0.7 0.44144,-0.5l6.67673,7.9c0,0 2.48308,-1.7 5.07652,-1.9c1.54503,-0.2 2.86934,0 4.13847,0.4z" fill="#7300ff" stroke="#001026" stroke-width="1.2" stroke-linecap="butt" stroke-linejoin="miter"/><path d="M259.2162,268.89434c0,0 3.80739,1.8 4.46954,7.5c0.66215,5.7 -1.98646,16 -12.24986,19.6c-13.35345,5 -19.6991,-9.4 -16.00207,-20c2.26196,-6.5466 5.73591,-6.08093 8.98244,-4.56019c2.05972,0.96482 3.89613,6.18975 5.69533,5.95685c1.61255,-0.20294 2.64332,-4.95805 3.61254,-6.13588c1.4187,-1.72404 2.70554,-3.4896 5.49209,-2.36078z" fill="#ffffff" stroke="none" stroke-width="1" stroke-linecap="butt" stroke-linejoin="miter"/><path d="M241.83463,279.59434c0,-0.4 0.22072,-0.7 0.44144,-0.6c1.04841,0.7 4.02811,2.3 7.33888,2.7c2.9797,0.3 4.74544,0 5.57314,-0.3c0.2759,-0.1 0.49662,0.4 0.38626,0.9c-0.35713,1.94163 0.29754,12.03218 -2.49441,14.14102c-1.0905,0.82368 -9.7226,1.85536 -10.46562,-0.41028c-0.77601,-2.36621 -0.86424,-13.92754 -0.77968,-16.43073z" fill="#000000" stroke="#001026" stroke-width="1.2" stroke-linecap="round" stroke-linejoin="round"/><path d="M269.36923,269.99434c-2.59344,3.8 -6.56637,3.9 -6.56637,3.9" fill="none" stroke="#001026" stroke-width="1.2" stroke-linecap="round" stroke-linejoin="round"/><path d="M268.6519,281.19434c-3.47631,0.5 -5.62832,-1.4 -5.62832,-1.4" fill="none" stroke="#001026" stroke-width="1.2" stroke-linecap="round" stroke-linejoin="round"/><path d="M225.06005,269.69434c0,0 4.74544,2.8 6.67673,5.9" fill="none" stroke="#001026" stroke-width="1.2" stroke-linecap="round" stroke-linejoin="round"/><path d="M231.90231,279.09434c-2.37272,1.7 -6.45601,0.6 -6.45601,0.6" fill="none" stroke="#001026" stroke-width="1.2" stroke-linecap="round" stroke-linejoin="round"/><g fill="#ffffff" stroke="#001026" stroke-width="1.2" stroke-linecap="round" stroke-linejoin="round"><path d="M256.40204,259.49434c1.60021,4.5 1.65539,9.6 0.11036,11.4c-1.54503,1.8 -4.08329,-0.3 -5.73867,-4.8c-1.60021,-4.5 -1.65539,-9.6 -0.11036,-11.4c1.54503,-1.9 4.13847,0.3 5.73867,4.8z"/></g><g fill="#ffffff" stroke="#001026" stroke-width="1.2" stroke-linecap="round" stroke-linejoin="round"><path d="M242.71751,262.29434c1.65539,4.4 1.54503,9.8 0.05518,11.7c-1.82093,1.9 -4.24883,0.5 -5.90421,-3.9c-1.71057,-4.4 -1.82093,-10.1 -0.11036,-12.3c1.71057,-2.3 4.30401,0.1 5.95939,4.5z"/></g></g><path d="M241.49453,264.55108c0.89858,3.20439 0.52126,6.82044 -0.84275,8.07668c-1.36402,1.25624 -3.19821,-0.32305 -4.09678,-3.52743c-0.89858,-3.20439 -0.52126,-6.82044 0.84275,-8.07667c1.36402,-1.25624 3.19821,0.32304 4.09678,3.52743z" fill="#001026" fill-rule="nonzero" stroke="none" stroke-width="0" stroke-linecap="butt" stroke-linejoin="miter"/><path d="M257.04328,259.95999c0.89858,3.20439 0.52126,6.82044 -0.84275,8.07667c-1.36401,1.25624 -3.19821,-0.32304 -4.09678,-3.52743c-0.89858,-3.20439 -0.52126,-6.82044 0.84275,-8.07667c1.36401,-1.25624 3.19821,0.32304 4.09678,3.52743z" fill="#001026" fill-rule="nonzero" stroke="none" stroke-width="0" stroke-linecap="butt" stroke-linejoin="miter"/><path d="M230.23359,240.79429l0.5518,-136l0.77177,-84.11286l-0.828,-35.27518" fill="none" fill-rule="nonzero" stroke="#000000" stroke-width="0.5" stroke-linecap="round" stroke-linejoin="miter"/><path d="M251.20182,239.79429l-0.5518,-133l-1.43541,-88.11286l-1.48545,-35.77518" fill="none" fill-rule="nonzero" stroke="#000000" stroke-width="0.5" stroke-linecap="round" stroke-linejoin="miter"/><path d="M222.50845,311.79429l-11.03591,-203l-4.74618,-82.11286l0.0028,-40.27518" fill="none" fill-rule="nonzero" stroke="#000000" stroke-width="0.5" stroke-linecap="round" stroke-linejoin="miter"/><path d="M269.96287,305.79429l3.31077,-200l-1.43541,-80.11286l-0.10907,-45.27518" fill="none" fill-rule="nonzero" stroke="#000000" stroke-width="0.5" stroke-linecap="round" stroke-linejoin="miter"/><path d="M228.02641,325.79429l-7.17334,-229l-1.98721,-73.11286l-0.6367,-39.77518" fill="none" fill-rule="nonzero" stroke="#000000" stroke-width="0.5" stroke-linecap="round" stroke-linejoin="miter"/><path d="M263.89312,331.79429l-2.20718,-221l0.21998,-89.11286l-1.17676,-32.77518" fill="none" fill-rule="nonzero" stroke="#000000" stroke-width="0.5" stroke-linecap="round" stroke-linejoin="miter"/><path d="M241.8213,245.79429l-1.65539,-142l-0.33182,-81.11286l-2.10493,-34.77518" fill="none" fill-rule="nonzero" stroke="#000000" stroke-width="0.5" stroke-linecap="round" stroke-linejoin="miter"/></g></g></svg>