<svg version="1.1" xmlns="http://www.w3.org/2000/svg" xmlns:xlink="http://www.w3.org/1999/xlink" width="537.53754" height="432.43246" viewBox="0,0,537.53754,432.43246"><defs><radialGradient cx="248.38382" cy="128.94896" r="210.42395" gradientUnits="userSpaceOnUse" id="color-1"><stop offset="0" stop-color="#000c47" stop-opacity="0"/><stop offset="1" stop-color="#000c47"/></radialGradient><radialGradient cx="197.69933" cy="171.13385" r="99.2039" gradientTransform="translate(-56.77267,-100.62349) scale(0.40322,0.40322)" gradientUnits="userSpaceOnUse" id="color-2"><stop offset="0" stop-color="#5300c0"/><stop offset="1" stop-color="#3b00a4"/></radialGradient></defs><g transform="translate(28.76877,36.2162)"><g data-paper-data="{&quot;isPaintingLayer&quot;:true}" stroke-miterlimit="10" stroke-dasharray="" stroke-dashoffset="0" style="mix-blend-mode: normal"><path d="M-28.76877,396.21627v-421.92192h537.53754v421.92192z" fill="#000c47" fill-rule="nonzero" stroke="none" stroke-width="0" stroke-linecap="butt" stroke-linejoin="miter"/><g data-paper-data="{&quot;index&quot;:null}" fill-rule="evenodd"><path d="M256.71966,22.62608c11.61969,-2.02081 23.74457,-3.03123 37.89027,-2.02081c23.74458,1.01042 46.47873,9.59887 46.47873,9.59887l61.12964,-39.91108c2.02081,-1.01042 4.54683,0.50521 4.04163,2.52602l-10.60928,90.43145c-3.03123,-4.04163 53.5516,64.66607 17.68213,122.25929c-35.86947,57.59322 -112.15521,83.3586 -207.13349,64.66608c-94.97829,-18.69254 -117.20724,-73.25454 -111.1448,-102.05114c6.06243,-28.7966 41.93191,-39.40588 41.93191,-39.40588c0,0 0.50521,-22.73417 16.67171,-50.52036c9.59887,-16.67171 41.93191,-40.4163 41.93191,-40.4163l13.13529,-54.0568c0.5052,-2.02082 3.03123,-2.52603 4.54684,-1.51561z" fill="#7300ff" stroke="#001026" stroke-width="1.2" stroke-linecap="butt" stroke-linejoin="miter"/><path d="M188.78556,142.66637c8.87384,5.95044 18.31116,29.97343 33.07509,30.99869c16.47272,1.17661 33.28631,-25.21992 52.14428,-30.09422c29.72401,-7.68284 61.53022,-10.03541 82.23988,23.03825c33.84866,53.55159 -24.24978,126.30092 -146.50907,101.04073c-93.96787,-18.18733 -118.21765,-70.22331 -112.15521,-99.01991c6.06243,-28.7966 40.92149,-37.89027 40.92149,-37.89027c25.51263,-5.70285 37.29444,3.21682 50.28353,11.92674z" fill="#ffffff" stroke="none" stroke-width="1" stroke-linecap="butt" stroke-linejoin="miter"/><path d="M248.63644,246.93651c-53.04639,3.03123 -72.24412,-34.85905 -76.79095,-48.49955c-1.01041,-2.52603 1.01041,-5.05204 3.53643,-4.54684c7.57806,1.51561 23.74457,3.03123 51.02557,1.51561c30.31222,-2.02081 57.59321,-10.10406 67.19209,-13.6405c2.02081,-0.5052 4.04164,1.01041 4.04164,3.03123c1.51561,24.75499 -3.03123,57.08801 -49.00476,62.14006z" fill="#ffffff" stroke="#001026" stroke-width="1.2" stroke-linecap="round" stroke-linejoin="round"/><path d="M105.66379,155.99982c0,0 -36.37467,-0.50521 -60.11923,-19.70294" fill="none" stroke="#001026" stroke-width="1.2" stroke-linecap="round" stroke-linejoin="round"/><path d="M103.64296,185.80686c0,0 -19.70294,9.59887 -51.53078,7.07285" fill="none" stroke="#001026" stroke-width="1.2" stroke-linecap="round" stroke-linejoin="round"/><path d="M390.09345,164.58829c17.68212,-15.66131 61.12964,-29.80703 61.12964,-29.80703" fill="none" stroke="#001026" stroke-width="1.2" stroke-linecap="round" stroke-linejoin="round"/><path d="M447.68669,185.30167c0,0 -37.38507,5.55723 -59.10883,-3.03123" fill="none" stroke="#001026" stroke-width="1.2" stroke-linecap="round" stroke-linejoin="round"/><g fill="#ffffff" stroke="#001026" stroke-width="1.2" stroke-linecap="round" stroke-linejoin="round"><path d="M216.8086,59.00074c14.14571,9.09367 13.6405,34.85904 -1.01041,57.59321c-15.1561,22.73417 -38.39548,33.34345 -52.54118,24.24978c-14.14571,-9.09366 -13.64051,-34.85905 1.01041,-57.59321c14.65089,-22.73417 38.39548,-33.84865 52.54118,-24.24978z"/></g><g fill="#ffffff" stroke="#001026" stroke-width="1.2" stroke-linecap="round" stroke-linejoin="round"><path d="M344.1199,74.66205c15.66131,11.11448 14.6509,39.91109 -1.01041,62.14005c-15.1561,22.22897 -37.38507,29.30181 -54.0568,19.70294c-13.64051,-9.59888 -14.65089,-36.87985 0.50521,-59.10882c15.1561,-22.22896 38.90067,-34.35383 54.56198,-22.73417z"/></g></g><path d="M300.75503,108.79743c8.22699,-16.18869 25.02016,-24.16728 37.50859,-17.82071c12.48843,6.34652 15.94296,24.61494 7.71592,40.80363c-8.22699,16.18864 -25.02016,24.16728 -37.50859,17.82071c-12.48843,-6.34657 -15.94296,-24.61499 -7.71592,-40.80368z" data-paper-data="{&quot;index&quot;:null}" fill="#001026" fill-rule="nonzero" stroke="none" stroke-width="0" stroke-linecap="butt" stroke-linejoin="miter"/><path d="M195.90499,67.7823c12.48837,6.34652 15.94291,24.61494 7.71587,40.80363c-8.22699,16.1887 -25.0202,24.16729 -37.50859,17.82072c-12.48843,-6.34652 -15.94297,-24.61494 -7.71592,-40.80364c8.22705,-16.18869 25.02026,-24.16729 37.50864,-17.82071z" data-paper-data="{&quot;index&quot;:null}" fill="#001026" fill-rule="nonzero" stroke="none" stroke-width="0" stroke-linecap="butt" stroke-linejoin="miter"/><path d="M37.95988,294.11413v-330.33033h420.84789v330.33033z" fill="url(#color-1)" fill-rule="nonzero" stroke="none" stroke-width="0" stroke-linecap="butt" stroke-linejoin="miter"/><g fill-rule="nonzero" stroke-linejoin="miter"><path d="M342.06337,225.33958c-2.06493,2.18617 -5.43498,2.35638 -7.52721,0.38018c-2.09223,-1.9762 -2.11436,-5.35047 -0.04944,-7.53664c2.06493,-2.18617 5.43498,-2.35638 7.52721,-0.38018c2.09223,1.9762 2.11436,5.35047 0.04944,7.53664z" fill="#4c00cc" stroke="none" stroke-width="0" stroke-linecap="butt"/><path d="M335.41578,211.16102c0,0 2.30415,-0.62446 4.75346,-0.09371c2.25189,0.48797 4.61365,2.08615 5.70261,3.10611c0.86689,0.81196 2.04102,3.04413 2.47202,4.78375c0.62571,2.52551 0.29827,4.59198 0.29827,4.59198" fill="none" stroke="#4c00cc" stroke-width="3" stroke-linecap="round"/><path d="M333.76673,203.98597c0,0 3.83631,-1.03972 7.91431,-0.15603c3.74931,0.81246 7.68154,3.47335 9.49463,5.17153c1.44335,1.35188 3.39822,5.06838 4.1158,7.96477c1.04178,4.20487 0.49662,7.64547 0.49662,7.64547" fill="none" stroke="#4c00cc" stroke-width="3" stroke-linecap="round"/><path d="M333.03516,197.32639c0,0 5.13275,-1.39109 10.58887,-0.20877c5.01636,1.08703 10.27745,4.64712 12.70327,6.91921c1.93112,1.80873 4.5466,6.7812 5.5067,10.65639c1.39383,5.62586 0.66444,10.22918 0.66444,10.22918" fill="none" stroke="#4c00cc" stroke-width="3" stroke-linecap="round"/></g><g fill-rule="nonzero" stroke-linecap="butt" stroke-linejoin="miter" font-family="Serif" font-weight="normal" font-size="40" text-anchor="start"><text transform="translate(140.79845,249.55031) scale(2.48004,2.48004)" font-size="40" xml:space="preserve" fill="#5300c0" fill-rule="nonzero" stroke="#3b83f1" stroke-width="3" stroke-linecap="butt" stroke-linejoin="miter" stroke-miterlimit="10" stroke-dasharray="" stroke-dashoffset="0" font-family="Serif" font-weight="normal" text-anchor="start" style="mix-blend-mode: normal"><tspan x="0" dy="0">青鬼</tspan></text><text transform="translate(140.7985,249.55029) scale(2.48004,2.48004)" font-size="40" xml:space="preserve" fill="url(#color-2)" fill-rule="nonzero" stroke="none" stroke-width="1" stroke-linecap="butt" stroke-linejoin="miter" stroke-miterlimit="10" stroke-dasharray="" stroke-dashoffset="0" font-family="Serif" font-weight="normal" text-anchor="start" style="mix-blend-mode: normal"><tspan x="0" dy="0">青鬼</tspan></text></g><text transform="translate(136.25005,302.56604) scale(0.5,0.5)" font-size="40" xml:space="preserve" fill="#bdedff" fill-rule="nonzero" stroke="#1bc2ff" stroke-width="3" stroke-linecap="butt" stroke-linejoin="miter" stroke-miterlimit="10" stroke-dasharray="" stroke-dashoffset="0" font-family="Pixel" font-weight="normal" text-anchor="start" style="mix-blend-mode: normal"><tspan x="0" dy="0">O　F　F　L　I　N　E</tspan></text><path d="M-7.30557,336.05652v-21h502v21z" fill="#969696" fill-rule="nonzero" stroke="none" stroke-width="NaN" stroke-linecap="butt" stroke-linejoin="miter"/><text transform="translate(181.69443,334.80652) scale(0.60834,0.60834)" font-size="40" xml:space="preserve" fill="#c6c6c6" fill-rule="nonzero" stroke="none" stroke-width="1" stroke-linecap="butt" stroke-linejoin="miter" stroke-miterlimit="10" stroke-dasharray="" stroke-dashoffset="0" font-family="Sans Serif" font-weight="normal" text-anchor="start" style="mix-blend-mode: normal"><tspan x="0" dy="0">TAPでSTART</tspan></text></g></g></svg>