<svg version="1.1" xmlns="http://www.w3.org/2000/svg" xmlns:xlink="http://www.w3.org/1999/xlink" width="137.91697" height="109.04537" viewBox="0,0,137.91697,109.04537"><defs><radialGradient cx="197.2315" cy="233.34676" r="66.5" gradientUnits="userSpaceOnUse" id="color-1"><stop offset="0" stop-color="#d2dc45"/><stop offset="1" stop-color="#ffa400"/></radialGradient><linearGradient x1="242.08052" y1="227.87823" x2="242.08052" y2="270.87823" gradientUnits="userSpaceOnUse" id="color-2"><stop offset="0" stop-color="#380505"/><stop offset="1" stop-color="#820c08"/></linearGradient><linearGradient x1="191.67456" y1="271.91188" x2="182.17456" y2="271.91188" gradientUnits="userSpaceOnUse" id="color-3"><stop offset="0" stop-color="#d2dc45"/><stop offset="1" stop-color="#ffa400"/></linearGradient><linearGradient x1="290.14122" y1="271.91188" x2="299.64122" y2="271.91188" gradientUnits="userSpaceOnUse" id="color-4"><stop offset="0" stop-color="#d2dc45"/><stop offset="1" stop-color="#ffa400"/></linearGradient><linearGradient x1="214.2153" y1="249.54651" x2="224.4153" y2="249.54651" gradientUnits="userSpaceOnUse" id="color-5"><stop offset="0" stop-color="#d2dc45"/><stop offset="1" stop-color="#ffa400"/></linearGradient><linearGradient x1="258.61528" y1="249.84935" x2="269.8153" y2="249.84935" gradientUnits="userSpaceOnUse" id="color-6"><stop offset="0" stop-color="#d2dc45"/><stop offset="1" stop-color="#ffa400"/></linearGradient><linearGradient x1="227.51774" y1="239.27768" x2="256.1844" y2="239.27768" gradientUnits="userSpaceOnUse" id="color-7"><stop offset="0" stop-color="#d2dc45"/><stop offset="1" stop-color="#ffa400"/></linearGradient><radialGradient cx="187.56483" cy="269.18009" r="2.6" gradientUnits="userSpaceOnUse" id="color-8"><stop offset="0" stop-color="#d2dc45"/><stop offset="1" stop-color="#ffa400"/></radialGradient><radialGradient cx="195.46483" cy="275.98008" r="2.1" gradientUnits="userSpaceOnUse" id="color-9"><stop offset="0" stop-color="#d2dc45"/><stop offset="1" stop-color="#ffa400"/></radialGradient><radialGradient cx="285.46483" cy="274.98008" r="2.1" gradientUnits="userSpaceOnUse" id="color-10"><stop offset="0" stop-color="#d2dc45"/><stop offset="1" stop-color="#ffa400"/></radialGradient><radialGradient cx="294.76482" cy="268.58009" r="2.4" gradientUnits="userSpaceOnUse" id="color-11"><stop offset="0" stop-color="#d2dc45"/><stop offset="1" stop-color="#ffa400"/></radialGradient><radialGradient cx="300.06483" cy="223.52009" r="2.1" gradientUnits="userSpaceOnUse" id="color-12"><stop offset="0" stop-color="#d2dc45"/><stop offset="1" stop-color="#ffa400"/></radialGradient><radialGradient cx="182.36483" cy="224.08009" r="3" gradientUnits="userSpaceOnUse" id="color-13"><stop offset="0" stop-color="#d2dc45"/><stop offset="1" stop-color="#ffa400"/></radialGradient><linearGradient x1="248.53071" y1="231.04135" x2="235.28071" y2="231.04135" gradientUnits="userSpaceOnUse" id="color-14"><stop offset="0" stop-color="#d2dc45"/><stop offset="1" stop-color="#ffa400"/></linearGradient><linearGradient x1="242.79231" y1="171.04789" x2="242.79231" y2="208.38122" gradientUnits="userSpaceOnUse" id="color-15"><stop offset="0" stop-color="#380505"/><stop offset="1" stop-color="#820c08"/></linearGradient><linearGradient x1="174.26719" y1="210.1792" x2="307.01716" y2="210.1792" gradientUnits="userSpaceOnUse" id="color-16"><stop offset="0" stop-color="#d2dc45"/><stop offset="1" stop-color="#ffa400"/></linearGradient><linearGradient x1="174.76719" y1="202.5542" x2="185.26719" y2="202.5542" gradientUnits="userSpaceOnUse" id="color-17"><stop offset="0" stop-color="#d2dc45"/><stop offset="1" stop-color="#ffa400"/></linearGradient><linearGradient x1="307.18415" y1="202.3042" x2="296.68415" y2="202.3042" gradientUnits="userSpaceOnUse" id="color-18"><stop offset="0" stop-color="#d2dc45"/><stop offset="1" stop-color="#ffa400"/></linearGradient><linearGradient x1="210.51719" y1="193.6042" x2="222.01719" y2="193.6042" gradientUnits="userSpaceOnUse" id="color-19"><stop offset="0" stop-color="#d2dc45"/><stop offset="1" stop-color="#ffa400"/></linearGradient><linearGradient x1="269.99575" y1="193.3542" x2="258.49575" y2="193.3542" gradientUnits="userSpaceOnUse" id="color-20"><stop offset="0" stop-color="#d2dc45"/><stop offset="1" stop-color="#ffa400"/></linearGradient><radialGradient cx="179.46639" cy="205.83585" r="3.3" gradientUnits="userSpaceOnUse" id="color-21"><stop offset="0" stop-color="#d2dc45"/><stop offset="1" stop-color="#ffa400"/></radialGradient><radialGradient cx="182.06639" cy="177.73585" r="3.2" gradientUnits="userSpaceOnUse" id="color-22"><stop offset="0" stop-color="#d2dc45"/><stop offset="1" stop-color="#ffa400"/></radialGradient><radialGradient cx="203.96639" cy="209.93585" r="3.1" gradientUnits="userSpaceOnUse" id="color-23"><stop offset="0" stop-color="#d2dc45"/><stop offset="1" stop-color="#ffa400"/></radialGradient><radialGradient cx="228.96639" cy="210.53585" r="3.1" gradientUnits="userSpaceOnUse" id="color-24"><stop offset="0" stop-color="#d2dc45"/><stop offset="1" stop-color="#ffa400"/></radialGradient><radialGradient cx="252.76639" cy="211.03585" r="2.9" gradientUnits="userSpaceOnUse" id="color-25"><stop offset="0" stop-color="#d2dc45"/><stop offset="1" stop-color="#ffa400"/></radialGradient><radialGradient cx="275.26639" cy="211.73585" r="2.4" gradientUnits="userSpaceOnUse" id="color-26"><stop offset="0" stop-color="#d2dc45"/><stop offset="1" stop-color="#ffa400"/></radialGradient><radialGradient cx="290.56639" cy="211.63585" r="2.9" gradientUnits="userSpaceOnUse" id="color-27"><stop offset="0" stop-color="#d2dc45"/><stop offset="1" stop-color="#ffa400"/></radialGradient><radialGradient cx="302.86636" cy="211.43585" r="2.7" gradientUnits="userSpaceOnUse" id="color-28"><stop offset="0" stop-color="#d2dc45"/><stop offset="1" stop-color="#ffa400"/></radialGradient><radialGradient cx="303.36636" cy="195.73585" r="2.8" gradientUnits="userSpaceOnUse" id="color-29"><stop offset="0" stop-color="#d2dc45"/><stop offset="1" stop-color="#ffa400"/></radialGradient><radialGradient cx="301.26639" cy="181.31585" r="2.8" gradientUnits="userSpaceOnUse" id="color-30"><stop offset="0" stop-color="#d2dc45"/><stop offset="1" stop-color="#ffa400"/></radialGradient><radialGradient cx="178.56638" cy="191.71585" r="3.1" gradientUnits="userSpaceOnUse" id="color-31"><stop offset="0" stop-color="#d2dc45"/><stop offset="1" stop-color="#ffa400"/></radialGradient></defs><g transform="translate(-172.01718,-170.30138)"><g data-paper-data="{&quot;isPaintingLayer&quot;:true}" fill-rule="nonzero" stroke="none" stroke-width="0" stroke-linecap="butt" stroke-linejoin="miter" stroke-miterlimit="10" stroke-dasharray="" stroke-dashoffset="0" style="mix-blend-mode: normal"><path d="M184.89816,279.01342l-10.33333,-63h133l-11,63.33333z" fill="url(#color-1)"/><path d="M189.08052,270.87823v-43h106v43z" fill="url(#color-2)"/><path d="M184.67456,279.26187l-2.6,-14.5h9.9l1.10219,6.10447l8.36912,0.25975l0.62868,8.13579z" data-paper-data="{&quot;index&quot;:null}" fill="url(#color-3)"/><path d="M279.74121,279.26187l0.62869,-8.13579l8.36912,-0.25975l1.10219,-6.10447h9.9l-2.6,14.5z" fill="url(#color-4)"/><path d="M216.8153,271.04651l-2.8,-43.4l11.4,0.17778l1.4,43.22222z" fill="url(#color-5)"/><path d="M256.8153,270.8465l1.68889,-43.04444l11.31111,0.11111l-3.8,43.0851z" fill="url(#color-6)"/><path d="M256.1844,239.27768c0,4.69442 -6.41725,8.5 -14.33333,8.5c-7.91608,0 -15.16667,-3.30558 -15.16667,-8c0,-4.69442 -0.66666,-23.5 -0.66666,-23.5l30.83097,-0.16334c0,0 -0.6643,21.15541 -0.6643,23.16334z" fill="url(#color-7)"/><path d="M190.16483,269.18009c0,1.38071 -1.16406,2.5 -2.6,2.5c-1.43594,0 -2.6,-1.11929 -2.6,-2.5c0,-1.38071 1.16406,-2.5 2.6,-2.5c1.43594,0 2.6,1.11929 2.6,2.5z" fill="url(#color-8)"/><path d="M197.56483,275.98008c0,1.04934 -0.9402,1.9 -2.1,1.9c-1.1598,0 -2.1,-0.85066 -2.1,-1.9c0,-1.04934 0.9402,-1.9 2.1,-1.9c1.1598,0 2.1,0.85066 2.1,1.9z" fill="url(#color-9)"/><path d="M287.56483,274.98008c0,1.04934 -0.9402,1.9 -2.1,1.9c-1.1598,0 -2.1,-0.85066 -2.1,-1.9c0,-1.04934 0.9402,-1.9 2.1,-1.9c1.1598,0 2.1,0.85066 2.1,1.9z" fill="url(#color-10)"/><path d="M297.16481,268.58009c0,1.27026 -1.07451,2.3 -2.4,2.3c-1.32549,0 -2.4,-1.02974 -2.4,-2.3c0,-1.27026 1.07452,-2.3 2.4,-2.3c1.32549,0 2.4,1.02974 2.4,2.3z" fill="url(#color-11)"/><path d="M302.16481,223.52009c0,1.1598 -0.9402,2.1 -2.1,2.1c-1.1598,0 -2.1,-0.9402 -2.1,-2.1c0,-1.1598 0.9402,-2.1 2.1,-2.1c1.1598,0 2.1,0.9402 2.1,2.1z" fill="url(#color-12)"/><path d="M185.36483,224.08009c0,1.43594 -1.34314,2.6 -3,2.6c-1.65686,0 -3,-1.16406 -3,-2.6c0,-1.43594 1.34314,-2.6 3,-2.6c1.65686,0 3,1.16406 3,2.6z" fill="url(#color-13)"/><path d="M235.28071,242.85385v-23.625h13.25v23.625z" data-paper-data="{&quot;index&quot;:null}" fill="url(#color-14)"/><path d="M244.92843,226.50726c0,1.62233 -1.45507,2.9375 -3.25,2.9375c-1.79493,0 -3.25,-1.31517 -3.25,-2.9375c0,-1.62233 1.45507,-2.9375 3.25,-2.9375c1.79493,0 3.25,1.31517 3.25,2.9375z" fill="#000000"/><path d="M240.85938,236.21137v-7.625h2.14423v7.625z" fill="#000000"/><path d="M184.95898,208.38122v-37.33333h115.66667v37.33333z" fill="url(#color-15)"/><path d="M174.26719,215.9292v-11.5h132.75v11.5z" fill="url(#color-16)"/><path d="M174.76719,216.1792c0,0 -1.79476,-7.29731 -2.22554,-11.25266c-0.48046,-4.41144 -0.52446,-13.99734 -0.52446,-13.99734c0,0 0.16073,-7.07853 2.41655,-11.66814c2.50194,-5.09035 8.42839,-8.50186 9.64331,-8.68524c1.15572,-0.17445 11.85711,0.64246 11.85711,0.64246c0,0 -6.4387,5.34446 -8.21557,8.2802c-1.69123,2.79424 -2.45141,9.43072 -2.45141,9.43072c0,0 1.25,8.77254 1.25,13.25c0,0.92077 -0.80003,-0.21652 -0.88008,0.97446c-0.32005,4.76205 -0.36992,13.02554 -0.36992,13.02554z" fill="url(#color-17)"/><path d="M296.68415,215.9292c0,0 -0.04988,-8.2635 -0.36993,-13.02554c-0.08004,-1.19098 -0.88007,-0.05368 -0.88007,-0.97446c0,-4.47746 1.25,-13.25 1.25,-13.25c0,0 -0.76019,-6.63647 -2.45141,-9.43072c-1.77686,-2.93573 -8.21557,-8.2802 -8.21557,-8.2802c0,0 10.70139,-0.81691 11.85711,-0.64246c1.21492,0.18338 7.14137,3.59489 9.64331,8.68524c2.25583,4.58961 2.41656,11.66814 2.41656,11.66814c0,0 -0.04401,9.5859 -0.52446,13.99734c-0.43078,3.95535 -2.22554,11.25266 -2.22554,11.25266z" data-paper-data="{&quot;index&quot;:null}" fill="url(#color-18)"/><path d="M210.51719,204.1042c0,0 -1.09528,-8.35836 -0.67566,-15.74578c0.09569,-1.68448 0.98113,-5.92549 1.16952,-7.04724c0.69486,-4.13756 5.00614,-9.95699 5.00614,-9.95699l11.5,-0.75c0,0 -3.73112,5.69535 -4.47136,10.17206c-0.95463,5.77328 0.22136,23.82795 0.22136,23.82795z" fill="url(#color-19)"/><path d="M257.24575,204.3542c0,0 1.176,-18.05467 0.22136,-23.82794c-0.74025,-4.47671 -4.47136,-10.17205 -4.47136,-10.17205l11.5,0.75c0,0 4.31127,5.81942 5.00613,9.95699c0.18838,1.12175 1.07384,5.36275 1.16952,7.04724c0.41962,7.38742 -0.67566,15.74578 -0.67566,15.74578z" data-paper-data="{&quot;index&quot;:null}" fill="url(#color-20)"/><path d="M182.66639,205.83585c0,1.82254 -1.43269,3.3 -3.2,3.3c-1.76731,0 -3.2,-1.47746 -3.2,-3.3c0,-1.82254 1.43269,-3.3 3.2,-3.3c1.76731,0 3.2,1.47746 3.2,3.3z" fill="url(#color-21)"/><path d="M185.26639,177.73585c0,1.76731 -1.43269,3.2 -3.2,3.2c-1.76731,0 -3.2,-1.43269 -3.2,-3.2c0,-1.76731 1.43269,-3.2 3.2,-3.2c1.76731,0 3.2,1.43269 3.2,3.2z" fill="url(#color-22)"/><path d="M207.06639,209.93585c0,1.54639 -1.38791,2.8 -3.1,2.8c-1.71209,0 -3.1,-1.25361 -3.1,-2.8c0,-1.54639 1.38791,-2.8 3.1,-2.8c1.71209,0 3.1,1.25361 3.1,2.8z" fill="url(#color-23)"/><path d="M232.06639,210.53585c0,1.43594 -1.38791,2.6 -3.1,2.6c-1.71209,0 -3.1,-1.16406 -3.1,-2.6c0,-1.43594 1.38791,-2.6 3.1,-2.6c1.71209,0 3.1,1.16406 3.1,2.6z" fill="url(#color-24)"/><path d="M255.66639,211.03585c0,1.49117 -1.29837,2.7 -2.9,2.7c-1.60163,0 -2.9,-1.20883 -2.9,-2.7c0,-1.49117 1.29837,-2.7 2.9,-2.7c1.60163,0 2.9,1.20883 2.9,2.7z" fill="url(#color-25)"/><path d="M277.66639,211.73585c0,1.43594 -1.07451,2.6 -2.4,2.6c-1.32549,0 -2.4,-1.16406 -2.4,-2.6c0,-1.43594 1.07452,-2.6 2.4,-2.6c1.32549,0 2.4,1.16406 2.4,2.6z" fill="url(#color-26)"/><path d="M293.46639,211.63585c0,1.60163 -1.29837,2.9 -2.9,2.9c-1.60163,0 -2.9,-1.29837 -2.9,-2.9c0,-1.60163 1.29838,-2.9 2.9,-2.9c1.60163,0 2.9,1.29837 2.9,2.9z" fill="url(#color-27)"/><path d="M305.46639,211.43585c0,1.49117 -1.16406,2.7 -2.6,2.7c-1.43594,0 -2.6,-1.20883 -2.6,-2.7c0,-1.49117 1.16406,-2.7 2.6,-2.7c1.43594,0 2.6,1.20883 2.6,2.7z" fill="url(#color-28)"/><path d="M306.06639,195.73585c0,1.54639 -1.20883,2.8 -2.7,2.8c-1.49117,0 -2.7,-1.2536 -2.7,-2.8c0,-1.54639 1.20883,-2.8 2.7,-2.8c1.49117,0 2.7,1.25361 2.7,2.8z" fill="url(#color-29)"/><path d="M303.86636,181.31585c0,1.54639 -1.16406,2.8 -2.6,2.8c-1.43594,0 -2.6,-1.25361 -2.6,-2.8c0,-1.54639 1.16406,-2.8 2.6,-2.8c1.43594,0 2.6,1.2536 2.6,2.8z" fill="url(#color-30)"/><path d="M181.66638,191.71585c0,1.65685 -1.38792,3 -3.1,3c-1.71208,0 -3.1,-1.34315 -3.1,-3c0,-1.65685 1.38792,-3 3.1,-3c1.71208,0 3.1,1.34315 3.1,3z" fill="url(#color-31)"/></g></g></svg>