<svg xmlns="http://www.w3.org/2000/svg" id="Layer_1" viewBox="27.5406 21.6 89.8594 94.6645" x="0px" y="0px" width="89.8594" height="94.6645" xmlns:xml="http://www.w3.org/XML/1998/namespace" xml:space="preserve" enable-background="new 0 0 128 128" xmlns:xlink="http://www.w3.org/1999/xlink" version="1.1">
  <g>
    <g>
      <g id="ID0.7407716196030378_22_">
        <path id="ID0.15909873321652412_17_" fill="#faa51f" stroke="#8e5322" stroke-linecap="round" stroke-linejoin="round" stroke-width="1.4" d="M 65.8 80.9 c -0.2 0.1 1.8 13.7 1.5 13.8 c -1.9 0.8 -3.8 0.5 -4.4 -0.1 c -2.9 -3 -4.8 -9.2 -4.7 -14.4 l 0.3 -1.4" />
        <path id="ID0.8024068027734756_22_" fill="#faa51f" stroke="#8e5322" stroke-linecap="round" stroke-linejoin="round" stroke-width="1.4" d="M 67.3 87.9" />
        <path id="ID0.06734407460317016_22_" fill="none" stroke="#8e5322" stroke-linecap="round" stroke-linejoin="round" stroke-width="1.4" d="M 67.8 84.4" />
      </g>
      <path id="ID0.1790580078959465_38_" fill="#faa51f" stroke="#8e5322" stroke-linecap="round" stroke-linejoin="round" stroke-width="1.4" d="M 65.4 88.7 c 4.7 -3.5 11.2 -3.1 11.6 -1.4 c 1.1 3.9 -2.7 7 -11.4 7.9" />
    </g>
    <g id="ID0.15723733883351088_20_">
      <path id="ID0.527006761636585_20_" fill="#faa51f" stroke="#8e5322" stroke-linecap="round" stroke-linejoin="round" stroke-width="1.4" d="M 56.5 98.3 c 0 0 4.1 2.9 6 3.2 c -2.7 -0.3 -4.8 -1.2 -4.6 3.5 c 0.1 2.1 0.3 7 2.8 7.2 c 8.1 0.2 0.1 -4.6 9.9 -7.6 c 2.8 -1 7.1 -4.1 -1.3 -9.1" />
      <path id="ID0.8937406223267317_28_" fill="#faa51f" stroke="#8e5322" stroke-linecap="round" stroke-linejoin="round" stroke-width="1.4" d="M 69.7 104.7 c -1.1 0.4 -2.7 1.4 -4 2.1" />
      <path id="ID0.8937406223267317_27_" fill="#faa51f" stroke="#8e5322" stroke-linecap="round" stroke-linejoin="round" stroke-width="1.4" d="M 65.6 102.1 c -0.6 0.1 -2.8 -0.7 -4.1 -0.9" />
    </g>
    <g id="Layer_3_24_">
      <path id="ID0.8535828334279358_23_" fill="#faa51f" stroke-width="1" d="M 49.6 96.7 c -2.5 -0.4 -5.3 -1.3 -7.8 -3.6 c -5.5 -5.1 -7.3 -13.4 -11.2 -11.2 c -3.9 2.2 -3.8 15.7 8.5 19.8 c 4.3 1.5 8.2 1.5 11.2 1.3 c 0.8 0 7.8 -0.7 10.2 -4.3 c 2.3 -3.5 0.7 -4.4 -0.1 -4.9 C 59.5 93.4 53.1 97.4 49.6 96.7 Z" />
      <path id="ID0.914295740891248_23_" fill="#ffffff" stroke-width="1" d="M 30.8 81.8 c -2 0.7 -3.2 5.6 -2.2 9.2 c 1.1 3.6 3 5.8 4.3 7.1 c 1.6 1.1 -0.7 -3 1.4 -4.9 c 2.1 -1.8 6.3 -1.2 6.3 -1.2 s -3.2 -4.4 -4.9 -6.8 C 34.1 82.8 32.9 81.2 30.8 81.8 Z" />
      <path id="ID0.40227043256163597_23_" fill="none" stroke="#8e5322" stroke-linecap="round" stroke-linejoin="round" stroke-width="1.4" d="M 49.6 96.7 c -2.5 -0.4 -5.3 -1.3 -7.8 -3.6 c -5.5 -5.1 -7.3 -13.4 -11.2 -11.2 c -3.9 2.2 -3.8 15.7 8.5 19.8 c 4.3 1.5 8.2 1.5 11.2 1.3 c 0.8 0 7.8 -0.7 10.2 -4.3 c 2.3 -3.5 0.7 -4.4 -0.1 -4.9 C 59.5 93.4 53.1 97.4 49.6 96.7 Z" />
    </g>
    <g id="Layer_2_48_">
      <path id="ID0.39854341372847557_23_" fill="#faa51f" stroke="#8e5322" stroke-linecap="round" stroke-linejoin="round" stroke-width="1.4" d="M 62.8 92.6" />
    </g>
    <path id="ID0.46792364912107587_23_" fill="#faa51f" stroke="#8e5322" stroke-linecap="round" stroke-linejoin="round" stroke-width="1.4" d="M 74.8 87 c -1.9 6.4 -3 16.3 -14.4 13 c -11.4 -3.3 -7.8 -11.7 -5.9 -18.1 c 1.9 -6.4 6.3 -7 12.8 -5.1 C 73.6 78.6 76.7 80.5 74.8 87 Z" />
    <path id="ID0.38032895559445024_23_" fill="#ffffff" stroke-width="1" d="M 73.5 89 c -1.2 4 -0.7 7.3 -6.8 5.5 c -6.1 -1.8 -5.5 -4.1 -4.3 -8.1 c 1.2 -4 3.6 -4.6 7.2 -3.5 S 74.7 85 73.5 89 Z" />
    <g id="ID0.16171270422637463_23_">
      <path id="ID0.007584026083350182_23_" fill="#faa51f" stroke="#8e5322" stroke-linecap="round" stroke-linejoin="round" stroke-width="1.4" d="M 63.9 97.9 c 0 0 -1.7 4.5 -3.2 6.7 c -3.7 2.5 -7.4 4.1 -7.4 4.1 c 0.8 0.3 4 0.7 3.6 5.2 c -0.2 2.1 -9.4 1.9 -11.5 1.1 c -1.9 -0.7 -2.4 -1.4 -2.1 -3.4 c 0.4 -2.6 6.8 -6.6 9.5 -8.4 c 0.7 -2.5 1.2 -7.8 1.2 -7.8" />
      <path id="ID0.31672530295327306_18_" fill="#faa51f" stroke="#8e5322" stroke-linecap="round" stroke-linejoin="round" stroke-width="1.4" d="M 53.5 108.9 c 0 0 -0.7 -0.3 -2.2 0" />
    </g>
    <g>
      <g id="ID0.7407716196030378_35_">
        <path id="ID0.15909873321652412_34_" fill="#faa51f" stroke="#8e5322" stroke-linecap="round" stroke-linejoin="round" stroke-width="1.4" d="M 53.6 91.4 c -5.8 -4.1 -5 -1.6 -5.7 -4.4 c 1.1 -5 8.6 -9.7 14.6 -10.9 l 0 0" />
        <path id="ID0.8024068027734756_35_" fill="#faa51f" stroke="#8e5322" stroke-linecap="round" stroke-linejoin="round" stroke-width="1.4" d="M 56.9 86.6" />
        <path id="ID0.06734407460317016_35_" fill="none" stroke="#8e5322" stroke-linecap="round" stroke-linejoin="round" stroke-width="1.4" d="M 60.5 86.4" />
        <path id="ID0.8143284288235009_16_" fill="#faa51f" stroke="#8e5322" stroke-linecap="round" stroke-linejoin="round" stroke-width="1.4" d="M 56.5 87.3 l 4.7 -3.1" />
        <path id="ID0.6682511982508004_12_" fill="none" stroke="#8e5322" stroke-linecap="round" stroke-linejoin="round" stroke-width="1.4" d="M 56 88 l -1.3 -1.3" />
      </g>
      <path id="ID0.1790580078959465_25_" fill="#faa51f" stroke="#8e5322" stroke-linecap="round" stroke-linejoin="round" stroke-width="1.4" d="M 56.2 87.8 c 4.6 3.7 3.6 7.9 2.1 8.8 c -3.5 2 -7.5 -0.8 -10.5 -9" />
    </g>
    <g>
      <g id="Layer_2_47_">
        <path id="ID0.2591130444779992_23_" fill="#faa51f" stroke-width="1" d="M 80.8 32.2 c -1.5 -0.3 -4.5 -0.9 -6.2 -1 c -4.6 -0.4 -9.1 0.8 -9.1 0.8 L 54 22.3 l -0.1 18.4 c 0.7 -0.7 -11.6 11.1 -6.2 22.8 c 5.5 11.9 19.4 18.5 37.9 17.2 c 18.5 -1.3 24.1 -11.2 23.5 -16.8 c -0.5 -5.6 -7.1 -8.5 -7.1 -8.5 s 0.4 -4.3 -2 -9.9 c -1.5 -3.4 -7.1 -8.7 -7.1 -8.7 l -1.4 -11.5 l -8 6.1 L 80.8 32.2 Z" />
        <path id="ID0.3588979784399271_23_" fill="#ffffff" stroke-width="1" d="M 101.1 55.2 L 99 52.9 l -9.1 1.5 c 0 0 -0.4 3.3 -4.7 3.7 C 81 58.4 74.1 56 74.1 56 l -7.3 0.9 c 0 0 -8 -1.5 -9.2 4.8 C 55.6 72.6 64.2 79 72.7 80 c 5.5 0.7 9 0.4 13 0.2 c 17.5 -1 23.6 -10.7 22.8 -16.3 c -0.5 -5.6 -6.9 -8 -6.9 -8 L 101.1 55.2 Z" />
        <path id="ID0.2727069961838424_23_" fill="none" stroke="#8e5322" stroke-linecap="round" stroke-linejoin="round" stroke-width="1.4" d="M 105.4 61.1 c 0 0 4.4 -0.4 6.7 -1 c 2.7 -0.7 4.6 -2.2 4.6 -2.2" />
        <path id="ID0.5861211125738919_23_" fill="none" stroke="#8e5322" stroke-linecap="round" stroke-linejoin="round" stroke-width="1.4" d="M 105.2 66.9 c 0 0 2.5 1.4 5.2 1.9 c 2.7 0.6 4.5 0.6 4.5 0.6" />
        <path id="ID0.4793355236761272_23_" fill="none" stroke="#8e5322" stroke-linecap="round" stroke-linejoin="round" stroke-width="1.4" d="M 63.4 30.3 l 4.7 4.2" />
        <path id="ID0.48413723474368453_23_" fill="none" stroke="#8e5322" stroke-linecap="round" stroke-linejoin="round" stroke-width="1.4" d="M 80.8 32.2 c -1.5 -0.3 -4.5 -0.9 -6.2 -1 c -4.6 -0.4 -9.1 0.8 -9.1 0.8 L 54 22.3 l -0.1 18.4 c 0.7 -0.7 -11.6 11.1 -6.2 22.8 c 5.5 11.9 19.4 18.5 37.9 17.2 c 18.5 -1.3 24.1 -11.2 23.5 -16.8 c -0.5 -5.6 -7.1 -8.5 -7.1 -8.5 s 0.4 -4.3 -2 -9.9 c -1.5 -3.4 -7.1 -8.7 -7.1 -8.7 l -1.4 -11.5 l -8 6.1 L 80.8 32.2 Z" />
        <path id="ID0.9024141579866409_23_" fill="none" stroke="#8e5322" stroke-linecap="round" stroke-linejoin="round" stroke-width="1.4" d="M 36.7 57.4 c 0 0 3.9 1.1 5.7 1.3 c 1.8 0.2 5.3 0.4 5.3 0.4" />
        <path id="ID0.16030752705410123_23_" fill="none" stroke="#8e5322" stroke-linecap="round" stroke-linejoin="round" stroke-width="1.4" d="M 48.3 55.3 c 0 0 -1.9 -2.1 -5.2 -4.4 c -3.6 -2.5 -5.7 -3.3 -5.7 -3.3" />
      </g>
      <g id="Layer_5_24_">
        <path id="ID0.40023312577977777_23_" fill="#ffffff" stroke="#8e5322" stroke-linecap="round" stroke-linejoin="round" stroke-width="1.4" d="M 97.8 45.3 c 2.3 4.6 1.7 9.6 -1.1 10.9 c -2.9 1.5 -7.1 -1.2 -9.4 -5.9 c -2.3 -4.6 -1.7 -9.6 1.1 -10.9 C 91.3 38 95.5 40.7 97.8 45.3 Z" />
        <path id="ID0.43813491938635707_23_" fill="#414142" stroke-width="1" d="M 97.3 48.8 c 0.2 1 -0.4 2 -1.5 2.1 c -0.9 0.2 -1.8 -0.5 -2 -1.7 c -0.2 -1 0.4 -2 1.5 -2.1 C 96.3 47.1 97.1 47.8 97.3 48.8" />
      </g>
      <g id="Layer_7_24_">
        <path id="ID0.4253597157076001_23_" fill="#ffffff" stroke="#8e5322" stroke-linecap="round" stroke-linejoin="round" stroke-width="1.4" d="M 74.4 45.5 c 2.3 4.6 1.3 9.7 -2.1 11.4 c -3.4 1.7 -8.1 -0.7 -10.3 -5.4 c -2.3 -4.6 -1.3 -9.7 2.1 -11.4 C 67.5 38.5 72.1 40.9 74.4 45.5 Z" />
        <path id="ID0.814307457767427_23_" fill="#414142" stroke-width="1" d="M 73.6 49.4 c -0.1 1 -1 1.8 -1.9 1.7 c -1 -0.1 -1.6 -1 -1.5 -2.1 c 0.1 -1 1 -1.8 1.9 -1.7 C 73.1 47.4 73.7 48.3 73.6 49.4" />
      </g>
      <path id="ID0.5240494590252638_23_" fill="#5f4b43" stroke="#8e5322" stroke-linecap="round" stroke-linejoin="round" stroke-width="1.4" d="M 84.1 56.7 c 1.7 0 4.2 -1 4.2 0.9 c -0.1 0.8 -2.1 3.9 -3.9 3.8 c -2 -0.1 -5.2 -3.1 -4.9 -4.5 S 82.6 56.7 84.1 56.7 Z" />
      <path id="ID0.046259244438260794_23_" fill="#ffffff" stroke="#8e5322" stroke-linecap="round" stroke-linejoin="round" stroke-width="1.4" d="M 73.2 70.9 c 0 0 2.2 2.6 7.7 2.2" />
    </g>
  </g>
</svg>