<svg version="1.1" xmlns="http://www.w3.org/2000/svg" xmlns:xlink="http://www.w3.org/1999/xlink" width="139.38202" height="46.72222" viewBox="0,0,139.38202,46.72222"><defs><linearGradient x1="305.13724" y1="180" x2="168.69974" y2="180" gradientUnits="userSpaceOnUse" id="color-1"><stop offset="0" stop-color="#006a94"/><stop offset="1" stop-color="#0093cc"/></linearGradient></defs><g transform="translate(-168.97921,-156.63889)"><g data-paper-data="{&quot;isPaintingLayer&quot;:true}" fill-rule="nonzero" stroke="#ffffff" stroke-linecap="butt" stroke-linejoin="miter" stroke-miterlimit="10" stroke-dasharray="" stroke-dashoffset="0" style="mix-blend-mode: normal"><path d="M279.18585,157.38889c0,0 0.04519,7.20204 1.38002,14.13487c0.83836,4.35423 2.49661,8.44669 4.00065,11.0676c1.80623,3.1475 3.79583,7.6596 7.42989,11.05127c5.67428,5.29582 13.14083,8.96848 13.14083,8.96848h-105.60417c0,0 -8.19431,-0.17083 -14.88024,-4.13887c-4.24754,-2.52088 -7.27333,-8.25997 -9.17216,-11.04492c-2.26098,-3.3161 -3.82215,-8.42565 -4.87113,-14.10972c-1.43246,-7.76198 -0.88203,-15.92871 -0.88203,-15.92871z" data-paper-data="{&quot;index&quot;:null}" fill="url(#color-1)" stroke-width="1.5"/><text transform="translate(180.53834,184.31883) scale(0.38518,0.38518)" font-size="40" xml:space="preserve" fill="#ffffff" fill-rule="nonzero" stroke="#ffffff" stroke-width="2" stroke-linecap="butt" stroke-linejoin="miter" stroke-miterlimit="10" stroke-dasharray="" stroke-dashoffset="0" font-family="Sans Serif" font-weight="normal" text-anchor="start" style="mix-blend-mode: normal"><tspan x="0" dy="0">🗒チャレンジ</tspan></text></g></g></svg>