<svg version="1.1" xmlns="http://www.w3.org/2000/svg" xmlns:xlink="http://www.w3.org/1999/xlink" width="89.75856" height="96.1" viewBox="0,0,89.75856,96.1"><defs><linearGradient x1="249.2" y1="199.77029" x2="263.83248" y2="199.77029" gradientUnits="userSpaceOnUse" id="color-1"><stop offset="0" stop-color="#631fff"/><stop offset="1" stop-color="#46ff1f"/></linearGradient><linearGradient x1="212.62413" y1="212.9101" x2="241" y2="212.9101" gradientUnits="userSpaceOnUse" id="color-2"><stop offset="0" stop-color="#631fff"/><stop offset="1" stop-color="#46ff1f"/></linearGradient><linearGradient x1="205.74144" y1="203.58448" x2="239.86301" y2="203.58448" gradientUnits="userSpaceOnUse" id="color-3"><stop offset="0" stop-color="#631fff"/><stop offset="1" stop-color="#46ff1f"/></linearGradient><linearGradient x1="232.86662" y1="201.29103" x2="252.73134" y2="201.29103" gradientUnits="userSpaceOnUse" id="color-4"><stop offset="0" stop-color="#631fff"/><stop offset="1" stop-color="#46ff1f"/></linearGradient><linearGradient x1="239.9" y1="218.72307" x2="264.5413" y2="218.72307" gradientUnits="userSpaceOnUse" id="color-5"><stop offset="0" stop-color="#631fff"/><stop offset="1" stop-color="#46ff1f"/></linearGradient><linearGradient x1="223.59798" y1="192.30077" x2="244.6" y2="192.30077" gradientUnits="userSpaceOnUse" id="color-6"><stop offset="0" stop-color="#631fff"/><stop offset="1" stop-color="#46ff1f"/></linearGradient><linearGradient x1="219.61399" y1="195.37146" x2="232.89238" y2="195.37146" gradientUnits="userSpaceOnUse" id="color-7"><stop offset="0" stop-color="#631fff"/><stop offset="1" stop-color="#46ff1f"/></linearGradient><linearGradient x1="223.52537" y1="165.1917" x2="286.34282" y2="165.1917" gradientUnits="userSpaceOnUse" id="color-8"><stop offset="0" stop-color="#631fff"/><stop offset="1" stop-color="#46ff1f"/></linearGradient></defs><g transform="translate(-205.04144,-135.2)"><g data-paper-data="{&quot;isPaintingLayer&quot;:true}" fill-rule="nonzero" stroke-miterlimit="10" stroke-dasharray="" stroke-dashoffset="0" style="mix-blend-mode: normal"><g stroke="#8e5322" stroke-width="1.4" stroke-linecap="round" stroke-linejoin="round"><g><path d="M245,193.5c-0.1,0.2 12.1,8.5 11.8,8.5c-1.9,0.5 -4,3 -4.9,2.9c-4.1,-0.3 -9.5,-3 -13,-7l-0.7,-1.2" fill="#faa51f"/><path d="M250.8,197.7" fill="#faa51f"/><path d="M248.8,194.7" fill="none"/></g><path d="M249.2,196.8c1.1,0.7 1.8,1.1 2.8,1c0.8,-0.1 2.5,-0.6 3.2,-1.2c4.1,-3.3 7.9,-1.5 8.4,0c1.3,3.8 -2.9,6.7 -11.4,8.2" fill="url(#color-1)"/></g><g stroke="#8e5322" stroke-width="1.4" stroke-linecap="round" stroke-linejoin="round"><path d="M241,212c-8.6,0.7 -16.1,7.9 -18.2,7c-2.9,-2.4 -5.1,5.6 -9.9,-0.3c-1.6,-1.9 4.2,-6.8 6.1,-8c1.8,-1.1 3.2,-0.8 4.4,0.9c1.3,-0.6 8.8,-6.7 8.8,-6.7" fill="url(#color-2)"/><path d="M222.6,218.9c-1.2,-0.9 -1.9,-2.3 -1.9,-2.3" fill="#faa51f"/></g><path d="M238.3,202.6c0.9,0.5 2.6,1.1 0.7,4.9c-1.9,3.8 -8.8,5.3 -9.6,5.4c-3,0.5 -6.9,1 -11.3,0c-12.6,-2.7 -14.3,-16.1 -10.7,-18.7c3.6,-2.6 6.3,5.4 12.4,9.8c2.7,2 5.7,2.5 8.2,2.7c3.5,0.3 9.5,-4.4 10.3,-4.1z" fill="#41ff43" stroke="none" stroke-width="1" stroke-linecap="butt" stroke-linejoin="miter"/><path d="M212.7,196.9c2,2.2 5.7,6.2 5.7,6.2c0,0 -4.2,-0.2 -6.1,1.9c-1.9,2.1 0.9,5.9 -0.8,5c-1.4,-1.2 -3.6,-3.2 -5.1,-6.6c-1.3,-3.5 -0.7,-8.5 1.2,-9.4c2,-0.8 3.4,0.7 5.1,2.9z" fill="#ffffff" stroke="none" stroke-width="1" stroke-linecap="butt" stroke-linejoin="miter"/><path d="M238.3,202.6c0.9,0.5 2.6,1.1 0.7,4.9c-1.9,3.8 -8.8,5.3 -9.6,5.4c-3,0.5 -6.9,1 -11.3,0c-12.6,-2.7 -14.3,-16.1 -10.7,-18.7c3.6,-2.6 6.3,5.4 12.4,9.8c2.7,2 5.7,2.5 8.2,2.7c3.5,0.3 9.5,-4.4 10.3,-4.1z" fill="url(#color-3)" stroke="#8e5322" stroke-width="1.4" stroke-linecap="round" stroke-linejoin="round"/><path d="M240,205.2" fill="#faa51f" stroke="#8e5322" stroke-width="1.4" stroke-linecap="round" stroke-linejoin="round"/><path d="M252.1,199.6c-1.9,6.4 -3.3,16.2 -12.8,13.4c-9.5,-2.8 -6.2,-11.2 -4.3,-17.6c1.9,-6.4 5.7,-7.2 11.1,-5.6c5.4,1.5 7.9,3.3 6,9.8z" fill="url(#color-4)" stroke="#8e5322" stroke-width="1.281" stroke-linecap="round" stroke-linejoin="round"/><path d="M250.8,202.7c-1.2,4 -1.3,5 -2.7,4.4c-5.4,-2.4 -6.6,-2.8 -5.5,-6.9c1.2,-4 3.6,-4.6 7.2,-3.5c3.6,1 2.1,2 1,6z" fill="#ffffff" stroke="none" stroke-width="1" stroke-linecap="butt" stroke-linejoin="miter"/><g stroke="#8e5322" stroke-width="1.4" stroke-linecap="round" stroke-linejoin="round"><path d="M249.3,206.8c0,0 1.5,6.9 6,14.6c1.9,3.3 6.5,-3.6 9.2,3.3c0.7,2 -7.7,5.7 -9.9,5.9c-2,0.2 -2.8,-0.2 -3.3,-2.2c-2.1,-7.1 -11.4,-15.8 -11.4,-15.8" fill="url(#color-5)"/><path d="M255.3,223.5c1.2,-0.9 2.5,-1.3 2.5,-1.3" fill="#faa51f"/></g><g stroke="#8e5322" stroke-width="1.4" stroke-linecap="round" stroke-linejoin="round"><g><path d="M238.1,196.9c0,-0.3 -14.7,-5.4 -14.5,-5.6c1.7,-1.1 3.5,-3 4.4,-3.2c4,-1 10,-0.1 14.5,2.5l2.1,1.9" fill="url(#color-6)"/><path d="M231.3,194.7" fill="#faa51f"/><path d="M234.1,196.9" fill="none"/></g><path d="M232.6,194.7c1.5,0 -3.2,-0.5 -4.4,2.6c-2,4.9 -6,5.3 -7.2,4.3c-3.1,-2.6 -0.9,-7.3 5.6,-12.9" fill="url(#color-7)"/></g><path d="M240.7,143.8l4.7,4.2" fill="none" stroke="#8e5322" stroke-width="1.4" stroke-linecap="round" stroke-linejoin="round"/><path d="M260.7,145l8,-6.1l1.4,11.5c0,0 5.6,5.3 7.1,8.7c2.4,5.6 2,9.9 2,9.9c0,0 6.6,2.9 7.1,8.5c0.6,5.6 -5,15.5 -23.5,16.8c-18.5,1.4 -32.3,-5.3 -37.9,-17.2c-5.4,-11.7 6.9,-23.5 6.2,-22.8l0.1,-18.4l11.5,9.7c0,0 4.5,-1.2 9.1,-0.8c1.7,0.1 4.7,0.7 6.2,1z" fill="url(#color-8)" stroke="#8e5322" stroke-width="1.4" stroke-linecap="round" stroke-linejoin="round"/><path d="M278.8,169.5c0,0 6.4,2.4 6.9,8c0.8,5.6 -5.3,15.3 -22.8,16.3c-4,0.2 -7.5,0.5 -13,-0.2c-8.5,-1 -17,-7.4 -15,-18.3c1.2,-6.3 9.2,-4.8 9.2,-4.8l7.3,-0.9c0,0 6.8,2.5 11.1,2.1c4.3,-0.4 4.7,-3.7 4.7,-3.7l9.1,-1.6l2.1,2.3z" fill="#ffffff" stroke="none" stroke-width="1" stroke-linecap="butt" stroke-linejoin="miter"/><path d="M294.1,172.1c0,0 -2,1.3 -4.7,1.9c-2.2,0.5 -6.7,0.7 -6.7,0.7" fill="none" stroke="#8e5322" stroke-width="1.4" stroke-linecap="round" stroke-linejoin="round"/><path d="M292.2,183.1c0,0 -1.9,0 -4.5,-0.6c-2.8,-0.6 -5.2,-2 -5.2,-2" fill="none" stroke="#8e5322" stroke-width="1.4" stroke-linecap="round" stroke-linejoin="round"/><path d="M224.9,172.7c0,0 -3.5,0 -5.3,-0.1c-1.8,-0.1 -5.7,-1 -5.7,-1" fill="none" stroke="#8e5322" stroke-width="1.4" stroke-linecap="round" stroke-linejoin="round"/><path d="M214.2,162c0,0 2.2,0.6 5.9,2.9c3.4,2 5.5,4 5.5,4" fill="none" stroke="#8e5322" stroke-width="1.4" stroke-linecap="round" stroke-linejoin="round"/><path d="M275.1,158.9c2.3,4.6 1.7,9.6 -1.1,10.9c-2.9,1.5 -7.1,-1.2 -9.4,-5.9c-2.3,-4.6 -1.7,-9.6 1.1,-10.9c2.9,-1.4 7.1,1.2 9.4,5.9z" fill="#ffffff" stroke="#8e5322" stroke-width="1.4" stroke-linecap="round" stroke-linejoin="round"/><path d="M274.5,162.4c0.2,1 -0.4,2 -1.5,2.1c-0.9,0.2 -1.8,-0.5 -2,-1.7c-0.2,-1 0.4,-2 1.5,-2.1c1,0 1.9,0.7 2,1.7" fill="#414142" stroke="none" stroke-width="1" stroke-linecap="butt" stroke-linejoin="miter"/><path d="M251.7,159.1c2.3,4.6 1.3,9.7 -2.1,11.4c-3.4,1.7 -8.1,-0.7 -10.3,-5.4c-2.3,-4.6 -1.3,-9.7 2.1,-11.4c3.4,-1.6 8,0.8 10.3,5.4z" fill="#ffffff" stroke="#8e5322" stroke-width="1.4" stroke-linecap="round" stroke-linejoin="round"/><path d="M250.9,162.9c-0.1,1 -1,1.8 -1.9,1.7c-1,-0.1 -1.6,-1 -1.5,-2.1c0.1,-1 1,-1.8 1.9,-1.7c0.9,0.1 1.6,1 1.5,2.1" fill="#414142" stroke="none" stroke-width="1" stroke-linecap="butt" stroke-linejoin="miter"/><path d="M261.4,170.3c1.7,0 4.2,-1 4.2,0.9c-0.1,0.8 -2.1,3.9 -3.9,3.8c-2,-0.1 -5.2,-3.1 -4.9,-4.5c0.3,-1.6 3.1,-0.2 4.6,-0.2z" fill="#5f4b43" stroke="#8e5322" stroke-width="1.4" stroke-linecap="round" stroke-linejoin="round"/><path d="M258.2,186.6c-5.5,0.4 -7.7,-2.2 -7.7,-2.2" fill="#ffffff" stroke="#8e5322" stroke-width="1.4" stroke-linecap="round" stroke-linejoin="round"/></g></g></svg>