<svg version="1.1" xmlns="http://www.w3.org/2000/svg" xmlns:xlink="http://www.w3.org/1999/xlink" width="81.899" height="96.26504" viewBox="0,0,81.899,96.26504"><g transform="translate(-198.001,-137)"><g data-paper-data="{&quot;isPaintingLayer&quot;:true}" fill-rule="nonzero" stroke-miterlimit="10" stroke-dasharray="" stroke-dashoffset="0" style="mix-blend-mode: normal"><path d="M247.105,191.921l4.206,0.663c3.953,4.066 6.177,13.053 1.464,15.92c-0.342,0.209 -6.795,-0.998 -7.212,-0.858" fill="#41ff43" stroke="#8e5322" stroke-width="1.4" stroke-linecap="round" stroke-linejoin="round"/><path d="M255.23,203.851c-1.986,8.479 -5.61,11.841 -9.298,10.28c-1.573,-0.65 -2.562,-5.247 1.495,-9.507" fill="#41ff43" stroke="#8e5322" stroke-width="1.4" stroke-linecap="round" stroke-linejoin="round"/><path d="M236.1,207.199c0.7,0.7 2.101,1.901 -1,4.801c-3.099,2.9 -10.099,2 -10.899,1.8c-3,-0.6 -6.8,-1.5 -10.601,-3.9c-11,-6.799 -8,-20 -3.7,-21.2c4.3,-1.199 4.1,7.301 8.3,13.5c1.9,2.801 4.5,4.301 6.8,5.301c3.2,1.5 10.4,-0.9 11.1,-0.302z" fill="#faa51f" stroke="none" stroke-width="1" stroke-linecap="butt" stroke-linejoin="miter"/><path d="M236.1,207.199c0.7,0.7 2.101,1.901 -1,4.801c-3.099,2.9 -10.099,2 -10.899,1.8c-3,-0.6 -6.8,-1.5 -10.601,-3.9c-11,-6.799 -8,-20 -3.7,-21.2c4.3,-1.199 4.1,7.301 8.3,13.5c1.9,2.801 4.5,4.301 6.8,5.301c3.2,1.5 10.4,-0.9 11.1,-0.302z" fill="#41ff43" stroke="#8e5322" stroke-width="1.4" stroke-linecap="round" stroke-linejoin="round"/><path d="M214,193.001c1.099,2.8 3.2,7.8 3.2,7.8c0,0 -3.9,-1.601 -6.4,-0.3c-2.5,1.299 -1.2,5.799 -2.5,4.399c-0.9,-1.599 -2.3,-4.2 -2.5,-7.899c-0.099,-3.7 2.2,-8.2 4.3,-8.4c2.2,0 3,1.799 3.9,4.4z" fill="#ffffff" stroke="none" stroke-width="1" stroke-linecap="butt" stroke-linejoin="miter"/><path d="M249.4,209.7c0,0 -1.7,5.5 -0.9,14.301c0.3,3.8 7.4,-0.5 6.9,6.899c-0.2,2.101 -9.4,1.9 -11.5,1.101c-1.9,-0.7 -2.4,-1.4 -2.101,-3.4c1.101,-7.3 -2.6,-15.7 -2.6,-15.7" fill="#41ff43" stroke="#8e5322" stroke-width="1.4" stroke-linecap="round" stroke-linejoin="round"/><path d="M247.7,225.901c1.5,-0.3 2.8,-0.1 2.8,-0.1" fill="#faa51f" stroke="#8e5322" stroke-width="1.4" stroke-linecap="round" stroke-linejoin="round"/><path d="M250.2,198.801c0,6.7 1.7,16.5 -10.2,16.5c-11.9,0 -10.8,-9 -10.8,-15.7c0,-6.7 4.1,-8.5 10.8,-8.5c6.7,0 10.2,1 10.2,7.7z" fill="#41ff43" stroke="#8e5322" stroke-width="1.4" stroke-linecap="round" stroke-linejoin="round"/><path d="M247.6,201.7c0,4.2 0.9,10.5 -5.5,10.5c-6.399,0 -5.899,-5.699 -5.899,-9.899c0,-4.2 2.2,-5.4 5.899,-5.4c3.7,-0.001 5.5,0.6 5.5,4.799z" fill="#ffffff" stroke="none" stroke-width="1" stroke-linecap="butt" stroke-linejoin="miter"/><path d="M239.299,215.599c0,0 -1.5,9.1 -1.2,13.3c0.2,2.101 -0.599,3.201 -2.699,3.601c-2.2,0.4 -9.8,0.6 -9.9,-1.9c-0.4,-7.599 5.2,-2.9 5.8,-6.7c1.3,-8.7 -1.3,-14.2 -1.3,-14.2" fill="#41ff43" stroke="#8e5322" stroke-width="1.4" stroke-linecap="round" stroke-linejoin="round"/><path d="M228.9,225.7c0,0 1.6,-0.199 3,0.2" fill="#faa51f" stroke="#8e5322" stroke-width="1.4" stroke-linecap="round" stroke-linejoin="round"/><path d="M230.95,206.851c-0.166,-0.093 -7.769,1.95 -7.91,1.83c-3.335,-2.839 0.335,-12.898 6.86,-18.08l7.899,1.4" fill="#41ff43" stroke="#8e5322" stroke-width="1.4" stroke-linecap="round" stroke-linejoin="round"/><path d="M232.3,198.4c-1.165,3.135 -3.082,6.935 -3.082,6.935" fill="#faa51f" stroke="#8e5322" stroke-width="1.4" stroke-linecap="round" stroke-linejoin="round"/><path d="M228.364,205.2l1.199,0.301" fill="none" stroke="#8e5322" stroke-width="1.4" stroke-linecap="round" stroke-linejoin="round"/><path d="M242.8,144.7l7.2,-7l2.8,11.2c0,0 6.2,4.601 8.1,7.8c3.1,5.301 3.199,9.6 3.199,9.6c0,0 6.901,2.1 8.101,7.6c1.2,5.5 -3.1,16 -21.299,19.6c-18.2,3.6 -32.801,-1.3 -39.7,-12.4c-6.8,-11 4,-24.2 3.399,-23.4l-2.2,-18.3l12.6,8.2c0,0 4.299,-1.7 8.9,-1.9c1.699,-0.1 4.8,0.1 6.3,0.2z" fill="#faa51f" stroke="none" stroke-width="1" stroke-linecap="butt" stroke-linejoin="miter"/><path d="M242.8,144.7l7.2,-7l2.8,11.2c0,0 6.2,4.601 8.1,7.8c3.1,5.301 3.199,9.6 3.199,9.6c0,0 6.901,2.1 8.101,7.6c1.2,5.5 -3.1,16 -21.299,19.6c-18.2,3.6 -32.801,-1.3 -39.7,-12.4c-6.8,-11 4,-24.2 3.399,-23.4l-2.2,-18.3l12.6,8.2c0,0 4.299,-1.7 8.9,-1.9c1.699,-0.1 4.8,0.1 6.3,0.2z" fill="#41ff43" stroke="#8e5322" stroke-width="1.4" stroke-linecap="round" stroke-linejoin="round"/><path d="M263.7,166.801c0,0 6.6,1.6 7.8,7.1c1.5,5.5 -3.401,15.9 -20.6,19c-3.9,0.7 -7.4,1.4 -12.9,1.4c-8.5,0.099 -17.8,-5.2 -17.1,-16.3c0.399,-6.4 8.5,-5.9 8.5,-5.9l7.1,-1.8c0,0 7.1,1.599 11.3,0.7c4.2,-0.9 4.2,-4.2 4.2,-4.2l8.8,-2.601l2.4,2z" fill="#ffffff" stroke="none" stroke-width="1" stroke-linecap="butt" stroke-linejoin="miter"/><path d="M279.2,167.601c0,0 -1.799,1.6 -4.4,2.5c-2.201,0.8 -6.6,1.5 -6.6,1.5" fill="none" stroke="#8e5322" stroke-width="1.4" stroke-linecap="round" stroke-linejoin="round"/><path d="M278.599,178.801c0,0 -1.8,0.2 -4.5,-0.101c-2.799,-0.199 -5.399,-1.3 -5.399,-1.3" fill="none" stroke="#8e5322" stroke-width="1.4" stroke-linecap="round" stroke-linejoin="round"/><path d="M222.7,146.101l5.2,3.6" fill="none" stroke="#8e5322" stroke-width="1.4" stroke-linecap="round" stroke-linejoin="round"/><path d="M210.6,176.6c0,0 -3.5,0.5 -5.3,0.6c-1.8,0.1 -5.8,-0.3 -5.8,-0.3" fill="none" stroke="#8e5322" stroke-width="1.4" stroke-linecap="round" stroke-linejoin="round"/><path d="M198.701,167.301c0,0 2.2,0.399 6.2,2.2c3.599,1.6 5.899,3.3 5.899,3.3" fill="none" stroke="#8e5322" stroke-width="1.4" stroke-linecap="round" stroke-linejoin="round"/><path d="M258.7,156.801c2.8,4.3 2.899,9.3 0.2,11c-2.7,1.8 -7.2,-0.3 -10,-4.7c-2.801,-4.3 -2.9,-9.3 -0.2,-11c2.7,-1.7 7.2,0.4 10,4.7z" fill="#ffffff" stroke="#8e5322" stroke-width="1.4" stroke-linecap="round" stroke-linejoin="round"/><path d="M258.6,160.4c0.301,1 -0.199,2 -1.199,2.3c-0.9,0.301 -1.9,-0.3 -2.2,-1.399c-0.3,-1 0.2,-2 1.2,-2.3c0.999,-0.2 1.899,0.399 2.199,1.399" fill="#414142" stroke="none" stroke-width="1" stroke-linecap="butt" stroke-linejoin="miter"/><path d="M235.5,159.9c2.8,4.3 2.5,9.5 -0.7,11.601c-3.2,2.1 -8.1,0.3 -10.899,-4.101c-2.801,-4.3 -2.5,-9.5 0.699,-11.6c3.2,-1.999 8.1,-0.199 10.9,4.1z" fill="#ffffff" stroke="#8e5322" stroke-width="1.4" stroke-linecap="round" stroke-linejoin="round"/><path d="M235.2,163.801c0,1 -0.8,1.899 -1.7,1.899c-1,0 -1.7,-0.8 -1.7,-1.899c0,-1 0.8,-1.9 1.7,-1.9c0.9,0 1.7,0.799 1.7,1.9" fill="#414142" stroke="none" stroke-width="1" stroke-linecap="butt" stroke-linejoin="miter"/><path d="M246.5,169.801c1.7,-0.2 4,-1.5 4.3,0.399c0,0.801 -1.6,4.101 -3.399,4.2c-2,0.101 -5.5,-2.399 -5.4,-3.899c0.1,-1.5 2.999,-0.5 4.499,-0.7z" fill="#5f4b43" stroke="#8e5322" stroke-width="1.4" stroke-linecap="round" stroke-linejoin="round"/><path d="M245.299,186.4c-5.399,1.101 -7.899,-1.2 -7.899,-1.2" fill="#ffffff" stroke="#8e5322" stroke-width="1.4" stroke-linecap="round" stroke-linejoin="round"/><path d="M230.332,206.025c5.159,2.825 4.973,7.136 3.671,8.232c-3.041,2.607 -7.513,0.507 -11.982,-6.969" fill="#41ff43" stroke="#8e5322" stroke-width="1.4" stroke-linecap="round" stroke-linejoin="round"/></g></g></svg>