<svg version="1.1" xmlns="http://www.w3.org/2000/svg" xmlns:xlink="http://www.w3.org/1999/xlink" width="81.9" height="96.26454" viewBox="0,0,81.9,96.26454"><g transform="translate(-198.05,-136.95)"><g data-paper-data="{&quot;isPaintingLayer&quot;:true}" fill-rule="nonzero" stroke-miterlimit="10" stroke-dasharray="" stroke-dashoffset="0" style="mix-blend-mode: normal"><g><path d="M236.15,207.15c0.7,0.7 2.1,1.9 -1,4.8c-3.1,2.9 -10.1,2 -10.9,1.8c-3,-0.6 -6.8,-1.5 -10.6,-3.9c-11,-6.8 -8,-20 -3.7,-21.2c4.3,-1.2 4.1,7.3 8.3,13.5c1.9,2.8 4.5,4.3 6.8,5.3c3.2,1.5 10.4,-0.9 11.1,-0.3z" fill="#faa51f" stroke="none" stroke-width="1" stroke-linecap="butt" stroke-linejoin="miter"/><path d="M214.05,192.95c1.1,2.8 3.2,7.8 3.2,7.8c0,0 -3.9,-1.6 -6.4,-0.3c-2.5,1.3 -1.2,5.8 -2.5,4.4c-0.9,-1.6 -2.3,-4.2 -2.5,-7.9c-0.1,-3.7 2.2,-8.2 4.3,-8.4c2.2,0 3,1.8 3.9,4.4z" fill="#ffffff" stroke="none" stroke-width="1" stroke-linecap="butt" stroke-linejoin="miter"/><path d="M236.15,207.15c0.7,0.7 2.1,1.9 -1,4.8c-3.1,2.9 -10.1,2 -10.9,1.8c-3,-0.6 -6.8,-1.5 -10.6,-3.9c-11,-6.8 -8,-20 -3.7,-21.2c4.3,-1.2 4.1,7.3 8.3,13.5c1.9,2.8 4.5,4.3 6.8,5.3c3.2,1.5 10.4,-0.9 11.1,-0.3z" fill="none" stroke="#8e5322" stroke-width="1.4" stroke-linecap="round" stroke-linejoin="round"/></g><path d="M242.75,197.85l-1,14.6c0,0 1.3,-1.2 -2.4,3.1c-2.2,2.5 -16.7,2.2 -19.9,-2c-2.2,-2.9 0,-19 0,-19z" fill="#518943" stroke="#426c36" stroke-width="1.4" stroke-linecap="round" stroke-linejoin="round"/><path d="M222.55,182.55c1.4,0 2.7,0.8 3.7,2.2c0.9,1.3 1.5,3.2 1.5,5.2c0,2 -0.6,3.9 -1.5,5.2c-0.9,1.3 -2.2,2.2 -3.7,2.2c-1.5,0 -2.7,-0.8 -3.7,-2.2c-0.9,-1.3 -1.5,-3.2 -1.5,-5.2c0,-2 0.6,-3.9 1.5,-5.2c1,-1.4 2.3,-2.2 3.7,-2.2z" fill="#fefbdf" stroke="#70715e" stroke-width="1.4" stroke-linecap="round" stroke-linejoin="round"/><path d="M222.55,185.85c0.8,0 1.5,0.5 2,1.2c0.5,0.7 0.8,1.8 0.8,2.9c0,1.1 -0.3,2.2 -0.8,2.9c-0.5,0.7 -1.2,1.2 -2,1.2c-0.8,0 -1.5,-0.5 -2,-1.2c-0.5,-0.7 -0.8,-1.8 -0.8,-2.9c0,-1.1 0.3,-2.2 0.8,-2.9c0.6,-0.8 1.3,-1.2 2,-1.2z" fill="#fefbdf" stroke="#70715e" stroke-width="1.4" stroke-linecap="round" stroke-linejoin="round"/><path d="M221.75,212.05c-1,-0.9 -0.3,-6.8 -0.3,-6.8l6.5,1.3l-0.5,7.7c0,0 -4.8,-1.4 -5.7,-2.2z" fill="#518943" stroke="#426c36" stroke-width="1.4" stroke-linecap="round" stroke-linejoin="round"/><g><g fill="#faa51f" stroke="#8e5322" stroke-width="1.4" stroke-linecap="round" stroke-linejoin="round"><path d="M249.45,209.65c0,0 -1.7,5.5 -0.9,14.3c0.3,3.8 7.4,-0.5 6.9,6.9c-0.2,2.1 -9.4,1.9 -11.5,1.1c-1.9,-0.7 -2.4,-1.4 -2.1,-3.4c1.1,-7.3 -2.6,-15.7 -2.6,-15.7"/><path d="M247.75,225.85c1.5,-0.3 2.8,-0.1 2.8,-0.1"/></g><g fill="#faa51f" stroke="#8e5322" stroke-width="1.4" stroke-linecap="round" stroke-linejoin="round"><path d="M240.25,207.55"/></g><path d="M250.25,198.75c0,6.7 1.7,16.5 -10.2,16.5c-11.9,0 -10.8,-9 -10.8,-15.7c0,-6.7 4.1,-8.5 10.8,-8.5c6.7,0 10.2,1 10.2,7.7z" fill="#faa51f" stroke="#8e5322" stroke-width="1.4" stroke-linecap="round" stroke-linejoin="round"/><path d="M247.65,201.65c0,4.2 0.9,10.5 -5.5,10.5c-6.4,0 -5.9,-5.7 -5.9,-9.9c0,-4.2 2.2,-5.4 5.9,-5.4c3.7,0 5.5,0.6 5.5,4.8z" fill="#ffffff" stroke="none" stroke-width="1" stroke-linecap="butt" stroke-linejoin="miter"/><g fill="#faa51f" stroke="#8e5322" stroke-width="1.4" stroke-linecap="round" stroke-linejoin="round"><path d="M239.35,215.55c0,0 -1.5,9.1 -1.2,13.3c0.2,2.1 -0.6,3.2 -2.7,3.6c-2.2,0.4 -9.8,0.6 -9.9,-1.9c-0.4,-7.6 5.2,-2.9 5.8,-6.7c1.3,-8.7 -1.3,-14.2 -1.3,-14.2"/><path d="M228.95,225.65c0,0 1.6,-0.2 3,0.2"/></g><g stroke="#8e5322" stroke-width="1.4" stroke-linecap="round" stroke-linejoin="round"><path d="M223.55,208.95c-4.1,-2.3 -0.4,-13 6.4,-18.4l7.9,1.4" fill="#faa51f"/><path d="M229.65,202.45" fill="#faa51f"/><path d="M232.75,200.65" fill="none"/><path d="M229.65,202.45l2.7,-4.1" fill="#faa51f"/><path d="M229.65,202.45l-1.2,-0.3" fill="none"/></g><g stroke="#8e5322" stroke-width="1.4" stroke-linecap="round" stroke-linejoin="round"><path d="M246.85,193.15l4.2,-0.7c5.4,2.8 10.7,11.6 5.5,15.5" fill="#faa51f"/><path d="M251.35,202.45" fill="#faa51f"/><path d="M248.75,200.95" fill="none"/><path d="M251.35,202.45l-1.1,-3.7" fill="#faa51f"/><path d="M251.35,202.45l1.1,-0.3" fill="none"/></g><path d="M229.45,212.25c15.7,-14.2 0.8,-19.4 0.8,-19.4c18.4,5.1 4.2,20.6 -0.1,22.3" fill="#518943" stroke="#426c36" stroke-width="1.4" stroke-linecap="round" stroke-linejoin="round"/><path d="M249.75,205.55c4.2,-8.8 -6.4,-12.7 -6.4,-12.7c11.5,2.7 10.5,8.7 8.4,14" fill="#518943" stroke="#426c36" stroke-width="1.4" stroke-linecap="round" stroke-linejoin="round"/><g><path d="M242.85,144.65l7.2,-7l2.8,11.2c0,0 6.2,4.6 8.1,7.8c3.1,5.3 3.2,9.6 3.2,9.6c0,0 6.9,2.1 8.1,7.6c1.2,5.5 -3.1,16 -21.3,19.6c-18.2,3.6 -32.8,-1.3 -39.7,-12.4c-6.8,-11 4,-24.2 3.4,-23.4l-2.2,-18.3l12.6,8.2c0,0 4.3,-1.7 8.9,-1.9c1.7,-0.1 4.8,0.1 6.3,0.2z" fill="#faa51f" stroke="none" stroke-width="1" stroke-linecap="butt" stroke-linejoin="miter"/><path d="M263.75,166.75c0,0 6.6,1.6 7.8,7.1c1.5,5.5 -3.4,15.9 -20.6,19c-3.9,0.7 -7.4,1.4 -12.9,1.4c-8.5,0.1 -17.8,-5.2 -17.1,-16.3c0.4,-6.4 8.5,-5.9 8.5,-5.9l7.1,-1.8c0,0 7.1,1.6 11.3,0.7c4.2,-0.9 4.2,-4.2 4.2,-4.2l8.8,-2.6l2.4,2z" fill="#ffffff" stroke="none" stroke-width="1" stroke-linecap="butt" stroke-linejoin="miter"/><path d="M279.25,167.55c0,0 -1.8,1.6 -4.4,2.5c-2.2,0.8 -6.6,1.5 -6.6,1.5" fill="none" stroke="#8e5322" stroke-width="1.4" stroke-linecap="round" stroke-linejoin="round"/><path d="M278.65,178.75c0,0 -1.8,0.2 -4.5,-0.1c-2.8,-0.2 -5.4,-1.3 -5.4,-1.3" fill="none" stroke="#8e5322" stroke-width="1.4" stroke-linecap="round" stroke-linejoin="round"/><path d="M227.95,149.65l-5.2,-3.6" fill="none" stroke="#8e5322" stroke-width="1.4" stroke-linecap="round" stroke-linejoin="round"/><path d="M242.85,144.65l7.2,-7l2.8,11.2c0,0 6.2,4.6 8.1,7.8c3.1,5.3 3.2,9.6 3.2,9.6c0,0 6.9,2.1 8.1,7.6c1.2,5.5 -3.1,16 -21.3,19.6c-18.2,3.6 -32.8,-1.3 -39.7,-12.4c-6.8,-11 4,-24.2 3.4,-23.4l-2.2,-18.3l12.6,8.2c0,0 4.3,-1.7 8.9,-1.9c1.7,-0.1 4.8,0.1 6.3,0.2z" fill="none" stroke="#8e5322" stroke-width="1.4" stroke-linecap="round" stroke-linejoin="round"/><path d="M210.65,176.55c0,0 -3.5,0.5 -5.3,0.6c-1.8,0.1 -5.8,-0.3 -5.8,-0.3" fill="none" stroke="#8e5322" stroke-width="1.4" stroke-linecap="round" stroke-linejoin="round"/><path d="M198.75,167.25c0,0 2.2,0.4 6.2,2.2c3.6,1.6 5.9,3.3 5.9,3.3" fill="none" stroke="#8e5322" stroke-width="1.4" stroke-linecap="round" stroke-linejoin="round"/></g><g><path d="M258.75,156.75c2.8,4.3 2.9,9.3 0.2,11c-2.7,1.8 -7.2,-0.3 -10,-4.7c-2.8,-4.3 -2.9,-9.3 -0.2,-11c2.7,-1.7 7.2,0.4 10,4.7z" fill="#ffffff" stroke="#8e5322" stroke-width="1.4" stroke-linecap="round" stroke-linejoin="round"/><path d="M258.65,160.35c0.3,1 -0.2,2 -1.2,2.3c-0.9,0.3 -1.9,-0.3 -2.2,-1.4c-0.3,-1 0.2,-2 1.2,-2.3c1,-0.2 1.9,0.4 2.2,1.4" fill="#414142" stroke="none" stroke-width="1" stroke-linecap="butt" stroke-linejoin="miter"/></g><g><path d="M235.55,159.85c2.8,4.3 2.5,9.5 -0.7,11.6c-3.2,2.1 -8.1,0.3 -10.9,-4.1c-2.8,-4.3 -2.5,-9.5 0.7,-11.6c3.2,-2 8.1,-0.2 10.9,4.1z" fill="#ffffff" stroke="#8e5322" stroke-width="1.4" stroke-linecap="round" stroke-linejoin="round"/><path d="M235.25,163.75c0,1 -0.8,1.9 -1.7,1.9c-1,0 -1.7,-0.8 -1.7,-1.9c0,-1 0.8,-1.9 1.7,-1.9c0.9,0 1.7,0.8 1.7,1.9" fill="#414142" stroke="none" stroke-width="1" stroke-linecap="butt" stroke-linejoin="miter"/></g><path d="M246.55,169.75c1.7,-0.2 4,-1.5 4.3,0.4c0,0.8 -1.6,4.1 -3.4,4.2c-2,0.1 -5.5,-2.4 -5.4,-3.9c0.1,-1.5 3,-0.5 4.5,-0.7z" fill="#5f4b43" stroke="#8e5322" stroke-width="1.4" stroke-linecap="round" stroke-linejoin="round"/><path d="M245.35,186.35c-5.4,1.1 -7.9,-1.2 -7.9,-1.2" fill="#ffffff" stroke="#8e5322" stroke-width="1.4" stroke-linecap="round" stroke-linejoin="round"/><path d="M228.45,202.15c5.6,-1.8 8.6,1.3 8.5,3c-0.2,4 -4.8,5.8 -13.3,3.9" fill="#faa51f" stroke="#8e5322" stroke-width="1.4" stroke-linecap="round" stroke-linejoin="round"/></g><path d="M256.55,207.95c-5.2,4.3 -9.1,0.7 -7.8,-2.4c0.9,-2.2 2.4,-4.5 5.6,-3.1" fill="#faa51f" stroke="#8e5322" stroke-width="1.4" stroke-linecap="round" stroke-linejoin="round"/></g></g></svg>