<svg version="1.1" xmlns="http://www.w3.org/2000/svg" xmlns:xlink="http://www.w3.org/1999/xlink" width="90.13846" height="92.3" viewBox="0,0,90.13846,92.3"><defs><linearGradient x1="226.54948" y1="203.1" x2="226.54948" y2="218.29408" gradientUnits="userSpaceOnUse" id="color-1"><stop offset="0" stop-color="#ffffff"/><stop offset="1" stop-color="#66ebff"/></linearGradient><linearGradient x1="255.67329" y1="192.14362" x2="255.67329" y2="203" gradientUnits="userSpaceOnUse" id="color-2"><stop offset="0" stop-color="#ffffff"/><stop offset="1" stop-color="#66ebff"/></linearGradient><linearGradient x1="223.13268" y1="194.71239" x2="223.13268" y2="213.59252" gradientUnits="userSpaceOnUse" id="color-3"><stop offset="0" stop-color="#ffffff"/><stop offset="1" stop-color="#66ebff"/></linearGradient><linearGradient x1="243.71085" y1="188.65289" x2="243.71085" y2="212.92919" gradientUnits="userSpaceOnUse" id="color-4"><stop offset="0" stop-color="#ffffff"/><stop offset="1" stop-color="#66ebff"/></linearGradient><linearGradient x1="256.16783" y1="204.6" x2="256.16783" y2="226.57853" gradientUnits="userSpaceOnUse" id="color-5"><stop offset="0" stop-color="#ffffff"/><stop offset="1" stop-color="#66ebff"/></linearGradient><linearGradient x1="233.84902" y1="187.80154" x2="233.84902" y2="196.9" gradientUnits="userSpaceOnUse" id="color-6"><stop offset="0" stop-color="#ffffff"/><stop offset="1" stop-color="#66ebff"/></linearGradient><linearGradient x1="226.95665" y1="188" x2="226.95665" y2="199.89221" gradientUnits="userSpaceOnUse" id="color-7"><stop offset="0" stop-color="#ffffff"/><stop offset="1" stop-color="#66ebff"/></linearGradient><linearGradient x1="255.4841" y1="135.3" x2="255.4841" y2="193.8834" gradientUnits="userSpaceOnUse" id="color-8"><stop offset="0" stop-color="#ffffff"/><stop offset="1" stop-color="#66ebff"/></linearGradient></defs><g transform="translate(-205.16154,-134.6)"><g data-paper-data="{&quot;isPaintingLayer&quot;:true}" fill-rule="nonzero" stroke-miterlimit="10" stroke-dasharray="" stroke-dashoffset="0" style="mix-blend-mode: normal"><g stroke="#8e5322" stroke-width="1.4" stroke-linecap="round" stroke-linejoin="round"><path d="M241.00001,211.9c-8.6,-0.2 -16.8,6.2 -18.8,5.1c-2.8,-2.7 -5.7,5.1 -9.9,-1.3c-1.4,-2.1 4.9,-6.4 6.9,-7.4c1.9,-0.9 3.2,-0.5 4.3,1.3c1.3,-0.5 10.8,-6.5 10.8,-6.5" fill="url(#color-1)"/><path d="M222.00001,216.9c-1.1,-1 -1.7,-2.5 -1.7,-2.5" fill="#faa51f"/></g><g stroke="#8e5322" stroke-width="1.4" stroke-linecap="round" stroke-linejoin="round"><g><path d="M244.70001,192.9c-0.1,0.3 14,8.3 13.8,8.4c-1.8,0.8 -4.1,1.7 -5,1.8c-4.1,0.4 -9.9,-1.4 -14,-4.7l-0.9,-1.1" fill="#faa51f"/><path d="M251.10001,196" fill="#faa51f"/><path d="M248.60001,193.4" fill="none"/><path d="M246.50001,194.3l4.6,1.7" fill="#faa51f"/></g><path d="M247.20001,194.8c-1.1,-0.5 4.4,1.4 5.3,1.2c0.8,-0.2 2.4,-0.9 3.1,-1.5c3.7,-3.7 7.7,-2.3 8.3,-0.8c1.7,3.6 -2.2,7 -10.5,9.3" fill="url(#color-2)"/></g><path d="M238.70001,201.9c0.9,0.4 2.7,0.9 1,4.8c-1.7,3.9 -8.5,5.9 -9.3,6c-3,0.6 -6.9,1.3 -11.3,0.6c-12.8,-1.9 -15.3,-15.2 -11.8,-18c3.5,-2.8 6.7,5.1 13,9.1c2.8,1.9 5.8,2.2 8.3,2.2c3.6,0.1 9.2,-4.9 10.1,-4.7z" fill="#41ff43" stroke="none" stroke-width="1" stroke-linecap="butt" stroke-linejoin="miter"/><path d="M212.70001,197.7c2.1,2.2 6,5.9 6,5.9c0,0 -4.2,0.1 -6,2.3c-1.7,2.2 1.3,5.8 -0.5,5c-1.4,-1.2 -3.7,-3 -5.4,-6.3c-1.6,-3.3 -1.2,-8.4 0.6,-9.4c2,-0.8 3.5,0.5 5.3,2.5z" fill="#ffffff" stroke="none" stroke-width="1" stroke-linecap="butt" stroke-linejoin="miter"/><path d="M238.70001,201.9c0.9,0.4 2.7,0.9 1,4.8c-1.7,3.9 -8.5,5.9 -9.3,6c-3,0.6 -6.9,1.3 -11.3,0.6c-12.8,-1.9 -15.3,-15.2 -11.8,-18c3.5,-2.8 6.7,5.1 13,9.1c2.8,1.9 5.8,2.2 8.3,2.2c3.6,0.1 9.2,-4.9 10.1,-4.7z" fill="url(#color-3)" stroke="#8e5322" stroke-width="1.4" stroke-linecap="round" stroke-linejoin="round"/><path d="M240.50001,204.6" fill="#faa51f" stroke="#8e5322" stroke-width="1.4" stroke-linecap="round" stroke-linejoin="round"/><path d="M252.60001,198.9c-1.9,6.4 -3.4,16.2 -12.4,13.6c-9.1,-2.7 -5.7,-11 -3.8,-17.5c1.9,-6.4 5.5,-7.2 10.6,-5.7c5.1,1.5 7.5,3.2 5.6,9.6z" fill="url(#color-4)" stroke="#8e5322" stroke-width="1.2473" stroke-linecap="round" stroke-linejoin="round"/><path d="M251.40001,201.5c-1.2,4 0,4.4 -3.4,3.6c-6.2,-1.4 -5.7,-2 -4.5,-6.1c1.2,-4 4.2,-5.8 7.2,-3.5c1.7,1.4 1.9,2 0.7,6z" fill="#ffffff" stroke="none" stroke-width="1" stroke-linecap="butt" stroke-linejoin="miter"/><g stroke="#8e5322" stroke-width="1.4" stroke-linecap="round" stroke-linejoin="round"><path d="M250.30001,204.6c0,0 3.3,6.3 9.6,12.5c2.7,2.7 5.3,-5.2 9.7,0.8c1.2,1.7 -5.9,7.5 -8,8.3c-1.9,0.7 -2.7,0.5 -3.8,-1.2c-3.9,-6.3 -15.2,-12.3 -15.2,-12.3" fill="url(#color-5)"/><path d="M260.50001,219c1,-1.2 2.1,-1.9 2.1,-1.9" fill="#faa51f"/></g><g stroke="#8e5322" stroke-width="1.4" stroke-linecap="round" stroke-linejoin="round"><g><path d="M238.10001,196.9c0,-0.3 -15.1,-6.1 -14.9,-6.2c1.7,-1.1 3.8,-2.3 4.7,-2.5c4,-1 10,-0.1 14.5,2.5l2.1,1.9" fill="url(#color-6)"/><path d="M231.30001,194.7" fill="#faa51f"/><path d="M234.10001,196.9" fill="none"/><path d="M236.10001,195.7l-4.8,-1" fill="#faa51f"/></g><path d="M235.40001,195.3c1.4,0.4 -6.2,-1.1 -8.3,1.5c-3.3,4.1 -7.2,3.4 -8.1,2c-2.2,-3.3 1.2,-7.3 9,-10.8" fill="url(#color-7)"/></g><path d="M245.90001,147.4l-4.7,-4.2" fill="none" stroke="#8e5322" stroke-width="1.4" stroke-linecap="round" stroke-linejoin="round"/><path d="M261.30001,144.4l8,-6.1l1.4,11.5c0,0 5.6,5.3 7.1,8.7c2.4,5.6 2,9.9 2,9.9c0,0 6.6,2.9 7.1,8.5c0.6,5.6 -5,15.5 -23.5,16.8c-18.6,1.4 -32.4,-5.3 -38,-17.2c-5.4,-11.7 6.9,-23.5 6.2,-22.8l0.1,-18.4l11.5,9.7c0,0 4.5,-1.2 9.1,-0.8c1.7,0.1 4.7,0.7 6.2,1z" fill="url(#color-8)" stroke="#8e5322" stroke-width="1.4" stroke-linecap="round" stroke-linejoin="round"/><path d="M279.30001,168.8c0,0 6.4,2.4 6.9,8c0.8,5.6 -5.3,15.3 -22.8,16.3c-4,0.2 -7.5,0.5 -13,-0.2c-8.5,-1 -17,-7.4 -15,-18.3c1.2,-6.3 9.2,-4.8 9.2,-4.8l7.3,-0.9c0,0 6.8,2.5 11.1,2.1c4.3,-0.4 4.7,-3.7 4.7,-3.7l9.1,-1.5l2.1,2.3z" fill="#ffffff" stroke="none" stroke-width="1" stroke-linecap="butt" stroke-linejoin="miter"/><path d="M294.60001,171.5c0,0 -2,1.3 -4.7,1.9c-2.2,0.5 -6.7,0.7 -6.7,0.7" fill="none" stroke="#8e5322" stroke-width="1.4" stroke-linecap="round" stroke-linejoin="round"/><path d="M292.7,182.5c0,0 -1.9,0 -4.5,-0.6c-2.8,-0.6 -5.2,-2 -5.2,-2" fill="none" stroke="#8e5322" stroke-width="1.4" stroke-linecap="round" stroke-linejoin="round"/><path d="M225.40001,172.1c0,0 -3.5,0 -5.3,-0.1c-1.8,-0.1 -5.7,-1 -5.7,-1" fill="none" stroke="#8e5322" stroke-width="1.4" stroke-linecap="round" stroke-linejoin="round"/><path d="M214.70001,161.4c0,0 2.2,0.6 5.9,2.9c3.4,2 5.5,4 5.5,4" fill="none" stroke="#8e5322" stroke-width="1.4" stroke-linecap="round" stroke-linejoin="round"/><path d="M275.60001,158.2c2.3,4.6 1.7,9.6 -1.1,10.9c-2.9,1.5 -7.1,-1.2 -9.4,-5.9c-2.3,-4.6 -1.7,-9.6 1.1,-10.9c2.9,-1.3 7.1,1.3 9.4,5.9z" fill="#ffffff" stroke="#8e5322" stroke-width="1.4" stroke-linecap="round" stroke-linejoin="round"/><path d="M275.00001,161.8c0.2,1 -0.4,2 -1.5,2.1c-0.9,0.2 -1.8,-0.5 -2,-1.7c-0.2,-1 0.4,-2 1.5,-2.1c1,0 1.9,0.7 2,1.7" fill="#414142" stroke="none" stroke-width="1" stroke-linecap="butt" stroke-linejoin="miter"/><path d="M252.20001,158.5c2.3,4.6 1.3,9.7 -2.1,11.4c-3.4,1.7 -8.1,-0.7 -10.3,-5.4c-2.3,-4.6 -1.3,-9.7 2.1,-11.4c3.4,-1.6 8,0.8 10.3,5.4z" fill="#ffffff" stroke="#8e5322" stroke-width="1.4" stroke-linecap="round" stroke-linejoin="round"/><path d="M251.40001,162.3c-0.1,1 -1,1.8 -1.9,1.7c-1,-0.1 -1.6,-1 -1.5,-2.1c0.1,-1 1,-1.8 1.9,-1.7c0.9,0.1 1.6,1 1.5,2.1" fill="#414142" stroke="none" stroke-width="1" stroke-linecap="butt" stroke-linejoin="miter"/><path d="M261.90001,169.7c1.7,0 4.2,-1 4.2,0.9c-0.1,0.8 -2.1,3.9 -3.9,3.8c-2,-0.1 -5.2,-3.1 -4.9,-4.5c0.3,-1.6 3.1,-0.2 4.6,-0.2z" fill="#5f4b43" stroke="#8e5322" stroke-width="1.4" stroke-linecap="round" stroke-linejoin="round"/><path d="M258.7,186c-5.5,0.4 -7.7,-2.2 -7.7,-2.2" fill="#ffffff" stroke="#8e5322" stroke-width="1.4" stroke-linecap="round" stroke-linejoin="round"/></g></g></svg>