<svg version="1.1" xmlns="http://www.w3.org/2000/svg" xmlns:xlink="http://www.w3.org/1999/xlink" width="537.53754" height="432.43249" viewBox="0,0,537.53754,432.43249"><defs><radialGradient cx="248.38382" cy="141.94892" r="210.42395" gradientUnits="userSpaceOnUse" id="color-1"><stop offset="0" stop-color="#000c47" stop-opacity="0"/><stop offset="1" stop-color="#000c47"/></radialGradient><linearGradient x1="289.32471" y1="14.48094" x2="289.32471" y2="190.3137" gradientUnits="userSpaceOnUse" id="color-2"><stop offset="0" stop-color="#0a7f04"/><stop offset="1" stop-color="#00b406"/></linearGradient><radialGradient cx="197.70073" cy="184.13503" r="99.20458" gradientTransform="translate(-56.77267,-105.86533) scale(0.40322,0.40322)" gradientUnits="userSpaceOnUse" id="color-3"><stop offset="0" stop-color="#5300c0"/><stop offset="1" stop-color="#3b00a4"/></radialGradient></defs><g transform="translate(28.76877,23.21624)"><g data-paper-data="{&quot;isPaintingLayer&quot;:true}" stroke-miterlimit="10" stroke-dasharray="" stroke-dashoffset="0" style="mix-blend-mode: normal"><path d="M-28.76877,409.21626v-421.92192h537.53754v421.92192z" fill="#000c47" fill-rule="nonzero" stroke="none" stroke-width="0" stroke-linecap="butt" stroke-linejoin="miter"/><g fill-rule="nonzero" stroke-linejoin="miter"><path d="M342.06337,238.33956c-2.06493,2.18617 -5.43498,2.35638 -7.52721,0.38018c-2.09223,-1.9762 -2.11436,-5.35047 -0.04944,-7.53664c2.06493,-2.18617 5.43498,-2.35638 7.52721,-0.38018c2.09223,1.9762 2.11436,5.35047 0.04944,7.53664z" fill="#4c00cc" stroke="none" stroke-width="0" stroke-linecap="butt"/><path d="M335.41578,224.16101c0,0 2.30415,-0.62446 4.75346,-0.09371c2.25189,0.48797 4.61365,2.08615 5.70261,3.10611c0.86689,0.81196 2.04102,3.04413 2.47202,4.78375c0.62571,2.52551 0.29827,4.59198 0.29827,4.59198" fill="none" stroke="#4c00cc" stroke-width="3" stroke-linecap="round"/><path d="M333.76673,216.98595c0,0 3.83631,-1.03972 7.91431,-0.15603c3.74931,0.81246 7.68154,3.47335 9.49463,5.17153c1.44335,1.35188 3.39822,5.06838 4.1158,7.96477c1.04178,4.20487 0.49662,7.64547 0.49662,7.64547" fill="none" stroke="#4c00cc" stroke-width="3" stroke-linecap="round"/><path d="M333.03516,210.32637c0,0 5.13275,-1.39109 10.58887,-0.20877c5.01636,1.08703 10.27745,4.64712 12.70327,6.91921c1.93112,1.80873 4.5466,6.7812 5.5067,10.65639c1.39383,5.62586 0.66444,10.22918 0.66444,10.22918" fill="none" stroke="#4c00cc" stroke-width="3" stroke-linecap="round"/></g><g data-paper-data="{&quot;index&quot;:null}" fill-rule="evenodd"><path d="M253.19096,52.41626c11.28328,-1.96232 23.05716,-2.94345 36.79335,-1.96232c23.05721,0.98119 45.13324,9.32102 45.13324,9.32102l59.35997,-38.75568c1.96232,-0.98113 4.41524,0.49059 3.92464,2.45292l-10.30215,87.8135c-2.94345,-3.92464 52.00134,62.79402 17.17025,118.71994c-34.83109,55.92592 -108.90839,80.9454 -201.13713,62.79402c-92.22874,-18.15144 -113.81422,-71.13385 -107.92726,-99.09684c5.88691,-27.96299 40.718,-38.26514 40.718,-38.26514c0,0 0.49054,-22.07602 16.18906,-49.05782c9.32096,-16.18911 40.718,-39.24627 40.718,-39.24627l12.75506,-52.49187c0.49054,-1.96232 2.94345,-2.45286 4.41518,-1.47173z" fill="#7300ff" stroke="#001026" stroke-width="1.2" stroke-linecap="butt" stroke-linejoin="miter"/><path d="M138.39543,157.40005c24.7741,-5.53774 36.2148,3.12371 48.82787,11.5815c8.61698,5.77817 17.78108,29.1057 32.11759,30.10129c15.99588,1.14254 32.32272,-24.48983 50.63476,-29.22304c28.86356,-7.46043 59.749,-9.74494 79.85911,22.37128c32.86877,52.00128 -23.54775,122.64459 -142.26769,98.11565c-91.24755,-17.66084 -114.79536,-68.19039 -108.90839,-96.15338c5.88697,-27.96293 39.73687,-36.79335 39.73687,-36.79335z" fill="#ffffff" stroke="none" stroke-width="1" stroke-linecap="butt" stroke-linejoin="miter"/><path d="M292.92766,209.89184c1.47173,24.03835 -2.94345,55.43538 -47.5861,60.34116c-51.51074,2.94351 -70.15271,-33.8499 -74.5679,-47.0955c-0.98113,-2.45286 0.98113,-4.90578 3.43405,-4.41518c7.35869,1.47173 23.05721,2.94345 49.54842,1.47173c29.43472,-1.96232 55.92592,-9.81155 65.24694,-13.2456c1.96232,-0.49059 3.92464,0.98113 3.92464,2.94345z" fill="#970000" stroke="#001026" stroke-width="1.2" stroke-linecap="round" stroke-linejoin="round"/><path d="M106.50797,181.92894c0,0 -35.32168,-0.49059 -58.37884,-19.13257" fill="none" stroke="#001026" stroke-width="1.2" stroke-linecap="round" stroke-linejoin="round"/><path d="M104.54565,210.87303c0,0 -19.13257,9.32102 -50.03901,6.8681" fill="none" stroke="#001026" stroke-width="1.2" stroke-linecap="round" stroke-linejoin="round"/><path d="M382.70359,190.26879c17.17025,-15.20792 59.35997,-28.94412 59.35997,-28.94412" fill="none" stroke="#001026" stroke-width="1.2" stroke-linecap="round" stroke-linejoin="round"/><path d="M438.62951,210.38244c0,0 -36.30276,5.39637 -57.39765,-2.94345" fill="none" stroke="#001026" stroke-width="1.2" stroke-linecap="round" stroke-linejoin="round"/><g fill="#da0000" stroke="#001026" stroke-width="1.2" stroke-linecap="round" stroke-linejoin="round"><path d="M214.43517,87.73788c13.7362,8.83042 13.24566,33.8499 -0.98113,55.92592c-14.71733,22.07602 -37.28395,32.37817 -51.02015,23.54775c-13.7362,-8.83042 -13.24566,-33.8499 0.98113,-55.92592c14.22679,-22.07602 37.28395,-32.86877 51.02015,-23.54775z"/></g><g fill="#da0000" stroke="#001026" stroke-width="1.2" stroke-linecap="round" stroke-linejoin="round"><path d="M285.07842,125.02179c14.71733,-21.58543 37.77454,-33.3593 52.98247,-22.07602c15.20792,10.79274 14.22679,38.75573 -0.98113,60.34116c-14.71733,21.58549 -36.30282,28.45358 -52.49187,19.13257c-13.2456,-9.32096 -14.22674,-35.81222 0.49059,-57.39765z"/></g></g><path d="M306.61962,145.32079c6.22265,-12.24466 18.92448,-18.27942 28.3704,-13.47903c9.44581,4.80028 12.05877,18.61801 5.83607,30.86266c-6.22265,12.2446 -18.92448,18.27942 -28.3704,13.47903c-9.44581,-4.80034 -12.05877,-18.61806 -5.83607,-30.86272z" data-paper-data="{&quot;index&quot;:null}" fill="#001026" fill-rule="nonzero" stroke="none" stroke-width="0" stroke-linecap="butt" stroke-linejoin="miter"/><path d="M156.3636,126.5603c5.5025,-10.82764 16.73448,-16.16401 25.08723,-11.91917c8.35269,4.24478 10.66322,16.46342 5.16067,27.29106c-5.5025,10.82764 -16.73448,16.16401 -25.08723,11.91917c-8.35275,-4.24478 -10.66328,-16.46342 -5.16072,-27.29106z" data-paper-data="{&quot;index&quot;:null}" fill="#001026" fill-rule="nonzero" stroke="none" stroke-width="0" stroke-linecap="butt" stroke-linejoin="miter"/><path d="M37.95988,307.1141v-330.33033h420.84789v330.33033z" fill="url(#color-1)" fill-rule="nonzero" stroke="none" stroke-width="0" stroke-linecap="butt" stroke-linejoin="miter"/><path d="M368.43005,157.34966c-3.68461,-16.86611 -5.86812,-34.40739 -19.47286,-47.62749c-3.54205,-3.61783 -8.61886,-25.19614 -14.29938,-24.78679c-9.21734,0.66424 -18.17814,17.53707 -28.9004,11.88222c-8.14642,-4.29642 1.71187,-11.1689 -4.38005,-17.73041c-1.22908,-1.44599 -2.4659,-2.8855 -3.68729,-4.33798c-1.09933,-1.30736 -2.00861,-2.79503 -3.27481,-3.9415c-15.32191,-13.87312 -4.98497,16.43398 -10.44289,21.29433c-2.89153,2.57492 -7.82982,1.76129 -10.82275,4.21757c-7.36165,6.04171 -8.64379,12.1013 -19.67793,12.1013c-6.01085,0 -14.19821,1.54648 -19.45618,-1.96067c-10.22859,-6.82272 -17.28981,-19.02952 -28.90854,-25.44773c-7.56713,-4.1801 -15.14023,-0.90905 -22.54157,-5.5621c1.22771,-9.82021 8.33792,-16.94716 14.4968,-24.69442c7.57663,-9.53064 3.86186,-21.88219 9.52645,-31.58397l-0.94099,-0.70575l2.11513,-2.82014c0.51798,-0.70649 1.35405,-1.1652 2.2972,-1.1652c1.35473,0 2.48844,0.94635 2.77613,2.21402l0.6409,2.56348c2.05632,4.12773 1.86364,-0.19606 5.51125,2.54763c5.71924,2.85965 17.96408,13.67162 21.81574,18.72189c1.19305,1.56433 3.04597,3.90651 4.40528,6.46287c1.54261,2.90107 7.30807,3.98199 9.55922,4.77789c7.50211,2.65241 18.10264,0.37751 26.82198,0.45193c17.35204,-4.33798 30.12503,3.53266 46.54854,7.88316c5.31348,1.40756 10.50472,-4.22315 16.14545,-4.33229c10.38612,-2.07721 20.2192,-15.33324 30.02329,-19.54437c0.37485,-0.96724 0.81176,-1.89212 1.32023,-2.76446c0.30505,-2.6782 1.1915,-4.35626 3.01827,-3.96063c0.52732,-0.62012 1.10923,-1.28134 1.73675,-1.92133c0.32196,-0.7407 0.94971,-1.31778 1.72394,-1.57176c1.01091,-0.80418 2.10107,-1.45163 3.24366,-1.75434c0.33539,-0.51297 0.6885,-1.01922 1.06038,-1.51824c0,0 1.708,-2.27733 3.98534,-0.56933c2.27733,1.708 0.56933,3.98534 0.56933,3.98534c-0.02175,0.02881 -0.0435,0.05767 -0.06513,0.0866c2.29049,3.39886 3.51197,5.10341 2.17467,11.50095l2.49638,4.14947c-0.04048,1.0318 1.03646,6.58919 0.18178,7.05467c-0.24407,1.35029 -3.06502,5.17601 -3.06502,6.05699c0,21.62955 -4.98167,41.86103 -4.98167,63.29336c0,10.95398 4.46599,22.86783 2.32883,32.76906c-2.64,12.23088 -7.75216,17.38694 -7.75216,30.6593c0,17.04112 -13.77343,5.24891 -14.93533,-5.45854c-0.72317,-6.66468 -0.05449,-12.85777 1.08196,-18.9144z" data-paper-data="{&quot;index&quot;:null}" fill="url(#color-2)" fill-rule="nonzero" stroke="none" stroke-width="0.5" stroke-linecap="butt" stroke-linejoin="miter"/><g fill-rule="nonzero" stroke-linecap="butt" stroke-linejoin="miter" font-family="Serif" font-weight="normal" font-size="40" text-anchor="start"><text transform="translate(140.79845,262.55028) scale(2.48004,2.48004)" font-size="40" xml:space="preserve" fill="#5300c0" fill-rule="nonzero" stroke="#3b83f1" stroke-width="3" stroke-linecap="butt" stroke-linejoin="miter" stroke-miterlimit="10" stroke-dasharray="" stroke-dashoffset="0" font-family="Serif" font-weight="normal" text-anchor="start" style="mix-blend-mode: normal"><tspan x="0" dy="0">青鬼</tspan></text><text transform="translate(140.7985,262.55026) scale(2.48004,2.48004)" font-size="40" xml:space="preserve" fill="url(#color-3)" fill-rule="nonzero" stroke="none" stroke-width="1" stroke-linecap="butt" stroke-linejoin="miter" stroke-miterlimit="10" stroke-dasharray="" stroke-dashoffset="0" font-family="Serif" font-weight="normal" text-anchor="start" style="mix-blend-mode: normal"><tspan x="0" dy="0">青鬼</tspan></text></g><text transform="translate(136.25005,315.56601) scale(0.5,0.5)" font-size="40" xml:space="preserve" fill="#bdedff" fill-rule="nonzero" stroke="#1bc2ff" stroke-width="3" stroke-linecap="butt" stroke-linejoin="miter" stroke-miterlimit="10" stroke-dasharray="" stroke-dashoffset="0" font-family="Pixel" font-weight="normal" text-anchor="start" style="mix-blend-mode: normal"><tspan x="0" dy="0">O　F　F　L　I　N　E</tspan></text><text transform="translate(46.14134,106.59145) rotate(-9.30979) scale(0.69783,0.69783)" font-size="40" xml:space="preserve" fill="#ff0000" fill-rule="nonzero" stroke="#bf0000" stroke-width="2" stroke-linecap="butt" stroke-linejoin="miter" stroke-miterlimit="10" stroke-dasharray="" stroke-dashoffset="0" font-family="Sans Serif" font-weight="normal" text-anchor="start" style="mix-blend-mode: normal"><tspan x="0" dy="0">ゾンビウィルス感染中!</tspan></text></g></g></svg>