<svg version="1.1" xmlns="http://www.w3.org/2000/svg" xmlns:xlink="http://www.w3.org/1999/xlink" width="130" height="61.12426" viewBox="0,0,130,61.12426"><defs><radialGradient cx="188.82639" cy="193.58507" r="60" gradientUnits="userSpaceOnUse" id="color-1"><stop offset="0" stop-color="#ffffff"/><stop offset="1" stop-color="#00f4b5"/></radialGradient><radialGradient cx="214.07639" cy="183.83507" r="33.66981" gradientUnits="userSpaceOnUse" id="color-2"><stop offset="0" stop-color="#ffffff"/><stop offset="1" stop-color="#00f4b5"/></radialGradient></defs><g transform="translate(-175,-149.43789)"><g data-paper-data="{&quot;isPaintingLayer&quot;:true}" fill-rule="nonzero" stroke-linecap="butt" stroke-linejoin="miter" stroke-miterlimit="10" stroke-dasharray="" stroke-dashoffset="0" style="mix-blend-mode: normal"><path d="M240,154.43789c33.13708,0 60,11.44456 60,25.56213c0,14.11757 -26.86292,25.56213 -60,25.56213c-33.13708,0 -60,-11.44456 -60,-25.56213c0,-14.11757 26.86292,-25.56213 60,-25.56213z" data-paper-data="{&quot;index&quot;:null}" fill="none" stroke="url(#color-1)" stroke-width="10"/><path d="M240,165.88759c18.59532,0 33.66981,6.31835 33.66981,14.11243c0,7.79408 -15.07449,14.11243 -33.66981,14.11243c-18.59532,0 -33.66981,-6.31835 -33.66981,-14.11243c0,-7.79408 15.07449,-14.11243 33.66981,-14.11243z" data-paper-data="{&quot;index&quot;:null}" fill="url(#color-2)" stroke="#ffffff" stroke-width="0"/></g></g></svg>