<svg version="1.1" xmlns="http://www.w3.org/2000/svg" xmlns:xlink="http://www.w3.org/1999/xlink" width="135.74743" height="192.66607" viewBox="0,0,135.74743,192.66607"><g transform="translate(-274.6603,-130.9845)"><g data-paper-data="{&quot;isPaintingLayer&quot;:true}" fill-rule="nonzero" stroke="none" stroke-linecap="butt" stroke-linejoin="miter" stroke-miterlimit="10" stroke-dasharray="" stroke-dashoffset="0" style="mix-blend-mode: normal"><g><path d="M410.40323,281.96167v38.7111c0,1.6437 -1.334,2.9778 -2.9778,2.9778h-128.0444c-1.6438,0 -2.9778,-1.3341 -2.9778,-2.9778v-38.7111c0,-1.6438 1.334,-2.9778 2.9778,-2.9778h128.0444c1.6438,0 2.9778,1.334 2.9778,2.9778z" fill="#a45812" stroke-width="1.48889"/><path d="M410.40773,281.85147v14.1325c-2.2676,-0.0342 -4.2657,-1.1807 -5.5045,-2.9346c-1.2566,1.7778 -3.2889,2.9465 -5.5982,2.9465c-2.3092,0 -4.3446,-3.405 -5.6012,-5.1798c-1.2551,1.7777 -3.2889,2.9465 -5.5982,2.9465c-2.3093,0 -4.3416,-1.1717 -5.5967,-2.9465c-1.2581,1.7777 -3.2905,5.1798 -5.5997,5.1798c-2.3093,0 -4.3416,-1.1717 -5.5983,-2.9465c-1.2536,1.7718 -3.274,3.3649 -5.5714,3.3739v0.0431c-2.2691,-0.0327 -4.2686,-1.1807 -5.5059,-2.9346c-1.2581,1.7793 -3.2904,2.9465 -5.5997,2.9465c-2.3093,0 -4.3416,-3.4036 -5.5982,-5.1798c-1.2567,1.7792 -3.289,2.9465 -5.5997,2.9465c-2.3093,0 -4.3416,-1.1703 -5.5968,-2.9465c-1.2566,1.7792 -3.2904,5.1798 -5.6012,5.1798c-2.3092,0 -4.3416,-1.1702 -5.5982,-2.9465c-1.2522,1.7718 -3.2711,2.9317 -5.5684,2.9406v-0.003c-2.2974,-0.0089 -4.3178,-1.6482 -5.5715,-3.42c-1.2566,1.7763 -3.2889,2.9465 -5.5982,2.9465c-2.3093,0 -4.3416,-3.4021 -5.5982,-5.1798c-1.2566,1.7762 -3.289,2.9465 -5.5982,2.9465c-2.3093,0 -4.3431,-1.1688 -5.5983,-2.9465c-1.2566,1.7762 -3.2919,5.1798 -5.6012,5.1798c-2.3092,0 -4.3416,-1.1687 -5.5982,-2.9465c-1.2387,1.7539 -3.2368,2.9034 -5.5044,2.9346v-14.131z" fill="#5aaa00" stroke-width="1.48889"/><path d="M410.40323,281.96167v8.439c-2.2676,-0.0328 -4.2657,-1.1807 -5.5029,-2.9346c-1.2567,1.7777 -3.289,2.9465 -5.5983,2.9465c-2.3092,0 -4.3445,-3.4051 -5.6012,-5.1798c-1.2551,1.7777 -3.2889,2.9465 -5.5982,2.9465c-2.3092,0 -4.3416,-1.1718 -5.5967,-2.9465c-1.2581,1.7777 -3.2905,5.1798 -5.5997,5.1798c-2.3093,0 -4.3416,-1.1717 -5.5982,-2.9465c-1.2537,1.7718 -3.2741,3.3679 -5.5715,3.3738v0.0432c-2.269,-0.0313 -4.2686,-1.1807 -5.5059,-2.9346c-1.2581,1.7792 -3.2904,2.9465 -5.5997,2.9465c-2.3093,0 -4.3416,-3.4021 -5.5967,-5.1798c-1.2566,1.7792 -3.289,2.9465 -5.5997,2.9465c-2.3093,0 -4.3431,-1.1688 -5.5968,-2.9465c-1.2566,1.7792 -3.2904,5.1798 -5.6012,5.1798c-2.3092,0 -4.3416,-1.1688 -5.5982,-2.9465c-1.2521,1.7718 -3.2711,2.9346 -5.5684,2.9406v-0.003c-2.2974,-0.006 -4.3163,-1.6482 -5.567,-3.42c-1.2566,1.7762 -3.2889,2.9465 -5.5982,2.9465c-2.3093,0 -4.3446,-3.4036 -5.6012,-5.1798c-1.2551,1.7762 -3.286,2.9465 -5.5967,2.9465c-2.3093,0 -4.3431,-1.1703 -5.5983,-2.9465c-1.2581,1.7762 -3.2904,5.1798 -5.5997,5.1798c-2.3092,0 -4.3416,-1.1703 -5.5982,-2.9465c-1.2388,1.7539 -3.2383,2.9018 -5.5074,2.9346v-8.439c0,-1.6438 1.334,-2.9778 2.9778,-2.9778h128.0444c1.6438,0 2.9778,1.334 2.9778,2.9778z" fill="#bff008" stroke-width="1.48889"/><path d="M338.49073,303.58457l-4.7382,4.7369l-4.7369,-4.7382l4.7382,-4.7369z" fill="#b16723" stroke-width="1.48887"/><path d="M359.29253,312.64937l-5.9049,5.9033l-5.9032,-5.9049l5.9049,-5.9033z" fill="#b16723" stroke-width="1.48887"/><path d="M383.68443,303.28817l-4.7376,4.7376l-4.7376,-4.7376l4.7376,-4.7376z" fill="#b16723" stroke-width="1.48887"/><path d="M404.42833,312.33887l-5.9049,5.9032l-5.9032,-5.9049l5.9049,-5.9032z" fill="#b16723" stroke-width="1.48887"/><path d="M292.73973,303.22487l-4.7403,4.739l-4.738,-4.7393l4.7404,-4.739z" fill="#b16723" stroke-width="1.48887"/><path d="M313.54283,312.03927l-5.9068,5.9035l-5.9024,-5.9058l5.9068,-5.9034z" fill="#b16723" stroke-width="1.48887"/></g><g><path d="M408.6603,133.9623v38.7111c0,1.6437 -1.334,2.9778 -2.9778,2.9778h-128.0444c-1.6438,0 -2.9778,-1.3341 -2.9778,-2.9778v-38.7111c0,-1.6438 1.334,-2.9778 2.9778,-2.9778h128.0444c1.6438,0 2.9778,1.334 2.9778,2.9778z" fill="#a45812" stroke-width="1.48889"/><path d="M408.6648,133.8521v14.1325c-2.2676,-0.0342 -4.2657,-1.1807 -5.5045,-2.9346c-1.2566,1.7778 -3.2889,2.9465 -5.5982,2.9465c-2.3092,0 -4.3446,-3.405 -5.6012,-5.1798c-1.2551,1.7777 -3.2889,2.9465 -5.5982,2.9465c-2.3093,0 -4.3416,-1.1717 -5.5967,-2.9465c-1.2581,1.7777 -3.2905,5.1798 -5.5997,5.1798c-2.3093,0 -4.3416,-1.1717 -5.5983,-2.9465c-1.2536,1.7718 -3.274,3.3649 -5.5714,3.3739v0.0431c-2.2691,-0.0327 -4.2686,-1.1807 -5.5059,-2.9346c-1.2581,1.7793 -3.2904,2.9465 -5.5997,2.9465c-2.3093,0 -4.3416,-3.4036 -5.5982,-5.1798c-1.2567,1.7792 -3.289,2.9465 -5.5997,2.9465c-2.3093,0 -4.3416,-1.1703 -5.5968,-2.9465c-1.2566,1.7792 -3.2904,5.1798 -5.6012,5.1798c-2.3092,0 -4.3416,-1.1702 -5.5982,-2.9465c-1.2522,1.7718 -3.2711,2.9317 -5.5684,2.9406v-0.003c-2.2974,-0.0089 -4.3178,-1.6482 -5.5715,-3.42c-1.2566,1.7763 -3.2889,2.9465 -5.5982,2.9465c-2.3093,0 -4.3416,-3.4021 -5.5982,-5.1798c-1.2566,1.7762 -3.289,2.9465 -5.5982,2.9465c-2.3093,0 -4.3431,-1.1688 -5.5983,-2.9465c-1.2566,1.7762 -3.2919,5.1798 -5.6012,5.1798c-2.3092,0 -4.3416,-1.1687 -5.5982,-2.9465c-1.2387,1.7539 -3.2368,2.9034 -5.5044,2.9346v-14.131z" fill="#5aaa00" stroke-width="1.48889"/><path d="M408.6603,133.9623v8.439c-2.2676,-0.0328 -4.2657,-1.1807 -5.5029,-2.9346c-1.2567,1.7777 -3.289,2.9465 -5.5983,2.9465c-2.3092,0 -4.3445,-3.4051 -5.6012,-5.1798c-1.2551,1.7777 -3.2889,2.9465 -5.5982,2.9465c-2.3092,0 -4.3416,-1.1718 -5.5967,-2.9465c-1.2581,1.7777 -3.2905,5.1798 -5.5997,5.1798c-2.3093,0 -4.3416,-1.1717 -5.5982,-2.9465c-1.2537,1.7718 -3.2741,3.3679 -5.5715,3.3738v0.0432c-2.269,-0.0313 -4.2686,-1.1807 -5.5059,-2.9346c-1.2581,1.7792 -3.2904,2.9465 -5.5997,2.9465c-2.3093,0 -4.3416,-3.4021 -5.5967,-5.1798c-1.2566,1.7792 -3.289,2.9465 -5.5997,2.9465c-2.3093,0 -4.3431,-1.1688 -5.5968,-2.9465c-1.2566,1.7792 -3.2904,5.1798 -5.6012,5.1798c-2.3092,0 -4.3416,-1.1688 -5.5982,-2.9465c-1.2521,1.7718 -3.2711,2.9346 -5.5684,2.9406v-0.003c-2.2974,-0.006 -4.3163,-1.6482 -5.567,-3.42c-1.2566,1.7762 -3.2889,2.9465 -5.5982,2.9465c-2.3093,0 -4.3446,-3.4036 -5.6012,-5.1798c-1.2551,1.7762 -3.286,2.9465 -5.5967,2.9465c-2.3093,0 -4.3431,-1.1703 -5.5983,-2.9465c-1.2581,1.7762 -3.2904,5.1798 -5.5997,5.1798c-2.3092,0 -4.3416,-1.1703 -5.5982,-2.9465c-1.2388,1.7539 -3.2383,2.9018 -5.5074,2.9346v-8.439c0,-1.6438 1.334,-2.9778 2.9778,-2.9778h128.0444c1.6438,0 2.9778,1.334 2.9778,2.9778z" fill="#bff008" stroke-width="1.48889"/><path d="M336.7478,155.5852l-4.7382,4.7369l-4.7369,-4.7382l4.7382,-4.7369z" fill="#b16723" stroke-width="1.48887"/><path d="M357.5496,164.65l-5.9049,5.9033l-5.9032,-5.9049l5.9049,-5.9033z" fill="#b16723" stroke-width="1.48887"/><path d="M381.9415,155.2388l-4.7376,4.7376l-4.7376,-4.7376l4.7376,-4.7376z" fill="#b16723" stroke-width="1.48887"/><path d="M402.6854,164.2895l-5.9049,5.9032l-5.9032,-5.9049l5.9049,-5.9032z" fill="#b16723" stroke-width="1.48887"/><path d="M290.9968,155.2255l-4.7403,4.739l-4.738,-4.7393l4.7404,-4.739z" fill="#b16723" stroke-width="1.48887"/><path d="M311.7999,164.0399l-5.9068,5.9035l-5.9024,-5.9058l5.9068,-5.9034z" fill="#b16723" stroke-width="1.48887"/></g></g></g></svg>