<svg xmlns="http://www.w3.org/2000/svg" xmlns:xlink="http://www.w3.org/1999/xlink" xmlns:a="http://ns.adobe.com/AdobeSVGViewerExtensions/3.0/" width="269.51708984375" height="67.20272827148438" viewBox="-0.5004724847967736 -0.5001732437376631 269.51708984375 67.20272827148438" xml:space="preserve">
	<defs>
	</defs>
	<g>
		<path d="M81.315,34.979l6.958-1.186c2.257-0.236,3.614-1.326,4.36-2.245c1.111-1.37,1.546-3.149,1.224-5.011L90.253,8.333    c-0.384-1.84-1.398-3.317-2.867-4.213c-1.083-0.661-2.904-1.303-5.429-0.606l-0.221,0.061L50.021,15.526    c-0.755-1.63-2.22-2.873-4.182-3.363l-0.105-0.026L31.661,9.257c-0.293-2.116-1.69-3.93-3.911-4.793l-0.083-0.032L16.113,0.397    c-1.636-0.604-3.408-0.521-4.91,0.262c-1.495,0.778-2.571,2.169-3.03,3.916l-7.87,28.208l0.096-0.308    c-1.127,3.224,0.19,6.461,3.202,7.877l6.414,2.838c1.313,0.555,2.633,0.685,3.844,0.45c0.311,0.067,0.625,0.129,0.958,0.15    l-0.307-0.029l9.105,1.143c-1.823,5.288-3.317,9.624-3.317,9.624c-0.292,0.834-0.406,1.599-0.406,2.283    c0,1.111,0.3,2.013,0.625,2.659c0.714,1.422,1.977,2.479,3.558,2.975l11.448,3.489l0.061,0.018    c1.684,0.467,3.38,0.277,4.773-0.535c1.369-0.797,2.345-2.124,2.749-3.736l0.044-0.178l4.138-23.758    c1.294,1.486,3.244,2.29,5.44,2.09l0.194-0.018l5.291-0.901l-2.1,16.93l0.046-0.3c-0.47,2.525,0.347,4.254,1.116,5.263    c1.06,1.389,2.671,2.239,4.537,2.395l0.148,0.013l15.876,0.377l0.37-0.047c3.715-0.467,6.075-3.503,5.612-7.219L81.315,34.979z" stroke-width="1"/>
		<path d="M217.118,37.45l-0.068-0.069l-8.933-8.26c-0.41-0.381-0.823-0.67-1.23-0.905l0.014-0.047l-0.016,0.046    c-0.002-0.001-0.004-0.003-0.006-0.004c0.711-2.148,0.264-3.829-0.259-4.869c-0.748-1.492-2.097-2.595-3.796-3.105l-0.158-0.045    l-7.814-2.071c-0.258-0.437-0.534-0.787-0.768-1.033c-0.729-0.768-2.354-2.019-5.042-1.776l-7.038,0.802    c-0.067-0.604-0.227-1.195-0.479-1.756c-0.67-1.486-1.947-2.641-3.598-3.248l-0.19-0.07L140.522,0.666l0.184,0.056    c-2.562-0.822-4.432-0.177-5.549,0.51c-1.535,0.942-2.55,2.516-2.856,4.43l-0.019,0.115l-1.37,12.118    c-0.008-0.101-0.007-0.202-0.02-0.304c-0.212-1.684-1.144-3.198-2.621-4.267l-0.178-0.128c0,0-16.027-9.568-16.31-9.737    c-2.09-1.584-4.079-1.515-5.143-1.272c-1.188,0.271-3.353,1.177-4.49,4.21l-0.06,0.16L87.112,56.667l0.138-0.397    c-1.256,3.193-0.153,5.303,0.615,6.274c1.238,1.566,3.239,2.322,5.351,2.021l0.114-0.017l24.352-4.625    c1.402,2.392,4.015,3.498,6.694,2.796L131.814,61l0.124-0.036c1.99-0.569,3.427-2.026,4.033-3.862    c0.137,0.793,0.404,1.455,0.695,1.961c0.896,1.561,2.433,2.602,4.324,2.931l-0.171-0.033l14.207,2.988l0.066,0.012    c3.55,0.646,6.675-1.502,7.429-5.108l0.048-0.228l1.419-12.432l0.145,0.051c1.338,0.605,2.795,0.723,4.16,0.319    c1.122-0.33,2.688-1.156,3.772-3.216l0.146-0.277l4.194-11.156l1.753,8.532l-0.006-0.029c0.32,1.605,1.206,2.963,2.494,3.821    c1.289,0.858,2.882,1.154,4.486,0.832l5.048-0.961L190,45.139c0.211-0.032,0.406-0.097,0.607-0.149    c0.197,0.066,0.406,0.106,0.613,0.153l-4.622,8.833c-1.007,2.009-0.771,3.709-0.397,4.781c0.515,1.471,1.604,2.654,3.069,3.332    l-0.563-0.306l4.916,3.096l-0.631-0.471c2.318,2.031,5.648,1.861,7.919-0.403l0.108-0.108l16.185-18.261l-0.207,0.219    C219.427,43.424,219.48,39.811,217.118,37.45z M136.394,53.388l-0.022,0.062c-0.067,0.181-0.109,0.351-0.162,0.525l-2.079-17.524    l0.02,0.189c-0.152-1.896-1.006-3.529-2.403-4.601c-1.006-0.771-2.732-1.595-5.247-1.131l-0.168,0.03l-3.271,0.837    c3.6-5.295,6.599-9.706,6.599-9.706l-0.292,0.388c0.631-0.757,1.055-1.599,1.307-2.47l-0.723,6.391l-0.007,0.096    c-0.206,2.775,1.096,4.435,1.89,5.177c0.801,0.748,2.564,1.941,5.383,1.538c0,0,3.329-0.489,7.722-1.134L136.394,53.388z" stroke-width="1"/>
		<path d="M262.752,7.911c-2.308-1.982-4.85-3.041-7.556-3.146c-2.704-0.105-5.079,0.575-7.059,2.021    c-1.425,1.043-2.555,2.46-3.382,4.222l-25.319-2.609c-2.979-0.342-4.79,0.771-5.774,1.766c-1.281,1.295-1.88,3.132-1.643,5.041    l2.257,16.038l-0.022-0.184c0.272,2.646,1.572,4.1,2.614,4.854c1.415,1.024,3.191,1.37,5.003,0.975l-0.316,0.059    c0,0,7.132-1.083,14.07-2.136c-4.479,6.79-9.509,14.412-9.509,14.412l-0.134,0.268c-0.57,1.14-0.762,2.178-0.762,3.059    c0,1.008,0.251,1.81,0.473,2.323c0.625,1.445,1.793,2.544,3.316,3.146l11.734,5.778l0.12,0.052    c3.347,1.435,6.88,0.039,8.404-3.318l0.076-0.168l10.407-28.299c0.227-0.052,0.453-0.106,0.681-0.173    c2.257-0.655,4.101-1.863,5.482-3.59c1.295-1.617,2.128-3.703,2.476-6.197c0.341-2.445-0.002-5.011-1.021-7.63    C266.365,11.887,264.811,9.679,262.752,7.911z M257.837,18.328c-0.101,0.354-0.401,0.854-0.916,1.285    c-1.156-1.505-1.187-2.612-1.197-3.077l-0.005-0.232c0.363-0.021,0.734,0.018,1.088,0.128c0.101,0.032,0.186,0.066,0.26,0.1    c0.256,0.307,0.48,0.639,0.637,1.028c0.077,0.193,0.132,0.382,0.176,0.568C257.867,18.194,257.859,18.253,257.837,18.328z" stroke-width="1"/>
		<linearGradient id="XMLID_1_" gradientUnits="userSpaceOnUse" x1="25.2964" y1="15.0493" x2="25.2964" y2="60.0405">
			<stop offset="0.0112" style="stop-color:#FFFFFF"/>
			<stop offset="1" style="stop-color:#FF1A00"/>
			<a:midPointStop offset="0.0112" style="stop-color:#FFFFFF"/>
			<a:midPointStop offset="0.5" style="stop-color:#FFFFFF"/>
			<a:midPointStop offset="1" style="stop-color:#FF1A00"/>
		</linearGradient>
		<path style="fill:url(#XMLID_1_);" d="M44.627,17.013L25.47,13.094l1.133-2.393c0.283-0.769,0.061-1.295-0.667-1.578L14.465,5.118    c-0.769-0.283-1.254-0.04-1.456,0.729l-7.89,28.28c-0.283,0.81-0.081,1.376,0.607,1.699l6.312,2.792    c0.768,0.324,1.313,0.122,1.638-0.606l0.519-1.096l-0.032,0.549c0,0.85,0.323,1.295,0.971,1.336l14.019,1.76    c0.729,0.081,1.133-0.202,1.214-0.85l0.729-6.372c0.04-0.566-0.223-0.911-0.789-1.032l-12.649-2.702l1.617-3.416l16.191-0.314    L25.025,56.157c-0.283,0.809-0.102,1.314,0.546,1.518l11.349,3.459c0.729,0.202,1.173-0.021,1.335-0.668l7.282-41.814    C45.739,17.761,45.436,17.215,44.627,17.013z" stroke-width="1"/>
		<linearGradient id="XMLID_2_" gradientUnits="userSpaceOnUse" x1="68.6445" y1="15.0493" x2="68.6445" y2="60.0405">
			<stop offset="0.0112" style="stop-color:#FFFFFF"/>
			<stop offset="1" style="stop-color:#FF1A00"/>
			<a:midPointStop offset="0.0112" style="stop-color:#FFFFFF"/>
			<a:midPointStop offset="0.5" style="stop-color:#FFFFFF"/>
			<a:midPointStop offset="1" style="stop-color:#FF1A00"/>
		</linearGradient>
		<path style="fill:url(#XMLID_2_);" d="M85.349,9.305c-0.203-0.971-0.891-1.294-2.063-0.971l-33.5,12.623    c-1.174,0.324-1.639,0.991-1.396,2.003l2.306,10.681c0.162,0.891,0.688,1.295,1.578,1.214l11.728-1.998L61.074,56.46    c-0.203,1.092,0.182,1.679,1.153,1.76l15.354,0.364c0.971-0.122,1.396-0.668,1.274-1.639L76.003,32.61    c-0.122-0.809-0.567-1.233-1.335-1.274l-1.322-0.071l14.188-2.417c1.092-0.04,1.558-0.525,1.396-1.457L85.349,9.305z" stroke-width="1"/>
		<linearGradient id="XMLID_3_" gradientUnits="userSpaceOnUse" x1="111.4888" y1="15.0493" x2="111.4888" y2="60.0405">
			<stop offset="0.0112" style="stop-color:#FFFFFF"/>
			<stop offset="1" style="stop-color:#FF1A00"/>
			<a:midPointStop offset="0.0112" style="stop-color:#FFFFFF"/>
			<a:midPointStop offset="0.5" style="stop-color:#FFFFFF"/>
			<a:midPointStop offset="1" style="stop-color:#FF1A00"/>
		</linearGradient>
		<path style="fill:url(#XMLID_3_);" d="M129.166,37.04c-0.081-1.011-0.668-1.415-1.76-1.214l-12.805,3.277    c-0.891,0.243-1.174,0.789-0.85,1.639l2.83,5.724l-9.87,0.467l18.813-27.674c0.606-0.729,0.546-1.355-0.183-1.882l-16.265-9.71    c-1.012-0.971-1.76-0.809-2.245,0.485l-14.93,49.947c-0.445,1.133-0.242,1.638,0.607,1.517l27.948-5.309l1.425,2.881    c0.283,0.647,0.728,0.87,1.335,0.668l7.344-1.699c0.566-0.162,0.809-0.567,0.728-1.214L129.166,37.04z" stroke-width="1"/>
		<linearGradient id="XMLID_4_" gradientUnits="userSpaceOnUse" x1="155.9829" y1="15.0493" x2="155.9829" y2="60.0405">
			<stop offset="0.0112" style="stop-color:#FFFFFF"/>
			<stop offset="1" style="stop-color:#FF1A00"/>
			<a:midPointStop offset="0.0112" style="stop-color:#FFFFFF"/>
			<a:midPointStop offset="0.5" style="stop-color:#FFFFFF"/>
			<a:midPointStop offset="1" style="stop-color:#FF1A00"/>
		</linearGradient>
		<path style="fill:url(#XMLID_4_);" d="M176.199,15.799l-37.02-10.317c-1.133-0.363-1.78-0.04-1.942,0.971l-2.306,20.392    c-0.081,1.093,0.445,1.558,1.578,1.396l27.674-4.065l-3.599,7.044c-0.164-0.333-0.488-0.527-1.014-0.551l-7.344-0.061    c-1.012,0.041-1.639,0.506-1.881,1.396l-9.286,23.184c-0.404,1.092-0.142,1.719,0.789,1.881l14.141,2.974    c0.89,0.162,1.436-0.243,1.639-1.214l2.108-18.466l6.327,2.263c0.646,0.364,1.173,0.162,1.578-0.607l9.285-24.7    C177.21,16.588,176.967,16.083,176.199,15.799z" stroke-width="1"/>
		<linearGradient id="XMLID_5_" gradientUnits="userSpaceOnUse" x1="185.02" y1="15.0493" x2="185.02" y2="60.0405">
			<stop offset="0.0112" style="stop-color:#FFFFFF"/>
			<stop offset="1" style="stop-color:#FF1A00"/>
			<a:midPointStop offset="0.0112" style="stop-color:#FFFFFF"/>
			<a:midPointStop offset="0.5" style="stop-color:#FFFFFF"/>
			<a:midPointStop offset="1" style="stop-color:#FF1A00"/>
		</linearGradient>
		<path style="fill:url(#XMLID_5_);" d="M189.49,20.29l-9.043,1.032c-0.85,0.081-1.193,0.546-1.031,1.396l3.642,17.721    c0.121,0.607,0.484,0.851,1.092,0.729l5.098-0.971c0.525-0.08,0.789-0.444,0.789-1.093l0.607-17.66    C190.764,20.593,190.379,20.209,189.49,20.29z" stroke-width="1"/>
		<linearGradient id="XMLID_6_" gradientUnits="userSpaceOnUse" x1="196.8716" y1="15.0493" x2="196.8716" y2="60.0405">
			<stop offset="0.0112" style="stop-color:#FFFFFF"/>
			<stop offset="1" style="stop-color:#FF1A00"/>
			<a:midPointStop offset="0.0112" style="stop-color:#FFFFFF"/>
			<a:midPointStop offset="0.5" style="stop-color:#FFFFFF"/>
			<a:midPointStop offset="1" style="stop-color:#FF1A00"/>
		</linearGradient>
		<path style="fill:url(#XMLID_6_);" d="M197.076,40.377c0.566,0.082,0.95-0.182,1.153-0.789l3.884-12.865    c0.323-0.89,0.08-1.456-0.729-1.699l-8.011-2.124c-0.971-0.202-1.437,0.061-1.396,0.788l-0.485,15.415    c0,0.729,0.323,1.134,0.971,1.214L197.076,40.377z" stroke-width="1"/>
		<linearGradient id="XMLID_7_" gradientUnits="userSpaceOnUse" x1="202.3696" y1="15.0493" x2="202.3696" y2="60.0405">
			<stop offset="0.0112" style="stop-color:#FFFFFF"/>
			<stop offset="1" style="stop-color:#FF1A00"/>
			<a:midPointStop offset="0.0112" style="stop-color:#FFFFFF"/>
			<a:midPointStop offset="0.5" style="stop-color:#FFFFFF"/>
			<a:midPointStop offset="1" style="stop-color:#FF1A00"/>
		</linearGradient>
		<path style="fill:url(#XMLID_7_);" d="M204.722,32.792c-0.566-0.525-1.032-0.525-1.396,0l-12.259,23.426    c-0.324,0.646-0.223,1.092,0.303,1.335l4.916,3.096c0.323,0.283,0.688,0.222,1.093-0.183l16.082-18.146    c0.485-0.485,0.525-0.931,0.121-1.335L204.722,32.792z" stroke-width="1"/>
		<linearGradient id="XMLID_8_" gradientUnits="userSpaceOnUse" x1="240.2427" y1="15.0493" x2="240.2427" y2="60.041">
			<stop offset="0.0112" style="stop-color:#FFFFFF"/>
			<stop offset="1" style="stop-color:#FF1A00"/>
			<a:midPointStop offset="0.0112" style="stop-color:#FFFFFF"/>
			<a:midPointStop offset="0.5" style="stop-color:#FFFFFF"/>
			<a:midPointStop offset="1" style="stop-color:#FF1A00"/>
		</linearGradient>
		<path style="fill:url(#XMLID_8_);" d="M259.494,11.703c-1.437-1.234-2.934-1.882-4.491-1.942s-2.862,0.294-3.914,1.063    c-1.052,0.77-1.83,2.003-2.336,3.702c-0.175,0.586-0.268,1.218-0.291,1.891l-29.537-3.044c-1.416-0.162-2.063,0.243-1.942,1.214    l2.246,15.961c0.121,1.174,0.646,1.659,1.577,1.456l25.186-3.823l-15.536,23.547c-0.445,0.891-0.263,1.457,0.547,1.699    l11.834,5.826c0.85,0.364,1.477,0.102,1.881-0.789l11.474-31.201c0.913,0.165,1.861,0.113,2.849-0.174    c1.254-0.364,2.245-1.002,2.974-1.912s1.204-2.164,1.427-3.763c0.223-1.598-0.021-3.308-0.729-5.128S260.93,12.937,259.494,11.703    z M257.947,19.289c-0.081,0.547-0.243,0.972-0.485,1.274c-0.243,0.304-0.567,0.517-0.972,0.638s-0.799,0.121-1.184,0    s-0.769-0.344-1.153-0.668c-0.385-0.323-0.718-0.829-1.001-1.518c-0.242-0.809-0.283-1.497-0.121-2.063s0.425-0.98,0.789-1.243    c0.363-0.263,0.799-0.374,1.305-0.334c0.506,0.041,1.001,0.264,1.486,0.668s0.85,0.91,1.093,1.517    C257.946,18.167,258.027,18.743,257.947,19.289z" stroke-width="1"/>
	</g>
</svg>