<svg xmlns="http://www.w3.org/2000/svg" xmlns:xlink="http://www.w3.org/1999/xlink" xmlns:a="http://ns.adobe.com/AdobeSVGViewerExtensions/3.0/" width="303.4423522949219" height="69.3788070678711" viewBox="-0.49993126476329053 -0.49979370915389154 303.4423522949219 69.3788070678711" xml:space="preserve">
	<defs>
	</defs>
	<g>
		<path d="M301.088,25.174c-1.051-1.25-2.595-1.993-4.346-2.092l-0.16-0.009l-0.161,0.001l-29.215,0.235l1.313-4.173l-0.078,0.228    c0.599-1.625,0.556-3.328-0.122-4.796c-0.677-1.466-1.944-2.604-3.569-3.202l0.119,0.046l-5.603-2.229l-0.273-0.074    c-0.046-0.013-0.088-0.018-0.133-0.028c-0.724-0.706-1.611-1.261-2.652-1.573l-7.571-2.302l0.185,0.061    c-1.828-0.635-3.686-0.502-5.229,0.374c-1.041,0.591-1.858,1.484-2.405,2.582c-0.172-0.078-0.349-0.151-0.531-0.216l-8.65-3.245    l0.133,0.052c-2.22-0.905-3.989-0.521-5.082-0.039c-1.502,0.662-2.659,1.922-3.258,3.548l-0.032,0.086l-7.05,21.528l0.021-0.593    l-0.03,0.401c0.198-1.706-0.267-3.33-1.311-4.57c-1.051-1.25-2.595-1.993-4.346-2.092l-0.16-0.009l-0.161,0.001l-30.2,0.243    l-0.087-1.742c-0.164-3.39-2.675-5.857-6.247-6.133l-0.095-0.007l-1.728-0.067l-1.525-8.839l0.05,0.37    c-0.329-3.412-3.074-5.795-6.676-5.795h-0.241l-7.158,0.691l0.239-0.018c-3.496,0.169-6.033,2.882-6.033,6.451l0.003,0.16    l0.197,6.153l-13.029-0.508c-2.903-0.085-4.584,1.108-5.491,2.125c-0.42,0.47-0.751,0.998-1.002,1.563    c-0.447-1.04-1.188-1.965-2.183-2.685l-0.178-0.128c0,0-16.027-9.568-16.31-9.736c-2.09-1.585-4.079-1.516-5.143-1.273    c-1.188,0.271-3.353,1.177-4.49,4.21l-0.06,0.16l-8.07,26.999l0.209-5.928l-0.03,0.401c0.198-1.706-0.267-3.33-1.311-4.57    c-1.051-1.25-2.595-1.993-4.346-2.092l-0.16-0.009l-0.161,0.001l-28.325,0.228l1.272-4.044l-0.079,0.229    c1.249-3.383-0.301-6.748-3.686-7.998l0.114,0.044l-5.603-2.229L52.896,9.23c-0.046-0.013-0.088-0.018-0.134-0.028    c-0.725-0.707-1.614-1.262-2.657-1.574l-7.566-2.301l0.185,0.061c-1.829-0.635-3.686-0.502-5.229,0.374    c-1.544,0.877-2.612,2.406-3.005,4.306l-1.094,5.917l-2.412,0.092l1.115-3.25c0.81-2.432,0.289-4.244-0.288-5.345    c-0.793-1.514-2.197-2.629-3.952-3.141l-0.125-0.035L12.223,0.213l-0.097-0.021c-2.456-0.544-4.2,0.172-5.229,0.867    C5.477,2.018,4.53,3.541,4.23,5.348L4.216,5.435L0.077,37.323l0.013-0.09c-0.562,3.783,1.553,6.881,5.142,7.534l9.414,1.7    c1.861,0.374,3.663-0.059,5.083-1.133l-4.297,11.174l-0.042,0.13c-0.867,2.684-0.216,4.607,0.483,5.748    c0.941,1.535,2.501,2.548,4.394,2.852l-0.154-0.027l12.927,2.488c3.867,0.688,7.142-1.522,7.857-5.24l0.026-0.139l2.41-17.951    c1.64,0.064,2.849-0.482,3.515-0.904c1.557-0.985,2.545-2.619,2.782-4.601l0.752-7.008l1.317,0.367    c0.649,0.182,1.247,0.26,1.802,0.275l1.958,12.654l0.022,0.108c0.692,3.451,3.66,5.546,7.057,4.981l27.414-4.802l-0.277,0.041    c1.087-0.128,2.05-0.512,2.864-1.065l-4.175,13.967l0.138-0.397c-1.256,3.193-0.153,5.303,0.615,6.275    c1.238,1.565,3.239,2.321,5.351,2.021l0.114-0.017l24.352-4.625c1.402,2.392,4.015,3.498,6.694,2.796l7.438-1.721l0.124-0.036    c2.115-0.605,3.613-2.207,4.144-4.207l8.42,8.151l-0.319-0.339c1.161,1.354,2.745,2.099,4.459,2.096    c1.234-0.003,3.034-0.418,4.717-2.274c0.28,0.286,0.563,0.52,0.831,0.709c1.462,1.032,3.285,1.347,5.135,0.886l-0.412,0.084    l14.395-2.328l0.132-0.028c3.541-0.77,5.608-3.851,5.028-7.492l-1.699-9.849c1.331,1.683,3.452,2.541,5.774,2.155l27.413-4.802    l-0.277,0.041c0.259-0.03,0.5-0.096,0.746-0.153l-2.685,8.196c-0.788,2.361-0.291,4.167,0.266,5.262    c0.754,1.482,2.089,2.591,3.76,3.122l-0.245-0.085L226,66.8l-0.018-0.007c1.7,0.646,3.472,0.606,4.989-0.112    c1.513-0.718,2.661-2.057,3.231-3.769l0.086-0.256l4.26-19.625l4.254,19.396c0.427,1.793,1.472,3.239,2.942,4.073    c1.451,0.824,3.185,0.983,4.881,0.448l0.232-0.073l14.118-6.015l0.332-0.207c2.726-1.705,3.744-4.921,2.476-7.82l-1.203-2.774    c0.896,0.277,1.88,0.353,2.904,0.183l27.413-4.802l-0.277,0.041c3.207-0.378,5.446-2.845,5.446-5.998l-0.003,0.177l0.364-10.317    l-0.03,0.401C302.597,28.039,302.132,26.415,301.088,25.174z M135.839,42.015c0.784,0.391,1.647,0.604,2.55,0.635l-2.249,1.908    L135.839,42.015z M130.911,23.786l-0.292,0.388c0.284-0.341,0.522-0.701,0.73-1.07l0.752,10.082    c-1.027-0.533-2.468-0.908-4.351-0.561l-0.168,0.03l-3.271,0.837C127.912,28.197,130.911,23.786,130.911,23.786z M258.892,32.319    c0.553,0.071,1.063,0.076,1.533,0.029l0.844,5.455L258.892,32.319z" stroke-width="1"/>
		<linearGradient id="XMLID_1_" gradientUnits="userSpaceOnUse" x1="27.2837" y1="14.7651" x2="27.2837" y2="60.7651">
			<stop offset="0.0112" style="stop-color:#FFFFFF"/>
			<stop offset="1" style="stop-color:#FF1A00"/>
			<a:midPointStop offset="0.0112" style="stop-color:#FFFFFF"/>
			<a:midPointStop offset="0.5" style="stop-color:#FFFFFF"/>
			<a:midPointStop offset="1" style="stop-color:#FF1A00"/>
		</linearGradient>
		<path style="fill:url(#XMLID_1_);" d="M21.057,60.3l12.927,2.488c1.133,0.201,1.8-0.224,2.002-1.274l3.104-23.128l3.754,0.854    c1.092,0.365,1.699,0.041,1.82-0.971l1.399-13.043c0.138-0.151,0.249-0.341,0.3-0.611l3.096-10.561    c0.283-0.85,0.02-1.396-0.789-1.638l-7.586-2.307c-0.932-0.323-1.498,0-1.699,0.971l-1.801,9.745l-13.696,0.524l3.48-10.147    c0.363-1.092,0.061-1.78-0.91-2.063L11.043,5.074c-1.093-0.242-1.72,0.122-1.881,1.093l-4.127,31.8    c-0.162,1.093,0.201,1.72,1.092,1.882l9.407,1.699c0.809,0.162,1.396-0.161,1.76-0.971l2.274-6.632l9.101,2.07l-8.523,22.161    C19.742,59.43,20.045,60.138,21.057,60.3z" stroke-width="1"/>
		<linearGradient id="XMLID_2_" gradientUnits="userSpaceOnUse" x1="52.5278" y1="14.7651" x2="52.5278" y2="60.7651">
			<stop offset="0.0112" style="stop-color:#FFFFFF"/>
			<stop offset="1" style="stop-color:#FF1A00"/>
			<a:midPointStop offset="0.0112" style="stop-color:#FFFFFF"/>
			<a:midPointStop offset="0.5" style="stop-color:#FFFFFF"/>
			<a:midPointStop offset="1" style="stop-color:#FF1A00"/>
		</linearGradient>
		<path style="fill:url(#XMLID_2_);" d="M48.246,26.072l4.794,1.335c1.012,0.283,1.639-0.04,1.882-0.971l2.73-8.679    c0.283-0.768,0.04-1.294-0.729-1.578l-5.34-2.124c-0.891-0.242-1.437,0.062-1.639,0.911l-2.549,9.527    C47.113,25.384,47.396,25.911,48.246,26.072z" stroke-width="1"/>
		<linearGradient id="XMLID_3_" gradientUnits="userSpaceOnUse" x1="74.2998" y1="14.7651" x2="74.2998" y2="60.7651">
			<stop offset="0.0112" style="stop-color:#FFFFFF"/>
			<stop offset="1" style="stop-color:#FF1A00"/>
			<a:midPointStop offset="0.0112" style="stop-color:#FFFFFF"/>
			<a:midPointStop offset="0.5" style="stop-color:#FFFFFF"/>
			<a:midPointStop offset="1" style="stop-color:#FF1A00"/>
		</linearGradient>
		<path style="fill:url(#XMLID_3_);" d="M60.383,44.279c0.162,0.809,0.606,1.152,1.335,1.031l27.371-4.794    c0.688-0.081,1.031-0.425,1.031-1.032l0.364-10.317c0.08-0.688-0.243-1.051-0.971-1.092l-30.162,0.242    c-0.972,0.041-1.376,0.527-1.214,1.457L60.383,44.279z" stroke-width="1"/>
		<linearGradient id="XMLID_4_" gradientUnits="userSpaceOnUse" x1="112.7412" y1="14.7651" x2="112.7412" y2="60.7651">
			<stop offset="0.0112" style="stop-color:#FFFFFF"/>
			<stop offset="1" style="stop-color:#FF1A00"/>
			<a:midPointStop offset="0.0112" style="stop-color:#FFFFFF"/>
			<a:midPointStop offset="0.5" style="stop-color:#FFFFFF"/>
			<a:midPointStop offset="1" style="stop-color:#FF1A00"/>
		</linearGradient>
		<path style="fill:url(#XMLID_4_);" d="M132.541,56.659l-2.124-17.903c-0.081-1.011-0.668-1.415-1.76-1.214l-12.805,3.277    c-0.891,0.243-1.174,0.789-0.85,1.639l2.83,5.724l-9.87,0.467l18.813-27.674c0.606-0.729,0.546-1.355-0.183-1.882l-16.265-9.71    c-1.012-0.971-1.76-0.809-2.245,0.485l-14.93,49.947c-0.445,1.133-0.242,1.638,0.607,1.517l27.948-5.309l1.425,2.881    c0.283,0.647,0.728,0.87,1.335,0.668l7.344-1.699C132.38,57.71,132.622,57.305,132.541,56.659z" stroke-width="1"/>
		<linearGradient id="XMLID_5_" gradientUnits="userSpaceOnUse" x1="156.0146" y1="14.7651" x2="156.0146" y2="60.7651">
			<stop offset="0.0112" style="stop-color:#FFFFFF"/>
			<stop offset="1" style="stop-color:#FF1A00"/>
			<a:midPointStop offset="0.0112" style="stop-color:#FFFFFF"/>
			<a:midPointStop offset="0.5" style="stop-color:#FFFFFF"/>
			<a:midPointStop offset="1" style="stop-color:#FF1A00"/>
		</linearGradient>
		<path style="fill:url(#XMLID_5_);" d="M164.221,6.105l-6.919,0.668c-0.85,0.041-1.274,0.526-1.274,1.457l0.368,11.52    l-18.393-0.718c-1.376-0.04-1.982,0.506-1.82,1.639l1.153,15.476c0.121,1.214,0.707,1.699,1.76,1.457l17.78-2.862l0.072,2.277    l-0.921-0.751c-0.729-0.728-1.477-0.768-2.245-0.121l-16.021,13.595c-0.688,0.688-0.668,1.437,0.061,2.245l11.409,11.045    c0.485,0.566,1.072,0.444,1.76-0.364l6.46-9.978l0.276,8.643c0.121,1.254,0.668,1.76,1.639,1.518l14.262-2.307    c0.93-0.202,1.314-0.809,1.153-1.82l-4.511-26.138l4.268-0.687c0.89-0.202,1.335-0.708,1.335-1.518l-0.425-8.557    c-0.041-0.85-0.587-1.314-1.638-1.396l-5.676-0.222L165.92,7.38C165.838,6.531,165.271,6.105,164.221,6.105z" stroke-width="1"/>
		<linearGradient id="XMLID_6_" gradientUnits="userSpaceOnUse" x1="195.5537" y1="14.7651" x2="195.5537" y2="60.7651">
			<stop offset="0.0112" style="stop-color:#FFFFFF"/>
			<stop offset="1" style="stop-color:#FF1A00"/>
			<a:midPointStop offset="0.0112" style="stop-color:#FFFFFF"/>
			<a:midPointStop offset="0.5" style="stop-color:#FFFFFF"/>
			<a:midPointStop offset="1" style="stop-color:#FF1A00"/>
		</linearGradient>
		<path style="fill:url(#XMLID_6_);" d="M181.638,44.279c0.162,0.809,0.606,1.152,1.335,1.031l27.371-4.794    c0.688-0.081,1.031-0.425,1.031-1.032l0.364-10.317c0.08-0.688-0.243-1.051-0.971-1.092l-30.162,0.242    c-0.972,0.041-1.376,0.527-1.214,1.457L181.638,44.279z" stroke-width="1"/>
		<linearGradient id="XMLID_7_" gradientUnits="userSpaceOnUse" x1="249.4893" y1="14.7651" x2="249.4893" y2="60.7651">
			<stop offset="0.0112" style="stop-color:#FFFFFF"/>
			<stop offset="1" style="stop-color:#FF1A00"/>
			<a:midPointStop offset="0.0112" style="stop-color:#FFFFFF"/>
			<a:midPointStop offset="0.5" style="stop-color:#FFFFFF"/>
			<a:midPointStop offset="1" style="stop-color:#FF1A00"/>
		</linearGradient>
		<path style="fill:url(#XMLID_7_);" d="M244.269,23.705l6.433,1.578c1.012,0.324,1.598,0.061,1.76-0.789l3.096-10.56    c0.283-0.85,0.02-1.396-0.789-1.639l-7.586-2.306c-0.932-0.323-1.498,0-1.699,0.971l-2.063,11.167    C243.136,23.018,243.419,23.543,244.269,23.705z" stroke-width="1"/>
		<linearGradient id="XMLID_8_" gradientUnits="userSpaceOnUse" x1="258.625" y1="14.7651" x2="258.625" y2="60.7651">
			<stop offset="0.0112" style="stop-color:#FFFFFF"/>
			<stop offset="1" style="stop-color:#FF1A00"/>
			<a:midPointStop offset="0.0112" style="stop-color:#FFFFFF"/>
			<a:midPointStop offset="0.5" style="stop-color:#FFFFFF"/>
			<a:midPointStop offset="1" style="stop-color:#FF1A00"/>
		</linearGradient>
		<path style="fill:url(#XMLID_8_);" d="M254.343,25.951l4.794,1.335c1.012,0.283,1.639-0.04,1.882-0.971l2.73-8.679    c0.283-0.769,0.04-1.295-0.729-1.578l-5.34-2.124c-0.891-0.242-1.437,0.061-1.639,0.91l-2.549,9.528    C253.21,25.263,253.493,25.789,254.343,25.951z" stroke-width="1"/>
		<linearGradient id="XMLID_9_" gradientUnits="userSpaceOnUse" x1="251.958" y1="14.7651" x2="251.958" y2="60.7651">
			<stop offset="0.0112" style="stop-color:#FFFFFF"/>
			<stop offset="1" style="stop-color:#FF1A00"/>
			<a:midPointStop offset="0.0112" style="stop-color:#FFFFFF"/>
			<a:midPointStop offset="0.5" style="stop-color:#FFFFFF"/>
			<a:midPointStop offset="1" style="stop-color:#FF1A00"/>
		</linearGradient>
		<path style="fill:url(#XMLID_9_);" d="M247.667,61.271c0.202,0.85,0.688,1.152,1.456,0.91l13.534-5.766    c0.646-0.404,0.829-0.93,0.546-1.577l-12.259-28.281c-0.203-0.646-0.729-0.89-1.578-0.728l-7.829,1.699    c-0.77,0.202-1.072,0.748-0.91,1.638L247.667,61.271z" stroke-width="1"/>
		<linearGradient id="XMLID_10_" gradientUnits="userSpaceOnUse" x1="226.667" y1="14.7651" x2="226.667" y2="60.7651">
			<stop offset="0.0112" style="stop-color:#FFFFFF"/>
			<stop offset="1" style="stop-color:#FF1A00"/>
			<a:midPointStop offset="0.0112" style="stop-color:#FFFFFF"/>
			<a:midPointStop offset="0.5" style="stop-color:#FFFFFF"/>
			<a:midPointStop offset="1" style="stop-color:#FF1A00"/>
		</linearGradient>
		<path style="fill:url(#XMLID_10_);" d="M214.531,57.144l13.229,4.977c0.85,0.323,1.416,0.061,1.699-0.789l10.196-46.973    c0.242-0.85,0.02-1.396-0.668-1.639l-8.739-3.277c-0.891-0.363-1.477-0.161-1.76,0.607l-14.747,45.03    C213.378,56.172,213.641,56.861,214.531,57.144z" stroke-width="1"/>
		<linearGradient id="XMLID_11_" gradientUnits="userSpaceOnUse" x1="281.2471" y1="14.7651" x2="281.2471" y2="60.7651">
			<stop offset="0.0112" style="stop-color:#FFFFFF"/>
			<stop offset="1" style="stop-color:#FF1A00"/>
			<a:midPointStop offset="0.0112" style="stop-color:#FFFFFF"/>
			<a:midPointStop offset="0.5" style="stop-color:#FFFFFF"/>
			<a:midPointStop offset="1" style="stop-color:#FF1A00"/>
		</linearGradient>
		<path style="fill:url(#XMLID_11_);" d="M296.461,28.075l-30.162,0.242c-0.972,0.041-1.376,0.527-1.214,1.457l2.245,14.505    c0.162,0.809,0.606,1.152,1.335,1.031l27.371-4.794c0.688-0.081,1.031-0.425,1.031-1.032l0.364-10.317    C297.512,28.479,297.188,28.116,296.461,28.075z" stroke-width="1"/>
	</g>
</svg>