<svg version="1.1" xmlns="http://www.w3.org/2000/svg" xmlns:xlink="http://www.w3.org/1999/xlink" width="491.19956" height="370.35731" viewBox="0,0,491.19956,370.35731"><defs><linearGradient x1="240.0094" y1="27.8355" x2="240.0094" y2="136.17095" gradientTransform="translate(-6.34056,-48.33303) scale(0.44309,0.44309)" gradientUnits="userSpaceOnUse" id="color-1"><stop offset="0" stop-color="#ff0000"/><stop offset="1" stop-color="#ffcccc"/></linearGradient><linearGradient x1="240.0094" y1="27.8355" x2="240.0094" y2="136.17095" gradientTransform="translate(-6.34056,-48.33303) scale(0.44309,0.44309)" gradientUnits="userSpaceOnUse" id="color-2"><stop offset="0" stop-color="#ff0000"/><stop offset="1" stop-color="#ffcccc"/></linearGradient><linearGradient x1="284.73663" y1="168.85426" x2="284.73663" y2="246.00349" gradientTransform="translate(-140.65407,-236.62688) scale(1.19637,1.19637)" gradientUnits="userSpaceOnUse" id="color-3"><stop offset="0" stop-color="#408fff"/><stop offset="1" stop-color="#00ff61"/></linearGradient><linearGradient x1="284.73663" y1="168.85426" x2="284.73663" y2="246.00349" gradientTransform="translate(-140.65407,-236.62688) scale(1.19637,1.19637)" gradientUnits="userSpaceOnUse" id="color-4"><stop offset="0" stop-color="#408fff"/><stop offset="1" stop-color="#00ff63"/></linearGradient><linearGradient x1="63.36171" y1="150.20873" x2="63.36171" y2="262.32789" gradientUnits="userSpaceOnUse" id="color-5"><stop offset="0" stop-color="#ffe100"/><stop offset="1" stop-color="#fff8cc"/></linearGradient><linearGradient x1="63.44801" y1="168.79703" x2="63.44801" y2="223.67338" gradientUnits="userSpaceOnUse" id="color-6"><stop offset="0" stop-color="#2c00cc"/><stop offset="1" stop-color="#80b4ff"/></linearGradient></defs><g transform="translate(5.59978,5.17863)"><g data-paper-data="{&quot;isPaintingLayer&quot;:true}" fill-rule="nonzero" stroke-linecap="butt" stroke-linejoin="miter" stroke-miterlimit="10" stroke-dasharray="" stroke-dashoffset="0" style="mix-blend-mode: normal"><path d="M-5.59978,365.17868v-370.35731h491.19956v370.35731z" fill="#ffffff" stroke="none" stroke-width="0"/><text transform="translate(14.31,109.08283) scale(2.2569,2.2569)" font-size="40" xml:space="preserve" fill="url(#color-1)" fill-rule="nonzero" stroke="url(#color-2)" stroke-width="1" stroke-linecap="butt" stroke-linejoin="miter" stroke-miterlimit="10" stroke-dasharray="" stroke-dashoffset="0" font-family="Sans Serif" font-weight="normal" text-anchor="start" style="mix-blend-mode: normal"><tspan x="0" dy="0">ターボ禁止</tspan></text><text transform="translate(117.56711,197.78695) scale(0.83586,0.83586)" font-size="40" xml:space="preserve" fill="url(#color-3)" fill-rule="nonzero" stroke="url(#color-4)" stroke-width="2" stroke-linecap="butt" stroke-linejoin="miter" stroke-miterlimit="10" stroke-dasharray="" stroke-dashoffset="0" font-family="Sans Serif" font-weight="normal" text-anchor="start" style="mix-blend-mode: normal"><tspan x="0" dy="0">タボフィーがターボを</tspan><tspan x="0" dy="46.150000000000006px">　　検知しました</tspan></text><g stroke="none" stroke-width="0"><path d="M23.59085,223.44362c-0.09601,-2.89264 0,-61.49765 0,-69.82103c0,-2.62957 2.11257,-5.04693 5.41555,-5.04693c8.12584,0 54.44951,0 68.75218,0c2.62315,0 5.4576,1.40752 5.4576,5.43679c0,8.3543 0,55.48836 0,69.58923c0,2.951 -0.83221,4.71385 -2.93863,6.79954c-10.17269,10.07242 -24.39624,24.15574 -31.83359,31.51977c-3.50634,3.08575 -8.1771,1.75614 -9.99884,-0.0253c-12.56701,-12.40473 -19.6344,-19.38083 -32.20141,-31.78556c-3.46927,-3.90698 -2.55254,-3.64407 -2.65286,-6.66651z" fill="#000000"/><path d="M25.14703,222.79395c-0.0956,-2.79973 0,-60.12653 0,-68.19613c0,-2.5494 1.40555,-4.38907 3.95495,-4.38907c7.80788,0 55.06608,0 68.80912,0c2.52051,0 3.74564,1.86856 3.74564,4.38909c0,8.09958 0,54.67844 0,68.34937c0,2.86104 -0.79964,4.57013 -2.82366,6.59221c-9.77465,9.76531 -23.44166,23.41923 -30.58797,30.55871c-2.99452,2.99165 -6.60844,2.96253 -9.6076,-0.0245c-8.85962,-8.82382 -27.16509,-27.05532 -30.94143,-30.81642c-3.33353,-3.78786 -2.45345,-3.66352 -2.54905,-6.46325z" fill="url(#color-5)"/><g><path d="M35.92351,170.47947c0,-1.13876 0.92313,-2.06189 2.06189,-2.06189c0.01014,0 50.77287,0.00008 50.78297,0.00021c1.12475,0.01623 2.03154,0.93306 2.03154,2.06168c0,1.12856 -0.90669,2.04535 -2.03138,2.06166c-0.01014,0.00016 -50.77292,0.00021 -50.78311,0.00021c-1.13876,0 -2.06189,-0.92313 -2.06189,-2.06187z" fill="#2c00cc"/><path d="M63.44801,168.79703c1.13876,0 2.06189,0.92313 2.06189,2.06189c0,0.01014 -0.00008,71.47845 -0.00021,71.48855c-0.01623,1.12475 -0.93306,2.03154 -2.06168,2.03154c-1.12856,0 -2.04535,-0.90671 -2.06166,-2.03138c-0.38871,-27.89668 -0.00021,-43.58932 -0.00021,-71.48871c0,-1.13876 0.92313,-2.06189 2.06189,-2.06189z" fill="url(#color-6)"/></g></g><text transform="translate(70.55628,314.16232) scale(0.5,0.5)" font-size="40" xml:space="preserve" fill="#66ff8d" fill-rule="nonzero" stroke="none" stroke-width="1" stroke-linecap="butt" stroke-linejoin="miter" stroke-miterlimit="10" stroke-dasharray="" stroke-dashoffset="0" font-family="Sans Serif" font-weight="normal" text-anchor="start" style="mix-blend-mode: normal"><tspan x="0" dy="0">旗を押してもう一度プレイしてください</tspan></text><text transform="translate(69.79319,284.40146) scale(0.5,0.5)" font-size="40" xml:space="preserve" fill="#66ff8d" fill-rule="nonzero" stroke="none" stroke-width="1" stroke-linecap="butt" stroke-linejoin="miter" stroke-miterlimit="10" stroke-dasharray="" stroke-dashoffset="0" font-family="Sans Serif" font-weight="normal" text-anchor="start" style="mix-blend-mode: normal"><tspan x="0" dy="0">ターボを解除して</tspan></text></g></g></svg>