<svg xmlns="http://www.w3.org/2000/svg" xmlns:xlink="http://www.w3.org/1999/xlink" xmlns:a="http://ns.adobe.com/AdobeSVGViewerExtensions/3.0/" width="142.6365203857422" height="67.52716827392578" viewBox="-0.49966887838672847 -0.5 142.6365203857422 67.52716827392578" xml:space="preserve">
	<defs>
	</defs>
	<g>
		<path d="M0.075,12.668l6.512,46.858l0.024,0.128c0.519,2.7,2.138,3.978,3.056,4.499c1.552,0.881,3.4,1.004,5.203,0.348    l-0.296,0.098L45.764,55.4l0.115-0.04c2.659-0.928,4.305-3.103,4.481-5.705c0.972,0.123,2.164,0.036,3.527-0.541l-0.158,0.064    l1.193-0.458l-1.909,4.149l-0.073,0.201c-0.854,2.372-0.388,4.174,0.153,5.269c0.726,1.468,2.022,2.56,3.649,3.074l15.229,4.731    c1.621,0.57,3.287,0.506,4.74-0.205c0.928-0.453,2.582-1.596,3.249-4.146l0.055-0.21l3.859-22.669l-0.063,0.313    c0.133-0.562,0.175-1.11,0.178-1.649l5.59-2.143l0.216-0.107c2.105-1.051,3.4-2.947,3.679-5.228l1.912,0.533    c0.145,0.041,0.279,0.063,0.42,0.094l2.045,9.385l-0.054-0.287c0.519,3.295,3.228,5.479,6.588,5.309l0.297-0.016l4.071-0.695    l-1.755,14.284l0.069-0.414c-0.515,2.455,0.258,4.167,0.996,5.169c1.018,1.381,2.578,2.237,4.394,2.41l0.181,0.018l14.175,0.316    l0.394-0.054c2.266-0.312,3.578-1.484,4.279-2.414c0.983-1.304,1.39-2.974,1.144-4.702l0.017,0.134l-2.125-18.466l5.683-0.972    c2.295-0.278,3.603-1.495,4.191-2.243c1.077-1.37,1.472-3.125,1.11-4.94l-3.173-16.167l-0.023-0.097    c-0.406-1.709-1.42-3.115-2.853-3.958c-1.05-0.618-2.801-1.215-5.18-0.549l-0.212,0.06l-25.103,9.477l1.147-3.646l-0.079,0.23    c0.6-1.625,0.557-3.327-0.12-4.795s-1.944-2.606-3.57-3.205l0.119,0.045l-5.603-2.229l-0.273-0.074    c-0.046-0.012-0.087-0.017-0.133-0.028c-0.723-0.707-1.611-1.261-2.652-1.574l-7.571-2.302l0.185,0.06    c-0.291-0.101-0.583-0.176-0.874-0.238c-1.003-2.065-3.08-3.449-5.661-3.554L79.756,0l-0.12,0.001L55.604,0.183    c-2.719,0-4.348,1.174-5.229,2.16c-1.196,1.337-1.736,3.125-1.523,5.035l1.204,13.006c0,0.006,0.002,0.012,0.002,0.018    l-2.526,0.424c-2.316,0.403-3.599,1.638-4.272,2.604c-0.945,1.354-1.29,3.06-0.973,4.802l0.735,4.104    c-1.108-0.293-2.593-0.342-4.363,0.427c0,0-5.604,2.584-10.939,5.045c1.067-10.251,2.976-28.586,2.976-28.586    c0.033-0.296,0.048-0.58,0.048-0.851c0-2.363-1.153-3.814-1.894-4.499c-0.823-0.761-2.627-1.957-5.463-1.415l0.131-0.023    L5.737,5.346l0.125-0.019c-2.524,0.349-3.933,1.617-4.67,2.619c-1.002,1.363-1.391,3.087-1.095,4.857L0.075,12.668z" stroke-width="1"/>
		<polygon points="50.057,20.391 50.057,20.383 50.056,20.377 " stroke-width="1"/>
		<linearGradient id="XMLID_1_" gradientUnits="userSpaceOnUse" x1="25.189" y1="14.5396" x2="25.189" y2="49.5396">
			<stop offset="0.0112" style="stop-color:#FFFFFF"/>
			<stop offset="1" style="stop-color:#CCFF42"/>
			<a:midPointStop offset="0.0112" style="stop-color:#FFFFFF"/>
			<a:midPointStop offset="0.5" style="stop-color:#FFFFFF"/>
			<a:midPointStop offset="1" style="stop-color:#CCFF42"/>
		</linearGradient>
		<path style="fill:url(#XMLID_1_);" d="M11.522,58.709c0.202,1.053,0.748,1.416,1.639,1.092l31.072-9.162    c0.93-0.324,1.294-0.973,1.093-1.943l-2.913-10.803c-0.243-0.768-0.83-0.949-1.761-0.545l-18.813,8.678l3.885-37.323    c0.121-1.092-0.345-1.537-1.396-1.336L6.545,10.28c-1.174,0.162-1.68,0.729-1.518,1.699L11.522,58.709z" stroke-width="1"/>
		<linearGradient id="XMLID_2_" gradientUnits="userSpaceOnUse" x1="96.2158" y1="14.5396" x2="96.2158" y2="49.5396">
			<stop offset="0.0112" style="stop-color:#FFFFFF"/>
			<stop offset="1" style="stop-color:#CCFF42"/>
			<a:midPointStop offset="0.0112" style="stop-color:#FFFFFF"/>
			<a:midPointStop offset="0.5" style="stop-color:#FFFFFF"/>
			<a:midPointStop offset="1" style="stop-color:#CCFF42"/>
		</linearGradient>
		<path style="fill:url(#XMLID_2_);" d="M91.934,24.481l4.794,1.335c1.012,0.283,1.639-0.04,1.882-0.971l2.73-8.679    c0.283-0.768,0.04-1.294-0.729-1.577l-5.34-2.124c-0.891-0.242-1.438,0.061-1.639,0.91l-2.549,9.527    C90.801,23.794,91.084,24.32,91.934,24.481z" stroke-width="1"/>
		<linearGradient id="XMLID_3_" gradientUnits="userSpaceOnUse" x1="67.5894" y1="14.5396" x2="67.5894" y2="49.5396">
			<stop offset="0.0112" style="stop-color:#FFFFFF"/>
			<stop offset="1" style="stop-color:#CCFF42"/>
			<a:midPointStop offset="0.0112" style="stop-color:#FFFFFF"/>
			<a:midPointStop offset="0.5" style="stop-color:#FFFFFF"/>
			<a:midPointStop offset="1" style="stop-color:#CCFF42"/>
		</linearGradient>
		<path style="fill:url(#XMLID_3_);" d="M55.036,19.93c0.08,0.891,0.565,1.255,1.456,1.093l23.79-5.583    c0.728-0.202,1.092-0.668,1.092-1.396l-0.182-7.586c0-0.93-0.506-1.415-1.518-1.456L55.642,5.183c-1.336,0-1.942,0.547-1.82,1.639    L55.036,19.93z" stroke-width="1"/>
		<linearGradient id="XMLID_4_" gradientUnits="userSpaceOnUse" x1="70.2139" y1="14.5396" x2="70.2139" y2="49.5396">
			<stop offset="0.0112" style="stop-color:#FFFFFF"/>
			<stop offset="1" style="stop-color:#CCFF42"/>
			<a:midPointStop offset="0.0112" style="stop-color:#FFFFFF"/>
			<a:midPointStop offset="0.5" style="stop-color:#FFFFFF"/>
			<a:midPointStop offset="1" style="stop-color:#CCFF42"/>
		</linearGradient>
		<path style="fill:url(#XMLID_4_);" d="M50.12,43.598c0.161,1.053,0.768,1.355,1.82,0.91l12.658-4.852l-6.953,15.107    c-0.364,1.012-0.162,1.639,0.606,1.883l15.233,4.732c0.85,0.365,1.396,0.082,1.639-0.85l3.823-22.453    c0.201-0.85-0.041-1.416-0.729-1.699l-2.527-0.973l11.873-4.551c0.729-0.363,1.052-1.011,0.972-1.941l-0.476-5.155l0.232,0.057    c1.012,0.324,1.598,0.061,1.76-0.789l3.096-10.56c0.283-0.85,0.02-1.396-0.789-1.639l-7.586-2.307    c-0.932-0.323-1.498,0-1.699,0.971l-1.991,10.777L48.36,25.756c-0.932,0.162-1.315,0.688-1.153,1.578L50.12,43.598z" stroke-width="1"/>
		<linearGradient id="XMLID_5_" gradientUnits="userSpaceOnUse" x1="118.6279" y1="14.5396" x2="118.6279" y2="49.5396">
			<stop offset="0.0112" style="stop-color:#FFFFFF"/>
			<stop offset="1" style="stop-color:#CCFF42"/>
			<a:midPointStop offset="0.0112" style="stop-color:#FFFFFF"/>
			<a:midPointStop offset="0.5" style="stop-color:#FFFFFF"/>
			<a:midPointStop offset="1" style="stop-color:#CCFF42"/>
		</linearGradient>
		<path style="fill:url(#XMLID_5_);" d="M100.673,29.579l2.063,9.468c0.121,0.77,0.586,1.133,1.396,1.092l10.404-1.777    l-2.575,20.955c-0.203,0.971,0.121,1.496,0.971,1.578l13.595,0.303c0.89-0.121,1.273-0.607,1.152-1.457l-2.487-21.604    c-0.122-0.688-0.526-1.053-1.214-1.094l-1.32-0.069l12.729-2.175c0.971-0.041,1.375-0.465,1.214-1.275l-3.156-16.083    c-0.202-0.85-0.809-1.133-1.82-0.85l-29.737,11.228C100.875,28.103,100.47,28.689,100.673,29.579z" stroke-width="1"/>
	</g>
</svg>