<svg xmlns="http://www.w3.org/2000/svg" xmlns:xlink="http://www.w3.org/1999/xlink" xmlns:a="http://ns.adobe.com/AdobeSVGViewerExtensions/3.0/" width="172.5254364013672" height="67.20281219482422" viewBox="-0.5 -0.5002571880759206 172.5254364013672 67.20281219482422" xml:space="preserve">
	<defs>
	</defs>
	<g>
		<path d="M1.669,50.233L12.292,62.32l0.065,0.068c1.889,1.993,3.96,2.167,5.026,2.094c1.064-0.073,3.085-0.528,4.672-2.747    l0.085-0.12l5.032-7.993l3.956,6.902l-0.095-0.174c1.269,2.433,3.212,3.165,4.257,3.386c1.043,0.22,3.11,0.334,5.241-1.368    l11.853-9.907l0.257-0.294c1.144-1.307,1.705-2.929,1.58-4.567c-0.091-1.193-0.585-2.94-2.426-4.491l-11.904-9.689l9.822-15.603    l0.059-0.104c1.435-2.538,0.83-4.646,0.341-5.677c-0.497-1.048-1.783-2.885-4.813-3.409l-0.114-0.02L10.359,4.224    C7.786,3.855,6.063,4.785,5.085,5.633c-1.322,1.146-2.05,2.796-2.05,4.645L2.913,24.964c0,1.913,0.708,3.618,1.992,4.8    c1.276,1.174,3.009,1.734,4.88,1.578c0,0,2.438-0.164,3.583-0.241C7.783,36.159,2.191,41.224,2.191,41.224    C0.742,42.501,0,44.198,0,45.931c0,1.452,0.521,2.929,1.584,4.204L1.669,50.233z" stroke-width="1"/>
		<path d="M127.551,3.586c-0.8,0.983-1.68,2.682-1.333,5.19l-0.027-0.246l1.143,12.995c-0.355-0.08-0.721-0.137-1.099-0.158    l-0.161-0.009l-0.161,0.001L95.92,21.601l0.364-2.092l-0.05,0.25c0.804-3.538-1.12-6.732-4.573-7.596l-0.105-0.026L77.483,9.258    c-0.294-2.116-1.69-3.93-3.912-4.793l-0.082-0.032L61.936,0.397c-1.636-0.604-3.408-0.521-4.91,0.261    c-1.495,0.779-2.571,2.169-3.03,3.916l-7.87,28.209l0.096-0.308c-1.127,3.224,0.19,6.461,3.202,7.877l6.414,2.838    c1.313,0.555,2.633,0.685,3.844,0.45c0.311,0.067,0.625,0.129,0.958,0.15l-0.307-0.029l9.104,1.143    c-1.822,5.288-3.316,9.624-3.316,9.624c-0.292,0.834-0.406,1.599-0.406,2.283c0,1.111,0.3,2.013,0.625,2.659    c0.714,1.422,1.977,2.479,3.558,2.975l11.447,3.489l0.061,0.018c1.685,0.467,3.38,0.277,4.773-0.535    c1.369-0.797,2.345-2.124,2.749-3.736l0.044-0.178l3.053-17.529c0.844,3.192,3.698,5.094,6.952,4.554l27.413-4.802l-0.277,0.041    c1.177-0.139,2.22-0.563,3.073-1.195l1.437,16.33l-0.017-0.262c0.091,2.552,1.253,4.067,2.212,4.889    c1.328,1.138,3.089,1.641,4.957,1.417l7.253-0.914c0,0-0.155,0.001-0.226,0.002c1.287-0.058,2.51-0.482,3.5-1.31    c1.379-1.15,2.153-2.814,2.303-4.943l0.946-10.874l10.763,2.251l-0.559-0.151c2.762,0.922,4.729-0.022,5.656-0.666    c0.937-0.651,2.521-2.189,2.622-5.183l-0.026,0.368l1.457-13.474c0.354-2.834-0.904-4.623-1.687-5.43s-2.53-2.118-5.45-1.846    l-0.17,0.02l-10.626,1.361l1.446-16.606l0.005-0.125c0.003-0.102,0.005-0.202,0.005-0.302c0-3.622-2.423-6.328-5.981-6.625    l-0.322-0.027l-0.322,0.015l-16.017,0.735C129.829,1.396,128.349,2.604,127.551,3.586z" stroke-width="1"/>
		<linearGradient id="XMLID_1_" gradientUnits="userSpaceOnUse" x1="27.1182" y1="12.0498" x2="27.1182" y2="39.0498">
			<stop offset="0.0112" style="stop-color:#FFFFFF"/>
			<stop offset="1" style="stop-color:#FF9900"/>
			<a:midPointStop offset="0.0112" style="stop-color:#FFFFFF"/>
			<a:midPointStop offset="0.5" style="stop-color:#FFFFFF"/>
			<a:midPointStop offset="1" style="stop-color:#FF9900"/>
		</linearGradient>
		<path style="fill:url(#XMLID_1_);" d="M15.985,58.949c0.728,0.768,1.395,0.728,2.002-0.122l9.386-14.91l8.092,14.121    c0.485,0.931,1.133,1.072,1.942,0.425l11.47-9.588c0.566-0.647,0.465-1.295-0.304-1.942L33.301,34.502l12.118-19.249    c0.525-0.93,0.202-1.496-0.972-1.699L9.734,9.185c-1.133-0.162-1.699,0.202-1.699,1.093L7.913,24.964    c0,1.012,0.485,1.477,1.457,1.396l18.024-1.214L5.547,44.93c-0.688,0.607-0.729,1.274-0.122,2.003L15.985,58.949z" stroke-width="1"/>
		<linearGradient id="XMLID_2_" gradientUnits="userSpaceOnUse" x1="71.1182" y1="12.0498" x2="71.1182" y2="39.0498">
			<stop offset="0.0112" style="stop-color:#FFFFFF"/>
			<stop offset="1" style="stop-color:#FF9900"/>
			<a:midPointStop offset="0.0112" style="stop-color:#FFFFFF"/>
			<a:midPointStop offset="0.5" style="stop-color:#FFFFFF"/>
			<a:midPointStop offset="1" style="stop-color:#FF9900"/>
		</linearGradient>
		<path style="fill:url(#XMLID_2_);" d="M59.498,38.012l0.519-1.096l-0.032,0.549c0,0.85,0.323,1.295,0.971,1.336l14.018,1.76    c0.729,0.081,1.133-0.202,1.214-0.85l0.729-6.372c0.04-0.566-0.223-0.911-0.789-1.032l-12.649-2.702l1.617-3.416l16.19-0.314    L70.848,56.157c-0.283,0.809-0.102,1.314,0.546,1.518l11.348,3.459c0.729,0.202,1.173-0.021,1.335-0.668l7.282-41.814    c0.202-0.89-0.102-1.436-0.91-1.638l-19.157-3.919l1.133-2.393c0.283-0.769,0.061-1.295-0.667-1.578l-11.47-4.006    c-0.769-0.283-1.254-0.04-1.456,0.729l-7.89,28.281c-0.283,0.81-0.081,1.376,0.607,1.699l6.312,2.792    C58.628,38.942,59.174,38.74,59.498,38.012z" stroke-width="1"/>
		<linearGradient id="XMLID_3_" gradientUnits="userSpaceOnUse" x1="110.7378" y1="12.0498" x2="110.7378" y2="39.0498">
			<stop offset="0.0112" style="stop-color:#FFFFFF"/>
			<stop offset="1" style="stop-color:#FF9900"/>
			<a:midPointStop offset="0.0112" style="stop-color:#FFFFFF"/>
			<a:midPointStop offset="0.5" style="stop-color:#FFFFFF"/>
			<a:midPointStop offset="1" style="stop-color:#FF9900"/>
		</linearGradient>
		<path style="fill:url(#XMLID_3_);" d="M98.156,43.595l27.371-4.794c0.688-0.081,1.031-0.425,1.031-1.032l0.365-10.317    c0.08-0.688-0.244-1.051-0.971-1.092L95.79,26.602c-0.972,0.041-1.376,0.527-1.214,1.457l2.245,14.505    C96.983,43.372,97.427,43.716,98.156,43.595z" stroke-width="1"/>
		<linearGradient id="XMLID_4_" gradientUnits="userSpaceOnUse" x1="148.8306" y1="12.0498" x2="148.8306" y2="39.0498">
			<stop offset="0.0112" style="stop-color:#FFFFFF"/>
			<stop offset="1" style="stop-color:#FF9900"/>
			<a:midPointStop offset="0.0112" style="stop-color:#FFFFFF"/>
			<a:midPointStop offset="0.5" style="stop-color:#FFFFFF"/>
			<a:midPointStop offset="1" style="stop-color:#FF9900"/>
		</linearGradient>
		<path style="fill:url(#XMLID_4_);" d="M131.171,8.092l4.431,50.371c0.04,1.133,0.566,1.639,1.578,1.518l7.222-0.91    c0.728,0.08,1.132-0.466,1.214-1.639l1.442-16.573l16.278,3.404c1.092,0.364,1.658-0.061,1.699-1.274l1.457-13.474    c0.161-1.294-0.405-1.881-1.7-1.76l-16.78,2.15l1.973-22.663c0.04-1.092-0.425-1.679-1.396-1.76l-15.9,0.729    C131.515,6.292,131.009,6.919,131.171,8.092z" stroke-width="1"/>
	</g>
</svg>