<svg version="1.1" xmlns="http://www.w3.org/2000/svg" xmlns:xlink="http://www.w3.org/1999/xlink" width="339.11641" height="318.23059" viewBox="0,0,339.11641,318.23059"><g transform="translate(-71,2.56389)"><g data-paper-data="{&quot;isPaintingLayer&quot;:true}" fill-rule="nonzero" stroke="none" stroke-linecap="butt" stroke-linejoin="miter" stroke-miterlimit="10" stroke-dasharray="" stroke-dashoffset="0" style="mix-blend-mode: normal"><g><path d="M205,273.9778v38.7111c0,1.6437 -1.334,2.9778 -2.9778,2.9778h-128.0444c-1.6438,0 -2.9778,-1.3341 -2.9778,-2.9778v-38.7111c0,-1.6438 1.334,-2.9778 2.9778,-2.9778h128.0444c1.6438,0 2.9778,1.334 2.9778,2.9778z" fill="#a45812" stroke-width="1.48889"/><path d="M205.0045,273.8676v14.1325c-2.2676,-0.0342 -4.2657,-1.1807 -5.5045,-2.9346c-1.2566,1.7778 -3.2889,2.9465 -5.5982,2.9465c-2.3092,0 -4.3446,-3.405 -5.6012,-5.1798c-1.2551,1.7777 -3.2889,2.9465 -5.5982,2.9465c-2.3093,0 -4.3416,-1.1717 -5.5967,-2.9465c-1.2581,1.7777 -3.2905,5.1798 -5.5997,5.1798c-2.3093,0 -4.3416,-1.1717 -5.5983,-2.9465c-1.2536,1.7718 -3.274,3.3649 -5.5714,3.3739v0.0431c-2.2691,-0.0327 -4.2686,-1.1807 -5.5059,-2.9346c-1.2581,1.7793 -3.2904,2.9465 -5.5997,2.9465c-2.3093,0 -4.3416,-3.4036 -5.5982,-5.1798c-1.2567,1.7792 -3.289,2.9465 -5.5997,2.9465c-2.3093,0 -4.3416,-1.1703 -5.5968,-2.9465c-1.2566,1.7792 -3.2904,5.1798 -5.6012,5.1798c-2.3092,0 -4.3416,-1.1702 -5.5982,-2.9465c-1.2522,1.7718 -3.2711,2.9317 -5.5684,2.9406v-0.003c-2.2974,-0.0089 -4.3178,-1.6482 -5.5715,-3.42c-1.2566,1.7763 -3.2889,2.9465 -5.5982,2.9465c-2.3093,0 -4.3416,-3.4021 -5.5982,-5.1798c-1.2566,1.7762 -3.289,2.9465 -5.5982,2.9465c-2.3093,0 -4.3431,-1.1688 -5.5983,-2.9465c-1.2566,1.7762 -3.2919,5.1798 -5.6012,5.1798c-2.3092,0 -4.3416,-1.1687 -5.5982,-2.9465c-1.2387,1.7539 -3.2368,2.9034 -5.5044,2.9346v-14.131z" fill="#5aaa00" stroke-width="1.48889"/><path d="M205,273.9778v8.439c-2.2676,-0.0328 -4.2657,-1.1807 -5.5029,-2.9346c-1.2567,1.7777 -3.289,2.9465 -5.5983,2.9465c-2.3092,0 -4.3445,-3.4051 -5.6012,-5.1798c-1.2551,1.7777 -3.2889,2.9465 -5.5982,2.9465c-2.3092,0 -4.3416,-1.1718 -5.5967,-2.9465c-1.2581,1.7777 -3.2905,5.1798 -5.5997,5.1798c-2.3093,0 -4.3416,-1.1717 -5.5982,-2.9465c-1.2537,1.7718 -3.2741,3.3679 -5.5715,3.3738v0.0432c-2.269,-0.0313 -4.2686,-1.1807 -5.5059,-2.9346c-1.2581,1.7792 -3.2904,2.9465 -5.5997,2.9465c-2.3093,0 -4.3416,-3.4021 -5.5967,-5.1798c-1.2566,1.7792 -3.289,2.9465 -5.5997,2.9465c-2.3093,0 -4.3431,-1.1688 -5.5968,-2.9465c-1.2566,1.7792 -3.2904,5.1798 -5.6012,5.1798c-2.3092,0 -4.3416,-1.1688 -5.5982,-2.9465c-1.2521,1.7718 -3.2711,2.9346 -5.5684,2.9406v-0.003c-2.2974,-0.006 -4.3163,-1.6482 -5.567,-3.42c-1.2566,1.7762 -3.2889,2.9465 -5.5982,2.9465c-2.3093,0 -4.3446,-3.4036 -5.6012,-5.1798c-1.2551,1.7762 -3.286,2.9465 -5.5967,2.9465c-2.3093,0 -4.3431,-1.1703 -5.5983,-2.9465c-1.2581,1.7762 -3.2904,5.1798 -5.5997,5.1798c-2.3092,0 -4.3416,-1.1703 -5.5982,-2.9465c-1.2388,1.7539 -3.2383,2.9018 -5.5074,2.9346v-8.439c0,-1.6438 1.334,-2.9778 2.9778,-2.9778h128.0444c1.6438,0 2.9778,1.334 2.9778,2.9778z" fill="#bff008" stroke-width="1.48889"/><path d="M133.0875,295.6007l-4.7382,4.7369l-4.7369,-4.7382l4.7382,-4.7369z" fill="#b16723" stroke-width="1.48887"/><path d="M153.8893,304.6655l-5.9049,5.9033l-5.9032,-5.9049l5.9049,-5.9033z" fill="#b16723" stroke-width="1.48887"/><path d="M178.2812,295.3043l-4.7376,4.7376l-4.7376,-4.7376l4.7376,-4.7376z" fill="#b16723" stroke-width="1.48887"/><path d="M199.0251,304.355l-5.9049,5.9032l-5.9032,-5.9049l5.9049,-5.9032z" fill="#b16723" stroke-width="1.48887"/><path d="M87.3365,295.241l-4.7403,4.739l-4.738,-4.7393l4.7404,-4.739z" fill="#b16723" stroke-width="1.48887"/><path d="M108.1396,304.0554l-5.9068,5.9035l-5.9024,-5.9058l5.9068,-5.9034z" fill="#b16723" stroke-width="1.48887"/></g><g><path d="M410.11191,0.41391v38.7111c0,1.6437 -1.334,2.9778 -2.9778,2.9778h-128.0444c-1.6438,0 -2.9778,-1.3341 -2.9778,-2.9778v-38.7111c0,-1.6438 1.334,-2.9778 2.9778,-2.9778h128.0444c1.6438,0 2.9778,1.334 2.9778,2.9778z" fill="#a45812" stroke-width="1.48889"/><path d="M410.11641,0.30371v14.1325c-2.2676,-0.0342 -4.2657,-1.1807 -5.5045,-2.9346c-1.2566,1.7778 -3.2889,2.9465 -5.5982,2.9465c-2.3092,0 -4.3446,-3.405 -5.6012,-5.1798c-1.2551,1.7777 -3.2889,2.9465 -5.5982,2.9465c-2.3093,0 -4.3416,-1.1717 -5.5967,-2.9465c-1.2581,1.7777 -3.2905,5.1798 -5.5997,5.1798c-2.3093,0 -4.3416,-1.1717 -5.5983,-2.9465c-1.2536,1.7718 -3.274,3.3649 -5.5714,3.3739v0.0431c-2.2691,-0.0327 -4.2686,-1.1807 -5.5059,-2.9346c-1.2581,1.7793 -3.2904,2.9465 -5.5997,2.9465c-2.3093,0 -4.3416,-3.4036 -5.5982,-5.1798c-1.2567,1.7792 -3.289,2.9465 -5.5997,2.9465c-2.3093,0 -4.3416,-1.1703 -5.5968,-2.9465c-1.2566,1.7792 -3.2904,5.1798 -5.6012,5.1798c-2.3092,0 -4.3416,-1.1702 -5.5982,-2.9465c-1.2522,1.7718 -3.2711,2.9317 -5.5684,2.9406v-0.003c-2.2974,-0.0089 -4.3178,-1.6482 -5.5715,-3.42c-1.2566,1.7763 -3.2889,2.9465 -5.5982,2.9465c-2.3093,0 -4.3416,-3.4021 -5.5982,-5.1798c-1.2566,1.7762 -3.289,2.9465 -5.5982,2.9465c-2.3093,0 -4.3431,-1.1688 -5.5983,-2.9465c-1.2566,1.7762 -3.2919,5.1798 -5.6012,5.1798c-2.3092,0 -4.3416,-1.1687 -5.5982,-2.9465c-1.2387,1.7539 -3.2368,2.9034 -5.5044,2.9346v-14.131z" fill="#5aaa00" stroke-width="1.48889"/><path d="M410.11191,0.41391v8.439c-2.2676,-0.0328 -4.2657,-1.1807 -5.5029,-2.9346c-1.2567,1.7777 -3.289,2.9465 -5.5983,2.9465c-2.3092,0 -4.3445,-3.4051 -5.6012,-5.1798c-1.2551,1.7777 -3.2889,2.9465 -5.5982,2.9465c-2.3092,0 -4.3416,-1.1718 -5.5967,-2.9465c-1.2581,1.7777 -3.2905,5.1798 -5.5997,5.1798c-2.3093,0 -4.3416,-1.1717 -5.5982,-2.9465c-1.2537,1.7718 -3.2741,3.3679 -5.5715,3.3738v0.0432c-2.269,-0.0313 -4.2686,-1.1807 -5.5059,-2.9346c-1.2581,1.7792 -3.2904,2.9465 -5.5997,2.9465c-2.3093,0 -4.3416,-3.4021 -5.5967,-5.1798c-1.2566,1.7792 -3.289,2.9465 -5.5997,2.9465c-2.3093,0 -4.3431,-1.1688 -5.5968,-2.9465c-1.2566,1.7792 -3.2904,5.1798 -5.6012,5.1798c-2.3092,0 -4.3416,-1.1688 -5.5982,-2.9465c-1.2521,1.7718 -3.2711,2.9346 -5.5684,2.9406v-0.003c-2.2974,-0.006 -4.3163,-1.6482 -5.567,-3.42c-1.2566,1.7762 -3.2889,2.9465 -5.5982,2.9465c-2.3093,0 -4.3446,-3.4036 -5.6012,-5.1798c-1.2551,1.7762 -3.286,2.9465 -5.5967,2.9465c-2.3093,0 -4.3431,-1.1703 -5.5983,-2.9465c-1.2581,1.7762 -3.2904,5.1798 -5.5997,5.1798c-2.3092,0 -4.3416,-1.1703 -5.5982,-2.9465c-1.2388,1.7539 -3.2383,2.9018 -5.5074,2.9346v-8.439c0,-1.6438 1.334,-2.9778 2.9778,-2.9778h128.0444c1.6438,0 2.9778,1.334 2.9778,2.9778z" fill="#bff008" stroke-width="1.48889"/><path d="M338.19941,22.03681l-4.7382,4.7369l-4.7369,-4.7382l4.7382,-4.7369z" fill="#b16723" stroke-width="1.48887"/><path d="M359.00121,31.10161l-5.9049,5.9033l-5.9032,-5.9049l5.9049,-5.9033z" fill="#b16723" stroke-width="1.48887"/><path d="M383.39311,21.69041l-4.7376,4.7376l-4.7376,-4.7376l4.7376,-4.7376z" fill="#b16723" stroke-width="1.48887"/><path d="M404.13701,30.74111l-5.9049,5.9032l-5.9032,-5.9049l5.9049,-5.9032z" fill="#b16723" stroke-width="1.48887"/><path d="M292.44841,21.67711l-4.7403,4.739l-4.738,-4.7393l4.7404,-4.739z" fill="#b16723" stroke-width="1.48887"/><path d="M313.25151,30.49151l-5.9068,5.9035l-5.9024,-5.9058l5.9068,-5.9034z" fill="#b16723" stroke-width="1.48887"/></g></g></g></svg>