<svg version="1.1" xmlns="http://www.w3.org/2000/svg" xmlns:xlink="http://www.w3.org/1999/xlink" width="540" height="67.5" viewBox="0,0,540,67.5"><g transform="translate(38,-292.5)"><g data-paper-data="{&quot;isPaintingLayer&quot;:true}" fill-rule="nonzero" stroke="none" stroke-width="1" stroke-linecap="butt" stroke-linejoin="miter" stroke-miterlimit="10" stroke-dasharray="" stroke-dashoffset="0" style="mix-blend-mode: normal"><path d="M-38,322.5h180v37.5h-180z" fill="#a45812"/><path d="M-38,300h180v30h-180z" fill="#b16723"/><path d="M142,299.502v15.486c-3.048,-0.045 -5.732,-1.54 -7.396,-3.822c-1.688,2.313 -4.418,3.834 -7.521,3.834c-3.101,0 -5.832,-4.427 -7.521,-6.74c-1.686,2.313 -4.416,3.834 -7.52,3.834c-3.102,0 -5.834,-1.521 -7.518,-3.834c-1.689,2.312 -4.421,6.74 -7.523,6.74c-3.103,0 -5.833,-1.521 -7.521,-3.834c-1.679,2.305 -4.394,3.818 -7.48,3.83v-0.008c-3.048,-0.045 -5.732,-1.54 -7.396,-3.822c-1.688,2.313 -4.418,3.834 -7.521,3.834c-3.101,0 -5.832,-4.427 -7.521,-6.74c-1.686,2.313 -4.416,3.834 -7.52,3.834c-3.102,0 -5.834,-1.521 -7.518,-3.834c-1.689,2.312 -4.421,6.74 -7.523,6.74c-3.103,0 -5.833,-1.521 -7.521,-3.834c-1.679,2.305 -4.394,3.818 -7.48,3.83v-0.008c-3.048,-0.045 -5.732,-1.54 -7.396,-3.822c-1.688,2.313 -4.418,3.834 -7.521,3.834c-3.101,0 -5.832,-4.427 -7.521,-6.74c-1.686,2.313 -4.416,3.834 -7.52,3.834c-3.102,0 -5.834,-1.521 -7.518,-3.834c-1.689,2.312 -4.421,6.74 -7.523,6.74c-3.103,0 -5.833,-1.521 -7.521,-3.834c-1.679,2.305 -4.394,3.818 -7.48,3.83v-15.494z" fill="#5aaa00"/><path d="M142,292.5v15.486c-3.048,-0.045 -5.732,-1.54 -7.396,-3.822c-1.688,2.313 -4.418,3.834 -7.521,3.834c-3.101,0 -5.832,-4.427 -7.521,-6.74c-1.686,2.313 -4.416,3.834 -7.52,3.834c-3.102,0 -5.834,-1.521 -7.518,-3.834c-1.689,2.312 -4.421,6.74 -7.523,6.74c-3.103,0 -5.833,-1.521 -7.521,-3.834c-1.679,2.305 -4.394,3.818 -7.48,3.83v-0.008c-3.048,-0.045 -5.732,-1.54 -7.396,-3.822c-1.688,2.313 -4.418,3.834 -7.521,3.834c-3.101,0 -5.832,-4.427 -7.521,-6.74c-1.686,2.313 -4.416,3.834 -7.52,3.834c-3.102,0 -5.834,-1.521 -7.518,-3.834c-1.689,2.312 -4.421,6.74 -7.523,6.74c-3.103,0 -5.833,-1.521 -7.521,-3.834c-1.679,2.305 -4.394,3.818 -7.48,3.83v-0.008c-3.048,-0.045 -5.732,-1.54 -7.396,-3.822c-1.688,2.313 -4.418,3.834 -7.521,3.834c-3.101,0 -5.832,-4.427 -7.521,-6.74c-1.686,2.313 -4.416,3.834 -7.52,3.834c-3.102,0 -5.834,-1.521 -7.518,-3.834c-1.689,2.312 -4.421,6.74 -7.523,6.74c-3.103,0 -5.833,-1.521 -7.521,-3.834c-1.679,2.305 -4.394,3.818 -7.48,3.83v-15.494z" fill="#bff008"/><path d="M142,322.5h180v37.5h-180z" fill="#a45812"/><path d="M142,300h180v30h-180z" fill="#b16723"/><path d="M322,299.502v15.486c-3.048,-0.045 -5.732,-1.54 -7.396,-3.822c-1.688,2.313 -4.418,3.834 -7.521,3.834c-3.101,0 -5.832,-4.427 -7.521,-6.74c-1.686,2.313 -4.416,3.834 -7.52,3.834c-3.102,0 -5.834,-1.521 -7.518,-3.834c-1.689,2.312 -4.421,6.74 -7.523,6.74c-3.103,0 -5.833,-1.521 -7.521,-3.834c-1.679,2.305 -4.394,3.818 -7.48,3.83v-0.008c-3.048,-0.045 -5.732,-1.54 -7.396,-3.822c-1.688,2.313 -4.418,3.834 -7.521,3.834c-3.101,0 -5.832,-4.427 -7.521,-6.74c-1.686,2.313 -4.416,3.834 -7.52,3.834c-3.102,0 -5.834,-1.521 -7.518,-3.834c-1.689,2.312 -4.421,6.74 -7.523,6.74c-3.103,0 -5.833,-1.521 -7.521,-3.834c-1.679,2.305 -4.394,3.818 -7.48,3.83v-0.008c-3.048,-0.045 -5.732,-1.54 -7.396,-3.822c-1.688,2.313 -4.418,3.834 -7.521,3.834c-3.101,0 -5.832,-4.427 -7.521,-6.74c-1.686,2.313 -4.416,3.834 -7.52,3.834c-3.102,0 -5.834,-1.521 -7.518,-3.834c-1.689,2.312 -4.421,6.74 -7.523,6.74c-3.103,0 -5.833,-1.521 -7.521,-3.834c-1.679,2.305 -4.394,3.818 -7.48,3.83v-15.494z" fill="#5aaa00"/><path d="M322,292.5v15.486c-3.048,-0.045 -5.732,-1.54 -7.396,-3.822c-1.688,2.313 -4.418,3.834 -7.521,3.834c-3.101,0 -5.832,-4.427 -7.521,-6.74c-1.686,2.313 -4.416,3.834 -7.52,3.834c-3.102,0 -5.834,-1.521 -7.518,-3.834c-1.689,2.312 -4.421,6.74 -7.523,6.74c-3.103,0 -5.833,-1.521 -7.521,-3.834c-1.679,2.305 -4.394,3.818 -7.48,3.83v-0.008c-3.048,-0.045 -5.732,-1.54 -7.396,-3.822c-1.688,2.313 -4.418,3.834 -7.521,3.834c-3.101,0 -5.832,-4.427 -7.521,-6.74c-1.686,2.313 -4.416,3.834 -7.52,3.834c-3.102,0 -5.834,-1.521 -7.518,-3.834c-1.689,2.312 -4.421,6.74 -7.523,6.74c-3.103,0 -5.833,-1.521 -7.521,-3.834c-1.679,2.305 -4.394,3.818 -7.48,3.83v-0.008c-3.048,-0.045 -5.732,-1.54 -7.396,-3.822c-1.688,2.313 -4.418,3.834 -7.521,3.834c-3.101,0 -5.832,-4.427 -7.521,-6.74c-1.686,2.313 -4.416,3.834 -7.52,3.834c-3.102,0 -5.834,-1.521 -7.518,-3.834c-1.689,2.312 -4.421,6.74 -7.523,6.74c-3.103,0 -5.833,-1.521 -7.521,-3.834c-1.679,2.305 -4.394,3.818 -7.48,3.83v-15.494z" fill="#bff008"/><path d="M322,322.5h180v37.5h-180z" fill="#a45812"/><path d="M322,300h180v30h-180z" fill="#b16723"/><path d="M502,299.502v15.486c-3.048,-0.045 -5.732,-1.54 -7.396,-3.822c-1.688,2.313 -4.418,3.834 -7.521,3.834c-3.101,0 -5.832,-4.427 -7.521,-6.74c-1.686,2.313 -4.416,3.834 -7.52,3.834c-3.102,0 -5.834,-1.521 -7.518,-3.834c-1.689,2.312 -4.421,6.74 -7.523,6.74c-3.103,0 -5.833,-1.521 -7.521,-3.834c-1.679,2.305 -4.394,3.818 -7.48,3.83v-0.008c-3.048,-0.045 -5.732,-1.54 -7.396,-3.822c-1.688,2.313 -4.418,3.834 -7.521,3.834c-3.101,0 -5.832,-4.427 -7.521,-6.74c-1.686,2.313 -4.416,3.834 -7.52,3.834c-3.102,0 -5.834,-1.521 -7.518,-3.834c-1.689,2.312 -4.421,6.74 -7.523,6.74c-3.103,0 -5.833,-1.521 -7.521,-3.834c-1.679,2.305 -4.394,3.818 -7.48,3.83v-0.008c-3.048,-0.045 -5.732,-1.54 -7.396,-3.822c-1.688,2.313 -4.418,3.834 -7.521,3.834c-3.101,0 -5.832,-4.427 -7.521,-6.74c-1.686,2.313 -4.416,3.834 -7.52,3.834c-3.102,0 -5.834,-1.521 -7.518,-3.834c-1.689,2.312 -4.421,6.74 -7.523,6.74c-3.103,0 -5.833,-1.521 -7.521,-3.834c-1.679,2.305 -4.394,3.818 -7.48,3.83v-15.494z" fill="#5aaa00"/><path d="M502,292.5v15.486c-3.048,-0.045 -5.732,-1.54 -7.396,-3.822c-1.688,2.313 -4.418,3.834 -7.521,3.834c-3.101,0 -5.832,-4.427 -7.521,-6.74c-1.686,2.313 -4.416,3.834 -7.52,3.834c-3.102,0 -5.834,-1.521 -7.518,-3.834c-1.689,2.312 -4.421,6.74 -7.523,6.74c-3.103,0 -5.833,-1.521 -7.521,-3.834c-1.679,2.305 -4.394,3.818 -7.48,3.83v-0.008c-3.048,-0.045 -5.732,-1.54 -7.396,-3.822c-1.688,2.313 -4.418,3.834 -7.521,3.834c-3.101,0 -5.832,-4.427 -7.521,-6.74c-1.686,2.313 -4.416,3.834 -7.52,3.834c-3.102,0 -5.834,-1.521 -7.518,-3.834c-1.689,2.312 -4.421,6.74 -7.523,6.74c-3.103,0 -5.833,-1.521 -7.521,-3.834c-1.679,2.305 -4.394,3.818 -7.48,3.83v-0.008c-3.048,-0.045 -5.732,-1.54 -7.396,-3.822c-1.688,2.313 -4.418,3.834 -7.521,3.834c-3.101,0 -5.832,-4.427 -7.521,-6.74c-1.686,2.313 -4.416,3.834 -7.52,3.834c-3.102,0 -5.834,-1.521 -7.518,-3.834c-1.689,2.312 -4.421,6.74 -7.523,6.74c-3.103,0 -5.833,-1.521 -7.521,-3.834c-1.679,2.305 -4.394,3.818 -7.48,3.83v-15.494z" fill="#bff008"/></g></g></svg>