<svg xmlns="http://www.w3.org/2000/svg" xmlns:xlink="http://www.w3.org/1999/xlink" xmlns:a="http://ns.adobe.com/AdobeSVGViewerExtensions/3.0/" width="286.6804504394531" height="67.87258911132812" viewBox="-0.5002076144446619 -0.4987653286661953 286.6804504394531 67.87258911132812" xml:space="preserve">
	<defs>
	</defs>
	<g>
		<path d="M285.32,11.37c-0.594-1.646-1.878-2.974-3.616-3.739l-17.027-7.106l-0.066-0.025c-2.6-1-4.563-0.273-5.504,0.248    c-0.931,0.517-2.568,1.781-3.081,4.445l-0.027,0.144l-5.124,38.801c-0.051,0.418-0.063,0.813-0.055,1.197    c-0.052,0.072-0.099,0.15-0.147,0.226c-0.853-0.701-1.896-1.16-3.051-1.326l3.399-12.778l-0.113,0.367    c0.869-2.48,0.15-4.32-0.354-5.195c-0.76-1.315-1.988-2.238-3.487-2.646l-24.005-7.274c-2.378-0.723-4.132-0.142-5.186,0.474    c-1.424,0.833-2.413,2.218-2.785,3.899l-0.05,0.225l-0.495,3.909l-7.344-6.496c-1.752-1.565-3.547-1.814-4.74-1.745    c-1.669,0.097-3.244,0.89-4.437,2.233l-0.063,0.072l-1.603,1.953l-0.417-5.72l-0.01-0.095c-0.329-2.955-2.448-5.14-5.529-5.701    l-0.15-0.025l-21.301-3.217c-2.745-0.437-4.494,0.775-5.289,1.537c-0.799,0.766-2.09,2.476-1.76,5.319l-0.016-0.152l1.166,13.675    l0.02,0.14c0.146,1.022,0.497,1.933,1.003,2.706c-0.03,0.561,0,1.17,0.129,1.841l1.186,5.59l-7.688-7.109    c-0.41-0.381-0.824-0.67-1.23-0.905l0.014-0.047l-0.016,0.046c-0.002-0.001-0.004-0.003-0.006-0.004    c0.711-2.148,0.264-3.829-0.259-4.869c-0.748-1.492-2.097-2.595-3.796-3.105l-0.158-0.045l-7.814-2.071    c-0.258-0.437-0.534-0.787-0.768-1.033c-0.729-0.768-2.354-2.019-5.042-1.776l-9.162,1.044c-1.705,0.162-3.246,0.985-4.269,2.306    c-0.552-2.757-2.896-4.739-5.979-4.882l-24.833-1.583h-0.159c-1.866,0-3.529,0.699-4.684,1.969    c-1.146,1.261-1.682,2.958-1.508,4.78l0.718,6.62l-1.897-9.673l-0.023-0.097c-0.406-1.709-1.42-3.114-2.853-3.958    c-1.05-0.618-2.801-1.215-5.18-0.549l-0.212,0.059L51.694,22.397l0.189-0.513l-0.146,0.353c0.833-1.821,0.834-3.742,0.002-5.409    c-0.613-1.228-1.935-2.821-4.754-3.438l-0.276-0.061L7.466,9.296c-2.978-0.342-4.788,0.771-5.772,1.766    c-1.282,1.295-1.881,3.132-1.643,5.041l2.256,16.038l-0.022-0.184c0.273,2.646,1.572,4.1,2.615,4.854    c1.414,1.024,3.191,1.37,5.002,0.975l-0.316,0.059c0,0,7.132-1.083,14.07-2.136c-4.48,6.79-9.509,14.412-9.509,14.412    l-0.134,0.268c-0.569,1.14-0.761,2.178-0.761,3.059c0,1.008,0.25,1.81,0.472,2.323c0.625,1.445,1.792,2.544,3.316,3.146    l11.735,5.778l0.121,0.052c3.346,1.435,6.88,0.039,8.404-3.318l0.076-0.166l8.493-23.052l0.503,2.311l-0.054-0.287    c0.519,3.296,3.228,5.479,6.588,5.309l0.296-0.015l4.072-0.696l-1.755,14.285l0.069-0.415c-0.514,2.455,0.258,4.168,0.997,5.169    c1.018,1.382,2.578,2.237,4.393,2.411l0.182,0.018l14.174,0.316l0.394-0.055c2.266-0.311,3.578-1.484,4.279-2.414    c0.983-1.303,1.39-2.973,1.144-4.701l0.017,0.133l-2.126-18.466l5.679-0.971c2.298-0.277,3.606-1.495,4.196-2.244    c0.632-0.804,1.021-1.74,1.168-2.743c0.552,1.139,1.317,1.846,1.846,2.229c1.421,1.032,3.207,1.362,5.03,0.929l-0.317,0.064    l24.007-4.093l0.152-0.036c2.163-0.51,3.758-1.975,4.469-3.944l1.092,5.313c-0.882-0.353-1.987-0.561-3.358-0.396l-31.246,4.072    c-2.56,0.379-3.936,1.612-4.653,2.582c-0.959,1.294-1.35,2.918-1.103,4.573l-0.019-0.139l1.723,14.209l0.037,0.188    c0.484,2.422,1.833,3.702,2.88,4.35c1.449,0.896,3.216,1.127,4.974,0.649l0.111-0.03l30.271-9.745    c2.944-0.981,4.743-3.381,4.743-6.277v-0.183l-0.232-3.18c1.241,0.734,2.729,0.98,4.229,0.679l5.048-0.961l-0.183,0.031    c0.211-0.032,0.406-0.097,0.607-0.149c0.197,0.066,0.406,0.106,0.613,0.153l-4.622,8.833c-1.007,2.009-0.771,3.709-0.397,4.781    c0.515,1.471,1.604,2.654,3.069,3.332l-0.563-0.306l4.916,3.096l-0.631-0.471c2.318,2.031,5.648,1.861,7.919-0.403l0.108-0.108    l16.185-18.261l-0.207,0.219c0.667-0.667,1.099-1.355,1.378-1.998c0.581,0.602,1.188,0.98,1.633,1.197    c0.956,0.463,2.926,1.065,5.377-0.104l-0.218,0.098l2.018-0.847l-2.611,3.182l-0.12,0.175c-1.811,2.633-1.526,5.9,0.709,8.132    l6.808,6.99l-0.103-0.109c1.111,1.211,2.583,1.914,4.144,1.979c1.581,0.065,3.139-0.532,4.388-1.684l24.715-22.647    c0.789,0.84,1.787,1.402,2.911,1.658c-1.792-0.025-3.409,0.612-4.57,1.822c-0.705,0.735-1.854,2.355-1.629,4.941l0.017,0.157    l1.42,11.907l0.038,0.191c0.688,3.454,3.656,5.552,7.059,4.986l27.913-5.092l0.042-0.012c0.821,1.021,1.974,1.769,3.346,2.143    l0.221,0.061l13.576,2.405c2.492,0.477,4.21-0.556,5.006-1.214c0.8-0.661,2.141-2.165,2.141-4.801l-0.002,0.139l0.242-8.739    l-0.023,0.36c0.049-0.486,0.03-0.957-0.021-1.418c0.255-0.425,0.474-0.885,0.64-1.387l-0.048,0.138l12.131-33.178    C285.958,14.155,285.712,12.461,285.32,11.37z M229.518,42.622c-0.021,0.222-0.043,0.462-0.066,0.709l-9.029-0.433    C222.234,42.844,226.093,42.727,229.518,42.622z" stroke-width="1"/>
		<linearGradient id="XMLID_1_" gradientUnits="userSpaceOnUse" x1="26.1802" y1="12.9473" x2="26.1802" y2="47.9473">
			<stop offset="0.0112" style="stop-color:#FFFFFF"/>
			<stop offset="1" style="stop-color:#FF9900"/>
			<a:midPointStop offset="0.0112" style="stop-color:#FFFFFF"/>
			<a:midPointStop offset="0.5" style="stop-color:#FFFFFF"/>
			<a:midPointStop offset="1" style="stop-color:#FF9900"/>
		</linearGradient>
		<path style="fill:url(#XMLID_1_);" d="M45.917,18.274L6.955,14.27c-1.416-0.162-2.063,0.243-1.942,1.214l2.246,15.961    c0.121,1.174,0.646,1.659,1.577,1.456l25.186-3.823L18.485,52.624c-0.445,0.891-0.263,1.457,0.547,1.699l11.834,5.826    c0.85,0.364,1.477,0.102,1.881-0.789l14.444-39.204C47.636,19.186,47.211,18.558,45.917,18.274z" stroke-width="1"/>
		<linearGradient id="XMLID_2_" gradientUnits="userSpaceOnUse" x1="67.1494" y1="12.9473" x2="67.1494" y2="47.9473">
			<stop offset="0.0112" style="stop-color:#FFFFFF"/>
			<stop offset="1" style="stop-color:#FF9900"/>
			<a:midPointStop offset="0.0112" style="stop-color:#FFFFFF"/>
			<a:midPointStop offset="0.5" style="stop-color:#FFFFFF"/>
			<a:midPointStop offset="1" style="stop-color:#FF9900"/>
		</linearGradient>
		<path style="fill:url(#XMLID_2_);" d="M85.122,33.933L81.965,17.85c-0.202-0.85-0.809-1.133-1.82-0.85L50.408,28.228    c-1.012,0.283-1.417,0.87-1.214,1.76l2.063,9.468c0.121,0.77,0.586,1.134,1.396,1.093l10.404-1.778l-2.575,20.955    c-0.203,0.971,0.121,1.497,0.971,1.578l13.595,0.304c0.89-0.122,1.273-0.607,1.152-1.457l-2.487-21.604    c-0.122-0.688-0.526-1.052-1.214-1.093l-1.32-0.07l12.729-2.175C84.878,35.167,85.283,34.742,85.122,33.933z" stroke-width="1"/>
		<linearGradient id="XMLID_3_" gradientUnits="userSpaceOnUse" x1="106.8433" y1="12.9473" x2="106.8433" y2="47.9473">
			<stop offset="0.0112" style="stop-color:#FFFFFF"/>
			<stop offset="1" style="stop-color:#FF9900"/>
			<a:midPointStop offset="0.0112" style="stop-color:#FFFFFF"/>
			<a:midPointStop offset="0.5" style="stop-color:#FFFFFF"/>
			<a:midPointStop offset="1" style="stop-color:#FF9900"/>
		</linearGradient>
		<path style="fill:url(#XMLID_3_);" d="M118.986,19.671l-24.762-1.578c-0.891,0-1.295,0.425-1.214,1.274l1.396,12.866    c0.081,1.012,0.547,1.416,1.396,1.214l23.852-4.066c0.688-0.162,1.031-0.647,1.031-1.457l-0.365-7.1    C120.32,20.096,119.875,19.712,118.986,19.671z" stroke-width="1"/>
		<linearGradient id="XMLID_4_" gradientUnits="userSpaceOnUse" x1="108.3257" y1="12.9473" x2="108.3257" y2="47.9473">
			<stop offset="0.0112" style="stop-color:#FFFFFF"/>
			<stop offset="1" style="stop-color:#FF9900"/>
			<a:midPointStop offset="0.0112" style="stop-color:#FFFFFF"/>
			<a:midPointStop offset="0.5" style="stop-color:#FFFFFF"/>
			<a:midPointStop offset="1" style="stop-color:#FF9900"/>
		</linearGradient>
		<path style="fill:url(#XMLID_4_);" d="M94.285,60.878l30.162-9.71c0.85-0.283,1.275-0.789,1.275-1.518l-0.607-8.314    c0-0.89-0.506-1.273-1.518-1.152l-31.193,4.065c-1.093,0.162-1.578,0.648-1.457,1.457l1.699,14.019    C92.848,60.736,93.394,61.12,94.285,60.878z" stroke-width="1"/>
		<linearGradient id="XMLID_5_" gradientUnits="userSpaceOnUse" x1="146.4565" y1="12.9473" x2="146.4565" y2="47.9473">
			<stop offset="0.0112" style="stop-color:#FFFFFF"/>
			<stop offset="1" style="stop-color:#FF9900"/>
			<a:midPointStop offset="0.0112" style="stop-color:#FFFFFF"/>
			<a:midPointStop offset="0.5" style="stop-color:#FFFFFF"/>
			<a:midPointStop offset="1" style="stop-color:#FF9900"/>
		</linearGradient>
		<path style="fill:url(#XMLID_5_);" d="M146.66,41.275c0.566,0.082,0.95-0.182,1.153-0.789l3.884-12.865    c0.323-0.89,0.08-1.456-0.729-1.699l-8.011-2.124c-0.971-0.202-1.437,0.061-1.396,0.788l-0.485,15.415    c0,0.729,0.323,1.134,0.971,1.214L146.66,41.275z" stroke-width="1"/>
		<linearGradient id="XMLID_6_" gradientUnits="userSpaceOnUse" x1="151.9546" y1="12.9473" x2="151.9546" y2="47.9473">
			<stop offset="0.0112" style="stop-color:#FFFFFF"/>
			<stop offset="1" style="stop-color:#FF9900"/>
			<a:midPointStop offset="0.0112" style="stop-color:#FFFFFF"/>
			<a:midPointStop offset="0.5" style="stop-color:#FFFFFF"/>
			<a:midPointStop offset="1" style="stop-color:#FF9900"/>
		</linearGradient>
		<path style="fill:url(#XMLID_6_);" d="M140.955,58.45l4.916,3.096c0.323,0.283,0.688,0.222,1.093-0.183l16.082-18.146    c0.485-0.485,0.525-0.931,0.121-1.335l-8.86-8.193c-0.566-0.525-1.032-0.525-1.396,0l-12.259,23.426    C140.328,57.762,140.429,58.207,140.955,58.45z" stroke-width="1"/>
		<linearGradient id="XMLID_7_" gradientUnits="userSpaceOnUse" x1="134.605" y1="12.9473" x2="134.605" y2="47.9473">
			<stop offset="0.0112" style="stop-color:#FFFFFF"/>
			<stop offset="1" style="stop-color:#FF9900"/>
			<a:midPointStop offset="0.0112" style="stop-color:#FFFFFF"/>
			<a:midPointStop offset="0.5" style="stop-color:#FFFFFF"/>
			<a:midPointStop offset="1" style="stop-color:#FF9900"/>
		</linearGradient>
		<path style="fill:url(#XMLID_7_);" d="M139.62,40.001l0.607-17.66c0.121-0.85-0.264-1.233-1.153-1.153l-9.043,1.032    c-0.85,0.081-1.193,0.546-1.031,1.396l3.642,17.721c0.121,0.607,0.484,0.851,1.092,0.729l5.098-0.971    C139.356,41.014,139.62,40.649,139.62,40.001z" stroke-width="1"/>
		<linearGradient id="XMLID_8_" gradientUnits="userSpaceOnUse" x1="196.5815" y1="12.9473" x2="196.5815" y2="47.9473">
			<stop offset="0.0112" style="stop-color:#FFFFFF"/>
			<stop offset="1" style="stop-color:#FF9900"/>
			<a:midPointStop offset="0.0112" style="stop-color:#FFFFFF"/>
			<a:midPointStop offset="0.5" style="stop-color:#FFFFFF"/>
			<a:midPointStop offset="1" style="stop-color:#FF9900"/>
		</linearGradient>
		<path style="fill:url(#XMLID_8_);" d="M203.888,22.462c-0.77-0.688-1.478-0.667-2.124,0.062l-23.607,28.766    c-0.445,0.647-0.405,1.234,0.121,1.76l6.857,7.04c0.445,0.485,0.931,0.485,1.457,0l28.28-25.914    c0.566-0.728,0.587-1.375,0.062-1.941L203.888,22.462z" stroke-width="1"/>
		<linearGradient id="XMLID_9_" gradientUnits="userSpaceOnUse" x1="179.1499" y1="12.9473" x2="179.1499" y2="47.9473">
			<stop offset="0.0112" style="stop-color:#FFFFFF"/>
			<stop offset="1" style="stop-color:#FF9900"/>
			<a:midPointStop offset="0.0112" style="stop-color:#FFFFFF"/>
			<a:midPointStop offset="0.5" style="stop-color:#FFFFFF"/>
			<a:midPointStop offset="1" style="stop-color:#FF9900"/>
		</linearGradient>
		<path style="fill:url(#XMLID_9_);" d="M191.448,22.645l-0.486-6.676c-0.081-0.729-0.566-1.173-1.456-1.335l-21.302-3.217    c-1.012-0.161-1.457,0.284-1.335,1.335l1.153,13.534c0.121,0.85,0.646,1.234,1.577,1.152l20.574-3.155    C191.063,24.162,191.488,23.615,191.448,22.645z" stroke-width="1"/>
		<linearGradient id="XMLID_10_" gradientUnits="userSpaceOnUse" x1="178.8296" y1="12.9473" x2="178.8296" y2="47.9473">
			<stop offset="0.0112" style="stop-color:#FFFFFF"/>
			<stop offset="1" style="stop-color:#FF9900"/>
			<a:midPointStop offset="0.0112" style="stop-color:#FFFFFF"/>
			<a:midPointStop offset="0.5" style="stop-color:#FFFFFF"/>
			<a:midPointStop offset="1" style="stop-color:#FF9900"/>
		</linearGradient>
		<path style="fill:url(#XMLID_10_);" d="M186.896,26.286l-16.689,2.549c-0.931,0.121-1.295,0.708-1.093,1.76l2.124,10.014    c0.202,0.891,0.729,1.133,1.578,0.728l14.747-6.189c0.729-0.283,1.072-0.85,1.032-1.699l-0.061-6.009    C188.413,26.549,187.867,26.165,186.896,26.286z" stroke-width="1"/>
		<linearGradient id="XMLID_11_" gradientUnits="userSpaceOnUse" x1="232.1089" y1="12.9473" x2="232.1089" y2="47.9473">
			<stop offset="0.0112" style="stop-color:#FFFFFF"/>
			<stop offset="1" style="stop-color:#FF9900"/>
			<a:midPointStop offset="0.0112" style="stop-color:#FFFFFF"/>
			<a:midPointStop offset="0.5" style="stop-color:#FFFFFF"/>
			<a:midPointStop offset="1" style="stop-color:#FF9900"/>
		</linearGradient>
		<path style="fill:url(#XMLID_11_);" d="M219.122,61.849l27.613-5.037c0.728-0.202,1.092-0.627,1.092-1.274V50.5    c0.08-0.85-0.283-1.294-1.092-1.335l-5.529-0.265l4.982-18.73c0.283-0.809,0.101-1.274-0.546-1.396l-24.032-7.282    c-0.932-0.283-1.478-0.061-1.639,0.668l-1.821,14.383c-0.162,0.971,0.162,1.437,0.972,1.396l15.9-0.485l-1.035,11.103    l-16.383-0.785c-0.891-0.04-1.295,0.405-1.214,1.335l1.396,11.713C217.948,61.626,218.393,61.97,219.122,61.849z" stroke-width="1"/>
		<linearGradient id="XMLID_12_" gradientUnits="userSpaceOnUse" x1="268.2476" y1="12.9473" x2="268.2476" y2="47.9473">
			<stop offset="0.0112" style="stop-color:#FFFFFF"/>
			<stop offset="1" style="stop-color:#FF9900"/>
			<a:midPointStop offset="0.0112" style="stop-color:#FFFFFF"/>
			<a:midPointStop offset="0.5" style="stop-color:#FFFFFF"/>
			<a:midPointStop offset="1" style="stop-color:#FF9900"/>
		</linearGradient>
		<path style="fill:url(#XMLID_12_);" d="M279.688,12.206l-16.872-7.04c-1.052-0.404-1.679-0.08-1.881,0.971l-5.098,38.599    c-0.122,1.012,0.161,1.598,0.85,1.76l9.831,2.003c0.89,0.283,1.477,0,1.76-0.851l12.138-33.196    C280.941,13.4,280.699,12.651,279.688,12.206z" stroke-width="1"/>
		<linearGradient id="XMLID_13_" gradientUnits="userSpaceOnUse" x1="259.5093" y1="12.9473" x2="259.5093" y2="47.9473">
			<stop offset="0.0112" style="stop-color:#FFFFFF"/>
			<stop offset="1" style="stop-color:#FF9900"/>
			<a:midPointStop offset="0.0112" style="stop-color:#FFFFFF"/>
			<a:midPointStop offset="0.5" style="stop-color:#FFFFFF"/>
			<a:midPointStop offset="1" style="stop-color:#FF9900"/>
		</linearGradient>
		<path style="fill:url(#XMLID_13_);" d="M266.215,49.954l-10.074-2.063c-0.77-0.162-1.255,0.081-1.457,0.729l-2.974,8.617    c-0.324,0.931-0.041,1.518,0.85,1.761l13.352,2.366c0.85,0.162,1.274-0.202,1.274-1.092l0.242-8.739    C267.509,50.724,267.105,50.197,266.215,49.954z" stroke-width="1"/>
	</g>
</svg>