<svg xmlns="http://www.w3.org/2000/svg" xmlns:xlink="http://www.w3.org/1999/xlink" xmlns:a="http://ns.adobe.com/AdobeSVGViewerExtensions/3.0/" width="275.57171630859375" height="68.82344055175781" viewBox="-0.49993127697962336 -0.49979370915389154 275.57171630859375 68.82344055175781" xml:space="preserve">
	<defs>
	</defs>
	<g>
		<path d="M5.232,44.767l9.414,1.7c1.861,0.374,3.663-0.059,5.083-1.133l-4.297,11.174l-0.042,0.13    c-0.867,2.684-0.216,4.606,0.483,5.748c0.941,1.535,2.501,2.548,4.394,2.852l-0.154-0.027l12.927,2.488    c3.867,0.687,7.142-1.522,7.857-5.24l0.026-0.139l2.41-17.951c1.64,0.064,2.849-0.482,3.515-0.904    c1.557-0.985,2.545-2.619,2.782-4.601l0.752-7.008l1.317,0.367c0.649,0.182,1.247,0.26,1.802,0.275l1.958,12.654l0.022,0.108    c0.692,3.451,3.66,5.546,7.057,4.981l27.414-4.802l-0.277,0.041c1.087-0.128,2.05-0.512,2.864-1.065l-4.175,13.967l0.138-0.397    c-1.256,3.193-0.153,5.303,0.615,6.274c1.238,1.566,3.239,2.322,5.351,2.021l0.114-0.017l24.352-4.625    c1.402,2.392,4.015,3.498,6.694,2.796l7.438-1.721l0.124-0.036c2.925-0.837,4.698-3.568,4.313-6.643l-1.865-15.726l8.179,2.509    l0.245,0.049c3.011,0.604,5.818-0.728,7.152-3.392l0.069-0.144l1.953-4.234c0.751-0.055,1.444-0.105,2.05-0.149    c-3.636,8.026-9.092,20.07-9.092,20.07l0.051-0.108c-1.29,2.676-0.619,4.767-0.104,5.774c0.51,0.999,1.791,2.751,4.636,3.262    l-0.279-0.059l15.232,3.641l-0.17-0.044c2.42,0.669,4.219,0.058,5.299-0.573c1.072-0.625,2.474-1.869,3.068-4.247l6.288-26.943    l1.011,5.099l-0.035-0.195c0.273,1.738,1.17,3.209,2.522,4.142c1.355,0.935,3.054,1.248,4.782,0.884l8.086-1.896l-2.236,13.867    c-0.54,3.967,2.015,6.577,4.816,7.105l-0.285-0.063l7.72,1.93l0.197,0.033c3.174,0.527,5.97-1.112,6.959-4.08l-0.037,0.107    l10.546-29.392c0.033,0.032,0.069,0.073,0.102,0.103c0.801,0.748,2.564,1.941,5.383,1.538c0,0,3.329-0.489,7.722-1.134    l-8.545,21.333l-0.022,0.062c-0.95,2.563-0.363,4.467,0.295,5.612c0.896,1.561,2.433,2.602,4.324,2.931l-0.171-0.033l14.207,2.988    l0.066,0.012c3.55,0.646,6.675-1.502,7.429-5.108l0.048-0.228l1.419-12.432l0.144,0.051c1.339,0.605,2.796,0.723,4.161,0.319    c1.122-0.33,2.688-1.156,3.772-3.216l0.146-0.277l9.396-24.993c0.604-1.55,0.581-3.245-0.083-4.72    c-0.67-1.486-1.947-2.641-3.598-3.248l-0.19-0.07L233.049,2.381l0.185,0.056c-2.563-0.822-4.433-0.177-5.55,0.51    c-1.535,0.942-2.55,2.516-2.856,4.43l-0.019,0.115l-0.52,4.594l-14.907-4.831l-0.328-0.06c-3.432-0.625-6.406,1.264-7.267,4.522    c-0.169-0.204-0.347-0.401-0.544-0.583c-1.275-1.174-3.02-1.733-4.91-1.575l-13.886,1.466l0.142-0.013    c-2.697,0.208-4.145,1.644-4.768,2.481c-0.561,0.754-0.918,1.617-1.075,2.539l-13.953-3.104c0.013-1.103-0.264-1.997-0.586-2.65    c-0.697-1.414-1.919-2.453-3.47-2.976l-12.505-5.101l-0.156-0.052c-2.509-0.835-4.376-0.308-5.5,0.282    c-1.511,0.791-2.62,2.181-3.125,3.911l-7.005,25.824l0.062-0.207c-0.067,0.212-0.124,0.423-0.171,0.634    c-0.746-0.132-1.604-0.151-2.586,0.03l-0.168,0.03l-3.271,0.837c3.6-5.295,6.599-9.706,6.599-9.706l-0.292,0.388    c1.026-1.232,1.57-2.678,1.57-4.136c0-0.244-0.016-0.487-0.046-0.731c-0.212-1.684-1.144-3.198-2.621-4.267l-0.178-0.128    c0,0-16.027-9.568-16.31-9.737c-2.09-1.584-4.079-1.515-5.143-1.272c-1.188,0.271-3.353,1.177-4.49,4.21l-0.06,0.16l-8.07,26.999    l0.209-5.928l-0.03,0.401c0.198-1.706-0.267-3.33-1.311-4.57c-1.051-1.25-2.595-1.993-4.346-2.092l-0.16-0.009l-0.161,0.001    l-28.325,0.228l1.272-4.044l-0.079,0.229c1.249-3.383-0.301-6.748-3.686-7.998l0.114,0.044l-5.603-2.229L52.896,9.23    c-0.046-0.013-0.088-0.018-0.134-0.028c-0.725-0.707-1.614-1.262-2.657-1.574l-7.566-2.301l0.185,0.061    c-1.829-0.635-3.686-0.502-5.229,0.374c-1.544,0.877-2.612,2.406-3.005,4.306l-1.094,5.917l-2.412,0.092l1.115-3.25    c0.81-2.432,0.289-4.244-0.288-5.345c-0.793-1.514-2.197-2.629-3.952-3.141l-0.125-0.035L12.223,0.213l-0.097-0.021    c-2.456-0.544-4.2,0.172-5.229,0.867C5.477,2.018,4.53,3.541,4.23,5.348L4.216,5.435L0.077,37.323l0.013-0.09    C-0.472,41.016,1.643,44.114,5.232,44.767z" stroke-width="1"/>
		<linearGradient id="XMLID_1_" gradientUnits="userSpaceOnUse" x1="52.5278" y1="14.7651" x2="52.5278" y2="57.7651">
			<stop offset="0.0112" style="stop-color:#FFFFFF"/>
			<stop offset="1" style="stop-color:#00A0C6"/>
			<a:midPointStop offset="0.0112" style="stop-color:#FFFFFF"/>
			<a:midPointStop offset="0.5" style="stop-color:#FFFFFF"/>
			<a:midPointStop offset="1" style="stop-color:#00A0C6"/>
		</linearGradient>
		<path style="fill:url(#XMLID_1_);" d="M48.246,26.072l4.794,1.335c1.012,0.283,1.639-0.04,1.882-0.971l2.73-8.679    c0.283-0.768,0.04-1.294-0.729-1.578l-5.34-2.124c-0.891-0.242-1.437,0.062-1.639,0.911l-2.549,9.527    C47.113,25.384,47.396,25.911,48.246,26.072z" stroke-width="1"/>
		<linearGradient id="XMLID_2_" gradientUnits="userSpaceOnUse" x1="27.2837" y1="14.7651" x2="27.2837" y2="57.7651">
			<stop offset="0.0112" style="stop-color:#FFFFFF"/>
			<stop offset="1" style="stop-color:#00A0C6"/>
			<a:midPointStop offset="0.0112" style="stop-color:#FFFFFF"/>
			<a:midPointStop offset="0.5" style="stop-color:#FFFFFF"/>
			<a:midPointStop offset="1" style="stop-color:#00A0C6"/>
		</linearGradient>
		<path style="fill:url(#XMLID_2_);" d="M48.67,12.417l-7.586-2.307c-0.932-0.323-1.498,0-1.699,0.971l-1.801,9.745l-13.696,0.524    l3.48-10.147c0.363-1.092,0.061-1.78-0.91-2.063L11.043,5.074c-1.093-0.242-1.72,0.122-1.881,1.093l-4.127,31.8    c-0.162,1.093,0.201,1.72,1.092,1.882l9.407,1.699c0.809,0.162,1.396-0.161,1.76-0.971l2.274-6.632l9.101,2.07l-8.523,22.161    c-0.405,1.254-0.102,1.962,0.91,2.124l12.927,2.488c1.133,0.201,1.8-0.224,2.002-1.274l3.104-23.128l3.754,0.854    c1.092,0.365,1.699,0.041,1.82-0.971l1.399-13.043c0.138-0.151,0.249-0.341,0.3-0.611l3.096-10.561    C49.743,13.206,49.479,12.66,48.67,12.417z" stroke-width="1"/>
		<linearGradient id="XMLID_3_" gradientUnits="userSpaceOnUse" x1="74.2998" y1="14.7651" x2="74.2998" y2="57.7651">
			<stop offset="0.0112" style="stop-color:#FFFFFF"/>
			<stop offset="1" style="stop-color:#00A0C6"/>
			<a:midPointStop offset="0.0112" style="stop-color:#FFFFFF"/>
			<a:midPointStop offset="0.5" style="stop-color:#FFFFFF"/>
			<a:midPointStop offset="1" style="stop-color:#00A0C6"/>
		</linearGradient>
		<path style="fill:url(#XMLID_3_);" d="M90.12,39.484l0.364-10.317c0.08-0.688-0.243-1.051-0.971-1.092l-30.162,0.242    c-0.972,0.041-1.376,0.527-1.214,1.457l2.245,14.505c0.162,0.809,0.606,1.152,1.335,1.031l27.371-4.794    C89.776,40.435,90.12,40.091,90.12,39.484z" stroke-width="1"/>
		<linearGradient id="XMLID_4_" gradientUnits="userSpaceOnUse" x1="112.7412" y1="14.7651" x2="112.7412" y2="57.7651">
			<stop offset="0.0112" style="stop-color:#FFFFFF"/>
			<stop offset="1" style="stop-color:#00A0C6"/>
			<a:midPointStop offset="0.0112" style="stop-color:#FFFFFF"/>
			<a:midPointStop offset="0.5" style="stop-color:#FFFFFF"/>
			<a:midPointStop offset="1" style="stop-color:#00A0C6"/>
		</linearGradient>
		<path style="fill:url(#XMLID_4_);" d="M123.135,58.904c0.283,0.647,0.728,0.87,1.335,0.668l7.344-1.699    c0.566-0.162,0.809-0.567,0.728-1.214l-2.124-17.903c-0.081-1.011-0.668-1.415-1.76-1.214l-12.805,3.277    c-0.891,0.243-1.174,0.789-0.85,1.639l2.83,5.724l-9.87,0.467l18.813-27.674c0.606-0.729,0.546-1.355-0.183-1.882l-16.265-9.71    c-1.012-0.971-1.76-0.809-2.245,0.485l-14.93,49.947c-0.445,1.133-0.242,1.638,0.607,1.517l27.948-5.309L123.135,58.904z" stroke-width="1"/>
		<linearGradient id="XMLID_5_" gradientUnits="userSpaceOnUse" x1="156.624" y1="14.7651" x2="156.624" y2="57.7651">
			<stop offset="0.0112" style="stop-color:#FFFFFF"/>
			<stop offset="1" style="stop-color:#00A0C6"/>
			<a:midPointStop offset="0.0112" style="stop-color:#FFFFFF"/>
			<a:midPointStop offset="0.5" style="stop-color:#FFFFFF"/>
			<a:midPointStop offset="1" style="stop-color:#00A0C6"/>
		</linearGradient>
		<path style="fill:url(#XMLID_5_);" d="M157.605,13.692c0.404-0.931,0.201-1.497-0.607-1.699l-12.501-5.099    c-1.215-0.404-1.963-0.121-2.246,0.85l-6.979,25.732c-0.283,0.891-0.062,1.457,0.667,1.699l9.104,2.791    c0.809,0.162,1.375-0.08,1.699-0.728l3.188-6.911l13.38-0.979l-12.563,27.734c-0.526,1.092-0.223,1.739,0.91,1.942l15.232,3.641    c1.173,0.324,1.901-0.081,2.185-1.214l8.922-38.233c0.283-1.011-0.041-1.678-0.972-2.002l-20.761-4.619L157.605,13.692z" stroke-width="1"/>
		<linearGradient id="XMLID_6_" gradientUnits="userSpaceOnUse" x1="189.9277" y1="14.7651" x2="189.9277" y2="57.7651">
			<stop offset="0.0112" style="stop-color:#FFFFFF"/>
			<stop offset="1" style="stop-color:#00A0C6"/>
			<a:midPointStop offset="0.0112" style="stop-color:#FFFFFF"/>
			<a:midPointStop offset="0.5" style="stop-color:#FFFFFF"/>
			<a:midPointStop offset="1" style="stop-color:#00A0C6"/>
		</linearGradient>
		<path style="fill:url(#XMLID_6_);" d="M197.113,37.603l1.093-21.787c0-0.931-0.486-1.355-1.457-1.274l-13.776,1.456    c-1.053,0.081-1.478,0.587-1.274,1.518l4.431,22.333c0.121,0.77,0.565,1.072,1.335,0.91l8.8-2.063    C196.83,38.534,197.113,38.169,197.113,37.603z" stroke-width="1"/>
		<linearGradient id="XMLID_7_" gradientUnits="userSpaceOnUse" x1="211.7432" y1="14.7651" x2="211.7432" y2="57.7651">
			<stop offset="0.0112" style="stop-color:#FFFFFF"/>
			<stop offset="1" style="stop-color:#00A0C6"/>
			<a:midPointStop offset="0.0112" style="stop-color:#FFFFFF"/>
			<a:midPointStop offset="0.5" style="stop-color:#FFFFFF"/>
			<a:midPointStop offset="1" style="stop-color:#00A0C6"/>
		</linearGradient>
		<path style="fill:url(#XMLID_7_);" d="M208.158,12.114c-0.891-0.162-1.416,0.182-1.577,1.031l-7.283,45.152    c-0.121,0.89,0.142,1.396,0.789,1.518l7.525,1.881c0.729,0.121,1.193-0.122,1.396-0.729l15.111-42.117    c0.242-0.85,0.04-1.436-0.606-1.76L208.158,12.114z" stroke-width="1"/>
		<linearGradient id="XMLID_8_" gradientUnits="userSpaceOnUse" x1="248.5088" y1="14.7651" x2="248.5088" y2="57.7651">
			<stop offset="0.0112" style="stop-color:#FFFFFF"/>
			<stop offset="1" style="stop-color:#00A0C6"/>
			<a:midPointStop offset="0.0112" style="stop-color:#FFFFFF"/>
			<a:midPointStop offset="0.5" style="stop-color:#FFFFFF"/>
			<a:midPointStop offset="1" style="stop-color:#00A0C6"/>
		</linearGradient>
		<path style="fill:url(#XMLID_8_);" d="M252.098,32.383l-7.344-0.061c-1.012,0.041-1.639,0.506-1.881,1.396l-9.286,23.184    c-0.404,1.092-0.142,1.719,0.789,1.881l14.141,2.974c0.89,0.162,1.436-0.243,1.639-1.214l2.107-18.466l6.328,2.263    c0.646,0.364,1.173,0.162,1.578-0.607l9.285-24.7c0.283-0.728,0.04-1.233-0.729-1.517l-37.02-10.317    c-1.133-0.363-1.78-0.04-1.942,0.971l-2.306,20.392c-0.081,1.093,0.445,1.558,1.578,1.396l27.674-4.065l-3.599,7.044    C252.947,32.601,252.623,32.407,252.098,32.383z" stroke-width="1"/>
	</g>
</svg>